<svg width="12" height="12" viewBox="0 0 12 12" xmlns="http://www.w3.org/2000/svg" xmlns:xlink="http://www.w3.org/1999/xlink"><defs><path id="a" d="M0 11.999h11.996V.004H0z"/></defs><g fill="none" fill-rule="evenodd"><mask id="b" fill="#fff"><use xlink:href="#a"/></mask><path d="M5.998.004c1.63 0 1.833.007 2.473.036.639.029 1.075.13 1.456.279a2.94 2.94 0 0 1 1.063.692c.333.333.538.667.691 1.062.149.381.25.817.28 1.456.028.64.035.844.035 2.473s-.007 1.833-.036 2.473c-.029.638-.13 1.074-.279 1.456a2.94 2.94 0 0 1-.691 1.062 2.94 2.94 0 0 1-1.063.692c-.381.148-.817.25-1.456.279-.64.03-.844.036-2.473.036s-1.833-.007-2.473-.036c-.638-.03-1.074-.13-1.456-.279a2.94 2.94 0 0 1-1.062-.692 2.94 2.94 0 0 1-.692-1.062c-.148-.382-.25-.818-.279-1.456C.006 7.835 0 7.63 0 6.002c0-1.63.007-1.833.036-2.473.03-.639.13-1.075.279-1.456a2.94 2.94 0 0 1 .692-1.063A2.94 2.94 0 0 1 2.069.32c.382-.149.818-.25 1.456-.28.64-.028.844-.035 2.473-.035zm0 8.332a2.334 2.334 0 1 0 0-4.668 2.334 2.334 0 0 0 0 4.668zM9.2 3.52a.72.72 0 1 0 0-1.44.72.72 0 0 0 0 1.44z" fill="#001D22" mask="url(#b)"/></g></svg>
