<svg width="14" height="13" viewBox="0 0 14 13" xmlns="http://www.w3.org/2000/svg"><path d="M.353 4.169h2.729V13H.352V4.169zm10.184-.085c1.94 0 3.463 1.27 3.463 4.006V13h-3.094V8.43c0-1.196-.484-2.013-1.549-2.013-.814 0-1.266.551-1.477 1.082-.079.191-.067.457-.067.722V13H4.748s.04-8.095 0-8.831h3.065v1.386c.181-.606 1.16-1.471 2.724-1.471zM1.667 0c1.007 0 1.626.66 1.645 1.53 0 .857-.638 1.534-1.664 1.534h-.02C.641 3.064 0 2.39 0 1.534 0 .66.66 0 1.667 0z" fill="#001D22" fill-rule="evenodd"/></svg>
