<svg width="14" height="10" viewBox="0 0 14 10" xmlns="http://www.w3.org/2000/svg" xmlns:xlink="http://www.w3.org/1999/xlink"><title>BCBCF26B-F80C-4C34-BFFE-5D84F008028B</title><defs><path id="a" d="M0 0v10h13.91V0z"/></defs><g fill="none" fill-rule="evenodd"><mask id="b" fill="#fff"><use xlink:href="#a"/></mask><path d="M13.67 1.609C13.5.845 12.894.283 12.166.199 10.44 0 8.696-.001 6.957 0 5.22 0 3.473 0 1.747.2 1.02.283.416.845.246 1.609.003 2.695 0 3.881 0 5c0 1.119 0 2.305.243 3.391.17.763.774 1.327 1.503 1.41 1.725.199 3.47.2 5.208.199 1.74.001 3.485 0 5.21-.198.727-.084 1.333-.648 1.503-1.41.243-1.087.243-2.273.243-3.392 0-1.119.002-2.305-.24-3.391zM5 7.194V3l4.422 2.103L5 7.193z" fill="#001D22" mask="url(#b)"/></g></svg>