<!-- Generated by IcoMoon.io -->
<svg version="1.1" xmlns="http://www.w3.org/2000/svg" width="16" height="15" viewBox="0 0 36 32">
<title>analysis</title>
<path d="M0 27h36v5h-36v-5z"></path>
<path d="M6 24h3c0.828 0 1.5-0.672 1.5-1.5v-13.5c0-0.828-0.672-1.5-1.5-1.5h-3c-0.828 0-1.5 0.672-1.5 1.5v13.5c0 0.828 0.672 1.5 1.5 1.5z"></path>
<path d="M16.5 24h3c0.828 0 1.5-0.672 1.5-1.5v-21c0-0.828-0.672-1.5-1.5-1.5h-3c-0.828 0-1.5 0.672-1.5 1.5v21c0 0.828 0.672 1.5 1.5 1.5z"></path>
<path d="M25.5 15v7.5c0 0.828 0.672 1.5 1.5 1.5h3c0.828 0 1.5-0.672 1.5-1.5v-7.5c0-0.828-0.672-1.5-1.5-1.5h-3c-0.828 0-1.5 0.672-1.5 1.5z"></path>
</svg>
