<svg width="721" height="513" viewBox="0 0 721 513" xmlns="http://www.w3.org/2000/svg"><title>566792AD-8672-46F9-B1DF-11BD2A6E4726</title><g fill="none" fill-rule="evenodd"><path stroke="#FFF" stroke-width=".5" fill="#2F939C" opacity=".5" d="M715.573 301.428l-8.98 6.413-9.484 6.332-4.76 2.813-2.245 1.014-1.456-3.776-1.996-4.921-1.572-2.028-2.735.419-7.05-1.256-5.827-2.63-1.602-2.123-3.122-3.614-3.78-2.24-3.54 2.387-3.832 2.512-2.764-.955-2.186-3.496-2.362-3.945-1.28-2.931 1.572-4.393 1.134-3.467-1.075-.837-.753-.302-.154-.367.585-.977.863-2.46.768-2.197.6-.962.833-1.132.855-1.792.863-2.182.834-2.093-.49-1.271-.088-.536-.044-1.11-.212-1.836-.548-1.822-.98-1.49 2.72-4.306 1.872-4.458-1.309-2.212-1.009-1.101-2.332-.94-2.114-2.153-.548-2.799 1.755-3.511 2.464-1.535 1.25-.184 1.639-.536 1.813-.566.68-.521 1.309 1.116 2.764 1.227 1.784.984 1.507 1.587 2.062.566 1.038-1.242 1.338-1.777 2.472-.265 1.77.22.804.258.965.235 1.711.33 1.887.419 1.66.521 2.589.551 2.318.213.833.03.98.176.702 1.08 1.726 1.476 2.004 1.484 1.652.867 3.079 1.344 3.495 1.242 3.517-1.007 3.035-4.003 1.945-3.004 2.187-2.748 1.872-2.615 1.952 2.777 2.274 5.23 1.902 10.431.862 10.431.176 3.35 1.565 1.792 4.146 1.763 3.927 1.88 1.353 2.44.102 5.678-.592 4.738-1.697 1.719-1.784 2.196.19 3.989-1.097 4.165-1.96 2.813-.373 1.535-2.113.316z"/><path stroke="#FFF" stroke-width=".5" fill="#2F939C" opacity=".3" d="M598.755 450l-2.5-.742-2.655-1.675-2.603-3.107-1.726-5.708-2.377-1.403-1.996.713-6.12 3.739-3.423.778-6.983-1.256-4.82-2.512-4.445-3.225-5.93-3.35-5.353-1.461-6.04-.448-11.562.624-11.297-4.033-11.481-8.3-9.901-10.373-5.543-8.77 1.25-1.793 5.148-7.037 6.94-8.19 6.201-2.146 5.44-1.733 2.348.059 1.901.764 1.148-.706 1.528-.477 4.673-2.197 5.33-2.659 5.814.33 5.653-.403 1.185-8.756.402-11.849-.117-8.382-.359-6.302 3.584-4.334 3.093-2.358 1.71.521 3.284.463 3.21-.602 4.732-3.152 5.396-1.983 3.598.669 2.216-.36 1.023-2.674 2.962-4.628 3.832-5.737 3.393-5.26 4.014-3.827 1.44-4.15 5.456-3.497 7.86-2.688 5.551.058 5.704 1.044 5.024-.118 3.48-1.05 1.982-1.433 2.289-1.197 2.12-1.447 1.814-1.72 2.355-2.357 2.764-2.99 2.793-1.91 2.289-.448.76-.514.754.301 1.074.837-1.133 3.468-1.572 4.392 1.28 2.931 2.361 3.945 2.187 3.497 2.764.955 3.832-2.513 3.539-2.387 3.78 2.24 3.123 3.614 1.601 2.123 5.828 2.63 7.05 1.256 2.735-.418 1.572 2.027 1.996 4.922 1.455 3.775 2.245-1.013 4.76-2.814 9.485-6.332 8.98-6.413 4.709-1.564 2.113-.316 1.141.837 2.04 2.167 2.465 1.705 1.638.984-.088 4.407-2.23 8.874-2.977 9.924-1.023 6.068 1.096 3.21.966 3.313-1.69 3.886-4.102 4.466-5.594 6.978-5.214 6.817-3.751 3.974-2.837 5.135-2.216 5.891-1.207 6.465 1.521 4.855 2.29 2.064.116 1.33-1.572.852h-2.815l-3.43-1.212-2.603-.793-.212 2.659-.724 4.451-1.221 2.718-2.48 5.443-2.515 4.702-3.21 4.87-3.627 6.097-1.872 1.506-1.594 2.182-.907 2.945-1.616 1.286-.833.22-1.207.632-1.506-.8-3.744-3.887-2.618-6.302-2.97-.632-19.538-10.872-6.318-2.365-6.048-.654-5.623 1.616-4.936 4.628-2.793 6.126-.68 11.893-1.28 6.06-8.087 11.805-3.152 1.609z"/><path stroke="#FFF" stroke-width=".5" fill="#2F939C" opacity=".7" d="M509.255 14.67l5.47 1.851 5.382 3.438 6.303.838 2.969-.118 2.289.896 2.142 1.315 8.563 3.115 2.055-.125 3.079-1.021 11.963-3.974 5.426-.838 6.442.808 2.793 1.705 1.244 2.695.957 6.068 2.136 2.689 3.305.036 6.42-1.946 7.152-.213 5.813 1.109 5.412 3.203 5.886 6.008 3.832 5.23 3.51 5.98 2.735 6.31 1.55 6.369.132 3.225 1.206 29.662 6.223 21.86-2.062 22.237 1.872 14.801-.03 2.689.834 1.616 2.94.088 2.303-1.315 1.975-1.704.68.786.38.83.33.713.687 5.546 1.023 5.42.103.537.153.455 3.43 10.042 1.594 14.192-.475 9.601 3.093 6.002 4.278 4.708 1.9 3.511.03 3.335.015 5.245.343 2.8-.68.52-1.813.566-1.638.536-1.25.184-2.465 1.535-1.755 3.512.549 2.798 2.113 2.153 2.333.94 1.009 1.102 1.309 2.21-1.872 4.46-2.72 4.304.98 1.492.548 1.821.212 1.837.044 1.109.087.536.49 1.271-.833 2.094-.863 2.181-.856 1.793-.833 1.13-.6.963-.768 2.197-.863 2.46-.585.977.154.368-.76.514-2.29.448-2.793 1.91-2.764 2.99-2.354 2.358-1.814 1.719-2.12 1.447-2.29 1.197-1.981 1.432-3.48 1.05-5.025.118-5.703-1.043-5.55-.058-7.861 2.688-5.456 3.497-1.44 4.15-4.015 3.827-3.393 5.26-3.831 5.737-2.962 4.628-1.024 2.673-2.215.36-3.598-.668-5.397 1.983-4.731 3.152-3.21.602-3.284-.463-1.71-.521.745-1.05.834-2.924 1.097-5.245.965-9.719-.79-8.05-.95-3.343-.088-3.497 1.367-7.118.805-7.676-1.485-3.71-1.119-2.24.074-3.21 1.104-3.232 1.28-2.358-.673-3.034-2.633-2.373-3.327-1.065-4.329.198h-2.925l1.294-2.916 1.024-6.369-.285-6.111 1.016-3.24.841-1.94-.322-2.423-.24-2.512-.462-2.689-1.988-3.078-1.412-2.035-.716-1.403-1.053-1.821-.015-2.153-1.638-4.003-2.633-4.863-.307-2.938.841-1.793 1.075-3.996.103-3.96-2.348-1.255-3.078-1.866-1.975-1.124-2.354-.683-2.106-.838-1.814.706-1.55.55-1.185-1.704-1.667-1.763-3.67-2.306-3.138-2.777-3.839-2.152-7.152-5.62-4.19-4.378-1.755.257-3.4-.154-4.98-.118-5.813-.955-5.353-4.054-3.656-1.66-3.247.991-4.263-.661-4.358-2.24-2.91-3.497-.776-3.915 1.901-4.753 1.967-4.04-.24-2.66-2.882-4.583-2.428-3.908.849-2.718.862-3.254-1.17-2.637-5.908-3.254-6.062-3.262-2.501-3.673-1.309-3.798.27-1.946 3.481-1.895 5.353-1.69 3.861-1.778 2.384-3.217.622-4.393 1.725-3.607 2.172-2.88 1.426-2.842 1.185-1.807-.549-2.828-.344-2.674.388-2.035 1.44-2.167 3.364-4.966-.95-10.43-4.059-7.28-2.632-1.396-1.44-.433-5.441-2.88.066-.264 6.244-5.892 1.755-3.592-.621-3.29-3.985-4.9-.98-3.02.65-3.349 2.677-6.009.344-3.621 2.544-5.502 7.072.653 12.416 5.414 5.155.603 5.558-1.043 10.413-1.947z"/><path stroke="#FFF" stroke-width=".5" fill="#2F939C" opacity=".5" d="M394.434 225.913l-8.98-6.413-9.484-6.332-4.76-2.814-2.245-1.013-1.455 3.775-1.996 4.922-1.573 2.027-2.735-.418-7.049 1.256-5.828 2.63-1.601 2.123-3.123 3.614-3.78 2.24-3.54-2.387-3.831-2.512-2.764.955-2.187 3.496-2.362 3.945-1.28 2.93 1.573 4.394 1.133 3.467-1.075.837-.753.301-.154.368.585.977.863 2.46.768 2.197.6.962.833 1.131.856 1.793.863 2.181.833 2.094-.49 1.27-.087.537-.044 1.11-.212 1.836-.549 1.821-.98 1.492 2.72 4.304 1.873 4.46-1.31 2.21-1.008 1.102-2.333.94-2.113 2.153-.549 2.798 1.755 3.512 2.465 1.535 1.25.184 1.638.536 1.813.565.68.522 1.31-1.117 2.764-1.226 1.784-.985 1.506-1.586 2.062-.566 1.039 1.241 1.338 1.778 2.472.265 1.77-.22.804-.258.965-.235 1.71-.33 1.888-.42 1.66-.52 2.588-.552 2.318-.213.834-.03.98-.175.702-1.08 1.725-1.477 2.004-1.484 1.653-.866 3.078-1.345 3.496-1.241 3.517 1.006 3.035 4.004 1.945 3.004 2.186 2.747 1.872 2.616 1.953-2.777 2.274-5.23 1.901-10.431.863-10.431.175-3.35 1.565-1.792 4.147-1.763 3.926-1.88 1.353-2.44.103-5.678-.593-4.738-1.696-1.719-1.785-2.196.19-3.989-1.096-4.165-1.96-2.814-.373-1.535-2.113-.316z"/><path stroke="#FFF" stroke-width=".5" fill="#2F939C" opacity=".3" d="M279.833 77.653l-2.552-.382-2.501.742-2.654 1.675-2.604 3.107-1.725 5.708-2.377 1.403-1.996-.713-6.12-3.739-3.423-.778-6.984 1.256-4.819 2.512-4.446 3.225-5.93 3.35-5.353 1.461-6.04.448-11.56-.624-11.299 4.033-11.48 8.3-9.901 10.373-5.543 8.77 1.25 1.793 5.148 7.037 6.94 8.19 6.2 2.146 5.441 1.733 2.347-.058 1.902-.764 1.148.705 1.528.477 4.673 2.197 5.33 2.659 5.814-.33 5.653.403 1.184 8.756.402 11.85-.117 8.38-.358 6.303 3.583 4.334 3.093 2.358 1.712-.521 3.283-.463 3.21.602 4.731 3.152 5.397 1.983 3.598-.668 2.215.36 1.024 2.673 2.962 4.628 3.831 5.737 3.393 5.26 4.015 3.827 1.44 4.15 5.456 3.497 7.86 2.688 5.55-.058 5.704-1.043 5.024.117 3.48 1.05 1.983 1.433 2.288 1.197 2.121 1.447 1.814 1.72 2.354 2.357 2.764 2.99 2.794 1.91 2.288.448.761.514.753-.3 1.075-.838-1.133-3.467-1.573-4.393 1.28-2.931 2.362-3.945 2.187-3.496 2.764-.955 3.831 2.512 3.54 2.387 3.78-2.24 3.123-3.614 1.601-2.123 5.828-2.63 7.05-1.256 2.734.418 1.573-2.027 1.996-4.922 1.455-3.775 2.245 1.013 4.76 2.814 9.485 6.332 8.98 6.413 4.709 1.564 2.113.316 1.14-.837 2.04-2.167 2.465-1.704 1.638-.985-.088-4.407-2.23-8.874-2.976-9.924-1.024-6.068 1.097-3.21.965-3.313-1.689-3.886-4.102-4.466-5.594-6.978-5.214-6.817-3.751-3.974-2.838-5.135-2.215-5.891-1.207-6.464 1.521-4.856 2.289-2.064.117-1.33-1.572-.852h-2.815l-3.43 1.212-2.603.793-.212-2.659-.724-4.451-1.221-2.718-2.48-5.443-2.515-4.702-3.21-4.87-3.627-6.097-1.872-1.506-1.594-2.181-.907-2.946-1.616-1.286-.834-.22-1.206-.632h-.008l-1.499.801-3.744 3.886-2.617 6.303-2.97.631-19.538 10.872-6.318 2.365-6.048.654-5.623-1.616-4.936-4.628-2.793-6.126-.68-11.893-1.28-6.06-8.088-11.805-3.151-1.609z"/><path stroke="#FFF" stroke-width=".5" fill="#2F939C" d="M458.368 1l-3.913.536-3.773 1.704-4.519 1.14-4.848-.633-4.907-1.432-4.753-.72-4.402 1.587-2.42 4.12-1.858 11.952-1.492 4.393-1.755 1.462-4.811 2.182-1.046.859-.98.815-.833 1.727-.637 4.157-.548 1.91-3.093 5.23-3.766 4.841-12.797 12.216-4.446 2.66-2.128.624-2.289.183-2.289.39-2.26 1.344-2.047 3.937-1.755 11.21-1.491 4.385-3.116 2.931-11.75 4.599-8.49 4.576h.007l1.206.632.834.22 1.616 1.286.907 2.946 1.594 2.181 1.872 1.506 3.627 6.097 3.21 4.87 2.516 4.702 2.478 5.443 1.222 2.718.724 4.451.212 2.66 2.603-.794 3.43-1.212h2.815l1.572.852-.117 1.33-2.289 2.064-1.52 4.856 1.206 6.464 2.215 5.891 2.838 5.135 3.751 3.974 5.214 6.817 5.594 6.978 4.102 4.466 1.69 3.886-.966 3.313-1.097 3.21 1.024 6.068 2.976 9.924 2.23 8.874.088 4.407-1.638.985-2.464 1.704-2.04 2.167-1.141.837.373 1.535 1.96 2.814 1.097 4.165-.19 3.989 1.784 2.196 1.696 1.719.593 4.738-.103 5.678-1.353 2.44-3.926 1.88-4.147 1.763-1.565 1.792-.175 3.35-.863 10.43-1.901 10.432-2.274 5.23-1.953 2.777-1.872-2.616-2.186-2.747-1.945-3.004-3.035-4.004-3.517-1.006-3.496 1.241-3.078 1.345-1.653.866-2.004 1.484-1.725 1.477-.702 1.08-.98.176-.834.03-2.318.212-2.588.551-1.66.522-1.887.418-1.711.331-.965.235-.805.257-1.77.22-2.471-.264-1.338-1.778-1.039-1.241-2.062.566-1.506 1.586-1.784.985-2.764 1.226-1.31 1.117-.343 2.799-.015 5.245-.029 3.335-1.901 3.51-4.278 4.71-3.093 6 .475 9.602-1.594 14.192-3.43 10.042-.153.455-.103.536-1.023 5.421-.688 5.546-.329.713-.38.83-.68.786.497.433 5.068 4.379 2.23.33 2.428-.242 2.764.095 3.283 1.16 3.51 2.726 8.921 10.607 4.724 4.158 6.004 4.004 6.603 2.57 6.42-.205 4.907-3.409 12.994-16.38.593-2.035.153-2.718 1.024-1.947 3.342.33 8.98 4.393 3.568.808 4.644-.205 5.499-1.139 5.41-1.763 4.132-2.123 3.7-3.438 1.324-1.748 1.192-1.572 2.808-2.63 4.622-1.373 1.396.72 9.104 2.181.98-.36 1.368 1.587 1.484 4.062 1.653 2.27 15.62 12.885 9.579 4.517 9.455.36 5.557-3.29 6.128.778 6.245 1.792 6.018-.33 3.225-2.718 4.102-7.772 3.305-2.6 3.715-.507 3.093.984 15.013 7.441 2.347.566 2.618-.713 2.084-1.197 4.015-.984 4.438-2.571 4.834-2.153 3.744-2.725 2.976-5.406 1.221-5.892-1.22-19.79 2.5-12.73 9.901-32.189-2.413-8.403-3.078-4.18-4.38-4.422-5.193-2.6-5.382 1.16 3.796-16.822-.863-7.654-8.622-1.374 1.426-2.328 1.755-1.88 4.666-3.681-2.201-5.171 1.623-4.452 2.925-4.334 1.58-4.9-2.29-11.591-1.016-3.049 3.305-7.948-.716-2.659-2.56-3.945-.65-1.498.087-3.107 3.715-22.794.241-7.442-2.098-6.126-6.837 2.63-4.505-3.556-2.764-6.515-2.793-10.402-1.28-2.21-3.569-3.82-4.76-6.399-1.704-3.76 1.528-1.676.893-3.408.533-7.522-1.63-7.56-5.594-3.407-5.646-.809-19.005-7.08-2.64-1.617-4.314-4.12-3.035-2.153-8.475-3.526-3.715-2.806-1.543-4.628.293-2.152.687-1.705.651-1.256.285-.896-.577-2.358-2.677-3.497-1.696-5.883-5.236-8.727-1.748-4.21-1.133-7.47-1.221-1.792-3.54-2.571-1.184.33-1.872 1.014-2.289.36-2.53-1.704-.475-1.727.775-1.733 1.082-1.646.607-1.704-.95-3.945-4.19-2.894-.951-3.107.906-3.254 2.216-3.166L465.9 3.35l-3.152-.985z"/><path stroke="#FFF" stroke-width=".5" fill="#2F939C" opacity=".3" d="M171.36 129.735l-1.251-1.793-.965 1.535-.6.625-1.353.602-21.981.896-4.52 1.91-3.334 4.305-7.875 16.315-2.918 3.79-13.886 11.562-3.474 5.113-6.07 11.562-7.363 11.85-10.742 17.254-5.411 12.73-1.426 10.343.621 10.578 7.642 45.397.592 10.402-1.66 12.076-4.519 13.693-7.195 11.268-9.901 7.86-12.805 3.408-8.277-.271-2.435.866-2.962 2.777-.344 2.512-.98 3.108-2.171 4.304-3.328 5.238-4.087 4.18-4.98 2.96-6.011 1.763-7.73 2.696-4.043 3.496-2.157 7.589.585 6.192 1.067 5.737 2.918 5.23 1.01 3.534-4.995 4.48L1 423.206l1.075 3.71 2.552 1.763 3.232 1.55 2.954 3.026 1.93 6.722-1.93 22.096 2.23 2.306 10.735 7.052 3.832 1.528 8.6.926 5.9 2.93 4.381 4.937 4.95-28.95 6.53-6.427 16.739-1.102 4.68.683 17.47 7.654 6.427 1.976 12.139 1.528 6.084 1.462 5.265 3.02 3.503 2.629.212 1.352-.373 3.408.987 3.915 5.44-2.88 1.441-.433 2.633-1.395 4.058-7.28.95-10.43-3.363-4.967-1.44-2.167-.388-2.034.343-2.674.549-2.828-1.185-1.807-1.426-2.843-2.172-2.88-1.725-3.607-.622-4.392-2.384-3.218-3.86-1.777-5.353-1.69-3.481-1.895-.27-1.947 1.308-3.798 2.501-3.672 6.062-3.262 5.909-3.254 1.17-2.637-.863-3.254-.849-2.718 2.428-3.908 2.881-4.584.242-2.66-1.967-4.04-1.902-4.752.775-3.915 2.91-3.497 4.36-2.24 4.262-.662 3.247.992 3.656-1.66 5.353-4.055 5.814-.955 4.98-.117 3.4-.155 1.755.257 4.19-4.378 7.151-5.62 3.84-2.151 3.136-2.777 3.671-2.307 1.668-1.763 1.184-1.704 1.55.551 1.814.705 2.106-.837 2.355-.683 1.974-1.124 3.079-1.866 2.347-1.256-.103-3.96-1.075-3.996-.84-1.792.307-2.938 2.632-4.863 1.638-4.004.015-2.152 1.053-1.822.716-1.403 1.412-2.035 1.989-3.078.46-2.688.242-2.512.321-2.424-.84-1.94-1.017-3.24.285-6.11-1.023-6.37-1.295-2.916h2.925l4.33.198 3.326-1.065 2.633-2.372.673-3.034-1.28-2.358-1.104-3.232-.073-3.21 1.119-2.24 1.484-3.71-.804-7.677-1.368-7.118.088-3.496.95-3.343.79-8.05-.965-9.72-1.097-5.244-.833-2.924-.746-1.05-3.094-2.358-3.583-4.334.359-6.303.117-8.381-.403-11.849-1.184-8.756-5.653-.404-5.813.33-5.331-2.659-4.673-2.196-1.528-.478-1.148-.705-1.901.764-2.348.059-5.44-1.734-6.201-2.145-6.94-8.19z"/><path stroke="#FFF" stroke-width=".5" fill="#2F939C" opacity=".7" d="M187.52 512.295l5.47-1.851 5.382-3.438 6.303-.838 2.969.118 2.289-.896 2.142-1.315 8.563-3.115 2.055.125 3.079 1.021 11.963 3.974 5.426.838 6.442-.808 2.793-1.705 1.244-2.695.958-6.068 2.135-2.689 3.305-.036 6.42 1.946 7.152.213 5.813-1.109 5.412-3.203 5.886-6.008 3.832-5.23 3.51-5.98 2.735-6.31 1.55-6.369.132-3.225 1.206-29.662 6.223-21.86-2.062-22.237 1.872-14.801-.03-2.689.834-1.616 2.94-.088 2.304 1.315 1.974 1.704.68-.786.38-.83.33-.713.687-5.546 1.023-5.42.103-.537.153-.455 3.43-10.042 1.594-14.192-.475-9.601 3.093-6.002 4.278-4.708 1.901-3.511.03-3.335.014-5.245.344-2.8-.68-.52-1.814-.566-1.638-.536-1.25-.184-2.465-1.535-1.755-3.512.549-2.798 2.113-2.153 2.333-.94 1.009-1.102 1.309-2.21-1.872-4.46-2.72-4.304.98-1.492.548-1.821.212-1.837.044-1.109.087-.536.49-1.271-.833-2.094-.863-2.181-.856-1.793-.833-1.13-.6-.963-.768-2.197-.863-2.46-.585-.977.154-.368-.76-.514-2.29-.448-2.793-1.91-2.764-2.99-2.354-2.358-1.814-1.719-2.12-1.447-2.29-1.197-1.981-1.432-3.48-1.05-5.025-.118-5.703 1.043-5.55.058-7.861-2.688-5.456-3.497-1.44-4.15-4.015-3.827-3.393-5.26-3.831-5.737-2.962-4.628-1.024-2.673-2.215-.36-3.598.668-5.397-1.983-4.73-3.152-3.211-.602-3.283.463-1.712.521.746 1.05.834 2.924 1.097 5.245.965 9.719-.79 8.05-.95 3.343-.088 3.497 1.367 7.118.805 7.676-1.485 3.71-1.118 2.24.073 3.21 1.104 3.232 1.28 2.358-.673 3.034-2.633 2.373-3.327 1.065-4.329-.198h-2.925l1.294 2.916 1.024 6.369-.285 6.111 1.016 3.24.841 1.939-.321 2.424-.242 2.512-.46 2.689-1.99 3.078-1.41 2.035-.717 1.403-1.053 1.821-.015 2.153-1.638 4.003-2.632 4.863-.308 2.938.841 1.793 1.075 3.996.103 3.96-2.348 1.255-3.078 1.866-1.975 1.124-2.354.683-2.106.838-1.814-.706-1.55-.55-1.185 1.704-1.667 1.763-3.67 2.306-3.138 2.777-3.839 2.152-7.151 5.62-4.19 4.378-1.756-.257-3.4.154-4.98.118-5.813.955-5.353 4.054-3.656 1.66-3.247-.991-4.263.661-4.358 2.24-2.91 3.497-.776 3.915 1.901 4.753 1.968 4.04-.242 2.66-2.88 4.583-2.429 3.908.849 2.718.862 3.254-1.17 2.637-5.908 3.254-6.062 3.262-2.501 3.673-1.309 3.798.27 1.946 3.481 1.895 5.353 1.69 3.861 1.778 2.384 3.217.622 4.393 1.725 3.607 2.172 2.88 1.426 2.842 1.185 1.807-.549 2.828-.343 2.674.387 2.035 1.44 2.167 3.364 4.966-.95 10.43-4.059 7.28-2.632 1.396-1.44.433-5.441 2.88.066.264 6.245 5.892 1.755 3.592-.622 3.29-3.985 4.9-.98 3.02.65 3.349 2.677 6.009.344 3.621 2.544 5.502 7.072-.653 12.416-5.414 5.156-.603 5.557 1.043 10.413 1.947z"/><path d="M459.195 236.064c-.952.776-1.676 1.754-2.172 2.934-.496 1.18-.744 2.514-.744 4.002h-1.584c0-.704.054-1.388.162-2.052.108-.664.268-1.29.48-1.878a8.017 8.017 0 0 1 .792-1.62 6.421 6.421 0 0 1 1.098-1.302h-3.816v-1.476h5.784v1.392zm4.98 4.464c0-.216-.042-.4-.126-.552a1.189 1.189 0 0 0-.324-.378 1.34 1.34 0 0 0-.462-.222 1.933 1.933 0 0 0-1.05 0 1.346 1.346 0 0 0-.456.222c-.132.1-.24.226-.324.378a1.126 1.126 0 0 0-.126.552c0 .216.042.4.126.552.084.152.194.28.33.384.136.104.29.18.462.228a1.891 1.891 0 0 0 1.032 0 1.35 1.35 0 0 0 .462-.228c.136-.104.246-.232.33-.384.084-.152.126-.336.126-.552zm-2.556-3.624a.916.916 0 0 0 .348.738c.104.084.224.148.36.192a1.319 1.319 0 0 0 .822 0 1.2 1.2 0 0 0 .36-.192.916.916 0 0 0 .354-.738.874.874 0 0 0-.366-.738 1.251 1.251 0 0 0-.36-.174 1.379 1.379 0 0 0-.804 0c-.132.04-.252.098-.36.174a.82.82 0 0 0-.258.3.943.943 0 0 0-.096.438zm4.092 3.696c0 .36-.076.696-.228 1.008-.152.312-.36.582-.624.81a2.89 2.89 0 0 1-.942.534 3.539 3.539 0 0 1-1.182.192c-.424 0-.816-.064-1.176-.192a2.903 2.903 0 0 1-.936-.534 2.516 2.516 0 0 1-.624-.81 2.27 2.27 0 0 1-.228-1.008c0-.44.108-.84.324-1.2.216-.36.512-.652.888-.876a2.237 2.237 0 0 1-.636-.75 2.06 2.06 0 0 1-.228-.966c0-.32.066-.618.198-.894s.314-.514.546-.714c.232-.2.508-.356.828-.468a3.14 3.14 0 0 1 1.044-.168c.376 0 .724.056 1.044.168.32.112.598.268.834.468s.42.438.552.714c.132.276.198.574.198.894 0 .352-.076.672-.228.96a2.257 2.257 0 0 1-.636.744c.384.224.682.514.894.87.212.356.318.762.318 1.218zm7.584-.66a.853.853 0 0 0-.648.282.957.957 0 0 0-.264.678c0 .264.088.49.264.678a.853.853 0 0 0 .648.282.859.859 0 0 0 .642-.282.945.945 0 0 0 .27-.678c0-.264-.09-.49-.27-.678a.859.859 0 0 0-.642-.282zm-4.848-2.208a.853.853 0 0 0 .648-.282.957.957 0 0 0 .264-.678.957.957 0 0 0-.264-.678.853.853 0 0 0-.648-.282.84.84 0 0 0-.636.282.957.957 0 0 0-.264.678c0 .264.088.49.264.678a.84.84 0 0 0 .636.282zm4.848 5.268a2.14 2.14 0 0 1-.84-.162 1.955 1.955 0 0 1-.66-.45 2.193 2.193 0 0 1-.438-.672 2.078 2.078 0 0 1-.162-.816 2.118 2.118 0 0 1 .6-1.482 2.077 2.077 0 0 1 1.5-.618c.296 0 .572.056.828.168a2.067 2.067 0 0 1 1.11 1.116c.108.256.162.528.162.816a2.138 2.138 0 0 1-.606 1.488 2.02 2.02 0 0 1-.666.45 2.108 2.108 0 0 1-.828.162zm-.78-8.328h1.284L469.227 243h-1.284l4.572-8.328zm-4.068 0c.296 0 .574.054.834.162.26.108.482.258.666.45.184.192.33.416.438.672.108.256.162.528.162.816 0 .288-.054.558-.162.81a2.214 2.214 0 0 1-.438.666 1.94 1.94 0 0 1-.666.45c-.26.108-.538.162-.834.162-.296 0-.572-.054-.828-.162a2.02 2.02 0 0 1-.666-.45 2.158 2.158 0 0 1-.444-.666 2.034 2.034 0 0 1-.162-.81 2.138 2.138 0 0 1 .606-1.488 2.02 2.02 0 0 1 .666-.45c.256-.108.532-.162.828-.162z" fill="#FFF"/><path d="M293.233 178h-1.584v-5.808h-1.296v-1.032c.184 0 .368-.03.552-.09a1.48 1.48 0 0 0 .87-.732c.1-.188.162-.41.186-.666h1.272V178zm7.848-2.676c0 .4-.076.772-.228 1.116-.152.344-.36.642-.624.894s-.576.45-.936.594c-.36.144-.752.216-1.176.216a3.43 3.43 0 0 1-1.158-.186 2.833 2.833 0 0 1-.906-.516 2.445 2.445 0 0 1-.606-.78 2.585 2.585 0 0 1-.258-.978h1.596c.064.304.214.54.45.708.236.168.53.252.882.252.168 0 .336-.026.504-.078a1.208 1.208 0 0 0 .756-.672c.08-.172.12-.378.12-.618 0-.416-.122-.756-.366-1.02s-.562-.396-.954-.396c-.256 0-.498.062-.726.186a1.579 1.579 0 0 0-.57.534l-1.428-.384.492-4.524h4.62v1.476h-3.396l-.204 1.74a2.523 2.523 0 0 1 1.32-.396c.392 0 .76.07 1.104.21.344.14.64.336.888.588.248.252.444.552.588.9.144.348.216.726.216 1.134zm7.596-.384a.853.853 0 0 0-.648.282.957.957 0 0 0-.264.678c0 .264.088.49.264.678a.853.853 0 0 0 .648.282.859.859 0 0 0 .642-.282.945.945 0 0 0 .27-.678c0-.264-.09-.49-.27-.678a.859.859 0 0 0-.642-.282zm-4.848-2.208a.853.853 0 0 0 .648-.282.957.957 0 0 0 .264-.678.957.957 0 0 0-.264-.678.853.853 0 0 0-.648-.282.84.84 0 0 0-.636.282.957.957 0 0 0-.264.678c0 .264.088.49.264.678a.84.84 0 0 0 .636.282zm4.848 5.268a2.14 2.14 0 0 1-.84-.162 1.955 1.955 0 0 1-.66-.45 2.193 2.193 0 0 1-.438-.672 2.078 2.078 0 0 1-.162-.816 2.118 2.118 0 0 1 .6-1.482 2.077 2.077 0 0 1 1.5-.618c.296 0 .572.056.828.168a2.067 2.067 0 0 1 1.11 1.116c.108.256.162.528.162.816a2.138 2.138 0 0 1-.606 1.488 2.02 2.02 0 0 1-.666.45 2.108 2.108 0 0 1-.828.162zm-.78-8.328h1.284L304.61 178h-1.284l4.572-8.328zm-4.068 0c.296 0 .574.054.834.162.26.108.482.258.666.45.184.192.33.416.438.672.108.256.162.528.162.816 0 .288-.054.558-.162.81a2.214 2.214 0 0 1-.438.666 1.94 1.94 0 0 1-.666.45c-.26.108-.538.162-.834.162-.296 0-.572-.054-.828-.162a2.02 2.02 0 0 1-.666-.45 2.158 2.158 0 0 1-.444-.666 2.034 2.034 0 0 1-.162-.81 2.138 2.138 0 0 1 .606-1.488 2.02 2.02 0 0 1 .666-.45c.256-.108.532-.162.828-.162z" fill="#001D22"/><text font-family="Chalet-NewYorkNineteenSixty, Chalet" font-size="12" font-weight="400" fill="#001D22" transform="translate(1 1)"><tspan x="611.889" y="360">22%</tspan></text><path d="M348.231 256.516c0 .328-.064.65-.192.966a2.428 2.428 0 0 1-.57.84 2.895 2.895 0 0 1-.942.594c-.376.152-.812.228-1.308.228s-.93-.074-1.302-.222a2.731 2.731 0 0 1-.936-.6 2.472 2.472 0 0 1-.57-.888 3.284 3.284 0 0 1-.204-1.098h1.584c.008.424.136.754.384.99s.592.354 1.032.354c.456 0 .81-.112 1.062-.336a1.09 1.09 0 0 0 .378-.852c0-.704-.452-1.056-1.356-1.056h-.528v-1.38h.324c.496 0 .84-.09 1.032-.27a.904.904 0 0 0 .288-.69c0-.304-.098-.546-.294-.726-.196-.18-.478-.27-.846-.27-.216 0-.4.034-.552.102a1.091 1.091 0 0 0-.612.672 1.45 1.45 0 0 0-.072.45h-1.584c0-.36.064-.704.192-1.032a2.51 2.51 0 0 1 1.434-1.44 3.1 3.1 0 0 1 1.194-.216c.464 0 .866.066 1.206.198.34.132.62.306.84.522.22.216.382.462.486.738.104.276.156.554.156.834 0 .36-.088.69-.264.99-.176.3-.44.534-.792.702.24.072.446.174.618.306s.31.282.414.45c.104.168.18.35.228.546.048.196.072.394.072.594zm6.552 1.008V259h-5.772v-.708c0-.464.07-.874.21-1.23.14-.356.328-.67.564-.942.236-.272.504-.512.804-.72.3-.208.61-.396.93-.564.384-.208.69-.39.918-.546.228-.156.4-.3.516-.432a.981.981 0 0 0 .222-.372c.032-.116.048-.234.048-.354 0-.28-.092-.522-.276-.726-.184-.204-.488-.306-.912-.306-.416 0-.74.14-.972.42-.232.28-.348.636-.348 1.068h-1.596c0-.384.062-.752.186-1.104.124-.352.308-.666.552-.942.244-.276.546-.496.906-.66.36-.164.78-.246 1.26-.246s.894.074 1.242.222c.348.148.636.34.864.576.228.236.398.504.51.804.112.3.168.602.168.906 0 .392-.064.73-.192 1.014a2.61 2.61 0 0 1-.522.762c-.22.224-.482.43-.786.618-.304.188-.636.378-.996.57-.424.232-.78.462-1.068.69-.288.228-.444.47-.468.726h4.008zm7.8-1.584a.853.853 0 0 0-.648.282.957.957 0 0 0-.264.678c0 .264.088.49.264.678a.853.853 0 0 0 .648.282.859.859 0 0 0 .642-.282.945.945 0 0 0 .27-.678c0-.264-.09-.49-.27-.678a.859.859 0 0 0-.642-.282zm-4.848-2.208a.853.853 0 0 0 .648-.282.957.957 0 0 0 .264-.678.957.957 0 0 0-.264-.678.853.853 0 0 0-.648-.282.84.84 0 0 0-.636.282.957.957 0 0 0-.264.678c0 .264.088.49.264.678a.84.84 0 0 0 .636.282zm4.848 5.268a2.14 2.14 0 0 1-.84-.162 1.955 1.955 0 0 1-.66-.45 2.193 2.193 0 0 1-.438-.672 2.078 2.078 0 0 1-.162-.816 2.118 2.118 0 0 1 .6-1.482 2.077 2.077 0 0 1 1.5-.618c.296 0 .572.056.828.168a2.067 2.067 0 0 1 1.11 1.116c.108.256.162.528.162.816a2.138 2.138 0 0 1-.606 1.488 2.02 2.02 0 0 1-.666.45 2.108 2.108 0 0 1-.828.162zm-.78-8.328h1.284L358.515 259h-1.284l4.572-8.328zm-4.068 0c.296 0 .574.054.834.162.26.108.482.258.666.45.184.192.33.416.438.672.108.256.162.528.162.816 0 .288-.054.558-.162.81a2.214 2.214 0 0 1-.438.666 1.94 1.94 0 0 1-.666.45c-.26.108-.538.162-.834.162-.296 0-.572-.054-.828-.162a2.02 2.02 0 0 1-.666-.45 2.158 2.158 0 0 1-.444-.666 2.034 2.034 0 0 1-.162-.81 2.138 2.138 0 0 1 .606-1.488 2.02 2.02 0 0 1 .666-.45c.256-.108.532-.162.828-.162z" fill="#001D22"/><text font-family="Chalet-NewYorkNineteenSixty, Chalet" font-size="12" font-weight="400" fill="#001D22" transform="translate(1 1)"><tspan x="662.997" y="273">35%</tspan></text><path d="M135.437 285h-1.584v-5.808h-1.296v-1.032c.184 0 .368-.03.552-.09a1.48 1.48 0 0 0 .87-.732c.1-.188.162-.41.186-.666h1.272V285zm7.62-6.936c-.952.776-1.676 1.754-2.172 2.934-.496 1.18-.744 2.514-.744 4.002h-1.584c0-.704.054-1.388.162-2.052.108-.664.268-1.29.48-1.878a8.017 8.017 0 0 1 .792-1.62 6.421 6.421 0 0 1 1.098-1.302h-3.816v-1.476h5.784v1.392zm7.416 3.876a.853.853 0 0 0-.648.282.957.957 0 0 0-.264.678c0 .264.088.49.264.678a.853.853 0 0 0 .648.282.859.859 0 0 0 .642-.282.945.945 0 0 0 .27-.678c0-.264-.09-.49-.27-.678a.859.859 0 0 0-.642-.282zm-4.848-2.208a.853.853 0 0 0 .648-.282.957.957 0 0 0 .264-.678.957.957 0 0 0-.264-.678.853.853 0 0 0-.648-.282.84.84 0 0 0-.636.282.957.957 0 0 0-.264.678c0 .264.088.49.264.678a.84.84 0 0 0 .636.282zm4.848 5.268a2.14 2.14 0 0 1-.84-.162 1.955 1.955 0 0 1-.66-.45 2.193 2.193 0 0 1-.438-.672 2.078 2.078 0 0 1-.162-.816 2.118 2.118 0 0 1 .6-1.482 2.077 2.077 0 0 1 1.5-.618c.296 0 .572.056.828.168a2.067 2.067 0 0 1 1.11 1.116c.108.256.162.528.162.816a2.138 2.138 0 0 1-.606 1.488 2.02 2.02 0 0 1-.666.45 2.108 2.108 0 0 1-.828.162zm-.78-8.328h1.284L146.405 285h-1.284l4.572-8.328zm-4.068 0c.296 0 .574.054.834.162.26.108.482.258.666.45.184.192.33.416.438.672.108.256.162.528.162.816 0 .288-.054.558-.162.81a2.214 2.214 0 0 1-.438.666 1.94 1.94 0 0 1-.666.45c-.26.108-.538.162-.834.162-.296 0-.572-.054-.828-.162a2.02 2.02 0 0 1-.666-.45 2.158 2.158 0 0 1-.444-.666 2.034 2.034 0 0 1-.162-.81 2.138 2.138 0 0 1 .606-1.488 2.02 2.02 0 0 1 .666-.45c.256-.108.532-.162.828-.162z" fill="#001D22"/><path d="M241.213 375.324c0 .4-.076.772-.228 1.116-.152.344-.36.642-.624.894s-.576.45-.936.594c-.36.144-.752.216-1.176.216a3.43 3.43 0 0 1-1.158-.186 2.833 2.833 0 0 1-.906-.516 2.445 2.445 0 0 1-.606-.78 2.585 2.585 0 0 1-.258-.978h1.596c.064.304.214.54.45.708.236.168.53.252.882.252.168 0 .336-.026.504-.078a1.208 1.208 0 0 0 .756-.672c.08-.172.12-.378.12-.618 0-.416-.122-.756-.366-1.02s-.562-.396-.954-.396c-.256 0-.498.062-.726.186a1.579 1.579 0 0 0-.57.534l-1.428-.384.492-4.524h4.62v1.476h-3.396l-.204 1.74a2.523 2.523 0 0 1 1.32-.396c.392 0 .76.07 1.104.21.344.14.64.336.888.588.248.252.444.552.588.9.144.348.216.726.216 1.134zm6.696.192c0 .328-.064.65-.192.966a2.428 2.428 0 0 1-.57.84 2.895 2.895 0 0 1-.942.594c-.376.152-.812.228-1.308.228s-.93-.074-1.302-.222a2.731 2.731 0 0 1-.936-.6 2.472 2.472 0 0 1-.57-.888 3.284 3.284 0 0 1-.204-1.098h1.584c.008.424.136.754.384.99s.592.354 1.032.354c.456 0 .81-.112 1.062-.336a1.09 1.09 0 0 0 .378-.852c0-.704-.452-1.056-1.356-1.056h-.528v-1.38h.324c.496 0 .84-.09 1.032-.27a.904.904 0 0 0 .288-.69c0-.304-.098-.546-.294-.726-.196-.18-.478-.27-.846-.27-.216 0-.4.034-.552.102a1.091 1.091 0 0 0-.612.672 1.45 1.45 0 0 0-.072.45h-1.584c0-.36.064-.704.192-1.032a2.51 2.51 0 0 1 1.434-1.44 3.1 3.1 0 0 1 1.194-.216c.464 0 .866.066 1.206.198.34.132.62.306.84.522.22.216.382.462.486.738.104.276.156.554.156.834 0 .36-.088.69-.264.99-.176.3-.44.534-.792.702.24.072.446.174.618.306s.31.282.414.45c.104.168.18.35.228.546.048.196.072.394.072.594zm7.596-.576a.853.853 0 0 0-.648.282.957.957 0 0 0-.264.678c0 .264.088.49.264.678a.853.853 0 0 0 .648.282.859.859 0 0 0 .642-.282.945.945 0 0 0 .27-.678c0-.264-.09-.49-.27-.678a.859.859 0 0 0-.642-.282zm-4.848-2.208a.853.853 0 0 0 .648-.282.957.957 0 0 0 .264-.678.957.957 0 0 0-.264-.678.853.853 0 0 0-.648-.282.84.84 0 0 0-.636.282.957.957 0 0 0-.264.678c0 .264.088.49.264.678a.84.84 0 0 0 .636.282zm4.848 5.268a2.14 2.14 0 0 1-.84-.162 1.955 1.955 0 0 1-.66-.45 2.193 2.193 0 0 1-.438-.672 2.078 2.078 0 0 1-.162-.816 2.118 2.118 0 0 1 .6-1.482 2.077 2.077 0 0 1 1.5-.618c.296 0 .572.056.828.168a2.067 2.067 0 0 1 1.11 1.116c.108.256.162.528.162.816a2.138 2.138 0 0 1-.606 1.488 2.02 2.02 0 0 1-.666.45 2.108 2.108 0 0 1-.828.162zm-.78-8.328h1.284L251.437 378h-1.284l4.572-8.328zm-4.068 0c.296 0 .574.054.834.162.26.108.482.258.666.45.184.192.33.416.438.672.108.256.162.528.162.816 0 .288-.054.558-.162.81a2.214 2.214 0 0 1-.438.666 1.94 1.94 0 0 1-.666.45c-.26.108-.538.162-.834.162-.296 0-.572-.054-.828-.162a2.02 2.02 0 0 1-.666-.45 2.158 2.158 0 0 1-.444-.666 2.034 2.034 0 0 1-.162-.81 2.138 2.138 0 0 1 .606-1.488 2.02 2.02 0 0 1 .666-.45c.256-.108.532-.162.828-.162z" fill="#FFF"/><text font-family="Chalet-NewYorkNineteenSixty, Chalet" font-size="12" font-weight="400" fill="#FFF" transform="translate(1 1)"><tspan x="579.825" y="171">51%</tspan></text></g></svg>