<svg width="1280" height="263" viewBox="0 0 1280 263" xmlns="http://www.w3.org/2000/svg"><title>51CED060-D345-450B-A956-9FC98F786AF4</title><g fill="none" fill-rule="evenodd"><g stroke="#001D22" stroke-linecap="square" opacity=".2"><path d="M-3.148 262.5h1300.433"/><path d="M-3.148 214.5h1300.433M-3.148 172.5h1300.433M-3.148 127.5h1300.433M-3.148 85.5h1300.433M-3.148 42.5h1300.433M-3.148.5h1300.433" stroke-dasharray="5,10"/></g><path fill="#F9D031" d="M524 16h11v246h-11zM489 26h11v236h-11z"/><path fill="#2F939C" d="M453 74h11v188h-11zM418 84h11v178h-11zM383 136h11v126h-11zM347 146h11v116h-11zM312 186h11v76h-11zM277 196h11v66h-11zM241 166h11v96h-11zM206 176h11v86h-11z"/></g></svg>