<svg width="679" height="195" viewBox="0 0 679 195" xmlns="http://www.w3.org/2000/svg"><title>37284B2A-9821-4602-8BAB-212C423E03D7</title><g fill="none" fill-rule="evenodd"><path d="M22.922 171.524v-.924h-5.34v8.4h.96v-3.6h3.924v-.924h-3.924v-2.952h4.38zM28.13 179v-.972c-.504.684-1.308 1.02-2.316 1.02-1.308 0-2.148-.84-2.148-1.932 0-1.104.876-1.8 2.364-1.812h2.076v-.372c0-.924-.576-1.476-1.692-1.476-.696 0-1.344.264-2.004.72l-.396-.684c.816-.54 1.5-.852 2.58-.852 1.56 0 2.424.828 2.436 2.184l.012 4.176h-.912zm-2.136-.768c1.068 0 1.884-.54 2.124-1.416v-.756H26.15c-1.056 0-1.608.324-1.608 1.02s.564 1.152 1.452 1.152zm6.072-5.556h-.936V179h.936v-3.36c.108-1.248.936-2.076 2.268-2.052v-.948c-1.068.012-1.848.516-2.268 1.44v-1.404zm11.628-.036c-1.212.012-2.1.54-2.496 1.656-.264-1.044-1.08-1.656-2.268-1.656-1.14.012-1.992.48-2.412 1.464v-1.428h-.924V179h.924v-3.108c0-1.356.78-2.292 2.076-2.328 1.104 0 1.752.66 1.752 1.788V179h.948v-3.108c0-1.356.756-2.292 2.064-2.328 1.092 0 1.752.66 1.752 1.788V179h.936v-3.9c0-1.524-.876-2.46-2.352-2.46zm4.884-2.424c-.348 0-.612.276-.612.648s.264.648.612.648.612-.276.612-.648-.264-.648-.612-.648zm.468 8.784v-6.324h-.924V179h.924zm5.664-6.36c-1.152.012-2.004.468-2.448 1.428v-1.392h-.936V179h.936v-3.396c.108-1.2.876-2.016 2.124-2.028 1.116 0 1.788.66 1.788 1.776V179h.936v-3.9c0-1.524-.888-2.46-2.4-2.46zm9.996.036v5.664c0 1.848-1.26 3.012-3.18 3.012-.996-.012-1.824-.336-2.592-.912l.432-.72c.624.516 1.284.792 2.124.804 1.38 0 2.28-.84 2.28-2.16v-.96c-.444.84-1.26 1.32-2.328 1.32-1.704 0-2.88-1.26-2.88-3.06 0-1.764 1.164-3.012 2.856-3.024 1.08 0 1.896.48 2.352 1.32v-1.284h.936zm-3.096 5.256c1.26 0 2.16-.936 2.16-2.232 0-1.32-.9-2.244-2.16-2.244-1.272 0-2.16.936-2.172 2.244.012 1.296.9 2.232 2.172 2.232zM198.528 170.6h3.156c2.076 0 3.276 1.032 3.276 2.82 0 1.86-1.2 2.928-3.276 2.928h-2.196V179h-.96v-8.4zm.96.924v3.9h2.16c1.512 0 2.388-.672 2.388-1.98 0-1.272-.876-1.92-2.388-1.92h-2.16zm7.392-1.308c-.348 0-.612.276-.612.648s.264.648.612.648.612-.276.612-.648-.264-.648-.612-.648zm.468 8.784v-6.324h-.924V179h.924zm4.776-6.348c2.04-.012 3.048 1.404 2.952 3.552h-5.16c.168 1.236 1.068 2.016 2.292 2.016.78 0 1.464-.276 1.956-.792l.516.552c-.6.672-1.488 1.056-2.544 1.056-1.86 0-3.144-1.308-3.144-3.192 0-1.884 1.296-3.192 3.132-3.192zm-2.208 2.784h4.32c-.06-1.212-.876-1.98-2.112-1.98-1.2 0-2.064.78-2.208 1.98zm9.264-2.784c-1.824 0-3.132 1.308-3.132 3.192 0 1.884 1.296 3.192 3.132 3.192 1.092 0 1.968-.408 2.532-1.092l-.54-.576c-.444.528-1.128.816-1.956.816-1.308 0-2.244-.96-2.244-2.34s.936-2.328 2.244-2.328c.768 0 1.404.276 1.884.732l.516-.66c-.576-.6-1.416-.948-2.436-.936zm6.732 0c2.04-.012 3.048 1.404 2.952 3.552h-5.16c.168 1.236 1.068 2.016 2.292 2.016.78 0 1.464-.276 1.956-.792l.516.552c-.6.672-1.488 1.056-2.544 1.056-1.86 0-3.144-1.308-3.144-3.192 0-1.884 1.296-3.192 3.132-3.192zm-2.208 2.784h4.32c-.06-1.212-.876-1.98-2.112-1.98-1.2 0-2.064.78-2.208 1.98zm16.98 3.564l2.34-6.324h-.972l-1.848 5.352-1.86-5.352h-.984l-1.836 5.352-1.872-5.352h-.984l2.364 6.324h.972l1.848-5.136 1.86 5.136h.972zm6.012-6.348c1.872 0 3.204 1.296 3.204 3.18 0 1.896-1.332 3.204-3.204 3.204s-3.204-1.308-3.204-3.204c0-1.884 1.332-3.18 3.204-3.18zm0 .852c-1.32 0-2.268.96-2.268 2.34 0 1.392.948 2.352 2.268 2.352 1.32 0 2.268-.96 2.268-2.352 0-1.38-.948-2.34-2.268-2.34zm5.784-.828h-.936V179h.936v-3.36c.108-1.248.936-2.076 2.268-2.052v-.948c-1.068.012-1.848.516-2.268 1.44v-1.404zm5.856 3.132l2.16 3.192h1.116l-2.616-3.876 2.364-2.448h-1.104l-3.252 3.24v-5.82h-.936V179h.936v-1.812l1.332-1.38z" fill="#001D22" opacity=".5"/><text opacity=".5" font-family="Montserrat-Light, Montserrat" font-size="12" font-weight="300" fill="#001D22" transform="translate(-31 3)"><tspan x="598.522" y="176">Government </tspan> <tspan x="605.494" y="191">institution</tspan></text><text opacity=".5" font-family="Montserrat-Light, Montserrat" font-size="12" font-weight="300" fill="#001D22" transform="translate(-31 3)"><tspan x="405.212" y="176">Self employed</tspan></text><g transform="translate(-31 3)"><ellipse stroke="#2F939C" stroke-width="5" opacity=".1" cx="71.423" cy="71.261" rx="71.423" ry="71.261"/><ellipse stroke="#2F939C" stroke-width="5" stroke-linecap="round" stroke-dasharray="290,1000" transform="matrix(1 0 0 -1 0 142.522)" cx="71.423" cy="71.261" rx="71.423" ry="71.261"/><path d="M60.088 64.72c0-.384-.064-.744-.192-1.08a2.679 2.679 0 0 0-.552-.888 2.571 2.571 0 0 0-.852-.6 2.688 2.688 0 0 0-1.092-.216c-.4 0-.764.072-1.092.216a2.571 2.571 0 0 0-.852.6c-.24.256-.424.552-.552.888a3.008 3.008 0 0 0-.192 1.08c0 .384.064.74.192 1.068.128.328.312.62.552.876.24.256.524.456.852.6.328.144.692.216 1.092.216.4 0 .764-.072 1.092-.216.328-.144.612-.344.852-.6s.424-.548.552-.876c.128-.328.192-.684.192-1.068zm3.144-.072c0 .816-.144 1.568-.432 2.256a5.322 5.322 0 0 1-1.212 1.788 5.53 5.53 0 0 1-1.848 1.176 6.34 6.34 0 0 1-2.34.42 6.395 6.395 0 0 1-2.232-.408c-.736-.272-1.4-.716-1.992-1.332-.592-.616-1.068-1.42-1.428-2.412-.36-.992-.54-2.208-.54-3.648 0-1.456.144-2.764.432-3.924.288-1.16.704-2.144 1.248-2.952.544-.808 1.212-1.424 2.004-1.848.792-.424 1.684-.636 2.676-.636 1.488 0 2.708.424 3.66 1.272.952.848 1.54 2 1.764 3.456H59.8a2.482 2.482 0 0 0-.684-1.248c-.36-.368-.876-.552-1.548-.552-.928 0-1.652.388-2.172 1.164-.52.776-.844 1.764-.972 2.964.416-.336.9-.596 1.452-.78a5.317 5.317 0 0 1 1.692-.276c.816 0 1.568.136 2.256.408a5.485 5.485 0 0 1 1.788 1.128c.504.48.9 1.06 1.188 1.74.288.68.432 1.428.432 2.244zm13.08 0c0 .8-.152 1.544-.456 2.232a5.538 5.538 0 0 1-1.248 1.788c-.528.504-1.152.9-1.872 1.188a6.276 6.276 0 0 1-2.352.432c-.848 0-1.62-.124-2.316-.372a5.666 5.666 0 0 1-1.812-1.032 4.891 4.891 0 0 1-1.212-1.56 5.17 5.17 0 0 1-.516-1.956h3.192c.128.608.428 1.08.9 1.416.472.336 1.06.504 1.764.504.336 0 .672-.052 1.008-.156.336-.104.632-.268.888-.492.256-.224.464-.508.624-.852.16-.344.24-.756.24-1.236 0-.832-.244-1.512-.732-2.04s-1.124-.792-1.908-.792c-.512 0-.996.124-1.452.372a3.158 3.158 0 0 0-1.14 1.068l-2.856-.768.984-9.048h9.24v2.952h-6.792l-.408 3.48c.4-.256.828-.452 1.284-.588a4.726 4.726 0 0 1 1.356-.204 5.8 5.8 0 0 1 2.208.42 5.22 5.22 0 0 1 1.776 1.176 5.571 5.571 0 0 1 1.176 1.8c.288.696.432 1.452.432 2.268zm5.496-.336V70h-3.192V53.344h3.192v6.72l6.264-6.72h4.368l-6.768 6.96L92.728 70H88.6l-5.16-7.392-1.632 1.704zM64.155 90.528c0-.216-.042-.4-.126-.552a1.188 1.188 0 0 0-.324-.378 1.34 1.34 0 0 0-.462-.222 1.933 1.933 0 0 0-1.05 0 1.346 1.346 0 0 0-.456.222c-.132.1-.24.226-.324.378a1.126 1.126 0 0 0-.126.552c0 .216.042.4.126.552.084.152.194.28.33.384.136.104.29.18.462.228a1.891 1.891 0 0 0 1.032 0 1.35 1.35 0 0 0 .462-.228c.136-.104.246-.232.33-.384.084-.152.126-.336.126-.552zM61.6 86.904a.916.916 0 0 0 .348.738c.104.084.224.148.36.192a1.319 1.319 0 0 0 .822 0 1.2 1.2 0 0 0 .36-.192.916.916 0 0 0 .354-.738.874.874 0 0 0-.366-.738 1.251 1.251 0 0 0-.36-.174 1.379 1.379 0 0 0-.804 0c-.132.04-.252.098-.36.174a.82.82 0 0 0-.258.3.943.943 0 0 0-.096.438zm4.092 3.696c0 .36-.076.696-.228 1.008-.152.312-.36.582-.624.81a2.89 2.89 0 0 1-.942.534 3.539 3.539 0 0 1-1.182.192c-.424 0-.816-.064-1.176-.192a2.903 2.903 0 0 1-.936-.534 2.516 2.516 0 0 1-.624-.81 2.27 2.27 0 0 1-.228-1.008c0-.44.108-.84.324-1.2.216-.36.512-.652.888-.876a2.237 2.237 0 0 1-.636-.75 2.06 2.06 0 0 1-.228-.966c0-.32.066-.618.198-.894s.314-.514.546-.714c.232-.2.508-.356.828-.468a3.14 3.14 0 0 1 1.044-.168c.376 0 .724.056 1.044.168.32.112.598.268.834.468s.42.438.552.714c.132.276.198.574.198.894 0 .352-.076.672-.228.96a2.257 2.257 0 0 1-.636.744c.384.224.682.514.894.87.212.356.318.762.318 1.218zM68.32 93h-1.704v-1.692h1.704V93zm3.96 0h-1.584v-5.808H69.4V86.16c.184 0 .368-.03.552-.09a1.48 1.48 0 0 0 .87-.732c.1-.188.162-.41.186-.666h1.272V93zm8.844-3.06a.853.853 0 0 0-.648.282.957.957 0 0 0-.264.678c0 .264.088.49.264.678a.853.853 0 0 0 .648.282.859.859 0 0 0 .642-.282.945.945 0 0 0 .27-.678c0-.264-.09-.49-.27-.678a.859.859 0 0 0-.642-.282zm-4.848-2.208a.853.853 0 0 0 .648-.282.957.957 0 0 0 .264-.678.957.957 0 0 0-.264-.678.853.853 0 0 0-.648-.282.84.84 0 0 0-.636.282.957.957 0 0 0-.264.678c0 .264.088.49.264.678a.84.84 0 0 0 .636.282zM81.123 93a2.14 2.14 0 0 1-.84-.162 1.955 1.955 0 0 1-.66-.45 2.193 2.193 0 0 1-.438-.672 2.078 2.078 0 0 1-.162-.816 2.118 2.118 0 0 1 .6-1.482 2.077 2.077 0 0 1 1.5-.618c.296 0 .572.056.828.168a2.067 2.067 0 0 1 1.11 1.116c.108.256.162.528.162.816a2.138 2.138 0 0 1-.606 1.488 2.02 2.02 0 0 1-.666.45 2.108 2.108 0 0 1-.828.162zm-.78-8.328h1.284L77.055 93h-1.284l4.572-8.328zm-4.068 0c.296 0 .574.054.834.162.26.108.482.258.666.45.184.192.33.416.438.672.108.256.162.528.162.816 0 .288-.054.558-.162.81a2.214 2.214 0 0 1-.438.666 1.94 1.94 0 0 1-.666.45c-.26.108-.538.162-.834.162-.296 0-.572-.054-.828-.162a2.02 2.02 0 0 1-.666-.45 2.158 2.158 0 0 1-.444-.666 2.034 2.034 0 0 1-.162-.81 2.138 2.138 0 0 1 .606-1.488 2.02 2.02 0 0 1 .666-.45c.256-.108.532-.162.828-.162z" fill="#001D22"/></g><g transform="translate(157 3)"><ellipse stroke="#001D22" stroke-width="5" opacity=".1" cx="71.423" cy="71.261" rx="71.423" ry="71.261"/><ellipse stroke="#001D22" stroke-width="5" stroke-linecap="round" stroke-dasharray="191,1000" transform="matrix(1 0 0 -1 0 142.522)" cx="71.423" cy="71.261" rx="71.423" ry="71.261"/><path d="M60.244 70h-3.168V58.384h-2.592V56.32c.368 0 .736-.06 1.104-.18.368-.12.7-.3.996-.54.296-.24.544-.548.744-.924.2-.376.324-.82.372-1.332h2.544V70zm15.6-2.952V70H64.3v-1.416c0-.928.14-1.748.42-2.46.28-.712.656-1.34 1.128-1.884a8.626 8.626 0 0 1 1.608-1.44c.6-.416 1.22-.792 1.86-1.128.768-.416 1.38-.78 1.836-1.092.456-.312.8-.6 1.032-.864.232-.264.38-.512.444-.744a2.65 2.65 0 0 0 .096-.708c0-.56-.184-1.044-.552-1.452-.368-.408-.976-.612-1.824-.612-.832 0-1.48.28-1.944.84-.464.56-.696 1.272-.696 2.136h-3.192c0-.768.124-1.504.372-2.208a5.651 5.651 0 0 1 1.104-1.884 5.332 5.332 0 0 1 1.812-1.32c.72-.328 1.56-.492 2.52-.492s1.788.148 2.484.444c.696.296 1.272.68 1.728 1.152a4.62 4.62 0 0 1 1.02 1.608c.224.6.336 1.204.336 1.812 0 .784-.128 1.46-.384 2.028a5.22 5.22 0 0 1-1.044 1.524 8.33 8.33 0 0 1-1.572 1.236c-.608.376-1.272.756-1.992 1.14-.848.464-1.56.924-2.136 1.38-.576.456-.888.94-.936 1.452h8.016zm5.904-2.736V70h-3.192V53.344h3.192v6.72l6.264-6.72h4.368l-6.768 6.96L92.668 70H88.54l-5.16-7.392-1.632 1.704zM70.435 91.524V93h-5.772v-.708c0-.464.07-.874.21-1.23.14-.356.328-.67.564-.942.236-.272.504-.512.804-.72.3-.208.61-.396.93-.564.384-.208.69-.39.918-.546.228-.156.4-.3.516-.432a.981.981 0 0 0 .222-.372c.032-.116.048-.234.048-.354 0-.28-.092-.522-.276-.726-.184-.204-.488-.306-.912-.306-.416 0-.74.14-.972.42-.232.28-.348.636-.348 1.068h-1.596c0-.384.062-.752.186-1.104.124-.352.308-.666.552-.942.244-.276.546-.496.906-.66.36-.164.78-.246 1.26-.246s.894.074 1.242.222c.348.148.636.34.864.576.228.236.398.504.51.804.112.3.168.602.168.906 0 .392-.064.73-.192 1.014a2.61 2.61 0 0 1-.522.762c-.22.224-.482.43-.786.618-.304.188-.636.378-.996.57-.424.232-.78.462-1.068.69-.288.228-.444.47-.468.726h4.008zm7.8-1.584a.853.853 0 0 0-.648.282.957.957 0 0 0-.264.678c0 .264.088.49.264.678a.853.853 0 0 0 .648.282.859.859 0 0 0 .642-.282.945.945 0 0 0 .27-.678c0-.264-.09-.49-.27-.678a.859.859 0 0 0-.642-.282zm-4.848-2.208a.853.853 0 0 0 .648-.282.957.957 0 0 0 .264-.678.957.957 0 0 0-.264-.678.853.853 0 0 0-.648-.282.84.84 0 0 0-.636.282.957.957 0 0 0-.264.678c0 .264.088.49.264.678a.84.84 0 0 0 .636.282zM78.235 93a2.14 2.14 0 0 1-.84-.162 1.955 1.955 0 0 1-.66-.45 2.193 2.193 0 0 1-.438-.672 2.078 2.078 0 0 1-.162-.816 2.118 2.118 0 0 1 .6-1.482 2.077 2.077 0 0 1 1.5-.618c.296 0 .572.056.828.168a2.067 2.067 0 0 1 1.11 1.116c.108.256.162.528.162.816a2.138 2.138 0 0 1-.606 1.488 2.02 2.02 0 0 1-.666.45 2.108 2.108 0 0 1-.828.162zm-.78-8.328h1.284L74.167 93h-1.284l4.572-8.328zm-4.068 0c.296 0 .574.054.834.162.26.108.482.258.666.45.184.192.33.416.438.672.108.256.162.528.162.816 0 .288-.054.558-.162.81a2.214 2.214 0 0 1-.438.666 1.94 1.94 0 0 1-.666.45c-.26.108-.538.162-.834.162-.296 0-.572-.054-.828-.162a2.02 2.02 0 0 1-.666-.45 2.158 2.158 0 0 1-.444-.666 2.034 2.034 0 0 1-.162-.81 2.138 2.138 0 0 1 .606-1.488 2.02 2.02 0 0 1 .666-.45c.256-.108.532-.162.828-.162z" fill="#001D22"/></g><g transform="translate(345 3)"><ellipse stroke="#F9D031" stroke-width="5" opacity=".1" cx="71.423" cy="71.261" rx="71.423" ry="71.261"/><ellipse stroke="#F9D031" stroke-width="5" stroke-linecap="round" stroke-dasharray="380,1000" transform="matrix(1 0 0 -1 0 142.522)" cx="71.423" cy="71.261" rx="71.423" ry="71.261"/><path d="M62.088 64.72c0-.384-.064-.744-.192-1.08a2.679 2.679 0 0 0-.552-.888 2.571 2.571 0 0 0-.852-.6 2.688 2.688 0 0 0-1.092-.216c-.4 0-.764.072-1.092.216a2.571 2.571 0 0 0-.852.6c-.24.256-.424.552-.552.888a3.008 3.008 0 0 0-.192 1.08c0 .384.064.74.192 1.068.128.328.312.62.552.876.24.256.524.456.852.6.328.144.692.216 1.092.216.4 0 .764-.072 1.092-.216.328-.144.612-.344.852-.6s.424-.548.552-.876c.128-.328.192-.684.192-1.068zm3.144-.072c0 .816-.144 1.568-.432 2.256a5.322 5.322 0 0 1-1.212 1.788 5.53 5.53 0 0 1-1.848 1.176 6.34 6.34 0 0 1-2.34.42 6.395 6.395 0 0 1-2.232-.408c-.736-.272-1.4-.716-1.992-1.332-.592-.616-1.068-1.42-1.428-2.412-.36-.992-.54-2.208-.54-3.648 0-1.456.144-2.764.432-3.924.288-1.16.704-2.144 1.248-2.952.544-.808 1.212-1.424 2.004-1.848.792-.424 1.684-.636 2.676-.636 1.488 0 2.708.424 3.66 1.272.952.848 1.54 2 1.764 3.456H61.8a2.482 2.482 0 0 0-.684-1.248c-.36-.368-.876-.552-1.548-.552-.928 0-1.652.388-2.172 1.164-.52.776-.844 1.764-.972 2.964.416-.336.9-.596 1.452-.78a5.317 5.317 0 0 1 1.692-.276c.816 0 1.568.136 2.256.408a5.485 5.485 0 0 1 1.788 1.128c.504.48.9 1.06 1.188 1.74.288.68.432 1.428.432 2.244zm13.08 0c0 .8-.152 1.544-.456 2.232a5.538 5.538 0 0 1-1.248 1.788c-.528.504-1.152.9-1.872 1.188a6.276 6.276 0 0 1-2.352.432c-.848 0-1.62-.124-2.316-.372a5.666 5.666 0 0 1-1.812-1.032 4.891 4.891 0 0 1-1.212-1.56 5.17 5.17 0 0 1-.516-1.956h3.192c.128.608.428 1.08.9 1.416.472.336 1.06.504 1.764.504.336 0 .672-.052 1.008-.156.336-.104.632-.268.888-.492.256-.224.464-.508.624-.852.16-.344.24-.756.24-1.236 0-.832-.244-1.512-.732-2.04s-1.124-.792-1.908-.792c-.512 0-.996.124-1.452.372a3.158 3.158 0 0 0-1.14 1.068l-2.856-.768.984-9.048h9.24v2.952h-6.792l-.408 3.48c.4-.256.828-.452 1.284-.588a4.726 4.726 0 0 1 1.356-.204 5.8 5.8 0 0 1 2.208.42 5.22 5.22 0 0 1 1.776 1.176 5.571 5.571 0 0 1 1.176 1.8c.288.696.432 1.452.432 2.268zm5.496-.336V70h-3.192V53.344h3.192v6.72l6.264-6.72h4.368l-6.768 6.96L94.728 70H90.6l-5.16-7.392-1.632 1.704zM66.155 90.528c0-.216-.042-.4-.126-.552a1.188 1.188 0 0 0-.324-.378 1.34 1.34 0 0 0-.462-.222 1.933 1.933 0 0 0-1.05 0 1.346 1.346 0 0 0-.456.222c-.132.1-.24.226-.324.378a1.126 1.126 0 0 0-.126.552c0 .216.042.4.126.552.084.152.194.28.33.384.136.104.29.18.462.228a1.891 1.891 0 0 0 1.032 0 1.35 1.35 0 0 0 .462-.228c.136-.104.246-.232.33-.384.084-.152.126-.336.126-.552zM63.6 86.904a.916.916 0 0 0 .348.738c.104.084.224.148.36.192a1.319 1.319 0 0 0 .822 0 1.2 1.2 0 0 0 .36-.192.916.916 0 0 0 .354-.738.874.874 0 0 0-.366-.738 1.251 1.251 0 0 0-.36-.174 1.379 1.379 0 0 0-.804 0c-.132.04-.252.098-.36.174a.82.82 0 0 0-.258.3.943.943 0 0 0-.096.438zm4.092 3.696c0 .36-.076.696-.228 1.008-.152.312-.36.582-.624.81a2.89 2.89 0 0 1-.942.534 3.539 3.539 0 0 1-1.182.192c-.424 0-.816-.064-1.176-.192a2.903 2.903 0 0 1-.936-.534 2.516 2.516 0 0 1-.624-.81 2.27 2.27 0 0 1-.228-1.008c0-.44.108-.84.324-1.2.216-.36.512-.652.888-.876a2.237 2.237 0 0 1-.636-.75 2.06 2.06 0 0 1-.228-.966c0-.32.066-.618.198-.894s.314-.514.546-.714c.232-.2.508-.356.828-.468a3.14 3.14 0 0 1 1.044-.168c.376 0 .724.056 1.044.168.32.112.598.268.834.468s.42.438.552.714c.132.276.198.574.198.894 0 .352-.076.672-.228.96a2.257 2.257 0 0 1-.636.744c.384.224.682.514.894.87.212.356.318.762.318 1.218zM70.32 93h-1.704v-1.692h1.704V93zm3.96 0h-1.584v-5.808H71.4V86.16c.184 0 .368-.03.552-.09a1.48 1.48 0 0 0 .87-.732c.1-.188.162-.41.186-.666h1.272V93zm8.844-3.06a.853.853 0 0 0-.648.282.957.957 0 0 0-.264.678c0 .264.088.49.264.678a.853.853 0 0 0 .648.282.859.859 0 0 0 .642-.282.945.945 0 0 0 .27-.678c0-.264-.09-.49-.27-.678a.859.859 0 0 0-.642-.282zm-4.848-2.208a.853.853 0 0 0 .648-.282.957.957 0 0 0 .264-.678.957.957 0 0 0-.264-.678.853.853 0 0 0-.648-.282.84.84 0 0 0-.636.282.957.957 0 0 0-.264.678c0 .264.088.49.264.678a.84.84 0 0 0 .636.282zM83.123 93a2.14 2.14 0 0 1-.84-.162 1.955 1.955 0 0 1-.66-.45 2.193 2.193 0 0 1-.438-.672 2.078 2.078 0 0 1-.162-.816 2.118 2.118 0 0 1 .6-1.482 2.077 2.077 0 0 1 1.5-.618c.296 0 .572.056.828.168a2.067 2.067 0 0 1 1.11 1.116c.108.256.162.528.162.816a2.138 2.138 0 0 1-.606 1.488 2.02 2.02 0 0 1-.666.45 2.108 2.108 0 0 1-.828.162zm-.78-8.328h1.284L79.055 93h-1.284l4.572-8.328zm-4.068 0c.296 0 .574.054.834.162.26.108.482.258.666.45.184.192.33.416.438.672.108.256.162.528.162.816 0 .288-.054.558-.162.81a2.214 2.214 0 0 1-.438.666 1.94 1.94 0 0 1-.666.45c-.26.108-.538.162-.834.162-.296 0-.572-.054-.828-.162a2.02 2.02 0 0 1-.666-.45 2.158 2.158 0 0 1-.444-.666 2.034 2.034 0 0 1-.162-.81 2.138 2.138 0 0 1 .606-1.488 2.02 2.02 0 0 1 .666-.45c.256-.108.532-.162.828-.162z" fill="#001D22"/></g><g transform="translate(533 3)"><ellipse stroke="#F9D031" stroke-width="5" opacity=".1" cx="71.423" cy="71.261" rx="71.423" ry="71.261"/><ellipse stroke="#F9D031" stroke-width="5" stroke-linecap="round" stroke-dasharray="160,1000" transform="matrix(1 0 0 -1 0 142.522)" cx="71.423" cy="71.261" rx="71.423" ry="71.261"/><path d="M63.088 64.72c0-.384-.064-.744-.192-1.08a2.679 2.679 0 0 0-.552-.888 2.571 2.571 0 0 0-.852-.6 2.688 2.688 0 0 0-1.092-.216c-.4 0-.764.072-1.092.216a2.571 2.571 0 0 0-.852.6c-.24.256-.424.552-.552.888a3.008 3.008 0 0 0-.192 1.08c0 .384.064.74.192 1.068.128.328.312.62.552.876.24.256.524.456.852.6.328.144.692.216 1.092.216.4 0 .764-.072 1.092-.216.328-.144.612-.344.852-.6s.424-.548.552-.876c.128-.328.192-.684.192-1.068zm3.144-.072c0 .816-.144 1.568-.432 2.256a5.322 5.322 0 0 1-1.212 1.788 5.53 5.53 0 0 1-1.848 1.176 6.34 6.34 0 0 1-2.34.42 6.395 6.395 0 0 1-2.232-.408c-.736-.272-1.4-.716-1.992-1.332-.592-.616-1.068-1.42-1.428-2.412-.36-.992-.54-2.208-.54-3.648 0-1.456.144-2.764.432-3.924.288-1.16.704-2.144 1.248-2.952.544-.808 1.212-1.424 2.004-1.848.792-.424 1.684-.636 2.676-.636 1.488 0 2.708.424 3.66 1.272.952.848 1.54 2 1.764 3.456H62.8a2.482 2.482 0 0 0-.684-1.248c-.36-.368-.876-.552-1.548-.552-.928 0-1.652.388-2.172 1.164-.52.776-.844 1.764-.972 2.964.416-.336.9-.596 1.452-.78a5.317 5.317 0 0 1 1.692-.276c.816 0 1.568.136 2.256.408a5.485 5.485 0 0 1 1.788 1.128c.504.48.9 1.06 1.188 1.74.288.68.432 1.428.432 2.244zm13.08 0c0 .8-.152 1.544-.456 2.232a5.538 5.538 0 0 1-1.248 1.788c-.528.504-1.152.9-1.872 1.188a6.276 6.276 0 0 1-2.352.432c-.848 0-1.62-.124-2.316-.372a5.666 5.666 0 0 1-1.812-1.032 4.891 4.891 0 0 1-1.212-1.56 5.17 5.17 0 0 1-.516-1.956h3.192c.128.608.428 1.08.9 1.416.472.336 1.06.504 1.764.504.336 0 .672-.052 1.008-.156.336-.104.632-.268.888-.492.256-.224.464-.508.624-.852.16-.344.24-.756.24-1.236 0-.832-.244-1.512-.732-2.04s-1.124-.792-1.908-.792c-.512 0-.996.124-1.452.372a3.158 3.158 0 0 0-1.14 1.068l-2.856-.768.984-9.048h9.24v2.952h-6.792l-.408 3.48c.4-.256.828-.452 1.284-.588a4.726 4.726 0 0 1 1.356-.204 5.8 5.8 0 0 1 2.208.42 5.22 5.22 0 0 1 1.776 1.176 5.571 5.571 0 0 1 1.176 1.8c.288.696.432 1.452.432 2.268zm5.496-.336V70h-3.192V53.344h3.192v6.72l6.264-6.72h4.368l-6.768 6.96L95.728 70H91.6l-5.16-7.392-1.632 1.704zM67.155 90.528c0-.216-.042-.4-.126-.552a1.188 1.188 0 0 0-.324-.378 1.34 1.34 0 0 0-.462-.222 1.933 1.933 0 0 0-1.05 0 1.346 1.346 0 0 0-.456.222c-.132.1-.24.226-.324.378a1.126 1.126 0 0 0-.126.552c0 .216.042.4.126.552.084.152.194.28.33.384.136.104.29.18.462.228a1.891 1.891 0 0 0 1.032 0 1.35 1.35 0 0 0 .462-.228c.136-.104.246-.232.33-.384.084-.152.126-.336.126-.552zM64.6 86.904a.916.916 0 0 0 .348.738c.104.084.224.148.36.192a1.319 1.319 0 0 0 .822 0 1.2 1.2 0 0 0 .36-.192.916.916 0 0 0 .354-.738.874.874 0 0 0-.366-.738 1.251 1.251 0 0 0-.36-.174 1.379 1.379 0 0 0-.804 0c-.132.04-.252.098-.36.174a.82.82 0 0 0-.258.3.943.943 0 0 0-.096.438zm4.092 3.696c0 .36-.076.696-.228 1.008-.152.312-.36.582-.624.81a2.89 2.89 0 0 1-.942.534 3.539 3.539 0 0 1-1.182.192c-.424 0-.816-.064-1.176-.192a2.903 2.903 0 0 1-.936-.534 2.516 2.516 0 0 1-.624-.81 2.27 2.27 0 0 1-.228-1.008c0-.44.108-.84.324-1.2.216-.36.512-.652.888-.876a2.237 2.237 0 0 1-.636-.75 2.06 2.06 0 0 1-.228-.966c0-.32.066-.618.198-.894s.314-.514.546-.714c.232-.2.508-.356.828-.468a3.14 3.14 0 0 1 1.044-.168c.376 0 .724.056 1.044.168.32.112.598.268.834.468s.42.438.552.714c.132.276.198.574.198.894 0 .352-.076.672-.228.96a2.257 2.257 0 0 1-.636.744c.384.224.682.514.894.87.212.356.318.762.318 1.218zM71.32 93h-1.704v-1.692h1.704V93zm3.96 0h-1.584v-5.808H72.4V86.16c.184 0 .368-.03.552-.09a1.48 1.48 0 0 0 .87-.732c.1-.188.162-.41.186-.666h1.272V93zm8.844-3.06a.853.853 0 0 0-.648.282.957.957 0 0 0-.264.678c0 .264.088.49.264.678a.853.853 0 0 0 .648.282.859.859 0 0 0 .642-.282.945.945 0 0 0 .27-.678c0-.264-.09-.49-.27-.678a.859.859 0 0 0-.642-.282zm-4.848-2.208a.853.853 0 0 0 .648-.282.957.957 0 0 0 .264-.678.957.957 0 0 0-.264-.678.853.853 0 0 0-.648-.282.84.84 0 0 0-.636.282.957.957 0 0 0-.264.678c0 .264.088.49.264.678a.84.84 0 0 0 .636.282zM84.123 93a2.14 2.14 0 0 1-.84-.162 1.955 1.955 0 0 1-.66-.45 2.193 2.193 0 0 1-.438-.672 2.078 2.078 0 0 1-.162-.816 2.118 2.118 0 0 1 .6-1.482 2.077 2.077 0 0 1 1.5-.618c.296 0 .572.056.828.168a2.067 2.067 0 0 1 1.11 1.116c.108.256.162.528.162.816a2.138 2.138 0 0 1-.606 1.488 2.02 2.02 0 0 1-.666.45 2.108 2.108 0 0 1-.828.162zm-.78-8.328h1.284L80.055 93h-1.284l4.572-8.328zm-4.068 0c.296 0 .574.054.834.162.26.108.482.258.666.45.184.192.33.416.438.672.108.256.162.528.162.816 0 .288-.054.558-.162.81a2.214 2.214 0 0 1-.438.666 1.94 1.94 0 0 1-.666.45c-.26.108-.538.162-.834.162-.296 0-.572-.054-.828-.162a2.02 2.02 0 0 1-.666-.45 2.158 2.158 0 0 1-.444-.666 2.034 2.034 0 0 1-.162-.81 2.138 2.138 0 0 1 .606-1.488 2.02 2.02 0 0 1 .666-.45c.256-.108.532-.162.828-.162z" fill="#001D22"/></g></g></svg>