<svg width="713" height="194" viewBox="0 0 713 194" xmlns="http://www.w3.org/2000/svg"><title>home-bg-3</title><g fill="none" fill-rule="evenodd"><path d="M56.922 171.524v-.924h-5.34v8.4h.96v-3.6h3.924v-.924h-3.924v-2.952h4.38zM62.13 179v-.972c-.504.684-1.308 1.02-2.316 1.02-1.308 0-2.148-.84-2.148-1.932 0-1.104.876-1.8 2.364-1.812h2.076v-.372c0-.924-.576-1.476-1.692-1.476-.696 0-1.344.264-2.004.72l-.396-.684c.816-.54 1.5-.852 2.58-.852 1.56 0 2.424.828 2.436 2.184l.012 4.176h-.912zm-2.136-.768c1.068 0 1.884-.54 2.124-1.416v-.756H60.15c-1.056 0-1.608.324-1.608 1.02s.564 1.152 1.452 1.152zm6.072-5.556h-.936V179h.936v-3.36c.108-1.248.936-2.076 2.268-2.052v-.948c-1.068.012-1.848.516-2.268 1.44v-1.404zm11.628-.036c-1.212.012-2.1.54-2.496 1.656-.264-1.044-1.08-1.656-2.268-1.656-1.14.012-1.992.48-2.412 1.464v-1.428h-.924V179h.924v-3.108c0-1.356.78-2.292 2.076-2.328 1.104 0 1.752.66 1.752 1.788V179h.948v-3.108c0-1.356.756-2.292 2.064-2.328 1.092 0 1.752.66 1.752 1.788V179h.936v-3.9c0-1.524-.876-2.46-2.352-2.46zm4.884-2.424c-.348 0-.612.276-.612.648s.264.648.612.648.612-.276.612-.648-.264-.648-.612-.648zm.468 8.784v-6.324h-.924V179h.924zm5.664-6.36c-1.152.012-2.004.468-2.448 1.428v-1.392h-.936V179h.936v-3.396c.108-1.2.876-2.016 2.124-2.028 1.116 0 1.788.66 1.788 1.776V179h.936v-3.9c0-1.524-.888-2.46-2.4-2.46zm9.996.036v5.664c0 1.848-1.26 3.012-3.18 3.012-.996-.012-1.824-.336-2.592-.912l.432-.72c.624.516 1.284.792 2.124.804 1.38 0 2.28-.84 2.28-2.16v-.96c-.444.84-1.26 1.32-2.328 1.32-1.704 0-2.88-1.26-2.88-3.06 0-1.764 1.164-3.012 2.856-3.024 1.08 0 1.896.48 2.352 1.32v-1.284h.936zm-3.096 5.256c1.26 0 2.16-.936 2.16-2.232 0-1.32-.9-2.244-2.16-2.244-1.272 0-2.16.936-2.172 2.244.012 1.296.9 2.232 2.172 2.232zM232.528 170.6h3.156c2.076 0 3.276 1.032 3.276 2.82 0 1.86-1.2 2.928-3.276 2.928h-2.196V179h-.96v-8.4zm.96.924v3.9h2.16c1.512 0 2.388-.672 2.388-1.98 0-1.272-.876-1.92-2.388-1.92h-2.16zm7.392-1.308c-.348 0-.612.276-.612.648s.264.648.612.648.612-.276.612-.648-.264-.648-.612-.648zm.468 8.784v-6.324h-.924V179h.924zm4.776-6.348c2.04-.012 3.048 1.404 2.952 3.552h-5.16c.168 1.236 1.068 2.016 2.292 2.016.78 0 1.464-.276 1.956-.792l.516.552c-.6.672-1.488 1.056-2.544 1.056-1.86 0-3.144-1.308-3.144-3.192 0-1.884 1.296-3.192 3.132-3.192zm-2.208 2.784h4.32c-.06-1.212-.876-1.98-2.112-1.98-1.2 0-2.064.78-2.208 1.98zm9.264-2.784c-1.824 0-3.132 3.192-3.132 3.192s1.296 3.192 3.132 3.192c1.092 0 1.968-.408 2.532-1.092l-.54-.576c-.444.528-1.128.816-1.956.816-1.308 0-2.244-.96-2.244-2.34s.936-2.328 2.244-2.328c.768 0 1.404.276 1.884.732l.516-.66c-.576-.6-1.416-.948-2.436-.936zm6.732 0c2.04-.012 3.048 1.404 2.952 3.552h-5.16c.168 1.236 1.068 2.016 2.292 2.016.78 0 1.464-.276 1.956-.792l.516.552c-.6.672-1.488 1.056-2.544 1.056-1.86 0-3.144-1.308-3.144-3.192 0-1.884 1.296-3.192 3.132-3.192zm-2.208 2.784h4.32c-.06-1.212-.876-1.98-2.112-1.98-1.2 0-2.064.78-2.208 1.98zm16.98 3.564l2.34-6.324h-.972l-1.848 5.352-1.86-5.352h-.984l-1.836 5.352-1.872-5.352h-.984l2.364 6.324h.972l1.848-5.136 1.86 5.136h.972zm6.012-6.348c1.872 0 3.204 1.296 3.204 3.18 0 1.896-1.332 3.204-3.204 3.204s-3.204-1.308-3.204-3.204c0-1.884 1.332-3.18 3.204-3.18zm0 .852c-1.32 0-2.268.96-2.268 2.34 0 1.392.948 2.352 2.268 2.352 1.32 0 2.268-.96 2.268-2.352 0-1.38-.948-2.34-2.268-2.34zm5.784-.828h-.936V179h.936v-3.36c.108-1.248.936-2.076 2.268-2.052v-.948c-1.068.012-1.848.516-2.268 1.44v-1.404zm5.856 3.132l2.16 3.192h1.116l-2.616-3.876 2.364-2.448h-1.104l-3.252 3.24v-5.82h-.936V179h.936v-1.812l1.332-1.38zM608.848 174.896h.732v3.072a4.638 4.638 0 0 1-1.422.81c-.54.196-1.09.294-1.65.294a4.318 4.318 0 0 1-2.19-.576 4.341 4.341 0 0 1-1.59-1.56 4.111 4.111 0 0 1-.588-2.148c0-.776.196-1.488.588-2.136a4.298 4.298 0 0 1 1.602-1.542 4.442 4.442 0 0 1 2.214-.57c.568 0 1.118.1 1.65.3.532.2 1.002.48 1.41.84l-.48.588a3.644 3.644 0 0 0-1.188-.738 3.851 3.851 0 0 0-1.392-.258c-.648 0-1.244.158-1.788.474a3.577 3.577 0 0 0-1.296 1.278 3.378 3.378 0 0 0-.48 1.764c0 .648.16 1.242.48 1.782.32.54.754.968 1.302 1.284a3.529 3.529 0 0 0 1.794.474c.4 0 .798-.066 1.194-.198a4.119 4.119 0 0 0 1.098-.558v-2.676zm7.176-1.806c.48.268.856.642 1.128 1.122.272.48.408 1.024.408 1.632 0 .616-.136 1.166-.408 1.65-.272.484-.648.86-1.128 1.128-.48.268-1.024.402-1.632.402-.608 0-1.152-.134-1.632-.402a2.885 2.885 0 0 1-1.128-1.128c-.272-.484-.408-1.034-.408-1.65 0-.608.136-1.152.408-1.632.272-.48.648-.854 1.128-1.122.48-.268 1.024-.402 1.632-.402.608 0 1.152.134 1.632.402zm-2.856.606c-.36.208-.64.5-.84.876-.2.376-.3.804-.3 1.284 0 .488.1.92.3 1.296.2.376.48.668.84.876.36.208.768.312 1.224.312.456 0 .864-.104 1.224-.312.36-.208.64-.5.84-.876.2-.376.3-.808.3-1.296 0-.48-.1-.908-.3-1.284-.2-.376-.48-.668-.84-.876a2.402 2.402 0 0 0-1.224-.312c-.456 0-.864.104-1.224.312zm4.98-.984h.864l2.088 5.484 2.064-5.484h.84L621.508 179h-.852l-2.508-6.288zm11.688.906c.512.62.748 1.454.708 2.502H625.3c.056.672.304 1.214.744 1.626.44.412.984.618 1.632.618.4 0 .772-.072 1.116-.216.344-.144.64-.348.888-.612l.456.456c-.304.328-.67.582-1.098.762-.428.18-.898.27-1.41.27-.608 0-1.148-.134-1.62-.402a2.878 2.878 0 0 1-1.11-1.122c-.268-.48-.402-1.028-.402-1.644 0-.608.134-1.154.402-1.638s.638-.86 1.11-1.128a3.175 3.175 0 0 1 1.596-.402c.976 0 1.72.31 2.232.93zm-.012 1.878c-.04-.656-.258-1.178-.654-1.566-.396-.388-.914-.582-1.554-.582-.632 0-1.16.196-1.584.588-.424.392-.668.912-.732 1.56h4.524zm4.098-2.418c.388-.252.854-.382 1.398-.39v.756c-.664-.008-1.198.186-1.602.582-.404.396-.634.934-.69 1.614V179h-.804v-6.288h.804v1.464c.208-.48.506-.846.894-1.098zm7.752.264c.428.436.642 1.034.642 1.794V179h-.816v-3.672c0-.592-.164-1.056-.492-1.392-.328-.336-.784-.504-1.368-.504-.648.008-1.166.208-1.554.6-.388.392-.61.92-.666 1.584V179h-.804v-6.288h.804v1.464c.216-.488.534-.856.954-1.104.42-.248.93-.376 1.53-.384.752 0 1.342.218 1.77.654zm12.558-.006c.416.432.624 1.032.624 1.8V179h-.816v-3.672c0-.6-.162-1.066-.486-1.398-.324-.332-.77-.498-1.338-.498-.672.016-1.198.248-1.578.696-.38.448-.57 1.04-.57 1.776V179h-.816v-3.672c0-.6-.162-1.066-.486-1.398-.324-.332-.77-.498-1.338-.498-.672.016-1.2.248-1.584.696-.384.448-.576 1.04-.576 1.776V179h-.804v-6.288h.804v1.476c.208-.496.518-.868.93-1.116.412-.248.914-.376 1.506-.384.6 0 1.098.148 1.494.444.396.296.658.712.786 1.248.192-.56.502-.98.93-1.26.428-.28.954-.424 1.578-.432.744 0 1.324.216 1.74.648zm7.452.282c.512.62.748 1.454.708 2.502h-5.244c.056.672.304 1.214.744 1.626.44.412.984.618 1.632.618.4 0 .772-.072 1.116-.216.344-.144.64-.348.888-.612l.456.456c-.304.328-.67.582-1.098.762-.428.18-.898.27-1.41.27-.608 0-1.148-.134-1.62-.402a2.878 2.878 0 0 1-1.11-1.122c-.268-.48-.402-1.028-.402-1.644 0-.608.134-1.154.402-1.638s.638-.86 1.11-1.128a3.175 3.175 0 0 1 1.596-.402c.976 0 1.72.31 2.232.93zm-.012 1.878c-.04-.656-.258-1.178-.654-1.566-.396-.388-.914-.582-1.554-.582-.632 0-1.16.196-1.584.588-.424.392-.668.912-.732 1.56h4.524zm7.458-2.154c.428.436.642 1.034.642 1.794V179h-.816v-3.672c0-.592-.164-1.056-.492-1.392-.328-.336-.784-.504-1.368-.504-.648.008-1.166.208-1.554.6-.388.392-.61.92-.666 1.584V179h-.804v-6.288h.804v1.464c.216-.488.534-.856.954-1.104.42-.248.93-.376 1.53-.384.752 0 1.342.218 1.77.654zm5.958 5.226a2.568 2.568 0 0 1-1.392.468c-.48 0-.86-.148-1.14-.444-.28-.296-.42-.74-.42-1.332v-3.744h-.9l-.012-.624h.912v-1.62h.804v1.62l2.04-.012v.636h-2.04v3.612c0 .776.288 1.164.864 1.164.32 0 .668-.112 1.044-.336l.24.612zm-65.166 9.144h.804V194h-.804v-6.288zm.804-2.214a.557.557 0 0 1 .156.402c0 .16-.054.296-.162.408a.522.522 0 0 1-.39.168.566.566 0 0 1-.564-.576c0-.16.054-.294.162-.402a.546.546 0 0 1 .402-.162c.16 0 .292.054.396.162zm7.398 2.844c.428.436.642 1.034.642 1.794V194h-.816v-3.672c0-.592-.164-1.056-.492-1.392-.328-.336-.784-.504-1.368-.504-.648.008-1.166.208-1.554.6-.388.392-.61.92-.666 1.584V194h-.804v-6.288h.804v1.464c.216-.488.534-.856.954-1.104.42-.248.93-.376 1.53-.384.752 0 1.342.218 1.77.654zm5.238.132a3.198 3.198 0 0 0-.876-.126c-.4 0-.722.078-.966.234-.244.156-.366.39-.366.702 0 .216.066.392.198.528s.296.246.492.33c.196.084.47.178.822.282.432.128.784.254 1.056.378s.504.304.696.54c.192.236.288.546.288.93 0 .568-.216 1.002-.648 1.302-.432.3-.972.45-1.62.45-.456 0-.896-.076-1.32-.228a2.921 2.921 0 0 1-1.068-.648l.324-.576c.272.248.594.444.966.588.372.144.75.216 1.134.216.424 0 .77-.088 1.038-.264.268-.176.402-.432.402-.768a.81.81 0 0 0-.204-.57 1.41 1.41 0 0 0-.51-.348 10.618 10.618 0 0 0-.846-.294 8.499 8.499 0 0 1-1.032-.372 1.821 1.821 0 0 1-.672-.522c-.184-.228-.276-.526-.276-.894 0-.552.206-.968.618-1.248.412-.28.926-.42 1.542-.42.36 0 .708.048 1.044.144.336.096.636.228.9.396l-.312.612a3.048 3.048 0 0 0-.804-.354zm6.108 5.094a2.568 2.568 0 0 1-1.392.468c-.48 0-.86-.148-1.14-.444-.28-.296-.42-.74-.42-1.332v-3.744h-.9l-.012-.624h.912v-1.62h.804v1.62l2.04-.012v.636h-2.04v3.612c0 .776.288 1.164.864 1.164.32 0 .668-.112 1.044-.336l.24.612zm1.452-5.856h.804V194h-.804v-6.288zm.804-2.214a.557.557 0 0 1 .156.402c0 .16-.054.296-.162.408a.522.522 0 0 1-.39.168.566.566 0 0 1-.564-.576c0-.16.054-.294.162-.402a.546.546 0 0 1 .402-.162c.16 0 .292.054.396.162zm5.508 8.07a2.568 2.568 0 0 1-1.392.468c-.48 0-.86-.148-1.14-.444-.28-.296-.42-.74-.42-1.332v-3.744h-.9l-.012-.624h.912v-1.62h.804v1.62l2.04-.012v.636h-2.04v3.612c0 .776.288 1.164.864 1.164.32 0 .668-.112 1.044-.336l.24.612zm6.852-5.856V194h-.816v-1.5c-.208.496-.518.872-.93 1.128-.412.256-.91.388-1.494.396-.744 0-1.326-.218-1.746-.654-.42-.436-.63-1.034-.63-1.794v-3.864h.816v3.672c0 .592.162 1.054.486 1.386.324.332.77.498 1.338.498.672-.008 1.2-.238 1.584-.69.384-.452.576-1.046.576-1.782v-3.084h.816zm5.508 5.856a2.568 2.568 0 0 1-1.392.468c-.48 0-.86-.148-1.14-.444-.28-.296-.42-.74-.42-1.332v-3.744h-.9l-.012-.624h.912v-1.62h.804v1.62l2.04-.012v.636h-2.04v3.612c0 .776.288 1.164.864 1.164.32 0 .668-.112 1.044-.336l.24.612zm1.452-5.856h.804V194h-.804v-6.288zm.804-2.214a.557.557 0 0 1 .156.402c0 .16-.054.296-.162.408a.522.522 0 0 1-.39.168.566.566 0 0 1-.564-.576c0-.16.054-.294.162-.402a.546.546 0 0 1 .402-.162c.16 0 .292.054.396.162zm6.492 2.592c.48.268.856.642 1.128 1.122.272.48.408 1.024.408 1.632 0 .616-.136 1.166-.408 1.65-.272.484-.648.86-1.128 1.128-.48.268-1.024.402-1.632.402-.608 0-1.152-.134-1.632-.402a2.885 2.885 0 0 1-1.128-1.128c-.272-.484-.408-1.034-.408-1.65 0-.608.136-1.152.408-1.632.272-.48.648-.854 1.128-1.122.48-.268 1.024-.402 1.632-.402.608 0 1.152.134 1.632.402zm-2.856.606c-.36.208-.64.5-.84.876-.2.376-.3.804-.3 1.284 0 .488.1.92.3 1.296.2.376.48.668.84.876.36.208.768.312 1.224.312.456 0 .864-.104 1.224-.312.36-.208.64-.5.84-.876.2-.376.3-.808.3-1.296 0-.48-.1-.908-.3-1.284-.2-.376-.48-.668-.84-.876a2.402 2.402 0 0 0-1.224-.312c-.456 0-.864.104-1.224.312zm11.154-.354c.428.436.642 1.034.642 1.794V194h-.816v-3.672c0-.592-.164-1.056-.492-1.392-.328-.336-.784-.504-1.368-.504-.648.008-1.166.208-1.554.6-.388.392-.61.92-.666 1.584V194h-.804v-6.288h.804v1.464c.216-.488.534-.856.954-1.104.42-.248.93-.376 1.53-.384.752 0 1.342.218 1.77.654zM413.174 171.482a4.22 4.22 0 0 0-1.152-.174c-.576 0-1.038.114-1.386.342-.348.228-.522.538-.522.93 0 .344.096.624.288.84.192.216.428.386.708.51.28.124.664.262 1.152.414a9.898 9.898 0 0 1 1.374.498c.348.164.644.402.888.714.244.312.366.724.366 1.236 0 .448-.126.844-.378 1.188s-.606.61-1.062.798c-.456.188-.98.282-1.572.282a4.401 4.401 0 0 1-1.71-.348 4.608 4.608 0 0 1-1.434-.924l.384-.684a4.14 4.14 0 0 0 1.308.864c.496.208.984.312 1.464.312.64 0 1.148-.13 1.524-.39.376-.26.564-.61.564-1.05 0-.352-.096-.64-.288-.864a1.908 1.908 0 0 0-.708-.516c-.28-.12-.672-.26-1.176-.42a12.074 12.074 0 0 1-1.368-.498 2.306 2.306 0 0 1-.876-.696c-.24-.308-.36-.71-.36-1.206 0-.424.12-.796.36-1.116.24-.32.576-.566 1.008-.738.432-.172.932-.258 1.5-.258.456 0 .914.068 1.374.204.46.136.866.316 1.218.54l-.36.708a4.34 4.34 0 0 0-1.128-.498zm8.304 2.136c.512.62.748 1.454.708 2.502h-5.244c.056.672.304 1.214.744 1.626.44.412.984.618 1.632.618.4 0 .772-.072 1.116-.216.344-.144.64-.348.888-.612l.456.456c-.304.328-.67.582-1.098.762-.428.18-.898.27-1.41.27-.608 0-1.148-.134-1.62-.402a2.878 2.878 0 0 1-1.11-1.122c-.268-.48-.402-1.028-.402-1.644 0-.608.134-1.154.402-1.638s.638-.86 1.11-1.128a3.175 3.175 0 0 1 1.596-.402c.976 0 1.72.31 2.232.93zm-.012 1.878c-.04-.656-.258-1.178-.654-1.566-.396-.388-.914-.582-1.554-.582-.632 0-1.16.196-1.584.588-.424.392-.668.912-.732 1.56h4.524zm2.46-5.4h.804V179h-.804v-8.904zm4.53.972c-.228.232-.342.54-.342.924v.888h1.848v.636h-1.848V179h-.804v-5.484h-.804v-.636h.804v-.792c0-.416.088-.782.264-1.098.176-.316.412-.558.708-.726.296-.168.616-.252.96-.252.392 0 .76.096 1.104.288l-.204.648a1.795 1.795 0 0 0-.84-.228c-.336 0-.618.116-.846.348zm10.566 2.55c.512.62.748 1.454.708 2.502h-5.244c.056.672.304 1.214.744 1.626.44.412.984.618 1.632.618.4 0 .772-.072 1.116-.216.344-.144.64-.348.888-.612l.456.456c-.304.328-.67.582-1.098.762-.428.18-.898.27-1.41.27-.608 0-1.148-.134-1.62-.402a2.878 2.878 0 0 1-1.11-1.122c-.268-.48-.402-1.028-.402-1.644 0-.608.134-1.154.402-1.638s.638-.86 1.11-1.128a3.175 3.175 0 0 1 1.596-.402c.976 0 1.72.31 2.232.93zm-.012 1.878c-.04-.656-.258-1.178-.654-1.566-.396-.388-.914-.582-1.554-.582-.632 0-1.16.196-1.584.588-.424.392-.668.912-.732 1.56h4.524zm12.168-2.16c.416.432.624 1.032.624 1.8V179h-.816v-3.672c0-.6-.162-1.066-.486-1.398-.324-.332-.77-.498-1.338-.498-.672.016-1.198.248-1.578.696-.38.448-.57 1.04-.57 1.776V179h-.816v-3.672c0-.6-.162-1.066-.486-1.398-.324-.332-.77-.498-1.338-.498-.672.016-1.2.248-1.584.696-.384.448-.576 1.04-.576 1.776V179h-.804v-6.288h.804v1.476c.208-.496.518-.868.93-1.116.412-.248.914-.376 1.506-.384.6 0 1.098.148 1.494.444.396.296.658.712.786 1.248.192-.56.502-.98.93-1.26.428-.28.954-.424 1.578-.432.744 0 1.324.216 1.74.648zm7.71-.246c.46.268.818.644 1.074 1.128.256.484.384 1.034.384 1.65 0 .608-.128 1.152-.384 1.632s-.612.854-1.068 1.122c-.456.268-.976.402-1.56.402-.576 0-1.08-.13-1.512-.39a2.67 2.67 0 0 1-1.008-1.086v3.78h-.804v-8.616h.804v1.452a2.579 2.579 0 0 1 1.002-1.086c.436-.26.938-.39 1.506-.39.584 0 1.106.134 1.566.402zm-.498 4.92c.36-.212.64-.506.84-.882.2-.376.3-.804.3-1.284 0-.472-.1-.896-.3-1.272-.2-.376-.48-.67-.84-.882a2.343 2.343 0 0 0-1.212-.318c-.456 0-.862.106-1.218.318a2.257 2.257 0 0 0-.84.882c-.204.376-.306.8-.306 1.272 0 .48.1.908.3 1.284.2.376.48.67.84.882.36.212.768.318 1.224.318.448 0 .852-.106 1.212-.318zm3.72-7.914h.804V179h-.804v-8.904zm7.368 2.994c.48.268.856.642 1.128 1.122.272.48.408 1.024.408 1.632 0 .616-.136 1.166-.408 1.65-.272.484-.648.86-1.128 1.128-.48.268-1.024.402-1.632.402-.608 0-1.152-.134-1.632-.402a2.885 2.885 0 0 1-1.128-1.128c-.272-.484-.408-1.034-.408-1.65 0-.608.136-1.152.408-1.632.272-.48.648-.854 1.128-1.122.48-.268 1.024-.402 1.632-.402.608 0 1.152.134 1.632.402zm-2.856.606c-.36.208-.64.5-.84.876-.2.376-.3.804-.3 1.284 0 .488.1.92.3 1.296.2.376.48.668.84.876.36.208.768.312 1.224.312.456 0 .864-.104 1.224-.312.36-.208.64-.5.84-.876.2-.376.3-.808.3-1.296 0-.48-.1-.908-.3-1.284-.2-.376-.48-.668-.84-.876a2.402 2.402 0 0 0-1.224-.312c-.456 0-.864.104-1.224.312zm7.206 7.296a1.71 1.71 0 0 1-1.086.372c-.488 0-.92-.144-1.296-.432l.36-.624c.28.192.58.288.9.288.256 0 .488-.084.696-.252.208-.168.38-.412.516-.732l.264-.648-2.604-6.252h.852l2.16 5.4 2.076-5.4h.828l-2.904 7.188c-.192.48-.446.844-.762 1.092zm9.498-7.374c.512.62.748 1.454.708 2.502h-5.244c.056.672.304 1.214.744 1.626.44.412.984.618 1.632.618.4 0 .772-.072 1.116-.216.344-.144.64-.348.888-.612l.456.456c-.304.328-.67.582-1.098.762-.428.18-.898.27-1.41.27-.608 0-1.148-.134-1.62-.402a2.878 2.878 0 0 1-1.11-1.122c-.268-.48-.402-1.028-.402-1.644 0-.608.134-1.154.402-1.638s.638-.86 1.11-1.128a3.175 3.175 0 0 1 1.596-.402c.976 0 1.72.31 2.232.93zm-.012 1.878c-.04-.656-.258-1.178-.654-1.566-.396-.388-.914-.582-1.554-.582-.632 0-1.16.196-1.584.588-.424.392-.668.912-.732 1.56h4.524zm8.124-5.4V179h-.804v-1.44c-.24.472-.576.838-1.008 1.098-.432.26-.936.39-1.512.39-.592 0-1.12-.136-1.584-.408a2.8 2.8 0 0 1-1.08-1.14c-.256-.488-.384-1.04-.384-1.656 0-.616.13-1.164.39-1.644s.62-.856 1.08-1.128c.46-.272.982-.408 1.566-.408.576 0 1.082.132 1.518.396a2.68 2.68 0 0 1 1.014 1.104v-4.068h.804zm-1.956 7.938c.36-.212.642-.506.846-.882.204-.376.306-.804.306-1.284s-.102-.91-.306-1.29a2.276 2.276 0 0 0-2.07-1.218c-.456 0-.864.108-1.224.324a2.32 2.32 0 0 0-.852.894c-.208.38-.312.81-.312 1.29s.102.908.306 1.284c.204.376.488.67.852.882.364.212.774.318 1.23.318.456 0 .864-.106 1.224-.318z" fill="#001D22" opacity=".5"/><path d="M74.423 148.022C33.598 148.022.5 114.999.5 74.26.5 33.523 33.598.5 74.423.5s73.923 33.023 73.923 73.76c0 40.739-33.098 73.762-73.923 73.762zm0-5c38.066 0 68.923-30.787 68.923-68.761S112.489 5.5 74.423 5.5 5.5 36.287 5.5 74.26c0 37.975 30.857 68.762 68.923 68.762z" fill="#2F939C" fill-rule="nonzero" opacity=".1"/><path d="M74.423 5.5c38.066 0 68.923 30.787 68.923 68.76 0 37.975-30.857 68.762-68.923 68.762-22.002 0-42.274-10.353-55.212-27.596a2.5 2.5 0 0 0-4 3.001c13.874 18.489 35.62 29.595 59.212 29.595 40.825 0 73.923-33.023 73.923-73.761C148.346 33.523 115.248.5 74.423.5a2.5 2.5 0 1 0 0 5z" fill="#2F939C" fill-rule="nonzero"/><path d="M63.088 67.72c0-.384-.064-.744-.192-1.08a2.679 2.679 0 0 0-.552-.888 2.571 2.571 0 0 0-.852-.6 2.688 2.688 0 0 0-1.092-.216c-.4 0-.764.072-1.092.216a2.571 2.571 0 0 0-.852.6c-.24.256-.424.552-.552.888a3.008 3.008 0 0 0-.192 1.08c0 .384.064.74.192 1.068.128.328.312.62.552.876.24.256.524.456.852.6.328.144.692.216 1.092.216.4 0 .764-.072 1.092-.216.328-.144.612-.344.852-.6s.424-.548.552-.876c.128-.328.192-.684.192-1.068zm3.144-.072c0 .816-.144 1.568-.432 2.256a5.322 5.322 0 0 1-1.212 1.788 5.53 5.53 0 0 1-1.848 1.176 6.34 6.34 0 0 1-2.34.42 6.395 6.395 0 0 1-2.232-.408c-.736-.272-1.4-.716-1.992-1.332-.592-.616-1.068-1.42-1.428-2.412-.36-.992-.54-2.208-.54-3.648 0-1.456.144-2.764.432-3.924.288-1.16.704-2.144 1.248-2.952.544-.808 1.212-1.424 2.004-1.848.792-.424 1.684-.636 2.676-.636 1.488 0 2.708.424 3.66 1.272.952.848 1.54 2 1.764 3.456H62.8a2.482 2.482 0 0 0-.684-1.248c-.36-.368-.876-.552-1.548-.552-.928 0-1.652.388-2.172 1.164-.52.776-.844 1.764-.972 2.964.416-.336.9-.596 1.452-.78a5.317 5.317 0 0 1 1.692-.276c.816 0 1.568.136 2.256.408a5.485 5.485 0 0 1 1.788 1.128c.504.48.9 1.06 1.188 1.74.288.68.432 1.428.432 2.244zm13.08 0c0 .8-.152 1.544-.456 2.232a5.538 5.538 0 0 1-1.248 1.788c-.528.504-1.152.9-1.872 1.188a6.276 6.276 0 0 1-2.352.432c-.848 0-1.62-.124-2.316-.372a5.666 5.666 0 0 1-1.812-1.032 4.891 4.891 0 0 1-1.212-1.56 5.17 5.17 0 0 1-.516-1.956h3.192c.128.608.428 1.08.9 1.416.472.336 1.06.504 1.764.504.336 0 .672-.052 1.008-.156.336-.104.632-.268.888-.492.256-.224.464-.508.624-.852.16-.344.24-.756.24-1.236 0-.832-.244-1.512-.732-2.04s-1.124-.792-1.908-.792c-.512 0-.996.124-1.452.372a3.158 3.158 0 0 0-1.14 1.068l-2.856-.768.984-9.048h9.24v2.952h-6.792l-.408 3.48c.4-.256.828-.452 1.284-.588a4.726 4.726 0 0 1 1.356-.204 5.8 5.8 0 0 1 2.208.42 5.22 5.22 0 0 1 1.776 1.176 5.571 5.571 0 0 1 1.176 1.8c.288.696.432 1.452.432 2.268zm5.496-.336V73h-3.192V56.344h3.192v6.72l6.264-6.72h4.368l-6.768 6.96L95.728 73H91.6l-5.16-7.392-1.632 1.704zM67.155 93.528c0-.216-.042-.4-.126-.552a1.188 1.188 0 0 0-.324-.378 1.34 1.34 0 0 0-.462-.222 1.933 1.933 0 0 0-1.05 0 1.346 1.346 0 0 0-.456.222c-.132.1-.24.226-.324.378a1.126 1.126 0 0 0-.126.552c0 .216.042.4.126.552.084.152.194.28.33.384.136.104.29.18.462.228a1.891 1.891 0 0 0 1.032 0 1.35 1.35 0 0 0 .462-.228c.136-.104.246-.232.33-.384.084-.152.126-.336.126-.552zM64.6 89.904a.916.916 0 0 0 .348.738c.104.084.224.148.36.192a1.319 1.319 0 0 0 .822 0 1.2 1.2 0 0 0 .36-.192.916.916 0 0 0 .354-.738.874.874 0 0 0-.366-.738 1.251 1.251 0 0 0-.36-.174 1.379 1.379 0 0 0-.804 0c-.132.04-.252.098-.36.174a.82.82 0 0 0-.258.3.943.943 0 0 0-.096.438zm4.092 3.696c0 .36-.076.696-.228 1.008-.152.312-.36.582-.624.81a2.89 2.89 0 0 1-.942.534 3.539 3.539 0 0 1-1.182.192c-.424 0-.816-.064-1.176-.192a2.903 2.903 0 0 1-.936-.534 2.516 2.516 0 0 1-.624-.81 2.27 2.27 0 0 1-.228-1.008c0-.44.108-.84.324-1.2.216-.36.512-.652.888-.876a2.237 2.237 0 0 1-.636-.75 2.06 2.06 0 0 1-.228-.966c0-.32.066-.618.198-.894s.314-.514.546-.714c.232-.2.508-.356.828-.468a3.14 3.14 0 0 1 1.044-.168c.376 0 .724.056 1.044.168.32.112.598.268.834.468s.42.438.552.714c.132.276.198.574.198.894 0 .352-.076.672-.228.96a2.257 2.257 0 0 1-.636.744c.384.224.682.514.894.87.212.356.318.762.318 1.218zM71.32 96h-1.704v-1.692h1.704V96zm3.96 0h-1.584v-5.808H72.4V89.16c.184 0 .368-.03.552-.09a1.48 1.48 0 0 0 .87-.732c.1-.188.162-.41.186-.666h1.272V96zm8.844-3.06a.853.853 0 0 0-.648.282.957.957 0 0 0-.264.678c0 .264.088.49.264.678a.853.853 0 0 0 .648.282.859.859 0 0 0 .642-.282.945.945 0 0 0 .27-.678c0-.264-.09-.49-.27-.678a.859.859 0 0 0-.642-.282zm-4.848-2.208a.853.853 0 0 0 .648-.282.957.957 0 0 0 .264-.678.957.957 0 0 0-.264-.678.853.853 0 0 0-.648-.282.84.84 0 0 0-.636.282.957.957 0 0 0-.264.678c0 .264.088.49.264.678a.84.84 0 0 0 .636.282zM84.123 96a2.14 2.14 0 0 1-.84-.162 1.955 1.955 0 0 1-.66-.45 2.193 2.193 0 0 1-.438-.672 2.078 2.078 0 0 1-.162-.816 2.118 2.118 0 0 1 .6-1.482 2.077 2.077 0 0 1 1.5-.618c.296 0 .572.056.828.168a2.067 2.067 0 0 1 1.11 1.116c.108.256.162.528.162.816a2.138 2.138 0 0 1-.606 1.488 2.02 2.02 0 0 1-.666.45 2.108 2.108 0 0 1-.828.162zm-.78-8.328h1.284L80.055 96h-1.284l4.572-8.328zm-4.068 0c.296 0 .574.054.834.162.26.108.482.258.666.45.184.192.33.416.438.672.108.256.162.528.162.816 0 .288-.054.558-.162.81a2.214 2.214 0 0 1-.438.666 1.94 1.94 0 0 1-.666.45c-.26.108-.538.162-.834.162-.296 0-.572-.054-.828-.162a2.02 2.02 0 0 1-.666-.45 2.158 2.158 0 0 1-.444-.666 2.034 2.034 0 0 1-.162-.81 2.138 2.138 0 0 1 .606-1.488 2.02 2.02 0 0 1 .666-.45c.256-.108.532-.162.828-.162z" fill="#001D22"/><g fill="#001D22"><path d="M262.423 148.022c-40.825 0-73.923-33.023-73.923-73.761C188.5 33.523 221.598.5 262.423.5s73.923 33.023 73.923 73.76c0 40.739-33.098 73.762-73.923 73.762zm0-5c38.066 0 68.923-30.787 68.923-68.761S300.489 5.5 262.423 5.5 193.5 36.287 193.5 74.26c0 37.975 30.857 68.762 68.923 68.762z" fill-rule="nonzero" opacity=".1"/><path d="M262.423 5.5c38.066 0 68.923 30.787 68.923 68.76 0 26.373-15.014 50.061-38.265 61.602a2.5 2.5 0 1 0 2.223 4.478c24.935-12.376 41.042-37.789 41.042-66.08 0-40.737-33.098-73.76-73.923-73.76a2.5 2.5 0 1 0 0 5z" fill-rule="nonzero"/><path d="M251.244 73h-3.168V61.384h-2.592V59.32c.368 0 .736-.06 1.104-.18.368-.12.7-.3.996-.54.296-.24.544-.548.744-.924.2-.376.324-.82.372-1.332h2.544V73zm15.6-2.952V73H255.3v-1.416c0-.928.14-1.748.42-2.46.28-.712.656-1.34 1.128-1.884a8.626 8.626 0 0 1 1.608-1.44c.6-.416 1.22-.792 1.86-1.128.768-.416 1.38-.78 1.836-1.092.456-.312.8-.6 1.032-.864.232-.264.38-.512.444-.744a2.65 2.65 0 0 0 .096-.708c0-.56-.184-1.044-.552-1.452-.368-.408-.976-.612-1.824-.612-.832 0-1.48.28-1.944.84-.464.56-.696 1.272-.696 2.136h-3.192c0-.768.124-1.504.372-2.208a5.651 5.651 0 0 1 1.104-1.884 5.332 5.332 0 0 1 1.812-1.32c.72-.328 1.56-.492 2.52-.492s1.788.148 2.484.444c.696.296 1.272.68 1.728 1.152a4.62 4.62 0 0 1 1.02 1.608c.224.6.336 1.204.336 1.812 0 .784-.128 1.46-.384 2.028a5.22 5.22 0 0 1-1.044 1.524 8.33 8.33 0 0 1-1.572 1.236c-.608.376-1.272.756-1.992 1.14-.848.464-1.56.924-2.136 1.38-.576.456-.888.94-.936 1.452h8.016zm5.904-2.736V73h-3.192V56.344h3.192v6.72l6.264-6.72h4.368l-6.768 6.96L283.668 73h-4.128l-5.16-7.392-1.632 1.704zM261.435 94.524V96h-5.772v-.708c0-.464.07-.874.21-1.23.14-.356.328-.67.564-.942.236-.272.504-.512.804-.72.3-.208.61-.396.93-.564.384-.208.69-.39.918-.546.228-.156.4-.3.516-.432a.981.981 0 0 0 .222-.372c.032-.116.048-.234.048-.354 0-.28-.092-.522-.276-.726-.184-.204-.488-.306-.912-.306-.416 0-.74.14-.972.42-.232.28-.348.636-.348 1.068h-1.596c0-.384.062-.752.186-1.104.124-.352.308-.666.552-.942.244-.276.546-.496.906-.66.36-.164.78-.246 1.26-.246s.894.074 1.242.222c.348.148.636.34.864.576.228.236.398.504.51.804.112.3.168.602.168.906 0 .392-.064.73-.192 1.014a2.61 2.61 0 0 1-.522.762c-.22.224-.482.43-.786.618-.304.188-.636.378-.996.57-.424.232-.78.462-1.068.69-.288.228-.444.47-.468.726h4.008zm7.8-1.584a.853.853 0 0 0-.648.282.957.957 0 0 0-.264.678c0 .264.088.49.264.678a.853.853 0 0 0 .648.282.859.859 0 0 0 .642-.282.945.945 0 0 0 .27-.678c0-.264-.09-.49-.27-.678a.859.859 0 0 0-.642-.282zm-4.848-2.208a.853.853 0 0 0 .648-.282.957.957 0 0 0 .264-.678.957.957 0 0 0-.264-.678.853.853 0 0 0-.648-.282.84.84 0 0 0-.636.282.957.957 0 0 0-.264.678c0 .264.088.49.264.678a.84.84 0 0 0 .636.282zM269.235 96a2.14 2.14 0 0 1-.84-.162 1.955 1.955 0 0 1-.66-.45 2.193 2.193 0 0 1-.438-.672 2.078 2.078 0 0 1-.162-.816 2.118 2.118 0 0 1 .6-1.482 2.077 2.077 0 0 1 1.5-.618c.296 0 .572.056.828.168a2.067 2.067 0 0 1 1.11 1.116c.108.256.162.528.162.816a2.138 2.138 0 0 1-.606 1.488 2.02 2.02 0 0 1-.666.45 2.108 2.108 0 0 1-.828.162zm-.78-8.328h1.284L265.167 96h-1.284l4.572-8.328zm-4.068 0c.296 0 .574.054.834.162.26.108.482.258.666.45.184.192.33.416.438.672.108.256.162.528.162.816 0 .288-.054.558-.162.81a2.214 2.214 0 0 1-.438.666 1.94 1.94 0 0 1-.666.45c-.26.108-.538.162-.834.162-.296 0-.572-.054-.828-.162a2.02 2.02 0 0 1-.666-.45 2.158 2.158 0 0 1-.444-.666 2.034 2.034 0 0 1-.162-.81 2.138 2.138 0 0 1 .606-1.488 2.02 2.02 0 0 1 .666-.45c.256-.108.532-.162.828-.162z"/></g><g><path d="M450.423 148.022c-40.825 0-73.923-33.023-73.923-73.761C376.5 33.523 409.598.5 450.423.5s73.923 33.023 73.923 73.76c0 40.739-33.098 73.762-73.923 73.762zm0-5c38.066 0 68.923-30.787 68.923-68.761S488.489 5.5 450.423 5.5 381.5 36.287 381.5 74.26c0 37.975 30.857 68.762 68.923 68.762z" fill="#F9D031" fill-rule="nonzero" opacity=".1"/><path d="M450.423 5.5c38.066 0 68.923 30.787 68.923 68.76 0 37.975-30.857 68.762-68.923 68.762S381.5 112.235 381.5 74.26c0-14.583 4.558-28.475 12.903-40.067a2.5 2.5 0 0 0-4.058-2.92C381.393 43.707 376.5 58.62 376.5 74.26c0 40.738 33.098 73.76 73.923 73.76s73.923-33.022 73.923-73.76C524.346 33.523 491.248.5 450.423.5a2.5 2.5 0 1 0 0 5z" fill="#F9D031" fill-rule="nonzero"/><path d="M441.088 67.72c0-.384-.064-.744-.192-1.08a2.679 2.679 0 0 0-.552-.888 2.571 2.571 0 0 0-.852-.6 2.688 2.688 0 0 0-1.092-.216c-.4 0-.764.072-1.092.216a2.571 2.571 0 0 0-.852.6c-.24.256-.424.552-.552.888a3.008 3.008 0 0 0-.192 1.08c0 .384.064.74.192 1.068.128.328.312.62.552.876.24.256.524.456.852.6.328.144.692.216 1.092.216.4 0 .764-.072 1.092-.216.328-.144.612-.344.852-.6s.424-.548.552-.876c.128-.328.192-.684.192-1.068zm3.144-.072c0 .816-.144 1.568-.432 2.256a5.322 5.322 0 0 1-1.212 1.788 5.53 5.53 0 0 1-1.848 1.176 6.34 6.34 0 0 1-2.34.42 6.395 6.395 0 0 1-2.232-.408c-.736-.272-1.4-.716-1.992-1.332-.592-.616-1.068-1.42-1.428-2.412-.36-.992-.54-2.208-.54-3.648 0-1.456.144-2.764.432-3.924.288-1.16.704-2.144 1.248-2.952.544-.808 1.212-1.424 2.004-1.848.792-.424 1.684-.636 2.676-.636 1.488 0 2.708.424 3.66 1.272.952.848 1.54 2 1.764 3.456H440.8a2.482 2.482 0 0 0-.684-1.248c-.36-.368-.876-.552-1.548-.552-.928 0-1.652.388-2.172 1.164-.52.776-.844 1.764-.972 2.964.416-.336.9-.596 1.452-.78a5.317 5.317 0 0 1 1.692-.276c.816 0 1.568.136 2.256.408a5.485 5.485 0 0 1 1.788 1.128c.504.48.9 1.06 1.188 1.74.288.68.432 1.428.432 2.244zm13.08 0c0 .8-.152 1.544-.456 2.232a5.538 5.538 0 0 1-1.248 1.788c-.528.504-1.152.9-1.872 1.188a6.276 6.276 0 0 1-2.352.432c-.848 0-1.62-.124-2.316-.372a5.666 5.666 0 0 1-1.812-1.032 4.891 4.891 0 0 1-1.212-1.56 5.17 5.17 0 0 1-.516-1.956h3.192c.128.608.428 1.08.9 1.416.472.336 1.06.504 1.764.504.336 0 .672-.052 1.008-.156.336-.104.632-.268.888-.492.256-.224.464-.508.624-.852.16-.344.24-.756.24-1.236 0-.832-.244-1.512-.732-2.04s-1.124-.792-1.908-.792c-.512 0-.996.124-1.452.372a3.158 3.158 0 0 0-1.14 1.068l-2.856-.768.984-9.048h9.24v2.952h-6.792l-.408 3.48c.4-.256.828-.452 1.284-.588a4.726 4.726 0 0 1 1.356-.204 5.8 5.8 0 0 1 2.208.42 5.22 5.22 0 0 1 1.776 1.176 5.571 5.571 0 0 1 1.176 1.8c.288.696.432 1.452.432 2.268zm5.496-.336V73h-3.192V56.344h3.192v6.72l6.264-6.72h4.368l-6.768 6.96L473.728 73H469.6l-5.16-7.392-1.632 1.704zM445.155 93.528c0-.216-.042-.4-.126-.552a1.188 1.188 0 0 0-.324-.378 1.34 1.34 0 0 0-.462-.222 1.933 1.933 0 0 0-1.05 0 1.346 1.346 0 0 0-.456.222c-.132.1-.24.226-.324.378a1.126 1.126 0 0 0-.126.552c0 .216.042.4.126.552.084.152.194.28.33.384.136.104.29.18.462.228a1.891 1.891 0 0 0 1.032 0 1.35 1.35 0 0 0 .462-.228c.136-.104.246-.232.33-.384.084-.152.126-.336.126-.552zm-2.556-3.624a.916.916 0 0 0 .348.738c.104.084.224.148.36.192a1.319 1.319 0 0 0 .822 0 1.2 1.2 0 0 0 .36-.192.916.916 0 0 0 .354-.738.874.874 0 0 0-.366-.738 1.251 1.251 0 0 0-.36-.174 1.379 1.379 0 0 0-.804 0c-.132.04-.252.098-.36.174a.82.82 0 0 0-.258.3.943.943 0 0 0-.096.438zm4.092 3.696c0 .36-.076.696-.228 1.008-.152.312-.36.582-.624.81a2.89 2.89 0 0 1-.942.534 3.539 3.539 0 0 1-1.182.192c-.424 0-.816-.064-1.176-.192a2.903 2.903 0 0 1-.936-.534 2.516 2.516 0 0 1-.624-.81 2.27 2.27 0 0 1-.228-1.008c0-.44.108-.84.324-1.2.216-.36.512-.652.888-.876a2.237 2.237 0 0 1-.636-.75 2.06 2.06 0 0 1-.228-.966c0-.32.066-.618.198-.894s.314-.514.546-.714c.232-.2.508-.356.828-.468a3.14 3.14 0 0 1 1.044-.168c.376 0 .724.056 1.044.168.32.112.598.268.834.468s.42.438.552.714c.132.276.198.574.198.894 0 .352-.076.672-.228.96a2.257 2.257 0 0 1-.636.744c.384.224.682.514.894.87.212.356.318.762.318 1.218zm2.628 2.4h-1.704v-1.692h1.704V96zm3.96 0h-1.584v-5.808H450.4V89.16c.184 0 .368-.03.552-.09a1.48 1.48 0 0 0 .87-.732c.1-.188.162-.41.186-.666h1.272V96zm8.844-3.06a.853.853 0 0 0-.648.282.957.957 0 0 0-.264.678c0 .264.088.49.264.678a.853.853 0 0 0 .648.282.859.859 0 0 0 .642-.282.945.945 0 0 0 .27-.678c0-.264-.09-.49-.27-.678a.859.859 0 0 0-.642-.282zm-4.848-2.208a.853.853 0 0 0 .648-.282.957.957 0 0 0 .264-.678.957.957 0 0 0-.264-.678.853.853 0 0 0-.648-.282.84.84 0 0 0-.636.282.957.957 0 0 0-.264.678c0 .264.088.49.264.678a.84.84 0 0 0 .636.282zM462.123 96a2.14 2.14 0 0 1-.84-.162 1.955 1.955 0 0 1-.66-.45 2.193 2.193 0 0 1-.438-.672 2.078 2.078 0 0 1-.162-.816 2.118 2.118 0 0 1 .6-1.482 2.077 2.077 0 0 1 1.5-.618c.296 0 .572.056.828.168a2.067 2.067 0 0 1 1.11 1.116c.108.256.162.528.162.816a2.138 2.138 0 0 1-.606 1.488 2.02 2.02 0 0 1-.666.45 2.108 2.108 0 0 1-.828.162zm-.78-8.328h1.284L458.055 96h-1.284l4.572-8.328zm-4.068 0c.296 0 .574.054.834.162.26.108.482.258.666.45.184.192.33.416.438.672.108.256.162.528.162.816 0 .288-.054.558-.162.81a2.214 2.214 0 0 1-.438.666 1.94 1.94 0 0 1-.666.45c-.26.108-.538.162-.834.162-.296 0-.572-.054-.828-.162a2.02 2.02 0 0 1-.666-.45 2.158 2.158 0 0 1-.444-.666 2.034 2.034 0 0 1-.162-.81 2.138 2.138 0 0 1 .606-1.488 2.02 2.02 0 0 1 .666-.45c.256-.108.532-.162.828-.162z" fill="#001D22"/></g><g><path d="M638.423 148.022c-40.825 0-73.923-33.023-73.923-73.761C564.5 33.523 597.598.5 638.423.5s73.923 33.023 73.923 73.76c0 40.739-33.098 73.762-73.923 73.762zm0-5c38.066 0 68.923-30.787 68.923-68.761S676.489 5.5 638.423 5.5 569.5 36.287 569.5 74.26c0 37.975 30.857 68.762 68.923 68.762z" fill="#F9D031" fill-rule="nonzero" opacity=".1"/><path d="M638.423 5.5c38.066 0 68.923 30.787 68.923 68.76 0 15.856-5.393 30.882-15.13 42.993a2.5 2.5 0 0 0 3.897 3.133c10.445-12.99 16.233-29.12 16.233-46.125C712.346 33.523 679.248.5 638.423.5a2.5 2.5 0 1 0 0 5z" fill="#F9D031" fill-rule="nonzero"/><path d="M630.088 67.72c0-.384-.064-.744-.192-1.08a2.679 2.679 0 0 0-.552-.888 2.571 2.571 0 0 0-.852-.6 2.688 2.688 0 0 0-1.092-.216c-.4 0-.764.072-1.092.216a2.571 2.571 0 0 0-.852.6c-.24.256-.424.552-.552.888a3.008 3.008 0 0 0-.192 1.08c0 .384.064.74.192 1.068.128.328.312.62.552.876.24.256.524.456.852.6.328.144.692.216 1.092.216.4 0 .764-.072 1.092-.216.328-.144.612-.344.852-.6s.424-.548.552-.876c.128-.328.192-.684.192-1.068zm3.144-.072c0 .816-.144 1.568-.432 2.256a5.322 5.322 0 0 1-1.212 1.788 5.53 5.53 0 0 1-1.848 1.176 6.34 6.34 0 0 1-2.34.42 6.395 6.395 0 0 1-2.232-.408c-.736-.272-1.4-.716-1.992-1.332-.592-.616-1.068-1.42-1.428-2.412-.36-.992-.54-2.208-.54-3.648 0-1.456.144-2.764.432-3.924.288-1.16.704-2.144 1.248-2.952.544-.808 1.212-1.424 2.004-1.848.792-.424 1.684-.636 2.676-.636 1.488 0 2.708.424 3.66 1.272.952.848 1.54 2 1.764 3.456H629.8a2.482 2.482 0 0 0-.684-1.248c-.36-.368-.876-.552-1.548-.552-.928 0-1.652.388-2.172 1.164-.52.776-.844 1.764-.972 2.964.416-.336.9-.596 1.452-.78a5.317 5.317 0 0 1 1.692-.276c.816 0 1.568.136 2.256.408a5.485 5.485 0 0 1 1.788 1.128c.504.48.9 1.06 1.188 1.74.288.68.432 1.428.432 2.244zm13.08 0c0 .8-.152 1.544-.456 2.232a5.538 5.538 0 0 1-1.248 1.788c-.528.504-1.152.9-1.872 1.188a6.276 6.276 0 0 1-2.352.432c-.848 0-1.62-.124-2.316-.372a5.666 5.666 0 0 1-1.812-1.032 4.891 4.891 0 0 1-1.212-1.56 5.17 5.17 0 0 1-.516-1.956h3.192c.128.608.428 1.08.9 1.416.472.336 1.06.504 1.764.504.336 0 .672-.052 1.008-.156.336-.104.632-.268.888-.492.256-.224.464-.508.624-.852.16-.344.24-.756.24-1.236 0-.832-.244-1.512-.732-2.04s-1.124-.792-1.908-.792c-.512 0-.996.124-1.452.372a3.158 3.158 0 0 0-1.14 1.068l-2.856-.768.984-9.048h9.24v2.952h-6.792l-.408 3.48c.4-.256.828-.452 1.284-.588a4.726 4.726 0 0 1 1.356-.204 5.8 5.8 0 0 1 2.208.42 5.22 5.22 0 0 1 1.776 1.176 5.571 5.571 0 0 1 1.176 1.8c.288.696.432 1.452.432 2.268zm5.496-.336V73h-3.192V56.344h3.192v6.72l6.264-6.72h4.368l-6.768 6.96L662.728 73H658.6l-5.16-7.392-1.632 1.704zM634.155 93.528c0-.216-.042-.4-.126-.552a1.188 1.188 0 0 0-.324-.378 1.34 1.34 0 0 0-.462-.222 1.933 1.933 0 0 0-1.05 0 1.346 1.346 0 0 0-.456.222c-.132.1-.24.226-.324.378a1.126 1.126 0 0 0-.126.552c0 .216.042.4.126.552.084.152.194.28.33.384.136.104.29.18.462.228a1.891 1.891 0 0 0 1.032 0 1.35 1.35 0 0 0 .462-.228c.136-.104.246-.232.33-.384.084-.152.126-.336.126-.552zm-2.556-3.624a.916.916 0 0 0 .348.738c.104.084.224.148.36.192a1.319 1.319 0 0 0 .822 0 1.2 1.2 0 0 0 .36-.192.916.916 0 0 0 .354-.738.874.874 0 0 0-.366-.738 1.251 1.251 0 0 0-.36-.174 1.379 1.379 0 0 0-.804 0c-.132.04-.252.098-.36.174a.82.82 0 0 0-.258.3.943.943 0 0 0-.096.438zm4.092 3.696c0 .36-.076.696-.228 1.008-.152.312-.36.582-.624.81a2.89 2.89 0 0 1-.942.534 3.539 3.539 0 0 1-1.182.192c-.424 0-.816-.064-1.176-.192a2.903 2.903 0 0 1-.936-.534 2.516 2.516 0 0 1-.624-.81 2.27 2.27 0 0 1-.228-1.008c0-.44.108-.84.324-1.2.216-.36.512-.652.888-.876a2.237 2.237 0 0 1-.636-.75 2.06 2.06 0 0 1-.228-.966c0-.32.066-.618.198-.894s.314-.514.546-.714c.232-.2.508-.356.828-.468a3.14 3.14 0 0 1 1.044-.168c.376 0 .724.056 1.044.168.32.112.598.268.834.468s.42.438.552.714c.132.276.198.574.198.894 0 .352-.076.672-.228.96a2.257 2.257 0 0 1-.636.744c.384.224.682.514.894.87.212.356.318.762.318 1.218zm2.628 2.4h-1.704v-1.692h1.704V96zm3.96 0h-1.584v-5.808H639.4V89.16c.184 0 .368-.03.552-.09a1.48 1.48 0 0 0 .87-.732c.1-.188.162-.41.186-.666h1.272V96zm8.844-3.06a.853.853 0 0 0-.648.282.957.957 0 0 0-.264.678c0 .264.088.49.264.678a.853.853 0 0 0 .648.282.859.859 0 0 0 .642-.282.945.945 0 0 0 .27-.678c0-.264-.09-.49-.27-.678a.859.859 0 0 0-.642-.282zm-4.848-2.208a.853.853 0 0 0 .648-.282.957.957 0 0 0 .264-.678.957.957 0 0 0-.264-.678.853.853 0 0 0-.648-.282.84.84 0 0 0-.636.282.957.957 0 0 0-.264.678c0 .264.088.49.264.678a.84.84 0 0 0 .636.282zM651.123 96a2.14 2.14 0 0 1-.84-.162 1.955 1.955 0 0 1-.66-.45 2.193 2.193 0 0 1-.438-.672 2.078 2.078 0 0 1-.162-.816 2.118 2.118 0 0 1 .6-1.482 2.077 2.077 0 0 1 1.5-.618c.296 0 .572.056.828.168a2.067 2.067 0 0 1 1.11 1.116c.108.256.162.528.162.816a2.138 2.138 0 0 1-.606 1.488 2.02 2.02 0 0 1-.666.45 2.108 2.108 0 0 1-.828.162zm-.78-8.328h1.284L647.055 96h-1.284l4.572-8.328zm-4.068 0c.296 0 .574.054.834.162.26.108.482.258.666.45.184.192.33.416.438.672.108.256.162.528.162.816 0 .288-.054.558-.162.81a2.214 2.214 0 0 1-.438.666 1.94 1.94 0 0 1-.666.45c-.26.108-.538.162-.834.162-.296 0-.572-.054-.828-.162a2.02 2.02 0 0 1-.666-.45 2.158 2.158 0 0 1-.444-.666 2.034 2.034 0 0 1-.162-.81 2.138 2.138 0 0 1 .606-1.488 2.02 2.02 0 0 1 .666-.45c.256-.108.532-.162.828-.162z" fill="#001D22"/></g></g></svg>