<svg id="svg2" xmlns="http://www.w3.org/2000/svg" viewBox="0 0 206 125"><style>.st0{fill:#fff}</style><path class="st0" d="M183.1 38c0 11.7-4.4 19.9-13.1 24.6l17.2 40.9h-22.4l-12.5-37H142v37h-20.5v-37H97v36.9H76.4V84.2H50.5l-10.1 19.3H19.6h.1l41-75.3C66.4 17.4 77.8 10 90.9 10l7 .1H97h21.9v16H97v27.2h24.5V10.1h29.4c5.7 0 10.1.3 13.1.8s6.1 1.9 9.2 4.2c3.1 2.3 5.5 5.5 7.3 9.4 1.7 4.1 2.6 8.5 2.6 13.5m-25.9-11.7c-1.6-.7-3.9-1.1-6.9-1.1H142v28.1h14.4c4.4-1.7 6.7-8.7 6.7-15.4 0-3.1-.6-5.6-1.8-7.6-1.2-2-2.5-3.3-4.1-4M20 115.3l2.2.1c-.1 1.2-.5 2.2-1.1 2.9-.7.8-1.6 1.1-2.7 1.1-1.4 0-2.4-.5-3.1-1.5-.7-1-1.1-2.4-1.1-4.2 0-1.8.4-3.2 1.1-4.2.7-1 1.8-1.5 3.2-1.5 2.3 0 3.6 1.4 3.8 4.3l-2.2.2c-.1-1.6-.6-2.5-1.5-2.5-.5 0-.9.3-1.2.8-.3.5-.5 1.6-.5 3.1 0 1.4.1 2.3.4 2.8.3.5.7.8 1.2.8.8 0 1.3-.7 1.5-2.2M29 115.3l2.2.1c-.1 1.2-.5 2.2-1.1 2.9-.7.8-1.6 1.1-2.7 1.1-1.4 0-2.4-.5-3.1-1.5-.7-1-1.1-2.4-1.1-4.2 0-1.8.4-3.2 1.1-4.2.7-1 1.8-1.5 3.2-1.5 2.3 0 3.6 1.4 3.8 4.3l-2.2.2c-.1-1.6-.6-2.5-1.5-2.5-.5 0-.9.3-1.2.8-.3.5-.5 1.6-.5 3.1 0 1.4.1 2.3.4 2.8.3.5.7.8 1.2.8.9 0 1.4-.7 1.5-2.2M32.7 108.2h6.8v1.9h-4.3v2.6h3.3v1.9h-3.3v2.7h4.3v2h-6.8zM47.4 110.7l-2 .8c-.3-.9-.8-1.4-1.6-1.4-.4 0-.6.1-.9.3-.2.2-.3.4-.3.7 0 .3.1.6.4.8.2.2.8.4 1.5.7.7.3 1.3.5 1.7.8.4.3.7.6 1 1.1.2.4.4 1 .4 1.6 0 1-.4 1.9-1.1 2.5-.7.7-1.7 1-2.9 1-2 0-3.3-1-3.8-3l2.1-.6c.3 1.1.9 1.7 1.8 1.7.4 0 .8-.1 1-.3.3-.2.4-.5.4-.9 0-.3-.1-.5-.3-.7-.2-.2-.6-.4-1.3-.7-.8-.3-1.5-.6-1.9-.8-.4-.2-.8-.6-1-1.1-.3-.5-.4-1-.4-1.6 0-1 .3-1.8 1-2.4.6-.6 1.5-1 2.5-1 2-.1 3.2.7 3.7 2.5M55.9 110.7l-2 .8c-.3-.9-.8-1.4-1.6-1.4-.4 0-.6.1-.8.3-.2.2-.3.4-.3.7 0 .3.1.6.4.8.2.2.8.4 1.6.7.7.3 1.3.5 1.7.8.4.3.7.6 1 1.1.3.4.4 1 .4 1.6 0 1-.4 1.9-1.1 2.5-.7.7-1.7 1-2.9 1-2 0-3.3-1-3.8-3l2.1-.6c.3 1.1.9 1.7 1.8 1.7.4 0 .8-.1 1-.3.3-.2.4-.5.4-.9 0-.3-.1-.5-.3-.7-.2-.2-.6-.4-1.3-.7-.9-.3-1.5-.6-1.9-.8-.4-.2-.8-.6-1-1.1-.3-.5-.4-1-.4-1.6 0-1 .3-1.8 1-2.4.6-.6 1.5-1 2.5-1 1.8-.1 3 .7 3.5 2.5M59.5 108.2h6.9v2.1h-2.3v9h-2.4v-9h-2.2zM72.5 113.8c0-1.5-.1-2.5-.4-3-.2-.5-.6-.7-1.1-.7-.5 0-.9.2-1.1.7-.2.5-.3 1.5-.3 3s.1 2.4.3 3c.2.5.6.8 1.1.8.5 0 .9-.2 1.1-.7.3-.6.4-1.6.4-3.1m2.6 0c0 3.8-1.3 5.7-4 5.7-1.3 0-2.3-.5-3-1.5-.7-1-1-2.4-1-4.3 0-3.8 1.3-5.7 4-5.7 1.3 0 2.3.5 3 1.4.6 1.1 1 2.5 1 4.4M79.9 108.2h6.5v1.9h-4.1v2.9h3.2v1.9h-3.2v4.4h-2.4zM87.2 108.2h2.4v11.1h-2.4zM91.7 108.2h2.7l2.8 6.9v-6.9h1.9v11.1h-2.2l-3.4-8v8h-1.8zM105.5 115.1l-1.1-4.5-1.1 4.5h2.2zm-2.1-6.9h2.5l3.2 11.1h-2.5l-.6-2.3h-3.1l-.5 2.3H100l3.4-11.1zM109.8 108.2h2.7l2.9 6.9v-6.9h1.8v11.1h-2.1l-3.4-8v8h-1.9zM124.6 115.3l2.2.1c-.1 1.2-.5 2.2-1.1 2.9-.7.8-1.6 1.1-2.7 1.1-1.4 0-2.4-.5-3.1-1.5-.7-1-1.1-2.4-1.1-4.2 0-1.8.4-3.2 1.1-4.2.7-1 1.8-1.5 3.2-1.5 2.3 0 3.6 1.4 3.8 4.3l-2.2.2c-.1-1.6-.6-2.5-1.5-2.5-.5 0-.9.3-1.2.8-.3.5-.5 1.6-.5 3.1 0 1.4.1 2.3.4 2.8.3.5.7.8 1.2.8.9 0 1.4-.7 1.5-2.2M128.3 108.2h6.7v1.9h-4.3v2.6h3.4v1.9h-3.4v2.7h4.3v2h-6.7zM141.8 110v3.1h1.1c1 0 1.4-.5 1.4-1.6 0-.4-.1-.7-.2-.9-.1-.2-.3-.4-.5-.5-.2-.1-.5-.1-.8-.1h-1zm-2.5-1.8h3.5c.7 0 1.2 0 1.6.1.4.1.7.2 1.1.5.4.3.7.6.9 1.1.2.5.3 1 .3 1.6 0 1.4-.5 2.4-1.6 2.9l2 4.8h-2.7l-1.5-4.4h-1.2v4.4h-2.4v-11zM147.3 108.2h2.5l1.2 7.7 1.4-7.7h2.2l1.4 7.8 1.4-7.8h2l-2.4 11.2h-2.1l-1.5-7.7-1.5 7.7h-2.2zM164.3 115.1l-1.1-4.5-1.1 4.5h2.2zm-2.1-6.9h2.5l3.2 11.1h-2.5l-.6-2.3h-3.1l-.5 2.3H159l3.2-11.1zM168.7 108.2h2.7l2.8 6.9v-6.9h1.9v11.1h-2.2l-3.4-8v8h-1.8zM180.5 110.1v7.3h.4c.6 0 1-.1 1.3-.3.3-.2.6-.6.7-1.1.2-.5.3-1.3.3-2.3 0-.9-.1-1.7-.3-2.2-.2-.5-.5-.9-.8-1-.3-.2-.7-.3-1.3-.3h-.3zm-2.4-1.9h2.6c1.1 0 2.1.2 2.8.5.7.3 1.3.9 1.7 1.7.4.8.6 1.9.6 3.3 0 1-.1 1.9-.4 2.6-.3.8-.6 1.4-1 1.8-.4.4-.9.7-1.4.9-.5.2-1.2.2-2 .2h-2.9v-11zM9.3 115.1H7.2l1.5-2.9.5-1 1 3.9h-.9zm1.3-6.9H8.4l-.8 1.4-5.3 9.7H5l1.2-2.3h4.5l.6 2.3h2.5l-3.2-11.1zM189.8 115.1l1-3.9.5 1 1.5 2.9h-3zm-3.5 4.2h2.5l.6-2.3h4.5l1.2 2.3h2.6l-5.3-9.7-.8-1.4h-2.1l-3.2 11.1z"/><path fill="#f3d054" d="M76.3 71l.1-36.1-19 36.1z"/></svg>