<?xml version="1.0" encoding="UTF-8"?>
<svg width="446px" height="140px" viewBox="0 0 446 140" version="1.1" xmlns="http://www.w3.org/2000/svg" xmlns:xlink="http://www.w3.org/1999/xlink">
    <!-- Generator: Sketch 49.3 (51167) - http://www.bohemiancoding.com/sketch -->
    <title>CGAP_white</title>
    <desc>Created with Sketch.</desc>
    <defs></defs>
    <g id="Page-1" stroke="none" stroke-width="1" fill="none" fill-rule="evenodd">
        <g id="CGAP_white" fill="#FFFFFE">
            <path d="M206.562,45.649 L201.498,45.649 C197.76,34.315 185.942,29.853 175.572,29.853 C154.59,29.853 145.906,46.735 145.906,66.993 C145.906,100.997 170.506,106.785 180.515,106.785 C190.284,106.785 199.086,102.565 204.391,94.125 L208.129,95.692 L204.391,109.077 C194.746,110.885 188.715,111.85 180.877,111.85 C144.942,111.85 129.146,89.665 129.146,67.958 C129.146,43.117 148.319,24.788 175.331,24.788 C191.006,24.788 197.036,27.442 205.598,29.611 L206.562,45.649 Z M283.475,41.308 L278.779,41.308 C274.542,32.988 265.718,29.853 257.585,29.853 C235.936,29.853 224.365,44.926 224.365,66.993 C224.365,89.665 236.966,106.785 259.192,106.785 C265.146,106.785 269.156,106.183 272.021,104.374 C274.769,102.565 275.114,100.514 275.114,92.558 C275.114,84.358 273.852,82.911 270.418,81.826 L270.418,79.173 C273.969,79.413 277.521,79.535 281.186,79.535 C284.737,79.535 288.289,79.413 291.839,79.173 L291.839,81.826 C288.861,82.308 287.372,84.237 287.372,91.352 C287.372,97.983 287.716,101.841 287.83,105.821 C279.238,109.559 269.156,111.85 259.877,111.85 C234.56,111.85 208.442,97.741 208.442,67.595 C208.442,36.124 234.101,24.788 257.471,24.788 C267.898,24.788 275.686,26.597 282.79,29.129 L283.475,41.308 Z M313.518,85.51 L309.938,96.12 C309.274,98.169 309.008,100.823 309.008,102.149 C309.008,105.043 310.599,107.334 313.784,107.334 L313.784,109.987 C309.938,109.987 306.222,109.505 302.376,109.505 C298.528,109.505 294.816,109.987 290.97,109.987 L290.97,107.334 C296.274,106.37 301.314,95.036 303.834,89.249 L332.087,24.372 L333.681,24.372 L362.73,92.142 C367.373,102.872 368.565,106.852 373.34,107.334 L373.34,109.987 C368.831,109.987 364.454,109.505 359.945,109.505 C355.435,109.505 351.055,109.987 346.545,109.987 L346.545,107.334 C349.332,107.334 350.922,105.647 350.922,102.872 C350.922,101.185 350.261,99.134 349.332,96.723 L344.689,85.51 L313.518,85.51 Z M342.301,79.721 L328.906,48.008 L316.039,79.721 L342.301,79.721 Z M375.013,25.819 C380.838,25.819 386.664,26.301 392.488,26.301 C398.313,26.301 404,25.819 409.821,25.819 C430.07,25.819 445.322,33.417 445.322,50.781 C445.322,68.748 426.6,77.913 407.879,77.913 C404.414,77.913 400.948,77.671 397.342,77.43 L397.342,98.29 C397.342,102.994 399.145,106.25 404.552,107.334 L404.552,109.987 C399.699,109.987 394.844,109.505 389.99,109.505 C385.135,109.505 380.145,109.987 375.292,109.987 L375.292,107.334 C382.226,106.49 382.501,101.064 382.501,95.396 L382.501,70.437 C382.501,58.137 381.669,47.284 381.669,37.757 C381.669,32.692 380.424,29.677 375.013,28.472 L375.013,25.819 Z M397.204,68.748 C397.204,72.728 399.284,73.571 405.663,73.571 C422.303,73.571 428.407,64.888 428.407,51.504 C428.407,38.963 421.611,28.955 406.216,28.955 C399.42,28.955 397.756,30.039 397.756,33.055 L397.204,68.748 Z M83.321,5.984 C90.518,27.61 74.571,44.766 65.68,62.208 C56.293,75.043 48.954,88.809 50.153,106.18 C69.136,110.215 91.225,107.405 103.082,88.879 C110.703,78.861 112.044,65.238 110.139,52.117 C106.258,42.82 102.304,33.523 93.908,26.169 C105.482,30.132 115.854,41.594 120.725,52.838 C125.898,72.782 117.619,86.068 104.492,96.81 C97.93,102.719 90.378,106.18 82.616,109.064 C72.664,111.586 61.163,112.379 50.858,111.946 C51.634,124.776 64.405,135.663 74.853,139.337 C64.337,137.898 54.387,133.643 48.036,123.48 C45.707,119.226 43.942,114.685 43.096,109.783 C27.499,103.369 8.021,92.918 2.871,74.464 C-1.505,59.613 0.542,41.449 12.045,31.215 L19.808,31.215 C12.045,43.901 10.631,62.86 15.572,77.348 C20.441,88.809 31.169,96.521 40.979,103.296 C41.684,75.906 60.386,56.155 68.501,31.935 C61.442,27.538 51.56,27.996 44.018,31.456 C40.015,33.289 34.366,39.593 34.376,43.468 C34.398,50.607 35.473,57.308 40.979,62.208 C34.346,61.922 28.488,58.101 24.746,52.117 C21.432,46.352 24.536,39.719 27.57,34.819 C37.45,24.366 52.974,21.482 66.385,26.169 C67.653,26.602 68.501,28.113 69.915,28.33 C72.523,19.825 77.182,8.725 71.326,0.218 C75.771,1.083 81.273,0.796 83.321,5.984 Z"></path>
        </g>
    </g>
</svg>