<svg width="814" height="193" xmlns="http://www.w3.org/2000/svg"><g fill="none" fill-rule="evenodd"><path d="M296.9 52.3v-28H167.3l-12.9 93.5-12.9-93.5H.2v28h26.4v115.5h31.8v-55.4h27.8V85.8H58.4V52.3h35.8L91 157.1c9.6-2.7 19.9-4.9 30.7-6.4V61.9l14.4 87.2c11.6-.8 23.7-.8 36.3.5L187 61.9v89.7c10 1.7 20.3 4.3 30.8 7.8l-3.3-107.1h24.3v115.5h31.7V52.3h26.4z" fill="#FFF"/><path d="M349.3 0v192.1" stroke="#FFF" stroke-width="1.515"/><g fill="#FFF"><path d="M434.5 173.2c-1.3.7-4.3 1.4-8.1 1.4-9.9 0-16-6.2-16-15.8 0-10.3 7.2-16.6 16.7-16.6 3.8 0 6.5.8 7.6 1.4l-1.3 4.6c-1.5-.7-3.5-1.2-6.1-1.2-6.4 0-11 4-11 11.5 0 6.9 4 11.3 10.9 11.3 2.3 0 4.7-.5 6.2-1.2l1.1 4.6z"/><path d="M460 162.6c0 8.3-5.9 12-11.6 12-6.4 0-11.3-4.4-11.3-11.7 0-7.4 4.9-12 11.7-12 6.7.1 11.2 4.8 11.2 11.7zm-17 .2c0 4.4 2.1 7.7 5.6 7.7 3.3 0 5.5-3.2 5.5-7.8 0-3.5-1.6-7.6-5.5-7.6-4 .1-5.6 4-5.6 7.7z" fill-rule="nonzero"/><path d="M464.7 158.2c0-2.6 0-4.8-.2-6.7h5l.3 3.4h.1c1-1.8 3.4-3.9 7.2-3.9 4 0 8 2.6 8 9.7v13.4h-5.7v-12.8c0-3.3-1.2-5.7-4.3-5.7-2.3 0-3.9 1.6-4.5 3.3-.2.5-.2 1.2-.2 1.9v13.3h-5.8v-15.9h.1zM491 168.9c1.3.8 3.8 1.6 5.8 1.6 2.5 0 3.6-1 3.6-2.5s-.9-2.3-3.7-3.3c-4.4-1.5-6.3-4-6.2-6.6 0-4 3.3-7.1 8.6-7.1 2.5 0 4.7.7 6 1.3l-1.1 4c-1-.6-2.8-1.3-4.8-1.3s-3.2 1-3.2 2.4 1.1 2.1 4 3.2c4.1 1.5 6 3.6 6 6.9 0 4.1-3.2 7.1-9.2 7.1-2.7 0-5.2-.7-6.9-1.6l1.1-4.1zM531 167.3c0 2.7.1 4.9.2 6.8h-5l-.3-3.4h-.1c-1 1.6-3.2 4-7.3 4s-7.9-2.5-7.9-9.9v-13.3h5.7v12.3c0 3.8 1.2 6.2 4.2 6.2 2.3 0 3.8-1.6 4.4-3.1.2-.5.3-1.1.3-1.8v-13.7h5.7v15.9h.1zM537.2 158.2c0-2.6 0-4.8-.2-6.7h4.9l.2 3.3h.1c1.1-1.8 3.2-3.9 7-3.9 3 0 5.3 1.7 6.3 4.2h.1c.8-1.3 1.7-2.2 2.8-2.8 1.3-.9 2.7-1.3 4.6-1.3 3.8 0 7.6 2.6 7.6 9.8v13.3H565v-12.5c0-3.8-1.3-6-4-6-2 0-3.4 1.4-4 3-.1.6-.3 1.3-.3 1.9v13.6h-5.6V161c0-3.2-1.3-5.4-3.9-5.4-2.1 0-3.6 1.7-4.1 3.3-.2.6-.3 1.2-.3 1.9v13.4h-5.6v-16z"/><path d="M580.6 164.4c.1 4.1 3.3 5.9 7 5.9 2.6 0 4.6-.4 6.3-1l.8 4c-2 .8-4.6 1.4-7.9 1.4-7.3 0-11.7-4.5-11.7-11.4 0-6.3 3.8-12.2 11.1-12.2s9.8 6 9.8 11c0 1.1-.1 1.9-.2 2.4h-15.2v-.1zm10-4c0-2.1-.9-5.5-4.7-5.5-3.5 0-5 3.2-5.3 5.5h10z" fill-rule="nonzero"/><path d="M600.6 158.8c0-3.1 0-5.3-.2-7.3h5l.2 4.3h.2c1.1-3.2 3.8-4.8 6.2-4.8.6 0 .9 0 1.3.1v5.4c-.5-.1-1-.2-1.7-.2-2.7 0-4.6 1.8-5.1 4.3-.1.5-.2 1.1-.2 1.8v11.7h-5.7v-15.3z"/><path d="M671.6 68.5c-15.8 0-28.5 12.8-28.5 28.5 0 15.8 12.8 28.5 28.5 28.5 15.8 0 28.5-12.8 28.5-28.5s-12.8-28.5-28.5-28.5m0 45.5c-9.4 0-17-7.6-17-17s7.6-17 17-17 17 7.6 17 17c-.1 9.4-7.7 17-17 17" fill-rule="nonzero"/><path d="M636.278 136.034l20.227-26.58 10.266 7.812-20.227 26.58zM408.8 51.8h39.8v10.4h-27.2v19h25.4v10.4h-25.4v29.3h-12.6z"/><path d="M471.6 57.1c0 3.8-2.8 6.8-7.2 6.8-4.2 0-7-3-7-6.8 0-3.9 2.9-6.9 7.1-6.9 4.3 0 7 3 7.1 6.9zM458.2 71h12.7v49.9h-12.7V71z" fill-rule="nonzero"/><path d="M484.4 85.9c0-5.7-.1-10.6-.4-14.9h11l.6 7.5h.3c2.1-3.9 7.6-8.6 15.9-8.6 8.7 0 17.7 5.6 17.7 21.4v29.6H517V92.7c0-7.2-2.7-12.6-9.5-12.6-5 0-8.5 3.6-9.8 7.4-.4 1.1-.5 2.7-.5 4.1v29.3h-12.7v-35h-.1zM543.2 107.2c4.1 2.4 10.2 4.4 16.7 4.4 8.1 0 12.6-3.8 12.6-9.4 0-5.2-3.5-8.3-12.3-11.5-11.4-4.1-18.6-10.1-18.6-20.1 0-11.3 9.4-19.9 24.4-19.9 7.5 0 13 1.6 16.6 3.5l-3.1 10.1C577 63 572.2 61 565.8 61c-8 0-11.5 4.3-11.5 8.3 0 5.3 4 7.8 13.2 11.4 12 4.5 17.8 10.6 17.8 20.5 0 11.1-8.4 20.7-26.2 20.7-7.3 0-14.9-2.1-18.6-4.3l2.7-10.4zM633.4 119.4c-2.7 1.2-7.9 2.6-14.1 2.6-15.6 0-25.7-9.9-25.7-25.4 0-15 10.2-26.6 27.8-26.6 4.6 0 9.3 1 12.2 2.4l-2.3 9.4c-2.1-.9-5-1.9-9.5-1.9-9.6 0-15.4 7.1-15.3 16.2 0 10.2 6.7 16.1 15.3 16.1 4.4 0 7.5-.9 9.9-1.9l1.7 9.1z"/><path d="M710.5 87.6c0-6.6-.2-11.9-.4-16.6h11.1l.6 7.7h.2c3.7-5.6 9.5-8.8 17.1-8.8 11.5 0 21 9.8 21 25.4 0 18-11.4 26.7-22.7 26.7-6.2 0-11.5-2.7-14-6.7h-.2v25.8h-12.6V87.6h-.1zm12.6 12.4c0 1.2.1 2.4.4 3.5 1.2 5.1 5.7 8.8 11.1 8.8 8 0 12.7-6.7 12.7-16.5 0-8.8-4.3-16-12.4-16-5.2 0-10 3.8-11.3 9.3-.3 1-.5 2.2-.5 3.2v7.7zM779.4 99.5c.3 9 7.4 12.9 15.4 12.9 5.8 0 10-.8 13.8-2.3l1.8 8.7c-4.3 1.7-10.2 3.1-17.4 3.1-16.2 0-25.7-9.9-25.7-25.2 0-13.8 8.4-26.8 24.4-26.8 16.2 0 21.5 13.3 21.5 24.3 0 2.4-.2 4.2-.4 5.3h-33.4zm21.9-8.8c.1-4.6-1.9-12.2-10.3-12.2-7.8 0-11.1 7.1-11.6 12.2h21.9z" fill-rule="nonzero"/></g></g></svg>