<?xml version="1.0" encoding="utf-8"?>
<!-- Generator: Adobe Illustrator 22.0.1, SVG Export Plug-In . SVG Version: 6.00 Build 0)  -->
<svg version="1.1" id="Layer_1" xmlns="http://www.w3.org/2000/svg" xmlns:xlink="http://www.w3.org/1999/xlink" x="0px" y="0px"
	 viewBox="0 0 1051.5 623.9" style="enable-background:new 0 0 1051.5 623.9;" xml:space="preserve">
<style type="text/css">
	.st0{display:none;}
	.st1{display:inline;}
	.st2{fill:#FFFFFF;}
</style>
<g id="Layer_1_1_" class="st0">
	<path class="st1" d="M1729.2,682.5c0,199.8,0,398.6,0,597.3c-7.6,2.1-606,2.5-618,0.5c0-199,0-398,0-597.8
		C1317.2,682.5,1522.6,682.5,1729.2,682.5z M1367.3,835.9c4.7-0.3,9-0.8,13.2-0.8c47.7-0.1,95.3,0,143-0.1c4.2,0,8.3-0.5,13.1-0.9
		c0-8.4,0.1-15.7,0-23c-0.1-7.2-0.3-14.3-0.4-21.5c-75.6,0-149.8,0-224.4,0c0,138.9,0,277,0,416.3c18.5,0.1,36.2,0.5,55.2-0.3
		c0-63.1,0-124.9,0-187.7c14.1,0,27.1,0,40,0c12.7,0,25.3,0,38,0c13,0,26,0,39,0c12.8,0,25.7-0.2,38.9-0.2c0-15.9,0-30.4,0-46.1
		c-52.3,0-103.8,0-155.6,0C1367.3,925.8,1367.3,881.3,1367.3,835.9z"/>
	<path class="st1" d="M403.1,683c0,199.7,0,398.5,0,597.8c-206,0-411.5,0-616.9,0c-2-7.4-2.5-586-0.4-597.8
		C-8.9,683,196.6,683,403.1,683z M228.1,800.1c-3.8-1.9-6.1-3.3-8.6-4.2c-5.9-2.2-11.9-4.5-18-6c-40.6-10.4-81.8-12.3-122.8-4
		c-77.1,15.6-130.3,60-155.9,135c-15.5,45.2-16.6,91.8-6.2,138.1c17.6,77.7,65.1,127.3,142.9,146.4c32.7,8.1,66,7.9,99.3,3.9
		c19.2-2.3,38.2-5.8,56.4-12.6c3.9-1.5,7.6-3.6,11.5-5.5c-2-8.1-3.6-15.2-5.4-22.3c-1.7-6.9-3.5-13.8-5.4-21c-2.7,0.8-4,1.2-5.2,1.6
		c-38.9,15.1-79,19-119.8,11.8c-53.8-9.5-91.9-39.5-110.4-91.6c-17.2-48.5-16.5-97.7,0.6-146c14.5-40.8,42.3-70.1,83.3-84.9
		c46.6-16.8,93.5-15,139.9,1.7c3,1.1,6,2.2,9.9,3.7C219,829.2,223.4,815,228.1,800.1z"/>
	<path class="st1" d="M1062.9,637.3c-205.8,0-411,0-616.1,0c-2.2-8.1-2.3-592.3-0.1-602.2c205.2,0,410.6,0,616,0
		C1064.7,43.1,1065,626.1,1062.9,637.3z M599.5,139.8c0,5.2,0,9.2,0,13.1c0,61,0,122,0,182.9c0,23.3-0.2,46.7,0.5,70
		c0.7,22.4,4.6,44.4,12.1,65.6c16.7,47.5,49,77.6,98.7,87.9c24.4,5.1,49.1,5.1,73.5,0.8c52-9,88.6-37.6,108.3-87
		c12-30.2,15-62,15.1-94.1c0.1-76,0.1-151.9,0-227.9c0-3.6-0.4-7.2-0.7-11.8c-18.6,0.2-36.3-0.6-55.2,0.6c0,5.2,0,9.4,0,13.7
		c0,75.3,0.1,150.6-0.1,225.9c0,13.3-0.7,26.6-2,39.9c-1.9,18.7-6.8,36.6-16.1,53.2c-12.2,21.8-30.2,36.4-54.6,41.8
		c-10.9,2.4-22.5,3.4-33.7,3c-28.8-0.9-52.2-13.2-67.8-37.8c-6.3-10-11-21.3-14.7-32.6c-6.5-19.8-8-40.4-8-61.2
		c0-77.6,0-155.3,0-232.9c0-4.2-0.3-8.4-0.5-13.1C635.9,139.8,618.5,139.8,599.5,139.8z"/>
	<path class="st1" d="M1729.1,35c0,201.1,0,401.2,0,602c-206,0-411.5,0-617,0c-1.9-7.4-2.4-589.9-0.4-602
		C1317.1,35,1522.6,35,1729.1,35z M1296.8,210.2c1.4,2.5,2.7,5,4,7.5c7.6,14.8,14.5,30.1,23,44.3c28.3,47.5,56.9,94.8,85.9,141.9
		c29.7,48.2,60.2,96,90,144.1c3.8,6.1,7.9,8.7,15.2,8.4c12.3-0.6,24.7-0.1,37-0.2c2.5,0,5.1-0.6,8-0.9c0-138.7,0-276.8,0-415.4
		c-17.2,0-33.7,0-51.6,0c0,57.2,0,113.8,0,170.3c0,56.8,1.4,113.5,5.1,170.4c-1.8-1.8-2.9-3.7-3.9-5.7
		c-13.7-25.9-26.4-52.4-41.2-77.6c-22.1-37.6-45.5-74.5-68.7-111.4c-29-46.3-58.4-92.4-87.3-138.7c-3.6-5.7-7.5-8.3-14.4-8
		c-13.6,0.6-27.3,0.1-41,0.2c-2.9,0-5.9,0.3-8.6,0.5c-2.8,9.9-2.5,408.1,0.1,415.7c12.5,1.7,42.3,1.2,50.5-1.2
		C1297.8,439.9,1300.9,325.2,1296.8,210.2z"/>
	<path class="st1" d="M1063.9,682.4c0,199.5,0,397.8,0,596.5c-2.4,0.6-4.5,1.3-6.7,1.6c-2.6,0.3-5.3,0.1-8,0.1
		c-196.3,0-392.6,0-588.8,0c-4.6,0-9.1,0-14.4,0c0-200.2,0-399,0-598.2C652,682.4,857.5,682.4,1063.9,682.4z M592.1,1204.1
		c5.2,0.7,10.1,1.7,14.9,2c18.3,1.2,36.6,2.4,54.9,3.1c45.9,1.8,91.2-1,135.4-14.9c59.6-18.7,100.9-57,122.3-115.7
		c17.4-47.8,20.4-97,9.5-146.6c-14.4-65.6-54.5-109-117.7-131.2c-30.2-10.6-61.6-14.3-93.3-15.1c-39.4-1-78.6,1.9-117.5,7.8
		c-2.8,0.4-5.6,1.4-8.4,2.1C592.1,932.1,592.1,1067.7,592.1,1204.1z"/>
	<path class="st1" d="M1728.4-10.9c-205.3,0-410.8,0-616.2,0c-2-7.3-2.5-589.7-0.5-601.9c205.3,0,410.8,0,616.2,0
		C1730.1-605.5,1730.6-23.1,1728.4-10.9z M1416.4-141.1c118,1,196.9-99.3,195.8-193.3c-1.4-121.3-99.4-198.1-196-196.7
		c-119.4,1.7-199,100-194.3,202.9C1227-218.4,1315.4-139.9,1416.4-141.1z M1404-119.1c-22.4,11.5-42.2,24.6-58.7,43.5
		c4.3,3.4,7.9,6.2,11.9,9.5c2.6-3,4.7-5.4,6.9-7.9c13.2-15.3,28.7-27.8,45.9-38.1c5.7-3.4,10.7-3.4,16.6,0.2
		c15.8,9.6,29.6,21.5,42.6,34.6c3.4,3.5,7,6.8,11,10.7c4.1-3.8,7.4-6.8,11.3-10.4c-16.7-17.7-36.3-29.8-58-42.3
		c9.9-1.7,17.3-0.9,24,3.6c5,3.3,9.7,7.2,14.9,10.1c10.4,5.8,20.6,12.7,31.8,16.5c27,9.1,51.9,3.9,73.9-14.3c2.4-2,4.4-4.5,7.1-7.3
		c-2-0.2-2.7-0.5-3.2-0.3c-23.2,11.7-46.4,9.6-69.5-0.2c-7.7-3.2-15.2-6.9-22.9-9.9c-22.3-8.5-45-11.6-68.3-4
		c-2,0.7-4.7,0.5-6.8-0.1c-22.1-6.7-43.5-3.9-64.6,4.1c-9.9,3.8-19.7,8.2-29.4,12.4c-20.9,9-41.9,9.8-63.1,1.1
		c-1.5-0.6-3.2-0.6-4.8-0.9c18.4,19.5,40.4,27.9,66.7,24.1c16.7-2.4,30.6-10.7,44.1-20.1c6-4.2,11.9-8.7,18.3-12.2
		C1388-120.3,1395-122.9,1404-119.1z M1554.3-142.2c15.4-3.3,30.1-5.8,44.5-9.8c31-8.4,53.3-27.9,68.1-56.2c2.6-5,5.1-10.3,4.5-19
		c-12.6,21.9-32.2,31.4-51.4,41.6c-9.4,5-18.4,10.7-27.6,16c-1.4,0.8-2.9,1.5-4.3,2.2c10.1-14.2,14-29.9,16.5-46.2
		c1.5-9.5,3.4-19,5.1-28.5c0.3-1.7,0.2-3.4,0.3-5.5c-1.4,0.7-2.1,0.8-2.5,1.3c-1.1,1.2-2.2,2.5-3.2,3.8
		c-10.3,12.9-17.7,27.3-22.5,43.1c-6,19.8-13,39.2-27.4,54.9C1554.1-144.1,1554.3-143.6,1554.3-142.2z M1281-141.3
		c-1.6-2.8-2.2-4.3-3.2-5.4c-9.3-10-14.5-22.2-19.1-34.8c-2.8-7.8-5.7-15.7-8.4-23.5c-5.1-14.7-14.2-27.1-23.7-39.1
		c-0.6-0.7-1.8-1-2.7-1.5c2.3,12.4,4.6,24.2,6.6,35.9c2.6,15.2,6.4,30,16.4,42.3c0.4,0.4-0.1,1.5-0.1,2c-10.4-5.8-20.3-11.8-30.6-17
		c-19.2-9.8-39.4-18.3-52.1-37.7c-0.3,2.7,0,4.9,0.8,6.9c4,11.1,9.9,21.1,17.6,29.9c18.6,21.2,41.7,33.6,69.7,37.2
		C1261.3-144.8,1270.4-143,1281-141.3z M1530.2-133.6c5.2-3.9,13.2-8.4,19.1-14.8c11.3-12.3,15.3-28.9,23.5-43.4
		c-2.9,0.7-5.2,1.9-7,3.5c-9.7,8.6-19.8,16.9-28.7,26.3c-14.2,15.2-29.9,27.3-50.7,31.8c-0.6,0.1-1,0.8-1.7,1.3
		c0.9,0.5,1.6,1.3,2.4,1.5c16.2,3.8,32.3,8,48.6,11.3c33,6.7,61.1-3.2,84.7-26.6c3.8-3.8,7.6-7.9,8.6-13.8
		c-13,10.6-28.2,15.3-44.2,17.3C1565.9-136.9,1546.8-135.3,1530.2-133.6z M1606.2-186.5c21.6-15.5,44.1-25.9,60.6-44.8
		c11.2-12.8,19.8-26.8,23-43.6c1.4-7.3,2.1-14.7-0.5-22.2c-4,12.5-10.8,23-19.9,31.9c-12.6,12.4-24.5,25.4-34.3,40.2
		c-0.2,0.3-1,0.2-0.5,0.1c1-9.3,3.5-18.9,2.7-28.3c-1.3-16.5-4.7-32.8-7.2-49.2c-3.1,3.7-5.4,7.8-6,12.1c-2.3,15.1-4.6,30.3-6,45.5
		c-1.6,18-3,35.9-10.8,52.5C1606.9-191.3,1606.9-190,1606.2-186.5z M1351.5-126.7c-2.2-1.8-2.9-2.8-3.7-3c-19.3-4.2-34.2-15.5-48-29
		c-10-9.8-20.8-18.7-31.3-27.9c-1.5-1.3-3.6-1.9-7.5-3.8c7.2,13.3,13,24.5,19.3,35.4c4.4,7.6,10.3,13.9,17.9,18.5
		c1.6,1,3.2,2.3,5.2,3.7c-17.2-1.3-33.5-2.3-49.6-4c-15.7-1.6-30.9-5.1-43.6-15.4c-0.8-0.6-2-0.6-3.6-1.1c0.5,1.7,0.6,2.3,0.9,2.9
		c0.3,0.6,0.6,1.2,1,1.7c18.1,23.1,41.1,36.2,71.2,35.6C1303.9-113.5,1326.4-122.3,1351.5-126.7z M1205.2-299.3
		c-2.8,26.2-14.6,51.8-3.1,78.6c-10.4-11.7-20-23.2-30.3-33.9c-10.5-10.9-20.3-22-25.5-36.5c-0.1-0.4-1.1-0.4-2.8-1.1
		c0.4,6.7,0.4,13,1.4,19c3.8,23.5,16.1,42.2,34.9,56.2c14.9,11.1,30.8,20.9,46.3,31.2c0.6,0.4,1.7,0,2.4,0c-2.8-9.6-6.4-18.7-7.9-28
		c-2.6-16.4-3.9-33-5.9-49.5C1213-275.6,1211.7-288.1,1205.2-299.3z M1658.2-297.9c-0.2-0.8-0.9-1.9-1-3.1
		c-0.8-12-5.6-22.4-11.6-32.6c-5.5-9.5-10.7-19.1-16.2-28.7c-0.5-0.9-1.6-1.4-3.7-3.1c0.3,6.2-0.2,10.9,0.8,15.4
		c4.3,18.8,8.6,37.6,13.8,56.1c3,10.7,5.9,21.1,5.2,32.3c-0.2,2.7,0.4,5.5,0.8,10.1c9.3-11.9,17.5-21.9,25.1-32.3
		c20-27.2,23-57.4,15.2-89.3c-0.5-1.9-2-3.6-3-5.4c-1,13.3-3.3,25.6-8.2,37.4C1669.8-326.6,1664-312.3,1658.2-297.9z M1148.7-371.9
		c-0.5,1.2-1.1,2.3-1.4,3.5c-7.9,33.2-3.2,64.1,17.9,91.6c6.1,7.9,12.5,15.6,18.8,23.3c1.3,1.6,2.8,3.2,4.2,4.8
		c0.6-0.1,1.3-0.2,1.9-0.4c-4.3-17.3,2.5-32.8,6.4-48.8c4.3-17.7,7.7-35.7,11.2-53.7c0.6-3.3,0.1-6.8,0.1-10.2
		c-5.4,6.9-9.6,13.9-13.4,21.1c-4.5,8.5-9.5,16.9-12.6,25.9c-3,8.6-3.8,18-5.1,24.5c-3.3-9.2-7-20.9-11.6-32.2
		C1158.6-338.5,1150.8-354,1148.7-371.9z M1657.1-362.2c-3.7-17.4-15.9-28.2-28.5-38.8c-5.1-4.3-9.6-9.2-14.4-13.8
		c-1.2-1.2-2.5-2.2-3.8-3.3c-0.5,4,0.2,7.2,1.1,10.3c4.6,15.2,13.1,28.3,22.7,40.7c10,13,19.4,26.2,24,42.2c0.1,0.3,0.9,0.4,1.4,0.6
		c4.9-14.8,10.4-29.5,14.5-44.5c5.9-21.6,3.8-42.9-5.9-63.2c-3.4-7.1-7.6-13.7-13.6-19.2c-0.1,2.8,0.9,5.1,1.3,7.5
		c1.2,7.5,3.8,15.2,3.1,22.5C1657.1-401.5,1655.1-382.1,1657.1-362.2z M1222.6-413.9c-16.7,17.2-38.2,29.3-44.7,53.3
		c-1-14.6-1.6-28.9-3.2-43.1c-1.5-13.7-2.2-27.1,2.3-40.4c0.1-0.4-0.5-1-1-2c-1.2,1.3-2.4,2.4-3.3,3.7
		c-15.8,22.5-21.2,47.3-14.1,73.9c4.3,16.2,10.9,31.7,17.3,49.6c5.8-23.4,20.7-39.5,31.9-57.8c5.7-9.2,9.3-19.7,13.6-29.8
		C1222.4-408.6,1222.3-411.3,1222.6-413.9z M1195.8-420.5c2.5-11.3,5-22.5,7.6-33.8c2.2-9.5,5.5-18.4,12.2-25.9
		c0.7-0.8,0.7-2.3,1.5-5.1c-22.2,10.9-34,27.1-35.1,49.9c-0.8,15.9,0.3,31.8,0.6,47.8c0,0.4,0.9,0.8,2.1,1.8
		c8.3-13.5,20.9-22.8,32.9-32.7c5.3-4.4,10.2-9.5,14.8-14.8c6.4-7.3,11.2-15.7,13.6-25.2c0.5-1.9,0.1-4,0.1-6
		c0.4,0.8,0.9,1.5,1.3,2.3c-5.3,3.9-10.7,7.9-16,11.8C1218.8-441.1,1205.6-432.9,1195.8-420.5z M1613.7-488.1
		c16.1,17.9,16.1,40.8,22.8,62.5c-9.5-7.5-17.9-14-26.1-20.6c-8.1-6.6-16.2-13.3-25.1-20.6c0.7,3.4,1.1,6.3,1.9,9
		c3.2,10.4,9,19.3,17,26.6c6.9,6.3,14.4,11.8,21.4,18c6.7,5.9,13,12.3,19.5,18.5c1.5,1.4,2.9,2.9,5.8,5.8c0-17.4,0.6-32.7-0.1-47.9
		c-1.1-21.9-11.8-38.4-31-49.2C1617.9-487.1,1615.7-487.4,1613.7-488.1z M1623.6-444.6c-5.4-38.8-28.3-61.2-64.6-67.7
		c1.5,1.8,2.5,3,3.5,4.2c6.1,7.4,12.6,14.5,18.3,22.2c10.9,14.9,23.8,27.7,38.4,38.9C1620.4-446,1621.9-445.5,1623.6-444.6z
		 M1270.2-508.9c-40,9.5-58.1,33.5-61.4,66.5c1-0.3,2.1-0.4,2.8-0.9c12.1-9.8,24-19.9,33.1-32.8c6.3-8.9,13.3-17.4,20-26.1
		C1266.4-504.5,1268.4-506.7,1270.2-508.9z"/>
	<path class="st1" d="M-155.4,1331.1c6.8,0,12.3,0,19.2,0c3.1,32.9,4.3,65.6,6.5,99.2c-5.3,0-9.7,0-15.4,0c-3.6-20-1-41.1-5.9-61.6
		c-4.8,19.8-9.5,39.7-14.4,60c-4.4,0-8.2,0-13.1,0c-4.7-20-9.4-40.2-14.1-60.4c-4.1,10.2-2.9,20.7-3.7,31.1
		c-0.7,10.2-1.4,20.4-2.1,31.2c-4.9,0-9.1,0-14.7,0c1.6-33.1,4.4-65.9,6.8-99.3c6.8,0,12.7,0,19.7,0c5.1,22.9,10.1,45.8,15.2,68.7
		c0.5,0,0.9,0,1.4,0C-165.2,1377.1-160.3,1354.2-155.4,1331.1z"/>
	<path class="st1" d="M1505.4,1365.1c6-2.5,11.5-6,17.3-7c8.5-1.5,14,2.6,17,10.6c1.2,3.4,2.1,7.1,2.2,10.7
		c0.3,15.6,0.2,31.3,0.2,46.9c0,1.3-0.5,2.5-0.8,4.4c-5.3,0-10.5,0-17,0c0-7.3,0-14.2,0-21c0-8.3,0.2-16.7-0.3-24.9
		c-0.5-8.5-3.2-11.9-8-11.6s-7.9,4.4-8,11.9c-0.2,13-0.1,26-0.1,38.9c0,2-0.3,3.9-0.5,6.6c-5.7,0-11.1,0-17.4,0
		c-0.2-3.5-0.6-6.7-0.6-10c-0.1-11.3,0-22.6-0.1-33.9c0-2.7,0.2-5.5-0.7-7.9c-0.9-2.2-3.1-5.1-5-5.2c-2.5-0.2-6.2,1.2-7.4,3.2
		c-1.8,2.9-2.4,6.8-2.5,10.4c-0.3,11-0.1,22-0.1,32.9c0,3.3-0.3,6.5-0.5,10.5c-6.1,0-11.5,0-17.6,0c0-23.6,0-46.8,0-71.3
		c4.1-0.2,8.5-0.5,12.9-0.7c1.6,2.6,2.9,4.8,4.2,7C1484.6,1356.3,1493.3,1353.6,1505.4,1365.1z"/>
	<path class="st1" d="M106.3,1358.7c11.8,0,23,0,34.9,0c0,24.4,0,47.8,0,71.9c-5.4,0-10.5,0-16.6,0c-2.4-19.2,0.3-38.5-1.7-58.3
		c-5.5,0-10.6,0-17.1,0c-0.1,9.7-0.2,19.5-0.3,29.4c-0.1,9.5-0.1,19.1-0.1,29.1c-6.7,0-11.8,0-18.2,0c0-19.5,0-38.6,0-58.1
		c-3.9-0.8-6.6-1.4-9.8-2.1c0-3.6,0-6.9,0-10.5c2.8-0.8,5.6-1.6,8.9-2.5c0.9-14.3,6.6-25.5,21.9-29.1c8.9-2.1,17.6-2.1,27,1.9
		c-0.7,4.3-1.3,8.4-2,12.4C109.2,1341.3,105.8,1343.2,106.3,1358.7z"/>
	<path class="st1" d="M1023.1,1430.5c0-32.8,0-65,0-97.7c13-3.5,25.6-3.7,38.1,1.2c9.3,3.6,15.2,11,17.8,20.3
		c5.2,18,5.2,36.1-1,53.9c-4.2,11.8-12.7,19.2-25,22.1C1043.2,1432.5,1033.4,1432.1,1023.1,1430.5z M1041.2,1416.2
		c11.3,0.2,16.4-2.4,18.6-11.7c2.3-9.9,3.1-20.3,3.3-30.5c0.1-6.5-1.6-13.2-3.9-19.3c-3-7.9-7.5-9.5-18-8.2
		C1040.9,1369.3,1040.9,1392.4,1041.2,1416.2z"/>
	<path class="st1" d="M759.8,1426.9c0,11.5,0,21.6,0,32.4c-6.1,0-11.2,0-17.5,0c0-33.3,0-66.1,0-99c10.3-3.3,12.5-2.8,16.7,4.5
		c0.6-0.2,1.3-0.2,1.8-0.6c13.6-11,27-7.6,32.5,8.9c4.5,13.6,4.5,27.5,0.4,41.2c-1,3.4-2.8,6.8-5,9.7
		C782.1,1433.1,774.1,1434,759.8,1426.9z M779.2,1395.3c-1-5.2-1.5-10.2-2.9-14.9c-1.1-4-3.4-7.4-8.3-7.1c-4.4,0.3-6.8,3.7-7,7.2
		c-0.5,9.8-0.4,19.8,0.1,29.6c0.2,3.7,2.8,7,7.1,7c4.2,0.1,6.7-2.9,7.8-6.6C777.4,1405.6,778.2,1400.4,779.2,1395.3z"/>
	<path class="st1" d="M1386.4,1459c0-33.2,0-66,0-98.8c11.5-2.3,12.6-3.6,16.9,4.7c17.7-12.6,31.5-7.4,35.9,14.2
		c2.3,11.5,2.6,23.2-1.1,34.5c-1.2,3.7-3,7.5-5.3,10.6c-6.6,8.8-14.2,9.7-28.3,3.1c0,10.5,0,20.6,0,31.6
		C1398.3,1459,1393.2,1459,1386.4,1459z M1403.7,1395.1c0.4,5,0.6,10,1.4,14.8c0.6,3.7,2.7,7,7,7.3c4.3,0.2,6.7-2.7,7.9-6.3
		c3.6-10.3,3.6-20.8,0.2-31.2c-1.2-3.6-3.5-6.6-7.9-6.4s-6.5,3.4-7.2,7.1C1404.2,1385.2,1404.2,1390.2,1403.7,1395.1z"/>
	<path class="st1" d="M176.7,1430.7c-6.1,0-11.3,0-17.3,0c0-23.7,0-47.1,0-71.6c4-0.2,8.2-0.4,12.8-0.6c1.3,2.3,2.4,4.5,3.1,5.8
		c6.4-2.3,12.1-5.3,18-6.1c8.4-1.1,13.7,3,16.8,11.1c0.7,1.8,1.6,3.8,1.6,5.7c0.1,18.2,0.1,36.5,0.1,55.5c-5.4,0-10.5,0-16.4,0
		c-0.3-2.4-0.9-4.9-0.9-7.5c-0.1-11.3,0-22.6-0.1-33.9c0-3.3-0.5-6.6-1.2-9.8c-0.8-3.5-3.1-6.6-6.9-5.7c-2.8,0.7-5.9,3-7.3,5.5
		c-1.5,2.7-1.5,6.4-1.6,9.7c-0.2,10.6,0,21.3-0.1,31.9C177.3,1423.8,176.9,1427,176.7,1430.7z"/>
	<path class="st1" d="M1624.7,1358.9c6.8,0.1,14.1-3.4,16,5.4c6.3-2.2,11.9-5.3,17.9-6.1c8.3-1.1,14,3.2,16.9,11c1,2.8,2,5.8,2,8.7
		c0.2,17.3,0.1,34.5,0.1,52.5c-5.9,0-11.3,0-17.7,0c-0.2-3.5-0.6-6.7-0.6-10c-0.1-11.6,0.1-23.3-0.1-34.9c-0.1-8.3-2.5-12-7.3-12.3
		c-5-0.3-9,4-9.4,12c-0.5,11-0.2,22-0.3,32.9c0,3.9,0,7.8,0,12.4c-6.2,0-11.3,0-17.5,0C1624.7,1406.8,1624.7,1383.4,1624.7,1358.9z"
		/>
	<path class="st1" d="M312.5,1430.8c-6.3,0-11.2,0-16.1,0c-2.1-6.8-3-54.1-1.3-70.5c10.8-3.3,12.4-2.8,16.4,3.9
		c5.9-2.1,11.6-5.2,17.5-6c8.5-1.1,13.8,2.9,16.9,10.9c0.8,2.2,1.7,4.5,1.8,6.7c0.1,17.9,0.1,35.9,0.1,54.6c-5.5,0-10.6,0-16.5,0
		c-0.3-2.4-0.9-5-0.9-7.5c-0.1-11.3,0.1-22.7-0.1-34c-0.1-3.6-0.4-7.4-1.7-10.7c-0.8-2.1-3.6-4.6-5.5-4.6c-2.5,0-6,1.7-7.2,3.8
		c-1.7,3-2.4,6.9-2.5,10.5c-0.3,10.3-0.2,20.7-0.3,31C313,1422.4,312.7,1426,312.5,1430.8z"/>
	<path class="st1" d="M680.6,1373.2c-0.9-3.2-1.7-6.5-2.6-9.9c10.2-6.2,20.4-6.5,30.6-4.5c8.2,1.6,13.1,7.5,15,15.6
		c0.9,3.9,1.5,7.9,1.6,11.8c0.2,14.5,0.1,29.1,0.1,44.3c-7,0.5-14,3.6-17.9-5.3c-2.6,1.8-4.7,3.5-7,4.7c-9.6,5-20.6,1.3-25.4-8.3
		c-6.1-12.5-0.9-27.7,12.2-33.5c5.6-2.5,11.9-3.6,18-5.3C705.9,1371.2,701.8,1369.4,680.6,1373.2z M706.6,1396
		c-12.3,1.1-17.4,5.9-16.6,14.1c0.5,5.3,3.4,8.5,7.7,8.7c4.3,0.2,8.1-2.7,8.7-7.7C707.1,1406.3,706.6,1401.4,706.6,1396z"/>
	<path class="st1" d="M277.4,1430.9c-6.9,0.1-13.6,3-17.1-5.4c-1.6,0.9-2.7,1.5-3.7,2.2c-6.7,5.2-14.1,6.1-21.4,2
		c-8.1-4.7-10.5-12.7-9.7-21.4c1-11.1,7.6-18.2,18-21.6c4.7-1.5,9.6-2.3,14.3-3.4c0.5-8.7-1.6-11.8-9.1-11.9
		c-4.9-0.1-9.7,1.1-15.2,1.8c-1-2.9-2-6-3.3-9.7c11.1-6.3,22.3-7.1,33.8-3.7c5.4,1.6,8.9,5.7,11,10.9c1.1,2.7,2.2,5.7,2.3,8.6
		C277.5,1396.1,277.4,1413,277.4,1430.9z M258.6,1396.4c-11.7,0.1-17.5,5.9-15.5,15.1c0.8,3.8,2.5,6.9,6.9,7.3
		c4.6,0.4,7.8-1.8,8.9-6.2C260.2,1407.2,260.8,1401.7,258.6,1396.4z"/>
	<path class="st1" d="M13.6,1395.3c0.6-8.6,1.9-16.8,6.2-24.2c5.3-9.1,13.1-13.7,23.8-13.3c10.5,0.5,17.5,6,21.4,15.3
		c6,14.1,5.9,28.6,0.4,42.7c-4.3,11-13.5,16.6-25,16.2c-11-0.3-19.3-6.2-23-17.4C15.5,1408.4,14.9,1401.7,13.6,1395.3z M51.8,1395.8
		c-1.1-6.3-1.7-12.6-3.5-18.6c-0.7-2.3-3.9-5.1-6.1-5.3c-2.1-0.1-5.7,2.5-6.5,4.7c-4.6,12.2-4.7,24.7,0.2,36.8
		c0.9,2.1,4.4,4.3,6.8,4.4c1.8,0.1,4.9-2.6,5.6-4.6C49.8,1407.7,50.6,1401.8,51.8,1395.8z"/>
	<path class="st1" d="M1372.9,1395.5c-1.6,6.7-2.5,14.4-5.4,21.3c-4.3,10.5-12.9,15.7-24.5,15.2c-11.4-0.4-18.7-6.4-22.5-16.6
		c-5.1-13.6-5.1-27.4,0.4-40.9c4.5-11.2,13.4-16.9,24.7-16.7c11.3,0.2,19.6,6.3,23.4,18.2
		C1370.8,1381.9,1371.4,1388.3,1372.9,1395.5z M1334.5,1395c1.3,6.2,1.7,13,4.1,18.9c2.5,6.2,9.5,6,11.9-0.2
		c4.6-12.1,4.4-24.7,0.2-36.9c-0.8-2.2-4.2-4.9-6.4-4.8s-5.5,2.8-6.3,5.1C1336.3,1382.6,1335.7,1388.6,1334.5,1395z"/>
	<path class="st1" d="M923.9,1382.7c-2.1-12.2-6.4-13.8-25-9.1c-1-3.2-2-6.4-3.2-10.3c11.3-6.2,22.5-7.1,33.9-3.3
		c7.3,2.4,10.9,8.5,12.2,15.8c0.8,4.6,1.1,9.2,1.2,13.9c0.2,13.3,0.1,26.5,0.1,39.9c-9.9,3.3-12.8,2.8-17.7-4.1
		c-1.8,1.2-3.6,2.6-5.5,3.7c-11.3,6.8-23.9,2-28.1-10.5c-4.2-12.7,1.7-25.8,14.5-31C911.7,1385.4,917.6,1384.4,923.9,1382.7z
		 M924.5,1396c-12.3,1-17.3,5.7-16.5,14.1c0.5,5.3,3.4,8.6,7.6,8.8c4.3,0.2,8.2-2.7,8.8-7.7C925,1406.4,924.5,1401.4,924.5,1396z"/>
	<path class="st1" d="M1608.3,1401.7c-11.2,0-22.1,0-32.9,0c0.7,15,5.7,17.7,28.5,15.8c0.7,3.3,1.5,6.7,2.2,10
		c-22,12.3-45.2,1.7-48.9-22.1c-1.6-10-1.3-20.2,3.4-29.3c2.8-5.4,6.8-11,11.6-14.4c12.8-8.9,28.7-3.4,34.4,11
		C1610,1381,1610.6,1389.5,1608.3,1401.7z M1593.2,1388.1c-0.6-4.3-0.3-7.9-1.7-10.6c-1.3-2.6-4.1-5.3-6.8-6.2
		c-3.6-1.2-6.4,1.8-7.5,5c-1.3,3.5-1.7,7.3-2.7,11.7C1581.1,1388.1,1586.3,1388.1,1593.2,1388.1z"/>
	<path class="st1" d="M1268.5,1401.3c-6.1,0-11.7,0-17.3,0c-5.2,0-10.5,0-15.7,0c0.3,15.2,5.9,18.2,28.4,16
		c0.8,3.6,1.5,7.3,2.3,11.1c-9.7,4.4-19,4.3-28.2,2.4c-9.1-1.9-15.4-8-18.4-16.7c-4.8-13.8-4.2-27.5,2-40.8
		c3.1-6.6,8-11.5,14.8-14.1c12.8-4.9,25.1,0.6,30.2,13.3C1270,1380.8,1270.6,1389.2,1268.5,1401.3z M1253.2,1388
		c-0.8-4.5-0.8-8.5-2.3-11.9c-2.8-6.5-9.6-6.9-13-0.9c-2,3.5-2.5,7.9-3.9,12.8C1241,1388,1246.4,1388,1253.2,1388z"/>
	<path class="st1" d="M664.5,1332.6c-0.9,4.9-1.6,9.3-2.5,14c-2.2-0.2-3.4-0.3-4.7-0.4c-11.1-0.8-18.1,3-22,13.2
		c-5.5,14.2-5.5,28.7-0.4,43c3.5,9.7,10.4,13.7,21,13.5c1.6,0,3.3-0.2,5.9-0.4c0.8,4.6,1.5,8.9,2.2,13.1
		c-17.3,7.6-36.7,2.1-44.6-13.9c-11-22.2-11-45.2,1.3-67C629.3,1332.5,646.2,1327,664.5,1332.6z"/>
	<path class="st1" d="M431.9,1401c0.3,15.5,5.4,18.3,28.6,16.4c0.6,3.3,1.2,6.7,1.8,9.9c-20.8,12-43.5,2.2-48.2-20.2
		c-2.5-12.1-1.2-23.8,4.5-34.8c3.6-7.1,9.3-12.1,17.2-13.9c13.4-3,23.6,3,27.9,16.1c2.7,8.3,2.9,16.9,1.5,26.5
		C454.3,1401,443.5,1401,431.9,1401z M449.7,1388.1c-0.7-4.6-0.6-8.5-2.1-11.6c-1.1-2.3-4.1-5-6.4-5.2s-5.5,2-7.1,4.1
		c-2.6,3.4-3.6,7.7-1.9,12.6C437.5,1388.1,442.7,1388.1,449.7,1388.1z"/>
	<path class="st1" d="M1141.4,1417.3c0.7,4.1,1.3,7.3,2.1,11.4c-11,3.9-21.6,4.7-32.3,0.8c-6.6-2.4-11.4-7.3-13.7-13.8
		c-5.4-15-5.5-30.2,2.7-44.3c2.7-4.6,7.4-8.8,12.1-11.3c12.5-6.5,26.2-1.3,31.3,11.8c3.5,9,5.2,18.5,2.2,29.3c-11,0-21.8,0-32.5,0
		c-1.1,10.7,3.1,16.1,12.6,16.9c2.6,0.2,5.3,0,8-0.2C1136.3,1417.8,1138.8,1417.5,1141.4,1417.3z M1130.9,1388
		c-0.9-4.6-1-8.3-2.5-11.4c-1.1-2.3-4.1-5.2-6.2-5.1c-2.7,0.1-6.2,2.4-7.6,4.7c-1.9,3.1-2,7.2-3.1,11.8
		C1118.2,1388,1123.6,1388,1130.9,1388z"/>
	<path class="st1" d="M1190.8,1431.2c-4.5,0-7.8,0.1-11.1,0c-1.6,0-3.2-0.4-5.8-0.7c-6.4-23.4-12.9-46.9-19.6-71.3
		c6.9,0,12.4,0,19,0c1.5,8,3,16,4.4,24.1s2.8,16.2,4.2,24.3c0.7,0,1.4,0.1,2,0.1c1.4-7.8,2.8-15.6,4.2-23.4c1.4-8.1,2.8-16.3,4.4-25
		c5.7,0,10.8,0,17.4,0C1204.2,1383.5,1197.7,1406.9,1190.8,1431.2z"/>
	<path class="st1" d="M1728.8,1418.2c0,4.3,0,8.1,0,12.5c-3.1,0.4-5.7,0.9-8.2,1c-15.2,0.4-21.6-5.3-22-20.4
		c-0.4-12.6-0.1-25.2-0.1-38.2c-3.1-1-5.5-1.8-8.7-2.9c-0.2-2.9-0.3-6.1-0.5-9.6c3-1.3,5.7-2.4,8.6-3.6c0.4-3.6,0.7-7.1,1.2-11.4
		c5.3-1.7,10.6-3.4,16.6-5.3c0.6,6.3,1.1,11.8,1.6,17.5c4.5,0.6,8.3,1.1,13,1.7c0,3.7,0,7.1,0,11.1c-4.1,0.5-8,1-12.6,1.5
		c-0.4,2.5-1,5-1.1,7.6c-0.1,7.7-0.2,15.3,0,23C1716.5,1413.7,1717.6,1415,1728.8,1418.2z"/>
	<path class="st1" d="M881.2,1370.8c-4,0.4-7.8,0.8-12.9,1.4c-0.6,12.6-0.8,25.1,0.1,37.6c0.5,6.3,6.2,7,11.5,8.2c0,4.1,0,8,0,12.1
		c-5.9,2.8-11.9,2.2-17.6,1c-6.8-1.5-10.8-6.7-11.6-13.5c-0.8-7.2-0.9-14.6-1.1-21.9c-0.2-7.6,0-15.2,0-22.8c-3.4-1-5.9-1.7-8.5-2.5
		c0-3.6,0-6.9,0-10.4c2.7-0.9,5.1-1.6,7.4-2.3c2.2-13.2,2.2-13.2,18.8-16.7c0.4,5.5,0.7,10.9,1.1,16.9c4.2,0.5,8,1,12.8,1.7
		C881.2,1363,881.2,1366.6,881.2,1370.8z"/>
	<path class="st1" d="M1285.7,1328.8c5,0,10.2,0,15.9,0c0,34,0,67.5,0,101.7c-5.4,0-10.6,0-15.7,0
		C1283.7,1422.7,1283.4,1339,1285.7,1328.8z"/>
	<path class="st1" d="M977.5,1329c0,33.9,0,67.4,0,101.5c-3,0.3-5.6,0.7-8.2,0.7s-5.2-0.3-7.6-0.5c-2.1-7.8-2.7-88.2-0.8-101.7
		C966,1329,971.2,1329,977.5,1329z"/>
	<path class="st1" d="M403.4,1417.7c0.2,3.7,0.5,7.6,0.7,11.2c-15.3,6.6-31,1.2-37.3-13c-6-13.5-5.9-27.3,0.5-40.6
		c7.1-14.7,22.9-20.8,38.2-14.6c-0.6,3.6-1.3,7.5-2,11.7c-6.4,1.2-13.6-0.5-18.1,6.1c-4,5.9-4.5,12.4-4.2,19.1
		C381.9,1412,386.6,1416.3,403.4,1417.7z"/>
	<path class="st1" d="M-38.4,1360.2c-0.8,4.4-1.4,8.2-2.2,12.4c-6.3,0.8-13.1-0.7-17.6,5.4c-4.5,6-5,12.9-4.7,19.9
		c0.8,14.4,5.9,19,21.9,19.3c0.3,3.9,0.6,8,0.9,11.9c-17.7,6.7-33.6-0.5-39-17.2c-3.5-10.8-3.5-21.7,0.3-32.4
		C-72.7,1362.7-57.1,1354.9-38.4,1360.2z"/>
	<path class="st1" d="M-29.1,1359c5.8,0,9.7,0,14.3,0c1.1,2.4,2.3,5,3.6,7.9c0.8-0.4,1.8-0.7,2.3-1.3c3.7-4.4,7.2-8.9,15.2-6.9
		c0.2,4.8,0.4,10,0.7,15.6c-2.4,0.8-4.2,1.3-6,1.9c-8.2,2.8-10.8,9.3-10.9,17.2c-0.1,12,0,24,0,36.8c-6,0-11.4,0-18.2,0
		C-29.3,1407-28.3,1383.6-29.1,1359z"/>
	<path class="st1" d="M810.9,1359.3c6.9,0,12.1,0,17.8,0c0,24,0,47.4,0,71.3c-5.9,0-11.1,0-17.4,0
		C810.3,1407,811,1383.6,810.9,1359.3z"/>
	<path class="st1" d="M560.1,1387.7c0,11.5-9.3,21-20.6,21.2c-11.3,0.1-20.9-9.3-21-20.7c-0.2-12.1,9.3-21.7,21.1-21.5
		C551.1,1366.7,560.1,1376,560.1,1387.7z"/>
	<path class="st1" d="M-112.9,1359.2c5.8,0,10.7,0,16.3,0c0,23.9,0,47.3,0,71.4c-5.3,0-10.4,0-16.3,0
		C-112.9,1407-112.9,1383.6-112.9,1359.2z"/>
	<path class="st1" d="M810.6,1338.9c-0.2-5.4,3.6-9.9,8.6-10.3c5.3-0.4,10,4.4,10,10c0,5.4-4,9.5-9.3,9.5
		C814.5,1348.3,810.8,1344.6,810.6,1338.9z"/>
	<path class="st1" d="M-95.9,1338.3c0.1,5.8-3.1,9.6-8.6,9.9s-9.2-3.2-9.5-9c-0.3-6,3.7-10.6,9.1-10.6
		C-99.9,1328.6-96.1,1332.7-95.9,1338.3z"/>
	<path class="st1" d="M647,1162.7c0-110,0-218.2,0-327.8c8.6-1.2,17-2.9,25.5-3.6c31.6-2.5,63.2-2.8,94.4,4.7
		c60.3,14.6,98.2,55.8,107.2,117.4c4.6,31.6,3.7,63.2-4,94.3c-15.3,61.5-54.8,98.1-116.1,111.7c-26.5,5.9-53.5,6.6-80.5,5
		C664.8,1164,656.3,1163.3,647,1162.7z"/>
	<path class="st1" d="M1233.8-341.7c2-46.1,18.5-85.5,49.1-119.7c6.6,6.7,12.7,12.8,19.3,19.4c-12.1,13.9-22.2,29-29.1,46.1
		c-6.9,17.1-11.3,34.8-11.6,54.2C1252.3-340.6,1243.6-340.7,1233.8-341.7z"/>
	<path class="st1" d="M1550.1-462.6c30.7,34.5,49.2,73,50.3,119.7c-9.1,0-17.6,0-26.5,0c-3.5-37.6-14.1-71.8-44.1-98.4
		C1536.6-448.5,1543-455.3,1550.1-462.6z"/>
	<path class="st1" d="M1534.5-232.9c24-26.1,36.8-58.9,39.3-96.4c9.1,0,17.5,0,26.8,0c-1.1,45.5-18.1,83.9-47.8,118
		C1546.6-218.5,1540.9-225.3,1534.5-232.9z"/>
	<path class="st1" d="M1293.6-472.2c31.5-28.1,69.9-44.5,115.1-47.3c0,9.2,0,17.4,0,26.8c-36.8,2.6-69.4,16.2-96.9,41.4
		C1305.9-458.1,1300.1-464.8,1293.6-472.2z"/>
	<path class="st1" d="M1409.5-178.9c0.2,3.2,0.4,5.8,0.5,8.4c0.1,5.6,0,11.2,0,17.9c-45.9-1.8-84.3-18.8-119.2-48.8
		c7.1-5.9,13.6-11.4,21.3-17.8c12.2,10.3,27,20.8,44,27.7C1372.9-184.6,1390.4-181,1409.5-178.9z"/>
	<path class="st1" d="M1423.7-152.5c-0.4-2.1-0.8-3.4-0.8-4.7c-0.1-7,0-13.9,0-21.4c9.5-1.5,18.5-3.3,27.6-4c2.8-0.2,6.2,2,8.8,3.9
		c5.3,4,10.3,4.7,15.3,0.1c5.8-5.4,11.4-10.9,17.1-16.4c3.8-3.6,7.4-7.4,11.5-10.7c6.7-5.4,13.8-10.4,21.2-15.9
		c6.2,5.7,12.4,11.6,19.6,18.3C1510-171.2,1470.2-154.6,1423.7-152.5z"/>
	<path class="st1" d="M1539.8-471c-5.6,5.2-10.7,9.9-16.2,14.9c-3-3.9-7-9.2-11.2-14.8c0.3-1.7,1.2-4.3,0.8-6.6
		c-0.3-1.6-2.2-3.4-3.9-4.1c-4.4-1.7-6.9,0.1-6.9,5.4c-1.8-0.2-3.7-0.9-5-0.3c-8.1,3.3-14.6-0.6-21.5-3.8
		c-15.2-6.9-31.4-10.3-48.8-12.9c11-1.5,21.7,0.7,31.1-5.2c-4.8-7.3-10.1-9.1-17.9-6.5c-2.8,0.9-5.5,2.4-8.3,3.3s-5.8,1.4-9.1,2.2
		c0-6.6,0-12.8,0-18.9C1450.8-524.6,1515.9-498.4,1539.8-471z"/>
	<path class="st1" d="M1298.8-342c-6.2,0.4-11.4,0.7-16.7,0.9c-2.6,0.1-5.2-0.2-9-0.4c1.7-35.1,13.7-65.4,36.8-90.8
		c5.6,5.9,11.2,11.7,17.6,18.4C1311.5-394.5,1301.3-370.5,1298.8-342z"/>
	<path class="st1" d="M1234.2-328.7c9.4,0,17.5,0,26.5,0c1.4,9.7,2.7,19.1,4.1,29.1c-5.1,1.1-8,5.8-13.9,4.6
		c-1.4-0.3-4.5,3.7-5.4,6.3c-3.2,9.8,0.5,19.8,13.8,26.1c3.2,1.5,6.8,2.4,9.5,4.5c9.3,7.1,18.4,14.4,27.4,21.9c2,1.6,3.3,4,5.5,6.7
		c-6.2,6.5-12.1,12.7-18.8,19.7C1252.1-243.9,1236.1-282.9,1234.2-328.7z"/>
	<path class="st1" d="M1320.8-443.7c24.6-21.7,53.9-34,88.3-36.1c0,8.7,0,16.5,0,25.7c-26.6,2-50.4,12-71.5,30
		C1332-430.7,1326.7-436.9,1320.8-443.7z"/>
	<path class="st1" d="M1525.1-240c-1.4-3.6-2.2-6.2-3.4-8.4c-1.9-3.4-3.3-7.5-9-4.8c-1.4,0.7-4.2-1.7-7.2-3.1
		c11.5-14,20.1-28,25.1-44.2c0.8-2.7,4.1-4.7,6.7-7.5c-3.6-6.7-3.6-13.9-0.5-21.4c8.1,0,16,0,24.9,0
		C1559.4-295.5,1549-265.7,1525.1-240z"/>
	<path class="st1" d="M1409.6-215.8c0,8.1,0,15,0,21.9c-19.2,5.5-65.7-11.8-84.7-31.9c9.3-2.9,18.1-5.7,28.1-8.8
		C1369.2-224.2,1388.2-217.5,1409.6-215.8z"/>
	<path class="st1" d="M1535.7-342.9c-0.8-7.4-1.5-14.8-2.4-23.1c-4-0.5-5.5-3.8-4.7-8.2c1.1-6.1,0.9-11.3-4.1-16.4
		c-2.6-2.6-2.3-8-3.3-12.4c-2.8,0.1-5,0.2-6.8,0.3c-4.7-6.8-9.5-13.1-13.7-19.7c-1.9-3-3.2-6.6-4-10c-0.3-1.3,1.2-4,2.5-4.4
		c1.4-0.5,3.4,0.9,5.1,1.6c0.5,0.2,1,1,1.1,1.6c1.6,15.9,14.9,20.9,25.9,28.1c3,2,5.1,5.2,7.8,7.5c2.7,2.2,5.7,4,8.4,6.1
		c1.7,1.3,3.6,2.8,4.5,4.7c6.1,13.8,8.5,28.5,10,44.3C1553.1-342.9,1545-342.9,1535.7-342.9z"/>
	<path class="st1" d="M1423.4-479.6c20-0.5,37.6,5.5,54.6,13.2c8,3.6,8.9,12.5,11.8,19.7c0.9,2.3,0.6,5.1,0.9,9.2
		c-4.2-3.8-7.4-6.7-12.2-11.1c0.6,5.1,1,8,1.6,12.9c-18.3-11.3-36.9-16.8-56.7-18.7C1423.4-463,1423.4-471.1,1423.4-479.6z"/>
	<path class="st1" d="M1486-416.8c-5.8,6.7-11,12.8-16.5,19.2c-13.9-10.8-29.2-16.1-46-19c0-8.4,0-16.5,0-25.4
		C1447.5-440.1,1468-431.1,1486-416.8z"/>
	<path class="st1" d="M1409.5-441.2c0,8.7,0,16.6,0,25.1c-16.4,1.7-30.8,8-44.3,18.7c-6.2-5.8-12.1-11.4-18-17
		C1359.3-428.7,1388-441.1,1409.5-441.2z"/>
	<path class="st1" d="M1419.5-303.7c-5.3-0.9-11-1.8-17.4-2.8c4.1-3.9,7.9-6.4,10-9.9c2.2-3.7,4.8-8.3,1.5-13
		c-11.1-3.2-13-2.6-18.1,5.5c1.5-4.5,1.9-8.2-2-12.2c-1.6-1.6,0-7.7,1.8-10.7c1.9-3.1,5.7-5.2,8.9-7.5c2.9-2.1,6-3.9,9.5-6.2
		c4.9,2.7,12.3,2.4,15.9,8.9c0.9,1.7,2.8,3.8,2.4,5.1c-2.5,7.5,3,13.1,4.3,19.6c1.7,8.7,1.4,10.6-7.3,11.7
		C1422.6-314.3,1423.9-308.2,1419.5-303.7z"/>
	<path class="st1" d="M1353.8-282.4c-5.8,5.7-11.8,11.4-18.6,18.1c-2.3-9.2-4.1-18.6-6.9-27.7c-2.8-9.4-6.4-18.5-9.8-27.7
		c4.5-4.2,8.9-8.3,13.5-12.7c-0.6-3-1.2-6.1-1.8-9.2c6.7-2.3,8.2-1.9,8.9,2.8c0.6,4.1,0.1,8.3,0.1,13.3c-3.6-0.5-6-0.8-10-1.4
		c4.4,5.2-6.5,11,3,15.8c1.4-2.5,2.6-4.6,3.9-6.9C1342.2-306.3,1347.9-294.6,1353.8-282.4z"/>
	<path class="st1" d="M1338.6-406.2c5.9,5.6,11.8,11.2,18.8,17.9c-6.7,5.5-12.8,10.7-19.1,15.8c-4,3.2-8.9,5.5-12,9.4
		c-4.5,5.6-8.2,12.1-6.7,20.6c-2.9,0.3-5.3,0.5-7.4,0.7C1306.1-349.2,1324.5-393.4,1338.6-406.2z"/>
	<path class="st1" d="M1392.4-233.1c-17.3-4.1-32.6-10.7-45.9-23.5c5.4-5.7,10.8-11.4,15.9-16.8c10.1,5.9,19.7,11.5,30.1,17.6
		C1390.2-249.1,1383.5-241.3,1392.4-233.1z"/>
	<path class="st1" d="M1403.9-269.1c-10.9-1.7-21.1-6.4-30.9-14.9c6.3-5.1,12.1-9.9,18.3-14.9c5.3,2.3,12.5,5.4,20.4,8.8
		c0,2.8,0,6.4,0,9.7C1409.2-276.8,1406.7-273.2,1403.9-269.1z"/>
	<path class="st1" d="M1517.8-365.2c-3.6-4.4-7.1-9.1-13.1-6.3c-4-4.3-6.9-9.7-11.4-11.9c-4.7-2.3-10.9-1.6-18.7-2.4
		c7.6-8,13.8-14.5,20.9-21.8c5.3,7.6,15.4,11.9,9.8,23.7c6.8,5.1,14.5,9.5,14.8,18.9c0.1,3.2-1.6,6.5-2.5,9.8
		c-0.9-0.3-1.8-0.5-2.7-0.8C1515.8-359,1516.8-362,1517.8-365.2z"/>
	<path class="st1" d="M1423-403.4c13.6,1.2,24.4,5.8,34.1,12c-0.5,3.9-1,7.2-1.4,10.6c-4.2,3.6-8.7,7.5-13.6,11.7
		c-2.2-1.3-4.7-2.8-7.9-4.6c5-4.5,11.2-8.4,6.2-17c-3.2,1.9-5.8,3.8-8.6,5.2c-5.2,2.6-8.3,0.9-8.7-4.9
		C1422.8-394.3,1423-398.2,1423-403.4z"/>
	<path class="st1" d="M1372.1-386c10.6-10.4,22.7-15.4,37.3-16.8c0,6.2,0,11.7,0,17.9c-3-0.2-5.7-0.4-8.4-0.6c-0.5,0.5-1,1-1.3,1.5
		c-1.9,2.6-3.6,7.3-5.6,7.4c-4.7,0.2-9.6-1.3-14.1-2.9C1377.4-380.6,1375.4-383.2,1372.1-386z"/>
	<path class="st1" d="M1490.1-268.6c1-3.8,2.4-7.6,2.9-11.5c0.5-3.1,0.6-6.5-0.2-9.5c-1.7-7-1.6-7.9,5.8-9.9
		c5.9-1.6,11.9-2.6,19.5-4.2c-3.4,14.4-9.6,25.3-18.5,35.2c-1.8-1.3-3.3-2.4-5-3.6c-1.6,1.1-3.2,2.2-4.7,3.4L1490.1-268.6z"/>
	<path class="st1" d="M1278-296.4c-1.8-10.5-3.6-21-5.6-32.9c8.6,0,15.7-0.2,22.9,0.2c1.4,0.1,3.2,2.1,3.7,3.6
		c0.4,1-0.7,3.2-1.7,4.1c-4.3,3.5-9.8,6-12.9,10.3c-2.9,4-3.4,9.7-4.9,14.6C1279-296.4,1278.5-296.4,1278-296.4z"/>
	<path class="st1" d="M1456.8-274.8c-2,2.3-3.8,5-6.2,6.8c-3.4,2.5-7,4.8-10.9,6.5c-1.8,0.8-5.1,0.8-6.4-0.4
		c-5.8-4.9-12-4.3-20.2-1.4c4-4.3,6.6-7.3,9.6-9.9c1.3-1.1,4.1-2.1,5.3-1.5c9.5,5,18.3,2.8,27.1-2.3
		C1455.6-276.3,1456.2-275.5,1456.8-274.8z"/>
	<path class="st1" d="M1442-193.3c-7.7,0.7-12.8,1.1-18.6,1.6c0-6.8,0-13,0-20.2c2.7-0.2,5.8-0.3,10-0.6
		C1431.2-204.3,1432.9-198.1,1442-193.3z"/>
	<path class="st1" d="M1498-249.2c5.5,7.1,10.4,13.5,15.9,20.7c-4.4,3.6-8.2,6.6-11.9,9.5c-4.5-2.3-3.1-4.7-1.3-7.5
		c4.8-7.5,4.9-7.8-2.7-12.9C1494-242,1492.8-244.3,1498-249.2z"/>
	<path class="st1" d="M1355-316.6c5.6,4.7,11.2,9.4,17.7,14.9c-2.8,3-5.1,5.6-7.9,8.6c-6.6-6.3-9.3-13.9-11.9-21.5
		C1353.6-315.3,1354.3-316,1355-316.6z"/>
	<path class="st1" d="M1521.7-315c-4.7-5-9.9-7.3-9.2-14.3c3.3,0,6.8,0,11.3,0C1523.2-324.7,1522.6-320.7,1521.7-315z"/>
	<path class="st1" d="M1489.9-268.8c-0.8,2-1.3,5.6-2.5,5.8c-4.7,0.8-9.6,1.4-14.3,0.6c-3.7-0.6-7.1-3.1-10.5-5.7
		c5.3,1.3,10.6,2.4,15.9,3.8c5,1.4,9.1,0.9,11.6-4.2C1490.1-268.6,1489.9-268.8,1489.9-268.8z"/>
	<path class="st1" d="M1374.3-330.7c1.5-1.8,2.7-4.4,4.6-5.1c2.8-0.9,6-0.3,6.8,5.1c-3.4,0.7-6.8,1.4-10.2,2.1
		C1375.1-329.3,1374.7-330,1374.3-330.7z"/>
	<path class="st1" d="M1523.1-352.4c0,3.9,0,6.5,0,10.8c-2.9-1.2-6.3-1.7-6.7-2.9C1515.1-349.9,1520.8-348.9,1523.1-352.4z"/>
	<path class="st1" d="M1313.5-318.5c-0.9-3.1-2.9-6.2,0-9.5C1313.5-324.9,1313.5-321.7,1313.5-318.5z"/>
	<path class="st1" d="M1460.8-302.1c1.1,1.5,2.1,3,3.2,4.4c-0.3,0.4-0.7,0.8-1,1.2c-1.5-1.1-2.9-2.3-4.4-3.4
		C1459.4-300.6,1460.1-301.4,1460.8-302.1z"/>
</g>
<g>
	<path class="st2" d="M52.1,470h52.5v13.6H68.7v25.1h33.5v13.6H68.7v38.6H52.1V470z"/>
	<path class="st2" d="M137.4,470v91h-16.6v-91H137.4z"/>
	<path class="st2" d="M156.5,561v-91h18.9l23.5,39c6.1,10.1,11.3,20.7,15.5,30.5h0.3c-1.1-12.2-1.5-23.9-1.5-37.8V470h15.4v91h-17.2
		l-23.8-40c-5.8-10-11.9-21.2-16.3-31.5l-0.4,0.1c0.7,11.8,0.8,23.8,0.8,38.8V561L156.5,561L156.5,561z"/>
	<path class="st2" d="M324.7,523.9c-0.5-11.8-1.2-25.9-1.1-38.2h-0.4c-3,11.1-6.8,23.4-10.8,34.9L299.2,560h-12.8l-12.2-38.9
		c-3.5-11.6-6.8-24-9.2-35.4h-0.3c-0.4,11.9-0.9,26.3-1.6,38.8l-2,36.6h-15.5l6.1-91h21.9l11.9,36.6c3.2,10.7,6.1,21.5,8.4,31.6h0.4
		c2.4-9.9,5.5-21.1,9.1-31.7l12.6-36.5h21.4l5.3,91h-16.3L324.7,523.9z"/>
	<path class="st2" d="M377.4,535.2l-7.8,25.8h-17.2l29.2-91h21.2l29.6,91h-17.8l-8.2-25.8H377.4z M403.4,522.7l-7.2-22.4
		c-1.8-5.5-3.2-11.8-4.6-17h-0.2c-1.3,5.3-2.7,11.6-4.3,17l-7,22.4H403.4z"/>
	<path class="st2" d="M445,471.2c6.2-1.1,15.5-1.9,25.1-1.9c13.1,0,22,2.2,28.1,7.3c5,4.2,7.8,10.5,7.8,18.2
		c0,11.8-8,19.7-16.5,22.8v0.4c6.5,2.4,10.4,8.8,12.7,17.6c2.8,11.3,5.3,21.9,7.2,25.4h-17.2c-1.3-2.7-3.5-10.1-6.1-21.5
		c-2.6-11.9-6.9-15.7-16.3-15.9h-8.4V561h-16.5L445,471.2L445,471.2z M461.5,511.4h9.9c11.2,0,18.2-5.9,18.2-15
		c0-10-7-14.6-17.8-14.6c-5.3,0-8.6,0.4-10.3,0.8L461.5,511.4L461.5,511.4z"/>
	<path class="st2" d="M521.9,470h16.5v41.9h0.4c2.2-3.5,4.5-6.8,6.6-9.9l23.8-32h20.5l-31.3,38.7l33.4,52.3h-19.5l-25.8-41.7
		l-8.1,9.7v32h-16.5V470L521.9,470z"/>
</g>
<g>
	<path class="st2" d="M647,487.3h-24.6V470h70v17.3h-24.9v73.8H647V487.3z"/>
	<path class="st2" d="M703.4,471.3c6.6-1.2,16.3-2,27.4-2c13.5,0,23,2,29.4,7.3c5.5,4.3,8.5,10.7,8.5,19c0,11.5-8.2,19.5-16.1,22.3
		v0.4c6.3,2.6,9.9,8.5,12.2,16.9c2.8,10.4,5.5,22.3,7.3,25.8H751c-1.4-2.7-3.6-10-6.2-21.2c-2.6-11.5-6.5-14.5-15-14.6h-6.1V561
		h-20.3V471.3z M723.8,510.4h8.1c10.3,0,16.3-5.1,16.3-13.1c0-8.2-5.7-12.6-15.1-12.6c-5,0-7.8,0.3-9.3,0.7V510.4z"/>
	<path class="st2" d="M804,470v52.3c0,15.8,6.1,23.8,16.5,23.8c10.8,0,16.8-7.6,16.8-23.8V470h20.5v51.1c0,28.1-14.2,41.5-38,41.5
		c-23,0-36.3-12.8-36.3-41.7v-50.8L804,470L804,470z"/>
	<path class="st2" d="M876.3,539.8c5.4,2.8,14,5.7,22.8,5.7c9.5,0,14.5-3.9,14.5-9.9c0-5.7-4.3-8.9-15.3-12.7
		c-15.1-5.4-25.1-13.8-25.1-27c0-15.5,13.1-27.3,34.4-27.3c10.4,0,17.8,2,23.2,4.6l-4.6,16.5c-3.5-1.8-10.1-4.3-18.9-4.3
		c-8.9,0-13.2,4.2-13.2,8.8c0,5.8,5,8.4,16.9,12.8c16.1,5.9,23.5,14.3,23.5,27.2c0,15.3-11.6,28.2-36.6,28.2
		c-10.4,0-20.7-2.8-25.8-5.7L876.3,539.8z"/>
	<path class="st2" d="M966.2,487.3h-24.6V470h70v17.3h-24.9v73.8h-20.5V487.3z"/>
</g>
<polygon class="st2" points="702,59.4 702,134.2 772.5,134.2 772.5,442.3 857,442.3 857,134.2 927.5,134.2 927.5,59.4 "/>
<g>
	<path class="st2" d="M634.3,399.2V159.9l-38.7,234c-33.5-3.4-65.8-3.5-96.7-1.3l-38.5-232.7v236.8c-28.9,4-56.3,9.9-81.8,17.1
		l10.8-354.3h123.7l34.3,249.3l34.3-249.3h123.7l11,360.5C688.5,410.6,661.1,403.8,634.3,399.2"/>
</g>
<polygon class="st2" points="136.2,59.4 136.2,134.2 206.7,134.2 206.7,442.3 291.6,442.3 291.6,294.7 365.7,294.7 365.7,223.6 
	291.6,223.6 291.6,134.2 389.6,134.2 389.6,59.4 "/>
</svg>
