<?xml version="1.0" encoding="utf-8"?>
<!-- Generator: Adobe Illustrator 22.0.1, SVG Export Plug-In . SVG Version: 6.00 Build 0)  -->
<svg version="1.1" id="Layer_1" xmlns="http://www.w3.org/2000/svg" xmlns:xlink="http://www.w3.org/1999/xlink" x="0px" y="0px"
	 viewBox="0 0 1051.5 305.6" style="enable-background:new 0 0 1051.5 305.6;" xml:space="preserve">
<style type="text/css">
	.st0{clip-path:url(#SVGID_2_);fill-rule:evenodd;clip-rule:evenodd;fill:#FFFFFF;}
</style>
<g>
	<defs>
		<rect id="SVGID_1_" x="18.2" y="31.8" width="1018.7" height="216.6"/>
	</defs>
	<clipPath id="SVGID_2_">
		<use xlink:href="#SVGID_1_"  style="overflow:visible;"/>
	</clipPath>
	<path class="st0" d="M450.1,93.9c-25.1,1.8-26.2,52.8,1.3,53.9c6.5,0.3,10.9-1.4,14.8-6.3c3.9-4.9,5.8-11.6,5.8-19.9
		c0-8.6-1.9-15.3-5.9-20.3C462.2,96.4,456.9,93.4,450.1,93.9 M472.2,39.6l22,0l0,124.7h-21.3l-0.4-12.7c-3.5,6.2-6,6.4-11.1,9.4
		c-5.2,3.1-11.2,4.6-18,4.6c-10.5,0-19.2-4.2-26-12.6c-6.8-8.4-10.2-19.2-10.2-32.4c0-12.9,2.9-23,8.8-31.5
		c12.4-18,45-16.5,56.9,1.1L472.2,39.6z"/>
	<polygon class="st0" points="515.4,46.3 588.7,46.3 588.7,61 530.1,151.1 589.6,151.1 589.6,164.8 513.7,164.8 513.7,149.3 
		571.9,59.6 515.4,59.6 	"/>
	<path class="st0" d="M645.2,122.4c-9,0-15.8,1.5-20.6,4.5c-4.8,3-7.2,7.3-7.2,12.9c0,4.3,1.3,7.8,4.1,10.6
		c2.7,2.8,6.2,4.1,10.6,4.1c6.8,0,12.3-2.3,16.4-7c4.1-4.7,6.2-10.9,6.2-18.7v-6.4H645.2z M669.8,112.7v52.1l-14,0v-14.3
		c-3.1,5.2-7,9.1-11.6,11.7c-4.6,2.6-10,3.8-16.1,3.8c-7.7,0-13.9-2.3-18.7-7c-4.7-4.7-7.1-10.8-7.1-18.3c0-9.3,3.6-16.5,10.8-21.4
		c7.2-5,17.6-7.4,31.1-7.4h10.5v-1.7c0-6.7-1.8-11.9-5.3-15.6c-3.5-3.7-8.4-5.6-14.6-5.6c-3.5,0-7.2,0.6-10.9,1.8
		c-3.7,1.2-7.6,3-11.6,5.4l-0.2-13c4.1-2.1,8.4-3.6,12.9-4.6c4.5-1,9.3-1.5,14.4-1.5c10.1,0,17.7,3,22.8,8.9
		C667.3,91.9,669.8,100.8,669.8,112.7"/>
	<path class="st0" d="M760,95.9c3-6.1,6.9-10.8,11.5-13.9c4.7-3.2,10.1-4.8,16.1-4.8c8.5,0,15,3.1,19.5,9.2c4.5,6.1,6.7,15,6.7,26.7
		v51.8h-15.1v-48.2c0-8.6-1.3-15-3.9-19.1c-2.6-4.2-6.6-6.3-11.9-6.3c-6.6,0-11.7,2.6-15.4,7.9c-3.7,5.3-5.6,12.6-5.6,22v43.7h-15.1
		v-48.2c0-8.9-1.3-15.4-3.9-19.4c-2.6-4-6.8-6-12.5-6c-6,0-10.9,2.7-14.6,8.1c-3.7,5.4-5.6,12.7-5.6,21.8v43.7h-15.1V79.1l14,0V95
		c2.9-5.8,6.7-10.2,11.2-13.2c4.6-3.1,9.8-4.6,15.7-4.6c5.7,0,10.6,1.6,14.7,4.8C754.8,85.2,757.9,89.8,760,95.9"/>
	<path class="st0" d="M877.2,89.3c-7.2,0-12.9,2.9-17.1,8.6c-4.2,5.7-6.3,13.5-6.3,23.5c0,9.7,2.1,17.4,6.3,23.2
		c4.2,5.8,9.7,8.7,16.6,8.7c6.7,0,12-2.8,15.9-8.5c3.9-5.7,5.9-13.3,5.9-23c0-10-1.9-18-5.8-23.8C888.9,92.3,883.7,89.3,877.2,89.3
		 M838.7,37.2l15.1,0v55.5c3-5.2,6.8-9.1,11.3-11.7c4.5-2.6,9.8-3.9,15.9-3.9c10.1,0,18.2,4,24.3,11.9c6.1,7.9,9.2,18.4,9.2,31.6
		c0,13.5-3.1,24.5-9.4,32.9c-6.2,8.4-14.3,12.6-24.1,12.6c-6.2,0-11.7-1.6-16.5-4.8c-4.8-3.2-8.8-7.9-11.9-14.1v17.4h-13.9
		L838.7,37.2z"/>
	<path class="st0" d="M935,79.1l15.1,0v85.7H935V79.1z M935,39.8l15.1,0v15.9l-15.1,0V39.8z"/>
	<path class="st0" d="M1012.4,122.4c-9,0-15.8,1.5-20.6,4.5c-4.8,3-7.2,7.3-7.2,12.9c0,4.3,1.3,7.8,4.1,10.6
		c2.7,2.8,6.2,4.1,10.6,4.1c6.8,0,12.3-2.3,16.4-7c4.1-4.7,6.2-10.9,6.2-18.7v-6.4H1012.4z M1036.9,112.7v52.1l-14,0v-14.3
		c-3.1,5.2-7,9.1-11.6,11.7c-4.6,2.6-10,3.8-16.1,3.8c-7.7,0-13.9-2.3-18.7-7c-4.7-4.7-7.1-10.8-7.1-18.3c0-9.3,3.6-16.5,10.8-21.4
		c7.2-5,17.6-7.4,31.1-7.4h10.5v-1.7c0-6.7-1.8-11.9-5.3-15.6c-3.5-3.7-8.4-5.6-14.6-5.6c-3.5,0-7.2,0.6-10.9,1.8
		c-3.7,1.2-7.6,3-11.6,5.4l-0.2-13c4.1-2.1,8.4-3.6,12.9-4.6c4.5-1,9.3-1.5,14.4-1.5c10.1,0,17.7,3,22.8,8.9
		C1034.4,91.9,1036.9,100.8,1036.9,112.7"/>
	<path class="st0" d="M322.9,38.4l-1.6,19.8c-0.1,0-8.7-8.7-17.5-1.6c-2.7,2.1-3.1,6.9-3.1,12.6v9.1l20.8,0v16.1l-20.8,0l0,68
		l-22.4,0l0-68H260V78.4h18.4V67.6c0-10.2,2.6-17.8,7.9-23c5.3-5.2,13-7.8,23.2-7.8c2.4,0,4.8,0.1,7,0.4
		C318.7,37.4,320.9,37.9,322.9,38.4"/>
	<path class="st0" d="M391.3,79.9l-1.7,16.4c-3.8-2-7.6-3.6-11.3-4.5c-7.7-1.8-23.5,0.1-23.5,6.4c0,3.8,4.5,7.7,13.6,11.7
		c1,0.4,1.8,0.8,2.2,1c9.3,4.1,15.7,8.1,19.2,12.1c3.5,4,5.3,8.9,5.3,14.7c0,8.2-3.3,14.7-9.8,19.5c-6.6,4.8-15.5,7.2-26.8,7.2
		c-4.8,0-9.4,0.3-14-0.4c-4.5-0.7-8.4-1.5-12.5-2.9l0.9-18.1c4.1,2,8.3,3.6,12.6,4.6c4.3,1,8.6,2.1,12.8,1.5
		c7.6-1.1,11.4-2.2,12.7-9.4c3.3-18.4-40.1-7.9-39.8-36.9c0.1-7.6,4.7-16,11.1-20.7c6.4-4.8,14.8-7.2,25.3-7.2c2.8,0,5.9,0.3,9.3,1
		C380.2,76.7,385,78,391.3,79.9"/>
	<polygon class="st0" points="278.3,188.1 300.1,188.1 300.1,192 283.9,192 283.9,203.3 299.2,203.3 299.2,207.4 283.9,207.4 
		283.9,219.8 300.6,219.8 300.6,223.9 278.3,223.9 	"/>
	<polygon class="st0" points="305.7,198 312.3,198 318.5,207.2 324.8,198 330.8,198 321.5,210.1 331.6,223.9 325.2,223.9 318,213.3 
		310.8,223.9 304.8,223.9 315,210.2 	"/>
	<path class="st0" d="M341.4,219.7v15H336V198h4.9v5c1.1-1.8,2.6-3.2,4.3-4.2c1.8-1,3.7-1.4,6-1.4c3.6,0,6.5,1.2,8.7,3.6
		c2.2,2.4,3.3,5.5,3.3,9.5c0,4.2-1.1,7.6-3.4,10.1c-2.2,2.5-5.2,3.8-8.9,3.8c-2.1,0-3.9-0.4-5.5-1.2
		C343.8,222.4,342.4,221.3,341.4,219.7 M357.4,210.8c0-3-0.7-5.3-2.1-7c-1.4-1.7-3.3-2.5-5.7-2.5c-2.5,0-4.5,0.9-6,2.6
		c-1.5,1.7-2.3,4.1-2.3,6.9c0,3,0.7,5.4,2.2,7.1c1.5,1.7,3.4,2.6,5.9,2.6c2.5,0,4.4-0.9,5.8-2.6
		C356.7,216.2,357.4,213.8,357.4,210.8"/>
	<path class="st0" d="M383.4,211.1c-3.2,0-5.7,0.5-7.4,1.4c-1.7,0.9-2.6,2.2-2.6,3.9c0,1.3,0.5,2.4,1.4,3.2c1,0.8,2.2,1.2,3.8,1.2
		c2.4,0,4.4-0.7,5.9-2.1c1.5-1.4,2.2-3.3,2.2-5.7v-1.9H383.4z M392.2,208.2v15.8h-5v-4.3c-1.1,1.6-2.5,2.8-4.1,3.5
		c-1.7,0.8-3.6,1.2-5.7,1.2c-2.7,0-5-0.7-6.7-2.1c-1.7-1.4-2.5-3.3-2.5-5.5c0-2.8,1.3-5,3.8-6.5c2.6-1.5,6.3-2.2,11.1-2.2h3.7v-0.5
		c0-2-0.6-3.6-1.9-4.7c-1.3-1.1-3-1.7-5.2-1.7c-1.3,0-2.6,0.2-3.9,0.5c-1.3,0.4-2.7,0.9-4.1,1.6l-0.1-3.9c1.5-0.6,3-1.1,4.6-1.4
		c1.6-0.3,3.3-0.5,5.2-0.5c3.6,0,6.3,0.9,8.1,2.7C391.2,201.9,392.2,204.6,392.2,208.2"/>
	<path class="st0" d="M426.3,208.3l0,15.7h-5.4v-14.6c0-2.7-0.5-4.6-1.6-5.9c-1.1-1.3-2.7-1.9-4.9-1.9c-2.4,0-4.3,0.8-5.7,2.4
		c-1.4,1.6-2.1,3.9-2.1,6.8v13.2h-5.4V198h4.9v4.8c1.1-1.8,2.5-3.1,4.2-4c1.7-0.9,3.7-1.4,6-1.4c3.3,0,5.8,0.9,7.5,2.8
		C425.4,202,426.3,204.7,426.3,208.3"/>
	<path class="st0" d="M446.5,201.1c-2.3,0-4.2,0.9-5.6,2.6c-1.4,1.8-2.1,4.1-2.1,7.1c0,3,0.7,5.3,2.1,7c1.4,1.7,3.3,2.6,5.7,2.6
		c2.5,0,4.4-0.9,5.9-2.6c1.5-1.7,2.3-4.1,2.3-7c0-3-0.7-5.4-2.2-7.2C451.1,202,449.1,201.1,446.5,201.1 M454.8,185.4h5.4l0,38.6
		h-4.9v-5.3c-1.1,1.9-2.6,3.3-4.3,4.3c-1.7,1-3.7,1.4-6,1.4c-3.5,0-6.3-1.3-8.5-3.9c-2.2-2.6-3.4-5.9-3.4-9.9c0-4,1.1-7.2,3.3-9.6
		c2.2-2.4,5.1-3.6,8.7-3.6c2.1,0,4,0.4,5.6,1.2c1.6,0.8,3,2,4,3.5L454.8,185.4z"/>
	<path class="st0" d="M469.6,198h5.4v25.9h-5.4V198z M469.6,186.1h5.4v4.8h-5.4V186.1z"/>
	<path class="st0" d="M509.4,208.3l0,15.7H504v-14.6c0-2.7-0.5-4.6-1.6-5.9c-1.1-1.3-2.7-1.9-4.9-1.9c-2.4,0-4.3,0.8-5.7,2.4
		c-1.4,1.6-2.1,3.9-2.1,6.8l0,13.2l-5.4,0l0-25.9h4.9v4.8c1.1-1.8,2.5-3.1,4.2-4c1.7-0.9,3.7-1.4,6-1.4c3.3,0,5.8,0.9,7.5,2.8
		C508.6,202,509.4,204.7,509.4,208.3"/>
	<path class="st0" d="M529.7,201.2c-2.3,0-4.2,0.9-5.5,2.6c-1.4,1.7-2.1,4-2.1,6.9c0,2.9,0.7,5.2,2.1,6.9c1.4,1.7,3.2,2.6,5.5,2.6
		c2.4,0,4.3-0.9,5.8-2.6c1.5-1.7,2.2-3.9,2.2-6.7c0-3-0.7-5.4-2.1-7.1C534.2,202,532.2,201.2,529.7,201.2 M538.4,202.7V198h5.1l0,23
		c0,4.7-1.2,8.3-3.6,10.7c-2.4,2.4-6.1,3.6-10.9,3.6c-1.7,0-3.4-0.1-5.1-0.4c-1.7-0.3-3.2-0.7-4.7-1.2l0.4-4.3
		c1.5,0.7,3,1.2,4.4,1.6c1.4,0.4,2.8,0.5,4,0.5c3.2,0,5.7-0.8,7.4-2.5c1.7-1.7,2.6-4,2.6-7.1v-3.1c-1.2,1.7-2.6,3-4.2,3.9
		c-1.6,0.9-3.5,1.3-5.5,1.3c-3.6,0-6.5-1.2-8.7-3.6c-2.2-2.4-3.3-5.6-3.3-9.5c0-4.1,1.1-7.4,3.3-9.8c2.2-2.4,5.1-3.6,8.8-3.6
		c2.2,0,4.1,0.4,5.8,1.3C535.9,199.6,537.3,200.9,538.4,202.7"/>
	<polygon class="st0" points="569.6,188.1 590.4,188.1 590.4,192 575.2,192 575.2,203.5 589.8,203.5 589.8,207.5 575.2,207.5 
		575.2,223.9 569.6,223.9 	"/>
	<path class="st0" d="M596.8,198h5.4v25.9h-5.4V198z M596.8,186.1h5.4v4.8h-5.4V186.1z"/>
	<path class="st0" d="M636.7,208.3v15.7h-5.4v-14.6c0-2.7-0.5-4.6-1.6-5.9c-1.1-1.3-2.7-1.9-4.9-1.9c-2.4,0-4.3,0.8-5.7,2.4
		c-1.4,1.6-2.1,3.9-2.1,6.8v13.2h-5.4V198h4.9v4.8c1.1-1.8,2.5-3.1,4.2-4c1.7-0.9,3.7-1.4,6-1.4c3.3,0,5.8,0.9,7.5,2.8
		C635.9,202,636.7,204.7,636.7,208.3"/>
	<path class="st0" d="M658.5,211.1c-3.2,0-5.7,0.5-7.4,1.4c-1.7,0.9-2.6,2.2-2.6,3.9c0,1.3,0.5,2.4,1.4,3.2c1,0.8,2.2,1.2,3.8,1.2
		c2.4,0,4.4-0.7,5.9-2.1c1.5-1.4,2.2-3.3,2.2-5.7v-1.9H658.5z M667.3,208.2v15.8h-5v-4.3c-1.1,1.6-2.5,2.8-4.1,3.5
		c-1.7,0.8-3.6,1.2-5.7,1.2c-2.7,0-5-0.7-6.7-2.1c-1.7-1.4-2.5-3.3-2.5-5.5c0-2.8,1.3-5,3.8-6.5c2.6-1.5,6.3-2.2,11.1-2.2h3.7v-0.5
		c0-2-0.6-3.6-1.9-4.7c-1.3-1.1-3-1.7-5.2-1.7c-1.3,0-2.6,0.2-3.9,0.5c-1.3,0.4-2.7,0.9-4.1,1.6l-0.1-3.9c1.5-0.6,3-1.1,4.6-1.4
		c1.6-0.3,3.3-0.5,5.2-0.5c3.6,0,6.3,0.9,8.1,2.7C666.4,201.9,667.3,204.6,667.3,208.2"/>
	<path class="st0" d="M701.4,208.3l0,15.7H696v-14.6c0-2.7-0.5-4.6-1.6-5.9c-1.1-1.3-2.7-1.9-4.9-1.9c-2.4,0-4.3,0.8-5.7,2.4
		c-1.4,1.6-2.1,3.9-2.1,6.8l0,13.2h-5.4V198h4.9v4.8c1.1-1.8,2.5-3.1,4.2-4c1.7-0.9,3.7-1.4,6-1.4c3.3,0,5.8,0.9,7.5,2.8
		C700.5,202,701.4,204.7,701.4,208.3"/>
	<path class="st0" d="M730.6,198.9l-0.4,4.1c-0.9-0.4-1.9-0.8-2.9-1c-1.1-0.2-2.2-0.3-3.3-0.3c-3,0-5.4,0.8-7.3,2.6
		c-1.9,1.7-2.8,3.9-2.8,6.7c0,2.8,0.9,5.1,2.7,6.8c1.8,1.7,4.2,2.6,7.2,2.6c1.1,0,2.2-0.1,3.3-0.4c1.1-0.2,2.2-0.6,3.4-1.1l0.3,4.2
		c-1.2,0.4-2.5,0.7-3.8,0.9c-1.3,0.2-2.6,0.3-4,0.3c-4.5,0-8-1.2-10.7-3.6c-2.7-2.4-4-5.6-4-9.6c0-4,1.4-7.2,4.2-9.6
		c2.8-2.4,6.5-3.6,11-3.6c1.3,0,2.6,0.1,3.8,0.3C728.4,198.3,729.6,198.5,730.6,198.9"/>
	<path class="st0" d="M737.1,198h5.4v25.9h-5.4L737.1,198z M737.1,186.1h5.4v4.8h-5.4V186.1z"/>
	<path class="st0" d="M764.7,211.1c-3.2,0-5.7,0.5-7.4,1.4c-1.7,0.9-2.6,2.2-2.6,3.9c0,1.3,0.5,2.4,1.4,3.2c1,0.8,2.2,1.2,3.8,1.2
		c2.4,0,4.4-0.7,5.9-2.1c1.5-1.4,2.2-3.3,2.2-5.7v-1.9H764.7z M773.4,208.2v15.8h-5v-4.3c-1.1,1.6-2.5,2.8-4.1,3.5
		c-1.7,0.8-3.6,1.2-5.7,1.2c-2.7,0-5-0.7-6.7-2.1c-1.7-1.4-2.5-3.3-2.5-5.5c0-2.8,1.3-5,3.8-6.5c2.6-1.5,6.3-2.2,11.1-2.2h3.7v-0.5
		c0-2-0.6-3.6-1.9-4.7c-1.3-1.1-3-1.7-5.2-1.7c-1.3,0-2.6,0.2-3.9,0.5c-1.3,0.4-2.7,0.9-4.1,1.6l-0.1-3.9c1.5-0.6,3-1.1,4.6-1.4
		c1.6-0.3,3.3-0.5,5.2-0.5c3.6,0,6.3,0.9,8.1,2.7C772.5,201.9,773.4,204.6,773.4,208.2"/>
	<rect x="782.2" y="185.4" class="st0" width="5.4" height="38.6"/>
	<rect x="813.8" y="188.1" class="st0" width="5.6" height="35.8"/>
	<path class="st0" d="M854.3,208.3v15.7l-5.4,0v-14.6c0-2.7-0.5-4.6-1.6-5.9c-1.1-1.3-2.7-1.9-4.9-1.9c-2.4,0-4.3,0.8-5.7,2.4
		c-1.4,1.6-2.1,3.9-2.1,6.8v13.2h-5.4V198h4.9v4.8c1.1-1.8,2.5-3.1,4.2-4c1.7-0.9,3.7-1.4,6-1.4c3.3,0,5.8,0.9,7.5,2.8
		C853.5,202,854.3,204.7,854.3,208.3"/>
	<path class="st0" d="M883.6,198.9l-0.4,4.1c-0.9-0.4-1.9-0.8-2.9-1c-1.1-0.2-2.2-0.3-3.3-0.3c-3,0-5.4,0.8-7.3,2.6
		c-1.9,1.7-2.8,3.9-2.8,6.7c0,2.8,0.9,5.1,2.7,6.8c1.8,1.7,4.2,2.6,7.2,2.6c1.1,0,2.2-0.1,3.3-0.4c1.1-0.2,2.2-0.6,3.4-1.1l0.3,4.2
		c-1.2,0.4-2.5,0.7-3.8,0.9c-1.3,0.2-2.6,0.3-4,0.3c-4.5,0-8-1.2-10.7-3.6c-2.7-2.4-4-5.6-4-9.6c0-4,1.4-7.2,4.2-9.6
		c2.8-2.4,6.5-3.6,11-3.6c1.3,0,2.6,0.1,3.8,0.3C881.4,198.3,882.5,198.5,883.6,198.9"/>
	<rect x="890" y="185.4" class="st0" width="5.4" height="38.6"/>
	<path class="st0" d="M904.2,198h5.4v14.4c0,2.7,0.5,4.6,1.6,5.9c1,1.3,2.7,1.9,4.9,1.9c2.5,0,4.5-0.9,5.8-2.6c1.3-1.7,2-4.3,2-7.6
		v-12h5.4v25.9h-4.9v-5c-1.1,1.8-2.4,3.2-4.1,4s-3.7,1.3-6,1.3c-3.3,0-5.8-0.9-7.5-2.7c-1.7-1.8-2.5-4.5-2.5-8.1V198z"/>
	<path class="st0" d="M955.1,198.7l-0.2,3.9c-1.2-0.5-2.4-0.9-3.6-1.1c-1.2-0.2-2.5-0.4-3.8-0.4c-1.5,0-2.6,0.3-3.5,0.8
		c-0.9,0.5-1.3,1.3-1.3,2.1l1.1,2.1c0.7,0.6,2.2,1.4,4.5,2.4c3.1,1.3,5.2,2.5,6.3,3.7c1.2,1.2,1.7,2.6,1.7,4.3
		c0,2.4-1.1,4.2-3.2,5.6c-2.1,1.4-5,2.1-8.6,2.1c-1.3,0-2.6-0.1-3.9-0.3c-1.3-0.2-2.5-0.5-3.8-1l0.2-4c1.3,0.6,2.6,1,3.9,1.3
		c1.3,0.3,2.6,0.4,3.8,0.4c1.8,0,3.2-0.3,4.2-1c1-0.7,1.6-1.6,1.6-2.8c0-0.9-0.3-1.6-0.9-2.2c-0.6-0.6-2.1-1.4-4.4-2.4
		c-3.1-1.3-5.2-2.6-6.3-3.7c-1.1-1.2-1.7-2.5-1.7-4c0-2,1-3.7,2.9-4.9c1.9-1.2,4.5-1.9,7.7-1.9c1.2,0,2.4,0.1,3.6,0.2
		C952.6,198.1,953.8,198.4,955.1,198.7"/>
	<path class="st0" d="M963,198h5.4v25.9H963L963,198z M963,186.1h5.4v4.8H963V186.1z"/>
	<path class="st0" d="M990,201.1c-2.6,0-4.7,0.9-6.3,2.7c-1.6,1.8-2.4,4.2-2.4,7.2c0,2.9,0.8,5.3,2.4,7.1c1.6,1.8,3.7,2.7,6.3,2.7
		c2.6,0,4.7-0.9,6.3-2.7c1.6-1.8,2.4-4.2,2.4-7.1c0-3-0.8-5.4-2.4-7.2C994.7,202,992.6,201.1,990,201.1 M989.9,197.4
		c4.5,0,8,1.2,10.6,3.6c2.6,2.4,3.9,5.7,3.9,9.9c0,4.2-1.3,7.5-3.9,9.9c-2.6,2.4-6.1,3.7-10.6,3.7c-4.4,0-7.9-1.2-10.5-3.7
		c-2.6-2.4-3.9-5.7-3.9-9.9c0-4.2,1.3-7.5,3.9-9.9C982,198.6,985.5,197.4,989.9,197.4"/>
	<path class="st0" d="M1036.9,208.3v15.7h-5.4v-14.6c0-2.7-0.5-4.6-1.6-5.9c-1.1-1.3-2.7-1.9-4.9-1.9c-2.4,0-4.3,0.8-5.7,2.4
		c-1.4,1.6-2.1,3.9-2.1,6.8v13.2h-5.4V198h4.9v4.8c1.1-1.8,2.5-3.1,4.2-4c1.7-0.9,3.7-1.4,6-1.4c3.3,0,5.8,0.9,7.5,2.8
		C1036,202,1036.9,204.7,1036.9,208.3"/>
	<path class="st0" d="M176.2,146.5c-70-10.3-117.9-2.5-155.9,15.9l0-22.3l43.8,0L64.5,89c14.6,16.5,65.4,45.6,108.6,53.4
		C180.8,143.8,177.4,146.4,176.2,146.5"/>
	<path class="st0" d="M22.1,205.8c-3.9-9.5,6.4-13.1,11.7-16.4C93,154.6,158,145.9,230.1,168.6l-4.1,4.4
		C148.6,150.8,81.1,164.6,22.1,205.8"/>
	<path class="st0" d="M59,241.9c-9,5.1-21.2,3.9-16.2-3.7c38.5-37.9,86.3-65.2,164-58.8l-9,4.4C136,181.7,93.3,204,59,241.9"/>
	<path class="st0" d="M109.7,248.4c20.9-27.8,46.7-48.5,77.8-61.6c-55.9,3.1-93.3,23.2-119,54.1L109.7,248.4z"/>
	<path class="st0" d="M242.6,165.4c-20.6-6.2-23.4-12.6-61.7-18.6v-27.2l-6.8,3.6c-5.6-1.3-14.3-6.4-17.3-12.4
		c5.9-18.9,4.1-41.1,6.2-62.4c4.9-6.3,15.3-16.6,21.5-16.1c23.9,6.3,53.2,25.5,75.5,42.5C250.5,98.8,242.9,125.9,242.6,165.4"/>
</g>
</svg>
