<?xml version="1.0" encoding="UTF-8"?>
<svg width="175px" height="71px" viewBox="0 0 175 71" version="1.1" xmlns="http://www.w3.org/2000/svg" xmlns:xlink="http://www.w3.org/1999/xlink">
    <title>i2i-logo-white</title>
    <g id="Phase-5" stroke="none" stroke-width="1" fill="none" fill-rule="evenodd">
        <g id="Data-National-Screen" transform="translate(-989.000000, -307.000000)" fill="#FFFFFF">
            <g id="i2i-logo-white" transform="translate(989.000000, 307.000000)">
                <path d="M106.236111,41.2967763 C111.013889,41.2967763 115.564815,45.0803289 115.569444,51.9888158 L115.569444,51.9888158 L115.569444,52.0682237 C115.569444,58.9720395 111.092593,62.7555921 106.236111,62.7555921 C103.741832,62.8062216 101.371471,61.6606946 99.8472222,59.6680263 L99.8472222,59.6680263 L99.8472222,68.5430263 L94.0324074,68.5430263 L94.0324074,41.6844737 L99.8472222,41.6844737 L99.8472222,44.6552632 C101.263889,42.7261184 103.212963,41.2967763 106.236111,41.2967763 Z M151.190209,41.2997253 L151.532407,41.3014474 C155.398148,41.3014474 157.805556,42.6140132 159.717593,44.7720395 L159.717593,44.7720395 L156.162037,48.6303289 C154.861111,47.2430263 153.560185,46.3555263 151.49537,46.3555263 C148.587963,46.3555263 146.523148,48.9432895 146.523148,51.9888158 L146.523148,51.9888158 L146.523148,52.0682237 C146.523148,55.2305263 148.550926,57.77625 151.726852,57.77625 C153.675926,57.77625 155.013889,56.9261184 156.430556,55.5855263 L156.430556,55.5855263 L159.810185,59.0561184 C157.824074,61.2608553 155.527778,62.8396711 151.435185,62.8396711 C148.605232,62.8891534 145.876037,61.7802584 143.869865,59.7658175 C141.863694,57.7513767 140.751561,55.0031103 140.787037,52.1476316 L140.787037,52.1476316 L140.787037,52.0728947 C140.744921,49.191092 141.865785,46.4158388 143.892213,44.3844925 C145.918642,42.3531462 148.676494,41.2402711 151.532407,41.3014474 Z M126.722222,41.3761842 C129.216502,41.3255547 131.586862,42.4710817 133.111111,44.46375 L133.111111,44.46375 L133.111111,41.6798026 L138.925926,41.6798026 L138.925926,62.4473026 L133.111111,62.4473026 L133.111111,59.4765132 C131.694444,61.4009868 129.74537,62.8303289 126.722222,62.8303289 C121.939815,62.8303289 117.388889,59.0514474 117.388889,52.1429605 L117.388889,52.1429605 L117.388889,52.0682237 C117.388889,45.1550658 121.861111,41.3761842 126.722222,41.3761842 Z M58.2037037,36.4342105 L58.2037037,39.6105263 C58.2017947,40.3789695 57.8770907,41.1105736 57.3101852,41.62375 C57.879004,42.1394579 58.2038342,42.8747425 58.2037037,43.6463158 L58.2037037,43.6463158 L58.2037037,62.39125 L52.4027778,62.39125 L52.4027778,43.6509868 C52.4086004,42.8874332 52.7329651,42.1616807 53.2962963,41.6517763 C52.7240721,41.136184 52.3972899,40.3985943 52.3981481,39.6245395 L52.3981481,39.6245395 L52.3981481,36.4342105 L58.2037037,36.4342105 Z M84.8611111,41.2874342 C89.1898148,41.2874342 91.787037,43.9078947 91.7824074,48.8919079 L91.7824074,48.8919079 L91.7824074,62.3678947 L85.9675926,62.3678947 L85.9675926,50.8257237 C85.9675926,48.0511184 84.75,46.6217763 82.5648148,46.6217763 C80.3796296,46.6217763 79.0416667,48.0230921 79.0416667,50.8257237 L79.0416667,50.8257237 L79.0416667,62.3632237 L73.2222222,62.3632237 L73.2222222,50.8210526 C73.2222222,48.0464474 72,46.6171053 69.8194444,46.6171053 C67.8472222,46.6171053 66.5740741,47.7988816 66.3472222,50.0736842 L66.3472222,50.0736842 L66.3472222,62.3772368 L60.4537037,62.3772368 L60.4537037,41.6891447 L66.3333333,41.6891447 L66.3333333,44.5571711 C67.6851852,42.8382237 69.4398148,41.2874342 72.3518519,41.2874342 C75.0277778,41.2874342 77.0555556,42.4738816 78.1296296,44.5571711 C79.9259259,42.4458553 82.0833333,41.2874342 84.8611111,41.2874342 Z M167.208333,36.3968421 L167.208333,41.6844737 L172.027778,41.6844737 L172.027778,46.7105263 L167.208333,46.7105263 L167.208333,62.3678947 L161.393519,62.3678947 L161.393519,43.6556579 C161.401097,42.8915098 161.727093,42.1658666 162.291667,41.6564474 C161.720646,41.1419393 161.393979,40.4063085 161.393519,39.6338816 L161.393519,39.6338816 L161.393519,36.3968421 L167.208333,36.3968421 Z M128.212963,46.3555263 C125.513889,46.3555263 123.199074,48.5929605 123.199074,52.0682237 L123.199074,52.0682237 L123.199074,52.1429605 C123.199074,55.5761842 125.49537,57.8509868 128.212963,57.8509868 C130.930556,57.8509868 133.185185,55.5761842 133.185185,52.1429605 L133.185185,52.1429605 L133.185185,52.0682237 C133.185185,48.6303289 130.912037,46.3555263 128.212963,46.3555263 Z M104.740741,46.2761184 C102.023148,46.2761184 99.7685185,48.5555921 99.7685185,51.9888158 L99.7685185,51.9888158 L99.7685185,52.0682237 C99.7685185,55.5014474 102.041667,57.77625 104.740741,57.77625 C107.439815,57.77625 109.75463,55.5388158 109.75463,52.0682237 L109.75463,52.0682237 L109.75463,51.9888158 C109.75463,48.5555921 107.458333,46.2761184 104.740741,46.2761184 Z M115.106481,13.1910526 C118.282407,13.1910526 120.157407,14.5456579 121.726852,16.2786184 L121.726852,16.2786184 L121.726852,13.5740789 L127.518519,13.5740789 L127.518519,29.6144737 C127.518519,37.4104605 123.694444,41.09125 116.078704,41.09125 C112.928058,41.1220044 109.817197,40.3798104 107.013889,38.9285526 L107.013889,38.9285526 L109.00463,34.5284211 C111.107225,35.7785977 113.508687,36.4247173 115.949074,36.3968421 C119.949074,36.3968421 121.800926,33.9165132 121.800926,30.2123684 L121.800926,30.2123684 L121.800926,29.2080921 C120.078704,31.2913816 118.203704,32.5665789 115.106481,32.5665789 C110.324074,32.5665789 106.00463,29.0539474 106.00463,22.9161842 L106.00463,22.9161842 L106.00463,22.8414474 C106.00463,16.6663158 110.402778,13.1910526 115.106481,13.1910526 Z M88.7314815,13.6488158 C91.4569263,13.6891323 94.1134,14.5193101 96.3842593,16.0403947 L96.3842593,16.0403947 L94.1666667,20.0948684 C92.1296296,18.8944079 90.1018519,18.1657237 88.6111111,18.1657237 C87.1944444,18.1657237 86.4722222,18.7823026 86.4722222,19.5903947 L86.4722222,19.5903947 L86.4722222,19.6698026 C86.4722222,20.8235526 88.4212963,21.3653947 90.6388889,22.1361184 C93.5185185,23.1030263 96.837963,24.4903289 96.8194444,28.2598684 L96.8194444,28.2598684 L96.8194444,28.3392763 C96.8194444,32.9355921 93.412037,35.0188816 88.9768519,35.0188816 C85.7817285,34.9942193 82.6861305,33.8944905 80.1805556,31.8939474 L80.1805556,31.8939474 L82.6666667,28.0356579 C84.9027778,29.6565132 87.2361111,30.5066447 89.1481481,30.5066447 C90.8333333,30.5066447 91.5972222,29.8947368 91.5972222,28.9605263 L91.5972222,28.9605263 L91.5972222,28.8717763 C91.5972222,27.5965789 89.6111111,27.1715132 87.3518519,26.4755263 C84.4768519,25.6253947 81.2361111,24.2801316 81.2361111,20.2676974 L81.2361111,20.2676974 L81.2361111,20.1882895 C81.2361111,15.9843421 84.6018519,13.6488158 88.7314815,13.6488158 Z M72.2777778,13.5460526 C76.6759259,13.5460526 79.2361111,16.5028289 79.2361111,21.2486184 L79.2361111,21.2486184 L79.2361111,34.6451974 L73.4212963,34.6451974 L73.4212963,23.1030263 C73.4212963,20.3284211 72.1203704,18.8990789 69.9027778,18.8990789 C67.6851852,18.8990789 66.2685185,20.3284211 66.2685185,23.1030263 L66.2685185,23.1030263 L66.2685185,34.6451974 L60.4537037,34.6451974 L60.4537037,13.9571053 L66.2592593,13.9571053 L66.2592593,16.8671711 C67.6111111,15.1295395 69.3333333,13.5460526 72.2777778,13.5460526 Z M135.731481,8.65546053 L135.731481,16.8671711 C137.083333,15.1295395 138.805556,13.5460526 141.75,13.5460526 C146.148148,13.5460526 148.712963,16.5028289 148.712963,21.2486184 L148.712963,21.2486184 L148.712963,34.6451974 L142.898148,34.6451974 L142.898148,23.1030263 C142.898148,20.3284211 141.597222,18.8990789 139.37963,18.8990789 C137.162037,18.8990789 135.74537,20.3284211 135.74537,23.1030263 L135.74537,23.1030263 L135.74537,34.6405263 L129.930556,34.6405263 L129.930556,8.65546053 L135.731481,8.65546053 Z M104.365741,13.9244079 L104.365741,34.6451974 L98.5324074,34.6451974 L98.5324074,13.9244079 L104.365741,13.9244079 Z M156.944444,8.66947368 L156.944444,13.9197368 L161.759259,13.9197368 L161.759259,16.5215132 C163.376823,15.0448117 165.495181,14.2521 167.675926,14.3074342 C171.939815,14.3074342 174.578704,17.1427632 174.578704,20.8796053 L174.578704,20.8796053 L174.578704,20.9309868 C174.578704,24.0932895 172.958333,25.7188158 170.060185,27.8301316 L170.060185,27.8301316 L166.726146,30.1834605 L166.712963,30.1843421 L166.712963,30.1936842 L166.726146,30.1834605 L174.787037,30.1843421 L174.787037,34.6311842 L159.342593,34.6311842 L159.342593,31.9733553 C159.343206,31.0588934 159.763817,30.1963451 160.481481,29.6378289 L160.481481,29.6378289 L160.527778,29.5957895 L166.638889,24.8873684 C168.449074,23.4860526 169.486111,22.3883553 169.486111,21.1505263 C169.486111,19.9126974 168.62037,19.1513158 167.310185,19.1513158 C166,19.1513158 164.62963,20.1135526 163.101852,21.8792105 L163.101852,21.8792105 L156.944444,16.5448684 L156.944444,34.6405263 L151.12037,34.6405263 L151.12037,15.9189474 C151.126766,15.1555205 151.451031,14.4299908 152.013889,13.9197368 C151.444838,13.4022311 151.120097,12.6654498 151.12037,11.8925 L151.12037,11.8925 L151.12037,8.66947368 L156.944444,8.66947368 Z M58.1990741,8.69282895 L58.1990741,11.8878289 C58.1971651,12.6562721 57.872461,13.3878763 57.3055556,13.9010526 C57.8738909,14.4171154 58.1986198,15.1521707 58.1990741,15.9236184 L58.1990741,15.9236184 L58.1990741,34.6265132 L52.3981481,34.6265132 L52.3981481,15.8815789 C52.4098617,15.1260608 52.7337654,14.4098059 53.2916667,13.9057237 C52.7221319,13.3885725 52.3972894,12.6515618 52.3981481,11.8784868 L52.3981481,11.8784868 L52.3981481,8.69282895 L58.1990741,8.69282895 Z M116.787037,18.0536184 C113.953704,18.0536184 111.814815,20.0341447 111.814815,22.8367763 L111.814815,22.8367763 L111.814815,22.9161842 C111.814815,25.7748684 113.953704,27.7040132 116.787037,27.7040132 C119.62037,27.7040132 121.800926,25.7188158 121.800926,22.9161842 L121.800926,22.9161842 L121.800926,22.8367763 C121.800926,20.0248026 119.62037,18.0536184 116.787037,18.0536184 Z" id="Combined-Shape"></path>
                <path d="M22.2337963,0 C34.5131829,0 44.4675926,10.0434754 44.4675926,22.4327303 L44.4675926,22.4327303 L44.4675926,22.4841118 C44.460503,24.3193924 43.6833604,26.0657879 42.3287037,27.290625 C43.6820359,28.5230425 44.4542315,30.2764525 44.4537037,32.1158224 L44.4537037,32.1158224 L44.4537037,48.3150329 C44.4333137,60.689307 34.4960202,70.7155131 22.2314815,70.7360855 L22.2314815,70.7360855 L21.8642193,70.73255 C9.76810415,70.5172886 0.0269290857,60.5666181 0.00925925926,48.3150329 L0.00925925926,48.3150329 L0.0416666667,48.3150329 C0.00462962963,47.9506908 0.00462962963,47.5910197 0.00462962963,47.2687171 L0.00462962963,47.2687171 L0.00462962963,32.0691118 C0.0195040026,30.2445882 0.794037368,28.5104514 2.13888889,27.290625 C0.778013212,26.0585485 0.000390514828,24.3008847 0,22.4560855 L0,22.4560855 L0,22.4327303 C3.2895497e-15,10.0434754 9.95440967,0 22.2337963,0 Z M31.5051204,6.09973142 C25.7857184,2.71013186 18.6957631,2.71013186 12.9763611,6.09973142 C7.25695916,9.48933099 3.80447553,15.7373 3.9537037,22.4280592 L3.9537037,22.4280592 L3.9537037,48.3103618 C3.96391142,58.4961098 12.1453203,66.7507207 22.2407407,66.7610197 L22.2407407,66.7610197 L22.5729384,66.7576163 C32.5175398,66.5663974 40.5202103,58.3773905 40.5277778,48.3010197 L40.5277778,48.3010197 L40.5277778,22.4280592 C40.677006,15.7373 37.2245223,9.48933099 31.5051204,6.09973142 Z M22.2745891,8.50952273 C29.935374,8.52852928 36.1847248,14.7054272 36.3611111,22.4327303 L36.3611111,22.4327303 L36.3611111,22.4420724 C36.3613075,24.2869977 35.5835829,26.0448919 34.2222222,27.2766118 C35.5838137,28.5101317 36.3614487,30.2695216 36.3611111,32.1158224 L36.3611111,32.1158224 L36.3610071,33.5137147 C36.3600577,40.091346 36.3529053,47.2639799 36.3519558,48.1910972 L36.3518519,48.2916776 C36.3442059,56.1582344 30.0282707,62.5348592 22.2314815,62.5477303 L22.2314815,62.5477303 L21.9205119,62.5439369 C14.2699421,62.3672401 8.12117698,56.0601402 8.11111111,48.3010197 L8.11111111,48.3010197 L8.11111111,32.1158224 C8.11648684,30.2728274 8.89734947,28.518844 10.2592593,27.290625 C8.89838358,26.0585485 8.12076089,24.3008847 8.12037037,22.4560855 L8.12037037,22.4560855 L8.12037037,22.3626645 C8.33442041,14.6363301 14.6138043,8.49051619 22.2745891,8.50952273 Z M22.2152778,15.9177039 C19.5404721,15.9177039 17.1437147,17.5847825 16.1922928,20.1070262 C15.240871,22.6292698 15.9325868,25.4823 17.9305556,27.2766118 C16.5742888,28.5053282 15.7999675,30.2580442 15.8009259,32.0971382 L15.8009259,32.0971382 L15.8009259,48.2963487 C15.811109,51.8797608 18.6891,54.7814147 22.2407407,54.7891118 L22.2407407,54.7891118 L22.2407407,54.8077961 C25.7833495,54.7898702 28.6493748,51.8940318 28.662037,48.3197039 L28.662037,48.3197039 L28.662037,32.1158224 C28.6588452,30.2653679 27.8721206,28.5044701 26.5,27.2766118 C28.4979687,25.4823 29.1896846,22.6292698 28.2382627,20.1070262 C27.2868409,17.5847825 24.8900834,15.9177039 22.2152778,15.9177039 Z" id="Combined-Shape"></path>
            </g>
        </g>
    </g>
</svg>