<?xml version="1.0" encoding="utf-8"?>
<!-- Generator: Adobe Illustrator 22.0.1, SVG Export Plug-In . SVG Version: 6.00 Build 0)  -->
<svg version="1.1" xmlns="http://www.w3.org/2000/svg" xmlns:xlink="http://www.w3.org/1999/xlink" x="0px" y="0px"
	 viewBox="0 0 745.2 828.4" style="enable-background:new 0 0 745.2 828.4;" xml:space="preserve">
<style type="text/css">
	.st0{display:none;}
	.st1{display:inline;}
	.st2{fill:#FFFFFF;}
</style>
<g id="Layer_1" class="st0">
	<path class="st1" d="M1422.9,682.5c0,199.8,0,398.6,0,597.3c-7.6,2.1-606,2.5-618,0.5c0-199,0-398,0-597.8
		C1010.9,682.5,1216.3,682.5,1422.9,682.5z M1061,835.9c4.7-0.3,9-0.8,13.2-0.8c47.7-0.1,95.3,0,143-0.1c4.2,0,8.3-0.5,13.1-0.9
		c0-8.4,0.1-15.7,0-23c-0.1-7.2-0.3-14.3-0.4-21.5c-75.6,0-149.8,0-224.4,0c0,138.9,0,277,0,416.3c18.5,0.1,36.2,0.5,55.2-0.3
		c0-63.1,0-124.9,0-187.7c14.1,0,27.1,0,40,0c12.7,0,25.3,0,38,0c13,0,26,0,39,0c12.8,0,25.7-0.2,38.9-0.2c0-15.9,0-30.4,0-46.1
		c-52.3,0-103.8,0-155.6,0C1061,925.8,1061,881.3,1061,835.9z"/>
	<path class="st1" d="M96.8,683c0,199.7,0,398.5,0,597.8c-206,0-411.5,0-616.9,0c-2-7.4-2.5-586-0.4-597.8
		C-315.2,683-109.7,683,96.8,683z M-78.2,800.1c-3.8-1.9-6.1-3.3-8.6-4.2c-5.9-2.2-11.9-4.5-18-6c-40.6-10.4-81.8-12.3-122.8-4
		c-77.1,15.6-130.3,60-155.9,135c-15.5,45.2-16.6,91.8-6.2,138.1c17.6,77.7,65.1,127.3,142.9,146.4c32.7,8.1,66,7.9,99.3,3.9
		c19.2-2.3,38.2-5.8,56.4-12.6c3.9-1.5,7.6-3.6,11.5-5.5c-2-8.1-3.6-15.2-5.4-22.3c-1.7-6.9-3.5-13.8-5.4-21c-2.7,0.8-4,1.2-5.2,1.6
		c-38.9,15.1-79,19-119.8,11.8c-53.8-9.5-91.9-39.5-110.4-91.6c-17.2-48.5-16.5-97.7,0.6-146c14.5-40.8,42.3-70.1,83.3-84.9
		c46.6-16.8,93.5-15,139.9,1.7c3,1.1,6,2.2,9.9,3.7C-87.3,829.2-82.9,815-78.2,800.1z"/>
	<path class="st1" d="M756.6,637.3c-205.8,0-411,0-616.1,0c-2.2-8.1-2.3-592.3-0.1-602.2c205.2,0,410.6,0,616,0
		C758.4,43.1,758.7,626.1,756.6,637.3z M293.2,139.8c0,5.2,0,9.2,0,13.1c0,61,0,122,0,182.9c0,23.3-0.2,46.7,0.5,70
		c0.7,22.4,4.6,44.4,12.1,65.6c16.7,47.5,49,77.6,98.7,87.9c24.4,5.1,49.1,5.1,73.5,0.8c52-9,88.6-37.6,108.3-87
		c12-30.2,15-62,15.1-94.1c0.1-76,0.1-151.9,0-227.9c0-3.6-0.4-7.2-0.7-11.8c-18.6,0.2-36.3-0.6-55.2,0.6c0,5.2,0,9.4,0,13.7
		c0,75.3,0.1,150.6-0.1,225.9c0,13.3-0.7,26.6-2,39.9c-1.9,18.7-6.8,36.6-16.1,53.2c-12.2,21.8-30.2,36.4-54.6,41.8
		c-10.9,2.4-22.5,3.4-33.7,3c-28.8-0.9-52.2-13.2-67.8-37.8c-6.3-10-11-21.3-14.7-32.6c-6.5-19.8-8-40.4-8-61.2
		c0-77.6,0-155.3,0-232.9c0-4.2-0.3-8.4-0.5-13.1C329.6,139.8,312.2,139.8,293.2,139.8z"/>
	<path class="st1" d="M1422.8,35c0,201.1,0,401.2,0,602c-206,0-411.5,0-617,0c-1.9-7.4-2.4-589.9-0.4-602
		C1010.8,35,1216.3,35,1422.8,35z M990.5,210.2c1.4,2.5,2.7,5,4,7.5c7.6,14.8,14.5,30.1,23,44.3c28.3,47.5,56.9,94.8,85.9,141.9
		c29.7,48.2,60.2,96,90,144.1c3.8,6.1,7.9,8.7,15.2,8.4c12.3-0.6,24.7-0.1,37-0.2c2.5,0,5.1-0.6,8-0.9c0-138.7,0-276.8,0-415.4
		c-17.2,0-33.7,0-51.6,0c0,57.2,0,113.8,0,170.3c0,56.8,1.4,113.5,5.1,170.4c-1.8-1.8-2.9-3.7-3.9-5.7
		c-13.7-25.9-26.4-52.4-41.2-77.6c-22.1-37.6-45.5-74.5-68.7-111.4c-29-46.3-58.4-92.4-87.3-138.7c-3.6-5.7-7.5-8.3-14.4-8
		c-13.6,0.6-27.3,0.1-41,0.2c-2.9,0-5.9,0.3-8.6,0.5c-2.8,9.9-2.5,408.1,0.1,415.7c12.5,1.7,42.3,1.2,50.5-1.2
		C991.5,439.9,994.6,325.2,990.5,210.2z"/>
	<path class="st1" d="M757.6,682.4c0,199.5,0,397.8,0,596.5c-2.4,0.6-4.5,1.3-6.7,1.6c-2.6,0.3-5.3,0.1-8,0.1
		c-196.3,0-392.6,0-588.8,0c-4.6,0-9.1,0-14.4,0c0-200.2,0-399,0-598.2C345.7,682.4,551.2,682.4,757.6,682.4z M285.8,1204.1
		c5.2,0.7,10.1,1.7,14.9,2c18.3,1.2,36.6,2.4,54.9,3.1c45.9,1.8,91.2-1,135.4-14.9c59.6-18.7,100.9-57,122.3-115.7
		c17.4-47.8,20.4-97,9.5-146.6c-14.4-65.6-54.5-109-117.7-131.2c-30.2-10.6-61.6-14.3-93.3-15.1c-39.4-1-78.6,1.9-117.5,7.8
		c-2.8,0.4-5.6,1.4-8.4,2.1C285.8,932.1,285.8,1067.7,285.8,1204.1z"/>
	<path class="st1" d="M1422.1-10.9c-205.3,0-410.8,0-616.2,0c-2-7.3-2.5-589.7-0.5-601.9c205.3,0,410.8,0,616.2,0
		C1423.8-605.5,1424.3-23.1,1422.1-10.9z M1110.1-141.1c118,1,196.9-99.3,195.8-193.3c-1.4-121.3-99.4-198.1-196-196.7
		c-119.4,1.7-199,100-194.3,202.9C920.7-218.4,1009.1-139.9,1110.1-141.1z M1097.7-119.1c-22.4,11.5-42.2,24.6-58.7,43.5
		c4.3,3.4,7.9,6.2,11.9,9.5c2.6-3,4.7-5.4,6.9-7.9c13.2-15.3,28.7-27.8,45.9-38.1c5.7-3.4,10.7-3.4,16.6,0.2
		c15.8,9.6,29.6,21.5,42.6,34.6c3.4,3.5,7,6.8,11,10.7c4.1-3.8,7.4-6.8,11.3-10.4c-16.7-17.7-36.3-29.8-58-42.3
		c9.9-1.7,17.3-0.9,24,3.6c5,3.3,9.7,7.2,14.9,10.1c10.4,5.8,20.6,12.7,31.8,16.5c27,9.1,51.9,3.9,73.9-14.3c2.4-2,4.4-4.5,7.1-7.3
		c-2-0.2-2.7-0.5-3.2-0.3c-23.2,11.7-46.4,9.6-69.5-0.2c-7.7-3.2-15.2-6.9-22.9-9.9c-22.3-8.5-45-11.6-68.3-4
		c-2,0.7-4.7,0.5-6.8-0.1c-22.1-6.7-43.5-3.9-64.6,4.1c-9.9,3.8-19.7,8.2-29.4,12.4c-20.9,9-41.9,9.8-63.1,1.1
		c-1.5-0.6-3.2-0.6-4.8-0.9c18.4,19.5,40.4,27.9,66.7,24.1c16.7-2.4,30.6-10.7,44.1-20.1c6-4.2,11.9-8.7,18.3-12.2
		C1081.7-120.3,1088.7-122.9,1097.7-119.1z M1248-142.2c15.4-3.3,30.1-5.8,44.5-9.8c31-8.4,53.3-27.9,68.1-56.2
		c2.6-5,5.1-10.3,4.5-19c-12.6,21.9-32.2,31.4-51.4,41.6c-9.4,5-18.4,10.7-27.6,16c-1.4,0.8-2.9,1.5-4.3,2.2
		c10.1-14.2,14-29.9,16.5-46.2c1.5-9.5,3.4-19,5.1-28.5c0.3-1.7,0.2-3.4,0.3-5.5c-1.4,0.7-2.1,0.8-2.5,1.3c-1.1,1.2-2.2,2.5-3.2,3.8
		c-10.3,12.9-17.7,27.3-22.5,43.1c-6,19.8-13,39.2-27.4,54.9C1247.8-144.1,1248-143.6,1248-142.2z M974.7-141.3
		c-1.6-2.8-2.2-4.3-3.2-5.4c-9.3-10-14.5-22.2-19.1-34.8c-2.8-7.8-5.7-15.7-8.4-23.5c-5.1-14.7-14.2-27.1-23.7-39.1
		c-0.6-0.7-1.8-1-2.7-1.5c2.3,12.4,4.6,24.2,6.6,35.9c2.6,15.2,6.4,30,16.4,42.3c0.4,0.4-0.1,1.5-0.1,2c-10.4-5.8-20.3-11.8-30.6-17
		c-19.2-9.8-39.4-18.3-52.1-37.7c-0.3,2.7,0,4.9,0.8,6.9c4,11.1,9.9,21.1,17.6,29.9c18.6,21.2,41.7,33.6,69.7,37.2
		C955-144.8,964.1-143,974.7-141.3z M1223.9-133.6c5.2-3.9,13.2-8.4,19.1-14.8c11.3-12.3,15.3-28.9,23.5-43.4
		c-2.9,0.7-5.2,1.9-7,3.5c-9.7,8.6-19.8,16.9-28.7,26.3c-14.2,15.2-29.9,27.3-50.7,31.8c-0.6,0.1-1,0.8-1.7,1.3
		c0.9,0.5,1.6,1.3,2.4,1.5c16.2,3.8,32.3,8,48.6,11.3c33,6.7,61.1-3.2,84.7-26.6c3.8-3.8,7.6-7.9,8.6-13.8
		c-13,10.6-28.2,15.3-44.2,17.3C1259.6-136.9,1240.5-135.3,1223.9-133.6z M1299.9-186.5c21.6-15.5,44.1-25.9,60.6-44.8
		c11.2-12.8,19.8-26.8,23-43.6c1.4-7.3,2.1-14.7-0.5-22.2c-4,12.5-10.8,23-19.9,31.9c-12.6,12.4-24.5,25.4-34.3,40.2
		c-0.2,0.3-1,0.2-0.5,0.1c1-9.3,3.5-18.9,2.7-28.3c-1.3-16.5-4.7-32.8-7.2-49.2c-3.1,3.7-5.4,7.8-6,12.1c-2.3,15.1-4.6,30.3-6,45.5
		c-1.6,18-3,35.9-10.8,52.5C1300.6-191.3,1300.6-190,1299.9-186.5z M1045.2-126.7c-2.2-1.8-2.9-2.8-3.7-3c-19.3-4.2-34.2-15.5-48-29
		c-10-9.8-20.8-18.7-31.3-27.9c-1.5-1.3-3.6-1.9-7.5-3.8c7.2,13.3,13,24.5,19.3,35.4c4.4,7.6,10.3,13.9,17.9,18.5
		c1.6,1,3.2,2.3,5.2,3.7c-17.2-1.3-33.5-2.3-49.6-4c-15.7-1.6-30.9-5.1-43.6-15.4c-0.8-0.6-2-0.6-3.6-1.1c0.5,1.7,0.6,2.3,0.9,2.9
		c0.3,0.6,0.6,1.2,1,1.7c18.1,23.1,41.1,36.2,71.2,35.6C997.6-113.5,1020.1-122.3,1045.2-126.7z M898.9-299.3
		c-2.8,26.2-14.6,51.8-3.1,78.6c-10.4-11.7-20-23.2-30.3-33.9c-10.5-10.9-20.3-22-25.5-36.5c-0.1-0.4-1.1-0.4-2.8-1.1
		c0.4,6.7,0.4,13,1.4,19c3.8,23.5,16.1,42.2,34.9,56.2c14.9,11.1,30.8,20.9,46.3,31.2c0.6,0.4,1.7,0,2.4,0c-2.8-9.6-6.4-18.7-7.9-28
		c-2.6-16.4-3.9-33-5.9-49.5C906.7-275.6,905.4-288.1,898.9-299.3z M1351.9-297.9c-0.2-0.8-0.9-1.9-1-3.1
		c-0.8-12-5.6-22.4-11.6-32.6c-5.5-9.5-10.7-19.1-16.2-28.7c-0.5-0.9-1.6-1.4-3.7-3.1c0.3,6.2-0.2,10.9,0.8,15.4
		c4.3,18.8,8.6,37.6,13.8,56.1c3,10.7,5.9,21.1,5.2,32.3c-0.2,2.7,0.4,5.5,0.8,10.1c9.3-11.9,17.5-21.9,25.1-32.3
		c20-27.2,23-57.4,15.2-89.3c-0.5-1.9-2-3.6-3-5.4c-1,13.3-3.3,25.6-8.2,37.4C1363.5-326.6,1357.7-312.3,1351.9-297.9z M842.4-371.9
		c-0.5,1.2-1.1,2.3-1.4,3.5c-7.9,33.2-3.2,64.1,17.9,91.6c6.1,7.9,12.5,15.6,18.8,23.3c1.3,1.6,2.8,3.2,4.2,4.8
		c0.6-0.1,1.3-0.2,1.9-0.4c-4.3-17.3,2.5-32.8,6.4-48.8c4.3-17.7,7.7-35.7,11.2-53.7c0.6-3.3,0.1-6.8,0.1-10.2
		c-5.4,6.9-9.6,13.9-13.4,21.1c-4.5,8.5-9.5,16.9-12.6,25.9c-3,8.6-3.8,18-5.1,24.5c-3.3-9.2-7-20.9-11.6-32.2
		C852.3-338.5,844.5-354,842.4-371.9z M1350.8-362.2c-3.7-17.4-15.9-28.2-28.5-38.8c-5.1-4.3-9.6-9.2-14.4-13.8
		c-1.2-1.2-2.5-2.2-3.8-3.3c-0.5,4,0.2,7.2,1.1,10.3c4.6,15.2,13.1,28.3,22.7,40.7c10,13,19.4,26.2,24,42.2c0.1,0.3,0.9,0.4,1.4,0.6
		c4.9-14.8,10.4-29.5,14.5-44.5c5.9-21.6,3.8-42.9-5.9-63.2c-3.4-7.1-7.6-13.7-13.6-19.2c-0.1,2.8,0.9,5.1,1.3,7.5
		c1.2,7.5,3.8,15.2,3.1,22.5C1350.8-401.5,1348.8-382.1,1350.8-362.2z M916.3-413.9c-16.7,17.2-38.2,29.3-44.7,53.3
		c-1-14.6-1.6-28.9-3.2-43.1c-1.5-13.7-2.2-27.1,2.3-40.4c0.1-0.4-0.5-1-1-2c-1.2,1.3-2.4,2.4-3.3,3.7
		c-15.8,22.5-21.2,47.3-14.1,73.9c4.3,16.2,10.9,31.7,17.3,49.6c5.8-23.4,20.7-39.5,31.9-57.8c5.7-9.2,9.3-19.7,13.6-29.8
		C916.1-408.6,916-411.3,916.3-413.9z M889.5-420.5c2.5-11.3,5-22.5,7.6-33.8c2.2-9.5,5.5-18.4,12.2-25.9c0.7-0.8,0.7-2.3,1.5-5.1
		c-22.2,10.9-34,27.1-35.1,49.9c-0.8,15.9,0.3,31.8,0.6,47.8c0,0.4,0.9,0.8,2.1,1.8c8.3-13.5,20.9-22.8,32.9-32.7
		c5.3-4.4,10.2-9.5,14.8-14.8c6.4-7.3,11.2-15.7,13.6-25.2c0.5-1.9,0.1-4,0.1-6c0.4,0.8,0.9,1.5,1.3,2.3c-5.3,3.9-10.7,7.9-16,11.8
		C912.5-441.1,899.3-432.9,889.5-420.5z M1307.4-488.1c16.1,17.9,16.1,40.8,22.8,62.5c-9.5-7.5-17.9-14-26.1-20.6
		c-8.1-6.6-16.2-13.3-25.1-20.6c0.7,3.4,1.1,6.3,1.9,9c3.2,10.4,9,19.3,17,26.6c6.9,6.3,14.4,11.8,21.4,18
		c6.7,5.9,13,12.3,19.5,18.5c1.5,1.4,2.9,2.9,5.8,5.8c0-17.4,0.6-32.7-0.1-47.9c-1.1-21.9-11.8-38.4-31-49.2
		C1311.6-487.1,1309.4-487.4,1307.4-488.1z M1317.3-444.6c-5.4-38.8-28.3-61.2-64.6-67.7c1.5,1.8,2.5,3,3.5,4.2
		c6.1,7.4,12.6,14.5,18.3,22.2c10.9,14.9,23.8,27.7,38.4,38.9C1314.1-446,1315.6-445.5,1317.3-444.6z M963.9-508.9
		c-40,9.5-58.1,33.5-61.4,66.5c1-0.3,2.1-0.4,2.8-0.9c12.1-9.8,24-19.9,33.1-32.8c6.3-8.9,13.3-17.4,20-26.1
		C960.1-504.5,962.1-506.7,963.9-508.9z"/>
	<path class="st1" d="M-461.7,1331.1c6.8,0,12.3,0,19.2,0c3.1,32.9,4.3,65.6,6.5,99.2c-5.3,0-9.7,0-15.4,0c-3.6-20-1-41.1-5.9-61.6
		c-4.8,19.8-9.5,39.7-14.4,60c-4.4,0-8.2,0-13.1,0c-4.7-20-9.4-40.2-14.1-60.4c-4.1,10.2-2.9,20.7-3.7,31.1
		c-0.7,10.2-1.4,20.4-2.1,31.2c-4.9,0-9.1,0-14.7,0c1.6-33.1,4.4-65.9,6.8-99.3c6.8,0,12.7,0,19.7,0c5.1,22.9,10.1,45.8,15.2,68.7
		c0.5,0,0.9,0,1.4,0C-471.5,1377.1-466.6,1354.2-461.7,1331.1z"/>
	<path class="st1" d="M1199.1,1365.1c6-2.5,11.5-6,17.3-7c8.5-1.5,14,2.6,17,10.6c1.2,3.4,2.1,7.1,2.2,10.7
		c0.3,15.6,0.2,31.3,0.2,46.9c0,1.3-0.5,2.5-0.8,4.4c-5.3,0-10.5,0-17,0c0-7.3,0-14.2,0-21c0-8.3,0.2-16.7-0.3-24.9
		c-0.5-8.5-3.2-11.9-8-11.6c-4.8,0.3-7.9,4.4-8,11.9c-0.2,13-0.1,26-0.1,38.9c0,2-0.3,3.9-0.5,6.6c-5.7,0-11.1,0-17.4,0
		c-0.2-3.5-0.6-6.7-0.6-10c-0.1-11.3,0-22.6-0.1-33.9c0-2.7,0.2-5.5-0.7-7.9c-0.9-2.2-3.1-5.1-5-5.2c-2.5-0.2-6.2,1.2-7.4,3.2
		c-1.8,2.9-2.4,6.8-2.5,10.4c-0.3,11-0.1,22-0.1,32.9c0,3.3-0.3,6.5-0.5,10.5c-6.1,0-11.5,0-17.6,0c0-23.6,0-46.8,0-71.3
		c4.1-0.2,8.5-0.5,12.9-0.7c1.6,2.6,2.9,4.8,4.2,7C1178.3,1356.3,1187,1353.6,1199.1,1365.1z"/>
	<path class="st1" d="M-200,1358.7c11.8,0,23,0,34.9,0c0,24.4,0,47.8,0,71.9c-5.4,0-10.5,0-16.6,0c-2.4-19.2,0.3-38.5-1.7-58.3
		c-5.5,0-10.6,0-17.1,0c-0.1,9.7-0.2,19.5-0.3,29.4c-0.1,9.5-0.1,19.1-0.1,29.1c-6.7,0-11.8,0-18.2,0c0-19.5,0-38.6,0-58.1
		c-3.9-0.8-6.6-1.4-9.8-2.1c0-3.6,0-6.9,0-10.5c2.8-0.8,5.6-1.6,8.9-2.5c0.9-14.3,6.6-25.5,21.9-29.1c8.9-2.1,17.6-2.1,27,1.9
		c-0.7,4.3-1.3,8.4-2,12.4C-197.1,1341.3-200.5,1343.2-200,1358.7z"/>
	<path class="st1" d="M716.8,1430.5c0-32.8,0-65,0-97.7c13-3.5,25.6-3.7,38.1,1.2c9.3,3.6,15.2,11,17.8,20.3c5.2,18,5.2,36.1-1,53.9
		c-4.2,11.8-12.7,19.2-25,22.1C736.9,1432.5,727.1,1432.1,716.8,1430.5z M734.9,1416.2c11.3,0.2,16.4-2.4,18.6-11.7
		c2.3-9.9,3.1-20.3,3.3-30.5c0.1-6.5-1.6-13.2-3.9-19.3c-3-7.9-7.5-9.5-18-8.2C734.6,1369.3,734.6,1392.4,734.9,1416.2z"/>
	<path class="st1" d="M453.5,1426.9c0,11.5,0,21.6,0,32.4c-6.1,0-11.2,0-17.5,0c0-33.3,0-66.1,0-99c10.3-3.3,12.5-2.8,16.7,4.5
		c0.6-0.2,1.3-0.2,1.8-0.6c13.6-11,27-7.6,32.5,8.9c4.5,13.6,4.5,27.5,0.4,41.2c-1,3.4-2.8,6.8-5,9.7
		C475.8,1433.1,467.8,1434,453.5,1426.9z M472.9,1395.3c-1-5.2-1.5-10.2-2.9-14.9c-1.1-4-3.4-7.4-8.3-7.1c-4.4,0.3-6.8,3.7-7,7.2
		c-0.5,9.8-0.4,19.8,0.1,29.6c0.2,3.7,2.8,7,7.1,7c4.2,0.1,6.7-2.9,7.8-6.6C471.1,1405.6,471.9,1400.4,472.9,1395.3z"/>
	<path class="st1" d="M1080.1,1459c0-33.2,0-66,0-98.8c11.5-2.3,12.6-3.6,16.9,4.7c17.7-12.6,31.5-7.4,35.9,14.2
		c2.3,11.5,2.6,23.2-1.1,34.5c-1.2,3.7-3,7.5-5.3,10.6c-6.6,8.8-14.2,9.7-28.3,3.1c0,10.5,0,20.6,0,31.6
		C1092,1459,1086.9,1459,1080.1,1459z M1097.4,1395.1c0.4,5,0.6,10,1.4,14.8c0.6,3.7,2.7,7,7,7.3c4.3,0.2,6.7-2.7,7.9-6.3
		c3.6-10.3,3.6-20.8,0.2-31.2c-1.2-3.6-3.5-6.6-7.9-6.4c-4.4,0.2-6.5,3.4-7.2,7.1C1097.9,1385.2,1097.9,1390.2,1097.4,1395.1z"/>
	<path class="st1" d="M-129.6,1430.7c-6.1,0-11.3,0-17.3,0c0-23.7,0-47.1,0-71.6c4-0.2,8.2-0.4,12.8-0.6c1.3,2.3,2.4,4.5,3.1,5.8
		c6.4-2.3,12.1-5.3,18-6.1c8.4-1.1,13.7,3,16.8,11.1c0.7,1.8,1.6,3.8,1.6,5.7c0.1,18.2,0.1,36.5,0.1,55.5c-5.4,0-10.5,0-16.4,0
		c-0.3-2.4-0.9-4.9-0.9-7.5c-0.1-11.3,0-22.6-0.1-33.9c0-3.3-0.5-6.6-1.2-9.8c-0.8-3.5-3.1-6.6-6.9-5.7c-2.8,0.7-5.9,3-7.3,5.5
		c-1.5,2.7-1.5,6.4-1.6,9.7c-0.2,10.6,0,21.3-0.1,31.9C-129,1423.8-129.4,1427-129.6,1430.7z"/>
	<path class="st1" d="M1318.4,1358.9c6.8,0.1,14.1-3.4,16,5.4c6.3-2.2,11.9-5.3,17.9-6.1c8.3-1.1,14,3.2,16.9,11c1,2.8,2,5.8,2,8.7
		c0.2,17.3,0.1,34.5,0.1,52.5c-5.9,0-11.3,0-17.7,0c-0.2-3.5-0.6-6.7-0.6-10c-0.1-11.6,0.1-23.3-0.1-34.9c-0.1-8.3-2.5-12-7.3-12.3
		c-5-0.3-9,4-9.4,12c-0.5,11-0.2,22-0.3,32.9c0,3.9,0,7.8,0,12.4c-6.2,0-11.3,0-17.5,0C1318.4,1406.8,1318.4,1383.4,1318.4,1358.9z"
		/>
	<path class="st1" d="M6.2,1430.8c-6.3,0-11.2,0-16.1,0c-2.1-6.8-3-54.1-1.3-70.5c10.8-3.3,12.4-2.8,16.4,3.9
		c5.9-2.1,11.6-5.2,17.5-6c8.5-1.1,13.8,2.9,16.9,10.9c0.8,2.2,1.7,4.5,1.8,6.7c0.1,17.9,0.1,35.9,0.1,54.6c-5.5,0-10.6,0-16.5,0
		c-0.3-2.4-0.9-5-0.9-7.5c-0.1-11.3,0.1-22.7-0.1-34c-0.1-3.6-0.4-7.4-1.7-10.7c-0.8-2.1-3.6-4.6-5.5-4.6c-2.5,0-6,1.7-7.2,3.8
		c-1.7,3-2.4,6.9-2.5,10.5c-0.3,10.3-0.2,20.7-0.3,31C6.7,1422.4,6.4,1426,6.2,1430.8z"/>
	<path class="st1" d="M374.3,1373.2c-0.9-3.2-1.7-6.5-2.6-9.9c10.2-6.2,20.4-6.5,30.6-4.5c8.2,1.6,13.1,7.5,15,15.6
		c0.9,3.9,1.5,7.9,1.6,11.8c0.2,14.5,0.1,29.1,0.1,44.3c-7,0.5-14,3.6-17.9-5.3c-2.6,1.8-4.7,3.5-7,4.7c-9.6,5-20.6,1.3-25.4-8.3
		c-6.1-12.5-0.9-27.7,12.2-33.5c5.6-2.5,11.9-3.6,18-5.3C399.6,1371.2,395.5,1369.4,374.3,1373.2z M400.3,1396
		c-12.3,1.1-17.4,5.9-16.6,14.1c0.5,5.3,3.4,8.5,7.7,8.7c4.3,0.2,8.1-2.7,8.7-7.7C400.8,1406.3,400.3,1401.4,400.3,1396z"/>
	<path class="st1" d="M-28.9,1430.9c-6.9,0.1-13.6,3-17.1-5.4c-1.6,0.9-2.7,1.5-3.7,2.2c-6.7,5.2-14.1,6.1-21.4,2
		c-8.1-4.7-10.5-12.7-9.7-21.4c1-11.1,7.6-18.2,18-21.6c4.7-1.5,9.6-2.3,14.3-3.4c0.5-8.7-1.6-11.8-9.1-11.9
		c-4.9-0.1-9.7,1.1-15.2,1.8c-1-2.9-2-6-3.3-9.7c11.1-6.3,22.3-7.1,33.8-3.7c5.4,1.6,8.9,5.7,11,10.9c1.1,2.7,2.2,5.7,2.3,8.6
		C-28.8,1396.1-28.9,1413-28.9,1430.9z M-47.7,1396.4c-11.7,0.1-17.5,5.9-15.5,15.1c0.8,3.8,2.5,6.9,6.9,7.3
		c4.6,0.4,7.8-1.8,8.9-6.2C-46.1,1407.2-45.5,1401.7-47.7,1396.4z"/>
	<path class="st1" d="M-292.7,1395.3c0.6-8.6,1.9-16.8,6.2-24.2c5.3-9.1,13.1-13.7,23.8-13.3c10.5,0.5,17.5,6,21.4,15.3
		c6,14.1,5.9,28.6,0.4,42.7c-4.3,11-13.5,16.6-25,16.2c-11-0.3-19.3-6.2-23-17.4C-290.8,1408.4-291.4,1401.7-292.7,1395.3z
		 M-254.5,1395.8c-1.1-6.3-1.7-12.6-3.5-18.6c-0.7-2.3-3.9-5.1-6.1-5.3c-2.1-0.1-5.7,2.5-6.5,4.7c-4.6,12.2-4.7,24.7,0.2,36.8
		c0.9,2.1,4.4,4.3,6.8,4.4c1.8,0.1,4.9-2.6,5.6-4.6C-256.5,1407.7-255.7,1401.8-254.5,1395.8z"/>
	<path class="st1" d="M1066.6,1395.5c-1.6,6.7-2.5,14.4-5.4,21.3c-4.3,10.5-12.9,15.7-24.5,15.2c-11.4-0.4-18.7-6.4-22.5-16.6
		c-5.1-13.6-5.1-27.4,0.4-40.9c4.5-11.2,13.4-16.9,24.7-16.7c11.3,0.2,19.6,6.3,23.4,18.2
		C1064.5,1381.9,1065.1,1388.3,1066.6,1395.5z M1028.2,1395c1.3,6.2,1.7,13,4.1,18.9c2.5,6.2,9.5,6,11.9-0.2
		c4.6-12.1,4.4-24.7,0.2-36.9c-0.8-2.2-4.2-4.9-6.4-4.8c-2.2,0.1-5.5,2.8-6.3,5.1C1030,1382.6,1029.4,1388.6,1028.2,1395z"/>
	<path class="st1" d="M617.6,1382.7c-2.1-12.2-6.4-13.8-25-9.1c-1-3.2-2-6.4-3.2-10.3c11.3-6.2,22.5-7.1,33.9-3.3
		c7.3,2.4,10.9,8.5,12.2,15.8c0.8,4.6,1.1,9.2,1.2,13.9c0.2,13.3,0.1,26.5,0.1,39.9c-9.9,3.3-12.8,2.8-17.7-4.1
		c-1.8,1.2-3.6,2.6-5.5,3.7c-11.3,6.8-23.9,2-28.1-10.5c-4.2-12.7,1.7-25.8,14.5-31C605.4,1385.4,611.3,1384.4,617.6,1382.7z
		 M618.2,1396c-12.3,1-17.3,5.7-16.5,14.1c0.5,5.3,3.4,8.6,7.6,8.8c4.3,0.2,8.2-2.7,8.8-7.7C618.7,1406.4,618.2,1401.4,618.2,1396z"
		/>
	<path class="st1" d="M1302,1401.7c-11.2,0-22.1,0-32.9,0c0.7,15,5.7,17.7,28.5,15.8c0.7,3.3,1.5,6.7,2.2,10
		c-22,12.3-45.2,1.7-48.9-22.1c-1.6-10-1.3-20.2,3.4-29.3c2.8-5.4,6.8-11,11.6-14.4c12.8-8.9,28.7-3.4,34.4,11
		C1303.7,1381,1304.3,1389.5,1302,1401.7z M1286.9,1388.1c-0.6-4.3-0.3-7.9-1.7-10.6c-1.3-2.6-4.1-5.3-6.8-6.2
		c-3.6-1.2-6.4,1.8-7.5,5c-1.3,3.5-1.7,7.3-2.7,11.7C1274.8,1388.1,1280,1388.1,1286.9,1388.1z"/>
	<path class="st1" d="M962.2,1401.3c-6.1,0-11.7,0-17.3,0c-5.2,0-10.5,0-15.7,0c0.3,15.2,5.9,18.2,28.4,16c0.8,3.6,1.5,7.3,2.3,11.1
		c-9.7,4.4-19,4.3-28.2,2.4c-9.1-1.9-15.4-8-18.4-16.7c-4.8-13.8-4.2-27.5,2-40.8c3.1-6.6,8-11.5,14.8-14.1
		c12.8-4.9,25.1,0.6,30.2,13.3C963.7,1380.8,964.3,1389.2,962.2,1401.3z M946.9,1388c-0.8-4.5-0.8-8.5-2.3-11.9
		c-2.8-6.5-9.6-6.9-13-0.9c-2,3.5-2.5,7.9-3.9,12.8C934.7,1388,940.1,1388,946.9,1388z"/>
	<path class="st1" d="M358.2,1332.6c-0.9,4.9-1.6,9.3-2.5,14c-2.2-0.2-3.4-0.3-4.7-0.4c-11.1-0.8-18.1,3-22,13.2
		c-5.5,14.2-5.5,28.7-0.4,43c3.5,9.7,10.4,13.7,21,13.5c1.6,0,3.3-0.2,5.9-0.4c0.8,4.6,1.5,8.9,2.2,13.1
		c-17.3,7.6-36.7,2.1-44.6-13.9c-11-22.2-11-45.2,1.3-67C323,1332.5,339.9,1327,358.2,1332.6z"/>
	<path class="st1" d="M125.6,1401c0.3,15.5,5.4,18.3,28.6,16.4c0.6,3.3,1.2,6.7,1.8,9.9c-20.8,12-43.5,2.2-48.2-20.2
		c-2.5-12.1-1.2-23.8,4.5-34.8c3.6-7.1,9.3-12.1,17.2-13.9c13.4-3,23.6,3,27.9,16.1c2.7,8.3,2.9,16.9,1.5,26.5
		C148,1401,137.2,1401,125.6,1401z M143.4,1388.1c-0.7-4.6-0.6-8.5-2.1-11.6c-1.1-2.3-4.1-5-6.4-5.2c-2.3-0.2-5.5,2-7.1,4.1
		c-2.6,3.4-3.6,7.7-1.9,12.6C131.2,1388.1,136.4,1388.1,143.4,1388.1z"/>
	<path class="st1" d="M835.1,1417.3c0.7,4.1,1.3,7.3,2.1,11.4c-11,3.9-21.6,4.7-32.3,0.8c-6.6-2.4-11.4-7.3-13.7-13.8
		c-5.4-15-5.5-30.2,2.7-44.3c2.7-4.6,7.4-8.8,12.1-11.3c12.5-6.5,26.2-1.3,31.3,11.8c3.5,9,5.2,18.5,2.2,29.3c-11,0-21.8,0-32.5,0
		c-1.1,10.7,3.1,16.1,12.6,16.9c2.6,0.2,5.3,0,8-0.2C830,1417.8,832.5,1417.5,835.1,1417.3z M824.6,1388c-0.9-4.6-1-8.3-2.5-11.4
		c-1.1-2.3-4.1-5.2-6.2-5.1c-2.7,0.1-6.2,2.4-7.6,4.7c-1.9,3.1-2,7.2-3.1,11.8C811.9,1388,817.3,1388,824.6,1388z"/>
	<path class="st1" d="M884.5,1431.2c-4.5,0-7.8,0.1-11.1,0c-1.6,0-3.2-0.4-5.8-0.7c-6.4-23.4-12.9-46.9-19.6-71.3c6.9,0,12.4,0,19,0
		c1.5,8,3,16,4.4,24.1c1.4,8.1,2.8,16.2,4.2,24.3c0.7,0,1.4,0.1,2,0.1c1.4-7.8,2.8-15.6,4.2-23.4c1.4-8.1,2.8-16.3,4.4-25
		c5.7,0,10.8,0,17.4,0C897.9,1383.5,891.4,1406.9,884.5,1431.2z"/>
	<path class="st1" d="M1422.5,1418.2c0,4.3,0,8.1,0,12.5c-3.1,0.4-5.7,0.9-8.2,1c-15.2,0.4-21.6-5.3-22-20.4
		c-0.4-12.6-0.1-25.2-0.1-38.2c-3.1-1-5.5-1.8-8.7-2.9c-0.2-2.9-0.3-6.1-0.5-9.6c3-1.3,5.7-2.4,8.6-3.6c0.4-3.6,0.7-7.1,1.2-11.4
		c5.3-1.7,10.6-3.4,16.6-5.3c0.6,6.3,1.1,11.8,1.6,17.5c4.5,0.6,8.3,1.1,13,1.7c0,3.7,0,7.1,0,11.1c-4.1,0.5-8,1-12.6,1.5
		c-0.4,2.5-1,5-1.1,7.6c-0.1,7.7-0.2,15.3,0,23C1410.2,1413.7,1411.3,1415,1422.5,1418.2z"/>
	<path class="st1" d="M574.9,1370.8c-4,0.4-7.8,0.8-12.9,1.4c-0.6,12.6-0.8,25.1,0.1,37.6c0.5,6.3,6.2,7,11.5,8.2c0,4.1,0,8,0,12.1
		c-5.9,2.8-11.9,2.2-17.6,1c-6.8-1.5-10.8-6.7-11.6-13.5c-0.8-7.2-0.9-14.6-1.1-21.9c-0.2-7.6,0-15.2,0-22.8c-3.4-1-5.9-1.7-8.5-2.5
		c0-3.6,0-6.9,0-10.4c2.7-0.9,5.1-1.6,7.4-2.3c2.2-13.2,2.2-13.2,18.8-16.7c0.4,5.5,0.7,10.9,1.1,16.9c4.2,0.5,8,1,12.8,1.7
		C574.9,1363,574.9,1366.6,574.9,1370.8z"/>
	<path class="st1" d="M979.4,1328.8c5,0,10.2,0,15.9,0c0,34,0,67.5,0,101.7c-5.4,0-10.6,0-15.7,0
		C977.4,1422.7,977.1,1339,979.4,1328.8z"/>
	<path class="st1" d="M671.2,1329c0,33.9,0,67.4,0,101.5c-3,0.3-5.6,0.7-8.2,0.7c-2.6,0-5.2-0.3-7.6-0.5
		c-2.1-7.8-2.7-88.2-0.8-101.7C659.7,1329,664.9,1329,671.2,1329z"/>
	<path class="st1" d="M97.1,1417.7c0.2,3.7,0.5,7.6,0.7,11.2c-15.3,6.6-31,1.2-37.3-13c-6-13.5-5.9-27.3,0.5-40.6
		c7.1-14.7,22.9-20.8,38.2-14.6c-0.6,3.6-1.3,7.5-2,11.7c-6.4,1.2-13.6-0.5-18.1,6.1c-4,5.9-4.5,12.4-4.2,19.1
		C75.6,1412,80.3,1416.3,97.1,1417.7z"/>
	<path class="st1" d="M-344.7,1360.2c-0.8,4.4-1.4,8.2-2.2,12.4c-6.3,0.8-13.1-0.7-17.6,5.4c-4.5,6-5,12.9-4.7,19.9
		c0.8,14.4,5.9,19,21.9,19.3c0.3,3.9,0.6,8,0.9,11.9c-17.7,6.7-33.6-0.5-39-17.2c-3.5-10.8-3.5-21.7,0.3-32.4
		C-379,1362.7-363.4,1354.9-344.7,1360.2z"/>
	<path class="st1" d="M-335.4,1359c5.8,0,9.7,0,14.3,0c1.1,2.4,2.3,5,3.6,7.9c0.8-0.4,1.8-0.7,2.3-1.3c3.7-4.4,7.2-8.9,15.2-6.9
		c0.2,4.8,0.4,10,0.7,15.6c-2.4,0.8-4.2,1.3-6,1.9c-8.2,2.8-10.8,9.3-10.9,17.2c-0.1,12,0,24,0,36.8c-6,0-11.4,0-18.2,0
		C-335.6,1407-334.6,1383.6-335.4,1359z"/>
	<path class="st1" d="M504.6,1359.3c6.9,0,12.1,0,17.8,0c0,24,0,47.4,0,71.3c-5.9,0-11.1,0-17.4,0
		C504,1407,504.7,1383.6,504.6,1359.3z"/>
	<path class="st1" d="M253.8,1387.7c0,11.5-9.3,21-20.6,21.2c-11.3,0.1-20.9-9.3-21-20.7c-0.2-12.1,9.3-21.7,21.1-21.5
		C244.8,1366.7,253.8,1376,253.8,1387.7z"/>
	<path class="st1" d="M-419.2,1359.2c5.8,0,10.7,0,16.3,0c0,23.9,0,47.3,0,71.4c-5.3,0-10.4,0-16.3,0
		C-419.2,1407-419.2,1383.6-419.2,1359.2z"/>
	<path class="st1" d="M504.3,1338.9c-0.2-5.4,3.6-9.9,8.6-10.3c5.3-0.4,10,4.4,10,10c0,5.4-4,9.5-9.3,9.5
		C508.2,1348.3,504.5,1344.6,504.3,1338.9z"/>
	<path class="st1" d="M-402.2,1338.3c0.1,5.8-3.1,9.6-8.6,9.9c-5.5,0.3-9.2-3.2-9.5-9c-0.3-6,3.7-10.6,9.1-10.6
		C-406.2,1328.6-402.4,1332.7-402.2,1338.3z"/>
	<path class="st1" d="M340.7,1162.7c0-110,0-218.2,0-327.8c8.6-1.2,17-2.9,25.5-3.6c31.6-2.5,63.2-2.8,94.4,4.7
		c60.3,14.6,98.2,55.8,107.2,117.4c4.6,31.6,3.7,63.2-4,94.3c-15.3,61.5-54.8,98.1-116.1,111.7c-26.5,5.9-53.5,6.6-80.5,5
		C358.5,1164,350,1163.3,340.7,1162.7z"/>
	<path class="st1" d="M927.5-341.7c2-46.1,18.5-85.5,49.1-119.7c6.6,6.7,12.7,12.8,19.3,19.4c-12.1,13.9-22.2,29-29.1,46.1
		c-6.9,17.1-11.3,34.8-11.6,54.2C946-340.6,937.3-340.7,927.5-341.7z"/>
	<path class="st1" d="M1243.8-462.6c30.7,34.5,49.2,73,50.3,119.7c-9.1,0-17.6,0-26.5,0c-3.5-37.6-14.1-71.8-44.1-98.4
		C1230.3-448.5,1236.7-455.3,1243.8-462.6z"/>
	<path class="st1" d="M1228.2-232.9c24-26.1,36.8-58.9,39.3-96.4c9.1,0,17.5,0,26.8,0c-1.1,45.5-18.1,83.9-47.8,118
		C1240.3-218.5,1234.6-225.3,1228.2-232.9z"/>
	<path class="st1" d="M987.3-472.2c31.5-28.1,69.9-44.5,115.1-47.3c0,9.2,0,17.4,0,26.8c-36.8,2.6-69.4,16.2-96.9,41.4
		C999.6-458.1,993.8-464.8,987.3-472.2z"/>
	<path class="st1" d="M1103.2-178.9c0.2,3.2,0.4,5.8,0.5,8.4c0.1,5.6,0,11.2,0,17.9c-45.9-1.8-84.3-18.8-119.2-48.8
		c7.1-5.9,13.6-11.4,21.3-17.8c12.2,10.3,27,20.8,44,27.7C1066.6-184.6,1084.1-181,1103.2-178.9z"/>
	<path class="st1" d="M1117.4-152.5c-0.4-2.1-0.8-3.4-0.8-4.7c-0.1-7,0-13.9,0-21.4c9.5-1.5,18.5-3.3,27.6-4c2.8-0.2,6.2,2,8.8,3.9
		c5.3,4,10.3,4.7,15.3,0.1c5.8-5.4,11.4-10.9,17.1-16.4c3.8-3.6,7.4-7.4,11.5-10.7c6.7-5.4,13.8-10.4,21.2-15.9
		c6.2,5.7,12.4,11.6,19.6,18.3C1203.7-171.2,1163.9-154.6,1117.4-152.5z"/>
	<path class="st1" d="M1233.5-471c-5.6,5.2-10.7,9.9-16.2,14.9c-3-3.9-7-9.2-11.2-14.8c0.3-1.7,1.2-4.3,0.8-6.6
		c-0.3-1.6-2.2-3.4-3.9-4.1c-4.4-1.7-6.9,0.1-6.9,5.4c-1.8-0.2-3.7-0.9-5-0.3c-8.1,3.3-14.6-0.6-21.5-3.8
		c-15.2-6.9-31.4-10.3-48.8-12.9c11-1.5,21.7,0.7,31.1-5.2c-4.8-7.3-10.1-9.1-17.9-6.5c-2.8,0.9-5.5,2.4-8.3,3.3
		c-2.8,0.9-5.8,1.4-9.1,2.2c0-6.6,0-12.8,0-18.9C1144.5-524.6,1209.6-498.4,1233.5-471z"/>
	<path class="st1" d="M992.5-342c-6.2,0.4-11.4,0.7-16.7,0.9c-2.6,0.1-5.2-0.2-9-0.4c1.7-35.1,13.7-65.4,36.8-90.8
		c5.6,5.9,11.2,11.7,17.6,18.4C1005.2-394.5,995-370.5,992.5-342z"/>
	<path class="st1" d="M927.9-328.7c9.4,0,17.5,0,26.5,0c1.4,9.7,2.7,19.1,4.1,29.1c-5.1,1.1-8,5.8-13.9,4.6
		c-1.4-0.3-4.5,3.7-5.4,6.3c-3.2,9.8,0.5,19.8,13.8,26.1c3.2,1.5,6.8,2.4,9.5,4.5c9.3,7.1,18.4,14.4,27.4,21.9c2,1.6,3.3,4,5.5,6.7
		c-6.2,6.5-12.1,12.7-18.8,19.7C945.8-243.9,929.8-282.9,927.9-328.7z"/>
	<path class="st1" d="M1014.5-443.7c24.6-21.7,53.9-34,88.3-36.1c0,8.7,0,16.5,0,25.7c-26.6,2-50.4,12-71.5,30
		C1025.7-430.7,1020.4-436.9,1014.5-443.7z"/>
	<path class="st1" d="M1218.8-240c-1.4-3.6-2.2-6.2-3.4-8.4c-1.9-3.4-3.3-7.5-9-4.8c-1.4,0.7-4.2-1.7-7.2-3.1
		c11.5-14,20.1-28,25.1-44.2c0.8-2.7,4.1-4.7,6.7-7.5c-3.6-6.7-3.6-13.9-0.5-21.4c8.1,0,16,0,24.9,0
		C1253.1-295.5,1242.7-265.7,1218.8-240z"/>
	<path class="st1" d="M1103.3-215.8c0,8.1,0,15,0,21.9c-19.2,5.5-65.7-11.8-84.7-31.9c9.3-2.9,18.1-5.7,28.1-8.8
		C1062.9-224.2,1081.9-217.5,1103.3-215.8z"/>
	<path class="st1" d="M1229.4-342.9c-0.8-7.4-1.5-14.8-2.4-23.1c-4-0.5-5.5-3.8-4.7-8.2c1.1-6.1,0.9-11.3-4.1-16.4
		c-2.6-2.6-2.3-8-3.3-12.4c-2.8,0.1-5,0.2-6.8,0.3c-4.7-6.8-9.5-13.1-13.7-19.7c-1.9-3-3.2-6.6-4-10c-0.3-1.3,1.2-4,2.5-4.4
		c1.4-0.5,3.4,0.9,5.1,1.6c0.5,0.2,1,1,1.1,1.6c1.6,15.9,14.9,20.9,25.9,28.1c3,2,5.1,5.2,7.8,7.5c2.7,2.2,5.7,4,8.4,6.1
		c1.7,1.3,3.6,2.8,4.5,4.7c6.1,13.8,8.5,28.5,10,44.3C1246.8-342.9,1238.7-342.9,1229.4-342.9z"/>
	<path class="st1" d="M1117.1-479.6c20-0.5,37.6,5.5,54.6,13.2c8,3.6,8.9,12.5,11.8,19.7c0.9,2.3,0.6,5.1,0.9,9.2
		c-4.2-3.8-7.4-6.7-12.2-11.1c0.6,5.1,1,8,1.6,12.9c-18.3-11.3-36.9-16.8-56.7-18.7C1117.1-463,1117.1-471.1,1117.1-479.6z"/>
	<path class="st1" d="M1179.7-416.8c-5.8,6.7-11,12.8-16.5,19.2c-13.9-10.8-29.2-16.1-46-19c0-8.4,0-16.5,0-25.4
		C1141.2-440.1,1161.7-431.1,1179.7-416.8z"/>
	<path class="st1" d="M1103.2-441.2c0,8.7,0,16.6,0,25.1c-16.4,1.7-30.8,8-44.3,18.7c-6.2-5.8-12.1-11.4-18-17
		C1053-428.7,1081.7-441.1,1103.2-441.2z"/>
	<path class="st1" d="M1113.2-303.7c-5.3-0.9-11-1.8-17.4-2.8c4.1-3.9,7.9-6.4,10-9.9c2.2-3.7,4.8-8.3,1.5-13
		c-11.1-3.2-13-2.6-18.1,5.5c1.5-4.5,1.9-8.2-2-12.2c-1.6-1.6,0-7.7,1.8-10.7c1.9-3.1,5.7-5.2,8.9-7.5c2.9-2.1,6-3.9,9.5-6.2
		c4.9,2.7,12.3,2.4,15.9,8.9c0.9,1.7,2.8,3.8,2.4,5.1c-2.5,7.5,3,13.1,4.3,19.6c1.7,8.7,1.4,10.6-7.3,11.7
		C1116.3-314.3,1117.6-308.2,1113.2-303.7z"/>
	<path class="st1" d="M1047.5-282.4c-5.8,5.7-11.8,11.4-18.6,18.1c-2.3-9.2-4.1-18.6-6.9-27.7c-2.8-9.4-6.4-18.5-9.8-27.7
		c4.5-4.2,8.9-8.3,13.5-12.7c-0.6-3-1.2-6.1-1.8-9.2c6.7-2.3,8.2-1.9,8.9,2.8c0.6,4.1,0.1,8.3,0.1,13.3c-3.6-0.5-6-0.8-10-1.4
		c4.4,5.2-6.5,11,3,15.8c1.4-2.5,2.6-4.6,3.9-6.9C1035.9-306.3,1041.6-294.6,1047.5-282.4z"/>
	<path class="st1" d="M1032.3-406.2c5.9,5.6,11.8,11.2,18.8,17.9c-6.7,5.5-12.8,10.7-19.1,15.8c-4,3.2-8.9,5.5-12,9.4
		c-4.5,5.6-8.2,12.1-6.7,20.6c-2.9,0.3-5.3,0.5-7.4,0.7C999.8-349.2,1018.2-393.4,1032.3-406.2z"/>
	<path class="st1" d="M1086.1-233.1c-17.3-4.1-32.6-10.7-45.9-23.5c5.4-5.7,10.8-11.4,15.9-16.8c10.1,5.9,19.7,11.5,30.1,17.6
		C1083.9-249.1,1077.2-241.3,1086.1-233.1z"/>
	<path class="st1" d="M1097.6-269.1c-10.9-1.7-21.1-6.4-30.9-14.9c6.3-5.1,12.1-9.9,18.3-14.9c5.3,2.3,12.5,5.4,20.4,8.8
		c0,2.8,0,6.4,0,9.7C1102.9-276.8,1100.4-273.2,1097.6-269.1z"/>
	<path class="st1" d="M1211.5-365.2c-3.6-4.4-7.1-9.1-13.1-6.3c-4-4.3-6.9-9.7-11.4-11.9c-4.7-2.3-10.9-1.6-18.7-2.4
		c7.6-8,13.8-14.5,20.9-21.8c5.3,7.6,15.4,11.9,9.8,23.7c6.8,5.1,14.5,9.5,14.8,18.9c0.1,3.2-1.6,6.5-2.5,9.8
		c-0.9-0.3-1.8-0.5-2.7-0.8C1209.5-359,1210.5-362,1211.5-365.2z"/>
	<path class="st1" d="M1116.7-403.4c13.6,1.2,24.4,5.8,34.1,12c-0.5,3.9-1,7.2-1.4,10.6c-4.2,3.6-8.7,7.5-13.6,11.7
		c-2.2-1.3-4.7-2.8-7.9-4.6c5-4.5,11.2-8.4,6.2-17c-3.2,1.9-5.8,3.8-8.6,5.2c-5.2,2.6-8.3,0.9-8.7-4.9
		C1116.5-394.3,1116.7-398.2,1116.7-403.4z"/>
	<path class="st1" d="M1065.8-386c10.6-10.4,22.7-15.4,37.3-16.8c0,6.2,0,11.7,0,17.9c-3-0.2-5.7-0.4-8.4-0.6c-0.5,0.5-1,1-1.3,1.5
		c-1.9,2.6-3.6,7.3-5.6,7.4c-4.7,0.2-9.6-1.3-14.1-2.9C1071.1-380.6,1069.1-383.2,1065.8-386z"/>
	<path class="st1" d="M1183.8-268.6c1-3.8,2.4-7.6,2.9-11.5c0.5-3.1,0.6-6.5-0.2-9.5c-1.7-7-1.6-7.9,5.8-9.9
		c5.9-1.6,11.9-2.6,19.5-4.2c-3.4,14.4-9.6,25.3-18.5,35.2c-1.8-1.3-3.3-2.4-5-3.6c-1.6,1.1-3.2,2.2-4.7,3.4L1183.8-268.6z"/>
	<path class="st1" d="M971.7-296.4c-1.8-10.5-3.6-21-5.6-32.9c8.6,0,15.7-0.2,22.9,0.2c1.4,0.1,3.2,2.1,3.7,3.6
		c0.4,1-0.7,3.2-1.7,4.1c-4.3,3.5-9.8,6-12.9,10.3c-2.9,4-3.4,9.7-4.9,14.6C972.7-296.4,972.2-296.4,971.7-296.4z"/>
	<path class="st1" d="M1150.5-274.8c-2,2.3-3.8,5-6.2,6.8c-3.4,2.5-7,4.8-10.9,6.5c-1.8,0.8-5.1,0.8-6.4-0.4
		c-5.8-4.9-12-4.3-20.2-1.4c4-4.3,6.6-7.3,9.6-9.9c1.3-1.1,4.1-2.1,5.3-1.5c9.5,5,18.3,2.8,27.1-2.3
		C1149.3-276.3,1149.9-275.5,1150.5-274.8z"/>
	<path class="st1" d="M1135.7-193.3c-7.7,0.7-12.8,1.1-18.6,1.6c0-6.8,0-13,0-20.2c2.7-0.2,5.8-0.3,10-0.6
		C1124.9-204.3,1126.6-198.1,1135.7-193.3z"/>
	<path class="st1" d="M1191.7-249.2c5.5,7.1,10.4,13.5,15.9,20.7c-4.4,3.6-8.2,6.6-11.9,9.5c-4.5-2.3-3.1-4.7-1.3-7.5
		c4.8-7.5,4.9-7.8-2.7-12.9C1187.7-242,1186.5-244.3,1191.7-249.2z"/>
	<path class="st1" d="M1048.7-316.6c5.6,4.7,11.2,9.4,17.7,14.9c-2.8,3-5.1,5.6-7.9,8.6c-6.6-6.3-9.3-13.9-11.9-21.5
		C1047.3-315.3,1048-316,1048.7-316.6z"/>
	<path class="st1" d="M1215.4-315c-4.7-5-9.9-7.3-9.2-14.3c3.3,0,6.8,0,11.3,0C1216.9-324.7,1216.3-320.7,1215.4-315z"/>
	<path class="st1" d="M1183.6-268.8c-0.8,2-1.3,5.6-2.5,5.8c-4.7,0.8-9.6,1.4-14.3,0.6c-3.7-0.6-7.1-3.1-10.5-5.7
		c5.3,1.3,10.6,2.4,15.9,3.8c5,1.4,9.1,0.9,11.6-4.2C1183.8-268.6,1183.6-268.8,1183.6-268.8z"/>
	<path class="st1" d="M1068-330.7c1.5-1.8,2.7-4.4,4.6-5.1c2.8-0.9,6-0.3,6.8,5.1c-3.4,0.7-6.8,1.4-10.2,2.1
		C1068.8-329.3,1068.4-330,1068-330.7z"/>
	<path class="st1" d="M1216.8-352.4c0,3.9,0,6.5,0,10.8c-2.9-1.2-6.3-1.7-6.7-2.9C1208.8-349.9,1214.5-348.9,1216.8-352.4z"/>
	<path class="st1" d="M1007.2-318.5c-0.9-3.1-2.9-6.2,0-9.5C1007.2-324.9,1007.2-321.7,1007.2-318.5z"/>
	<path class="st1" d="M1154.5-302.1c1.1,1.5,2.1,3,3.2,4.4c-0.3,0.4-0.7,0.8-1,1.2c-1.5-1.1-2.9-2.3-4.4-3.4
		C1153.1-300.6,1153.8-301.4,1154.5-302.1z"/>
</g>
<g id="Layer_2">
	<path class="st2" d="M725.4,490.8c0,70.2,0,140,0,209.8c-2.7,0.7-212.8,0.9-217,0.2c0-69.9,0-139.8,0-209.9
		C580.7,490.8,652.9,490.8,725.4,490.8z M598.3,544.7c1.7-0.1,3.1-0.3,4.6-0.3c16.7,0,33.5,0,50.2,0c1.5,0,2.9-0.2,4.6-0.3
		c0-2.9,0-5.5,0-8.1c0-2.5-0.1-5-0.1-7.6c-26.5,0-52.6,0-78.8,0c0,48.8,0,97.3,0,146.2c6.5,0,12.7,0.2,19.4-0.1
		c0-22.2,0-43.9,0-65.9c5,0,9.5,0,14.1,0c4.4,0,8.9,0,13.3,0c4.6,0,9.1,0,13.7,0c4.5,0,9-0.1,13.7-0.1c0-5.6,0-10.7,0-16.2
		c-18.4,0-36.4,0-54.6,0C598.3,576.3,598.3,560.7,598.3,544.7z"/>
	<path class="st2" d="M259.7,491c0,70.1,0,139.9,0,210c-72.4,0-144.5,0-216.7,0c-0.7-2.6-0.9-205.8-0.1-210
		C115,491,187.2,491,259.7,491z M198.2,532.1c-1.3-0.7-2.1-1.2-3-1.5c-2.1-0.8-4.2-1.6-6.3-2.1c-14.3-3.6-28.7-4.3-43.1-1.4
		c-27.1,5.5-45.7,21.1-54.8,47.4c-5.4,15.9-5.8,32.2-2.2,48.5c6.2,27.3,22.9,44.7,50.2,51.4c11.5,2.8,23.2,2.8,34.9,1.4
		c6.7-0.8,13.4-2,19.8-4.4c1.4-0.5,2.7-1.3,4-1.9c-0.7-2.8-1.3-5.3-1.9-7.8c-0.6-2.4-1.2-4.8-1.9-7.4c-0.9,0.3-1.4,0.4-1.8,0.6
		c-13.6,5.3-27.8,6.7-42.1,4.1c-18.9-3.3-32.3-13.9-38.8-32.2c-6-17-5.8-34.3,0.2-51.3c5.1-14.3,14.9-24.6,29.3-29.8
		c16.4-5.9,32.8-5.3,49.1,0.6c1.1,0.4,2.1,0.8,3.5,1.3C195,542.4,196.6,537.4,198.2,532.1z"/>
	<path class="st2" d="M491.4,475c-72.3,0-144.3,0-216.4,0c-0.8-2.9-0.8-208-0.1-211.5c72.1,0,144.2,0,216.3,0
		C492,266.3,492.1,471,491.4,475z M328.7,300.3c0,1.8,0,3.2,0,4.6c0,21.4,0,42.8,0,64.2c0,8.2-0.1,16.4,0.2,24.6
		c0.3,7.9,1.6,15.6,4.2,23c5.9,16.7,17.2,27.2,34.7,30.9c8.6,1.8,17.2,1.8,25.8,0.3c18.3-3.2,31.1-13.2,38-30.6
		c4.2-10.6,5.3-21.8,5.3-33.1c0.1-26.7,0-53.4,0-80c0-1.3-0.1-2.5-0.2-4.2c-6.5,0.1-12.8-0.2-19.4,0.2c0,1.8,0,3.3,0,4.8
		c0,26.4,0,52.9,0,79.3c0,4.7-0.2,9.4-0.7,14c-0.7,6.6-2.4,12.9-5.7,18.7c-4.3,7.6-10.6,12.8-19.2,14.7c-3.8,0.8-7.9,1.2-11.8,1.1
		c-10.1-0.3-18.3-4.6-23.8-13.3c-2.2-3.5-3.9-7.5-5.2-11.4c-2.3-6.9-2.8-14.2-2.8-21.5c0-27.3,0-54.5,0-81.8c0-1.5-0.1-3-0.2-4.6
		C341.5,300.3,335.3,300.3,328.7,300.3z"/>
	<path class="st2" d="M725.4,263.5c0,70.6,0,140.9,0,211.4c-72.4,0-144.5,0-216.7,0c-0.7-2.6-0.8-207.2-0.1-211.4
		C580.7,263.5,652.8,263.5,725.4,263.5z M573.5,325c0.5,0.9,1,1.8,1.4,2.6c2.7,5.2,5.1,10.6,8.1,15.6c9.9,16.7,20,33.3,30.2,49.8
		c10.4,16.9,21.1,33.7,31.6,50.6c1.3,2.2,2.8,3.1,5.3,3c4.3-0.2,8.7,0,13-0.1c0.9,0,1.8-0.2,2.8-0.3c0-48.7,0-97.2,0-145.9
		c-6,0-11.8,0-18.1,0c0,20.1,0,40,0,59.8c0,19.9,0.5,39.9,1.8,59.8c-0.6-0.6-1-1.3-1.4-2c-4.8-9.1-9.3-18.4-14.5-27.3
		c-7.8-13.2-16-26.1-24.1-39.1c-10.2-16.3-20.5-32.4-30.7-48.7c-1.3-2-2.6-2.9-5.1-2.8c-4.8,0.2-9.6,0-14.4,0.1c-1,0-2.1,0.1-3,0.2
		c-1,3.5-0.9,143.3,0,146c4.4,0.6,14.9,0.4,17.7-0.4C573.9,405.6,575,365.4,573.5,325z"/>
	<path class="st2" d="M491.7,490.8c0,70.1,0,139.7,0,209.5c-0.8,0.2-1.6,0.5-2.4,0.5c-0.9,0.1-1.9,0-2.8,0c-68.9,0-137.9,0-206.8,0
		c-1.6,0-3.2,0-5.1,0c0-70.3,0-140.1,0-210.1C347.1,490.8,419.3,490.8,491.7,490.8z M326.1,674c1.8,0.3,3.5,0.6,5.2,0.7
		c6.4,0.4,12.8,0.8,19.3,1.1c16.1,0.6,32-0.3,47.5-5.2c20.9-6.6,35.4-20,42.9-40.6c6.1-16.8,7.2-34.1,3.3-51.5
		c-5.1-23-19.1-38.3-41.3-46.1c-10.6-3.7-21.6-5-32.8-5.3c-13.8-0.4-27.6,0.7-41.3,2.7c-1,0.2-2,0.5-3,0.7
		C326.1,578.5,326.1,626.1,326.1,674z"/>
	<path class="st2" d="M725.1,247.3c-72.1,0-144.3,0-216.4,0c-0.7-2.6-0.9-207.1-0.2-211.4c72.1,0,144.3,0,216.4,0
		C725.7,38.5,725.9,243,725.1,247.3z M615.5,201.6c41.5,0.3,69.2-34.9,68.8-67.9c-0.5-42.6-34.9-69.6-68.8-69.1
		c-41.9,0.6-69.9,35.1-68.2,71.3C549,174.5,580.1,202,615.5,201.6z M611.2,209.3c-7.9,4.1-14.8,8.7-20.6,15.3
		c1.5,1.2,2.8,2.2,4.2,3.3c0.9-1,1.7-1.9,2.4-2.8c4.6-5.4,10.1-9.8,16.1-13.4c2-1.2,3.7-1.2,5.8,0.1c5.5,3.4,10.4,7.6,14.9,12.1
		c1.2,1.2,2.5,2.4,3.9,3.8c1.4-1.3,2.6-2.4,4-3.7c-5.9-6.2-12.8-10.5-20.4-14.9c3.5-0.6,6.1-0.3,8.4,1.2c1.8,1.2,3.4,2.5,5.2,3.5
		c3.7,2.1,7.2,4.5,11.2,5.8c9.5,3.2,18.2,1.4,26-5c0.8-0.7,1.5-1.6,2.5-2.6c-0.7-0.1-1-0.2-1.1-0.1c-8.2,4.1-16.3,3.4-24.4-0.1
		c-2.7-1.1-5.3-2.4-8.1-3.5c-7.8-3-15.8-4.1-24-1.4c-0.7,0.2-1.6,0.2-2.4,0c-7.7-2.3-15.3-1.4-22.7,1.5c-3.5,1.3-6.9,2.9-10.3,4.4
		c-7.3,3.2-14.7,3.4-22.2,0.4c-0.5-0.2-1.1-0.2-1.7-0.3c6.4,6.9,14.2,9.8,23.4,8.5c5.9-0.9,10.8-3.8,15.5-7.1
		c2.1-1.5,4.2-3.1,6.4-4.3C605.6,208.9,608,208,611.2,209.3z M664,201.2c5.4-1.2,10.6-2.1,15.6-3.4c10.9-3,18.7-9.8,23.9-19.7
		c0.9-1.8,1.8-3.6,1.6-6.7c-4.4,7.7-11.3,11-18,14.6c-3.3,1.8-6.5,3.8-9.7,5.6c-0.5,0.3-1,0.5-1.5,0.8c3.5-5,4.9-10.5,5.8-16.2
		c0.5-3.3,1.2-6.7,1.8-10c0.1-0.6,0.1-1.2,0.1-1.9c-0.5,0.2-0.7,0.3-0.9,0.4c-0.4,0.4-0.8,0.9-1.1,1.3c-3.6,4.5-6.2,9.6-7.9,15.2
		c-2.1,7-4.6,13.8-9.6,19.3C663.9,200.5,664,200.7,664,201.2z M568,201.5c-0.6-1-0.8-1.5-1.1-1.9c-3.3-3.5-5.1-7.8-6.7-12.2
		c-1-2.8-2-5.5-2.9-8.3c-1.8-5.2-5-9.5-8.3-13.7c-0.2-0.3-0.6-0.4-1-0.5c0.8,4.4,1.6,8.5,2.3,12.6c0.9,5.4,2.2,10.5,5.8,14.9
		c0.1,0.2,0,0.5,0,0.7c-3.6-2-7.1-4.1-10.8-6c-6.8-3.5-13.8-6.4-18.3-13.2c-0.1,0.9,0,1.7,0.3,2.4c1.4,3.9,3.5,7.4,6.2,10.5
		c6.5,7.4,14.7,11.8,24.5,13.1C561.1,200.3,564.3,200.9,568,201.5z M655.5,204.2c1.8-1.4,4.7-3,6.7-5.2c4-4.3,5.4-10.2,8.2-15.2
		c-1,0.3-1.8,0.7-2.5,1.2c-3.4,3-7,5.9-10.1,9.2c-5,5.3-10.5,9.6-17.8,11.2c-0.2,0-0.4,0.3-0.6,0.5c0.3,0.2,0.6,0.4,0.9,0.5
		c5.7,1.3,11.3,2.8,17.1,4c11.6,2.3,21.4-1.1,29.8-9.4c1.4-1.3,2.7-2.8,3-4.9c-4.6,3.7-9.9,5.4-15.5,6.1
		C668,203.1,661.3,203.6,655.5,204.2z M682.2,185.7c7.6-5.4,15.5-9.1,21.3-15.7c3.9-4.5,6.9-9.4,8.1-15.3c0.5-2.6,0.7-5.2-0.2-7.8
		c-1.4,4.4-3.8,8.1-7,11.2c-4.4,4.4-8.6,8.9-12.1,14.1c-0.1,0.1-0.4,0.1-0.2,0c0.4-3.3,1.2-6.7,1-9.9c-0.5-5.8-1.6-11.5-2.5-17.3
		c-1.1,1.3-1.9,2.7-2.1,4.2c-0.8,5.3-1.6,10.6-2.1,16c-0.6,6.3-1,12.6-3.8,18.4C682.5,184,682.5,184.4,682.2,185.7z M592.8,206.6
		c-0.8-0.6-1-1-1.3-1c-6.8-1.5-12-5.5-16.9-10.2c-3.5-3.4-7.3-6.6-11-9.8c-0.5-0.5-1.3-0.7-2.6-1.3c2.5,4.7,4.6,8.6,6.8,12.4
		c1.5,2.7,3.6,4.9,6.3,6.5c0.6,0.4,1.1,0.8,1.8,1.3c-6-0.5-11.7-0.8-17.4-1.4c-5.5-0.6-10.8-1.8-15.3-5.4c-0.3-0.2-0.7-0.2-1.3-0.4
		c0.2,0.6,0.2,0.8,0.3,1c0.1,0.2,0.2,0.4,0.4,0.6c6.4,8.1,14.4,12.7,25,12.5C576,211.3,583.9,208.2,592.8,206.6z M541.4,146
		c-1,9.2-5.1,18.2-1.1,27.6c-3.7-4.1-7-8.1-10.7-11.9c-3.7-3.8-7.1-7.7-8.9-12.8c0-0.1-0.4-0.2-1-0.4c0.2,2.3,0.1,4.5,0.5,6.7
		c1.4,8.3,5.6,14.8,12.3,19.7c5.2,3.9,10.8,7.3,16.3,11c0.2,0.1,0.6,0,0.8,0c-1-3.4-2.2-6.6-2.8-9.8c-0.9-5.8-1.4-11.6-2.1-17.4
		C544.1,154.4,543.7,150,541.4,146z M700.5,146.5c-0.1-0.3-0.3-0.7-0.3-1.1c-0.3-4.2-2-7.9-4.1-11.4c-1.9-3.3-3.8-6.7-5.7-10.1
		c-0.2-0.3-0.6-0.5-1.3-1.1c0.1,2.2-0.1,3.8,0.3,5.4c1.5,6.6,3,13.2,4.9,19.7c1.1,3.7,2.1,7.4,1.8,11.3c-0.1,1,0.1,1.9,0.3,3.6
		c3.3-4.2,6.1-7.7,8.8-11.3c7-9.5,8.1-20.1,5.3-31.4c-0.2-0.7-0.7-1.3-1-1.9c-0.3,4.7-1.2,9-2.9,13.1
		C704.5,136.4,702.5,141.5,700.5,146.5z M521.5,120.5c-0.2,0.4-0.4,0.8-0.5,1.2c-2.8,11.7-1.1,22.5,6.3,32.2
		c2.1,2.8,4.4,5.5,6.6,8.2c0.5,0.6,1,1.1,1.5,1.7c0.2,0,0.5-0.1,0.7-0.1c-1.5-6.1,0.9-11.5,2.3-17.2c1.5-6.2,2.7-12.5,3.9-18.8
		c0.2-1.2,0-2.4,0-3.6c-1.9,2.4-3.4,4.9-4.7,7.4c-1.6,3-3.3,5.9-4.4,9.1c-1,3-1.3,6.3-1.8,8.6c-1.1-3.2-2.4-7.3-4.1-11.3
		C525,132.3,522.3,126.8,521.5,120.5z M700.1,124c-1.3-6.1-5.6-9.9-10-13.6c-1.8-1.5-3.4-3.2-5-4.8c-0.4-0.4-0.9-0.8-1.3-1.2
		c-0.2,1.4,0.1,2.5,0.4,3.6c1.6,5.3,4.6,9.9,8,14.3c3.5,4.6,6.8,9.2,8.4,14.8c0,0.1,0.3,0.2,0.5,0.2c1.7-5.2,3.6-10.3,5.1-15.6
		c2.1-7.6,1.3-15.1-2.1-22.2c-1.2-2.5-2.7-4.8-4.8-6.7c0,1,0.3,1.8,0.4,2.6c0.4,2.6,1.3,5.3,1.1,7.9
		C700.1,110.2,699.4,117,700.1,124z M547.5,105.8c-5.9,6.1-13.4,10.3-15.7,18.7c-0.4-5.1-0.6-10.2-1.1-15.1
		c-0.5-4.8-0.8-9.5,0.8-14.2c0-0.1-0.2-0.3-0.4-0.7c-0.4,0.5-0.8,0.9-1.2,1.3c-5.6,7.9-7.4,16.6-5,26c1.5,5.7,3.8,11.1,6.1,17.4
		c2-8.2,7.3-13.9,11.2-20.3c2-3.2,3.3-6.9,4.8-10.5C547.4,107.7,547.4,106.7,547.5,105.8z M538.1,103.5c0.9-4,1.8-7.9,2.7-11.9
		c0.8-3.3,1.9-6.5,4.3-9.1c0.3-0.3,0.2-0.8,0.5-1.8c-7.8,3.8-11.9,9.5-12.3,17.5c-0.3,5.6,0.1,11.2,0.2,16.8c0,0.1,0.3,0.3,0.7,0.6
		c2.9-4.8,7.3-8,11.5-11.5c1.9-1.6,3.6-3.3,5.2-5.2c2.2-2.6,3.9-5.5,4.8-8.9c0.2-0.7,0-1.4,0-2.1c0.2,0.3,0.3,0.5,0.5,0.8
		c-1.9,1.4-3.7,2.8-5.6,4.2C546.2,96.2,541.5,99.1,538.1,103.5z M684.8,79.7c5.7,6.3,5.6,14.3,8,21.9c-3.4-2.6-6.3-4.9-9.2-7.2
		c-2.9-2.3-5.7-4.7-8.8-7.2c0.2,1.2,0.4,2.2,0.7,3.2c1.1,3.7,3.2,6.8,6,9.4c2.4,2.2,5.1,4.1,7.5,6.3c2.4,2.1,4.6,4.3,6.8,6.5
		c0.5,0.5,1,1,2.1,2c0-6.1,0.2-11.5-0.1-16.8c-0.4-7.7-4.1-13.5-10.9-17.3C686.3,80.1,685.5,80,684.8,79.7z M688.3,95
		c-1.9-13.6-9.9-21.5-22.7-23.8c0.5,0.6,0.9,1.1,1.2,1.5c2.2,2.6,4.4,5.1,6.4,7.8c3.8,5.2,8.4,9.7,13.5,13.7
		C687.2,94.5,687.7,94.7,688.3,95z M564.2,72.4c-14,3.3-20.4,11.8-21.6,23.4c0.3-0.1,0.7-0.1,1-0.3c4.3-3.5,8.4-7,11.6-11.5
		c2.2-3.1,4.7-6.1,7-9.2C562.9,74,563.6,73.2,564.2,72.4z"/>
	<path class="st2" d="M63.5,718.6c2.4,0,4.3,0,6.7,0c1.1,11.6,1.5,23,2.3,34.9c-1.8,0-3.4,0-5.4,0c-1.3-7-0.4-14.4-2.1-21.6
		c-1.7,7-3.4,13.9-5.1,21.1c-1.5,0-2.9,0-4.6,0c-1.6-7-3.3-14.1-5-21.2c-1.4,3.6-1,7.3-1.3,10.9c-0.3,3.6-0.5,7.2-0.7,11
		c-1.7,0-3.2,0-5.2,0c0.6-11.6,1.6-23.1,2.4-34.9c2.4,0,4.4,0,6.9,0c1.8,8,3.6,16.1,5.3,24.1c0.2,0,0.3,0,0.5,0
		C60.1,734.8,61.8,726.7,63.5,718.6z"/>
	<path class="st2" d="M646.8,730.6c2.1-0.9,4-2.1,6.1-2.5c3-0.5,4.9,0.9,6,3.7c0.4,1.2,0.7,2.5,0.8,3.7c0.1,5.5,0.1,11,0.1,16.5
		c0,0.4-0.2,0.9-0.3,1.5c-1.9,0-3.7,0-6,0c0-2.6,0-5,0-7.4c0-2.9,0.1-5.8-0.1-8.8c-0.2-3-1.1-4.2-2.8-4.1c-1.7,0.1-2.8,1.5-2.8,4.2
		c-0.1,4.6,0,9.1,0,13.7c0,0.7-0.1,1.4-0.2,2.3c-2,0-3.9,0-6.1,0c-0.1-1.2-0.2-2.4-0.2-3.5c0-4,0-7.9,0-11.9c0-0.9,0.1-1.9-0.3-2.8
		c-0.3-0.8-1.1-1.8-1.8-1.8c-0.9-0.1-2.2,0.4-2.6,1.1c-0.6,1-0.8,2.4-0.9,3.6c-0.1,3.9,0,7.7-0.1,11.6c0,1.1-0.1,2.3-0.2,3.7
		c-2.1,0-4,0-6.2,0c0-8.3,0-16.4,0-25c1.4-0.1,3-0.2,4.5-0.2c0.6,0.9,1,1.7,1.5,2.4C639.5,727.5,642.6,726.5,646.8,730.6z"/>
	<path class="st2" d="M155.5,728.3c4.1,0,8.1,0,12.2,0c0,8.6,0,16.8,0,25.2c-1.9,0-3.7,0-5.8,0c-0.9-6.7,0.1-13.5-0.6-20.5
		c-1.9,0-3.7,0-6,0c0,3.4-0.1,6.9-0.1,10.3c0,3.3,0,6.7,0,10.2c-2.3,0-4.2,0-6.4,0c0-6.9,0-13.6,0-20.4c-1.4-0.3-2.3-0.5-3.4-0.7
		c0-1.3,0-2.4,0-3.7c1-0.3,2-0.6,3.1-0.9c0.3-5,2.3-8.9,7.7-10.2c3.1-0.7,6.2-0.7,9.5,0.7c-0.2,1.5-0.5,2.9-0.7,4.4
		C156.5,722.2,155.3,722.9,155.5,728.3z"/>
	<path class="st2" d="M477.4,753.5c0-11.5,0-22.8,0-34.3c4.6-1.2,9-1.3,13.4,0.4c3.3,1.3,5.3,3.9,6.3,7.1c1.8,6.3,1.8,12.7-0.4,18.9
		c-1.5,4.2-4.5,6.7-8.8,7.7C484.5,754.2,481.1,754.1,477.4,753.5z M483.8,748.5c4,0.1,5.8-0.8,6.5-4.1c0.8-3.5,1.1-7.1,1.1-10.7
		c0-2.3-0.6-4.7-1.4-6.8c-1.1-2.8-2.6-3.3-6.3-2.9C483.7,732.1,483.7,740.2,483.8,748.5z"/>
	<path class="st2" d="M385,752.3c0,4,0,7.6,0,11.4c-2.1,0-3.9,0-6.1,0c0-11.7,0-23.2,0-34.8c3.6-1.2,4.4-1,5.9,1.6
		c0.2-0.1,0.5-0.1,0.6-0.2c4.8-3.9,9.5-2.7,11.4,3.1c1.6,4.8,1.6,9.7,0.1,14.5c-0.4,1.2-1,2.4-1.7,3.4
		C392.8,754.4,390,754.8,385,752.3z M391.8,741.2c-0.3-1.8-0.5-3.6-1-5.2c-0.4-1.4-1.2-2.6-2.9-2.5c-1.5,0.1-2.4,1.3-2.5,2.5
		c-0.2,3.5-0.1,6.9,0,10.4c0.1,1.3,1,2.5,2.5,2.5c1.5,0,2.4-1,2.7-2.3C391.2,744.8,391.4,742.9,391.8,741.2z"/>
	<path class="st2" d="M605,763.5c0-11.7,0-23.2,0-34.7c4-0.8,4.4-1.3,5.9,1.7c6.2-4.4,11.1-2.6,12.6,5c0.8,4,0.9,8.1-0.4,12.1
		c-0.4,1.3-1,2.6-1.9,3.7c-2.3,3.1-5,3.4-9.9,1.1c0,3.7,0,7.2,0,11.1C609.2,763.5,607.4,763.5,605,763.5z M611.1,741.1
		c0.2,1.8,0.2,3.5,0.5,5.2c0.2,1.3,0.9,2.5,2.5,2.6c1.5,0.1,2.4-1,2.8-2.2c1.3-3.6,1.3-7.3,0.1-11c-0.4-1.2-1.2-2.3-2.8-2.2
		c-1.6,0.1-2.3,1.2-2.5,2.5C611.3,737.6,611.3,739.4,611.1,741.1z"/>
	<path class="st2" d="M180.2,753.6c-2.1,0-4,0-6.1,0c0-8.3,0-16.6,0-25.2c1.4-0.1,2.9-0.1,4.5-0.2c0.4,0.8,0.9,1.6,1.1,2
		c2.3-0.8,4.2-1.9,6.3-2.1c3-0.4,4.8,1.1,5.9,3.9c0.3,0.6,0.5,1.3,0.6,2c0,6.4,0,12.8,0,19.5c-1.9,0-3.7,0-5.8,0
		c-0.1-0.8-0.3-1.7-0.3-2.6c0-4,0-7.9,0-11.9c0-1.2-0.2-2.3-0.4-3.5c-0.3-1.2-1.1-2.3-2.4-2c-1,0.2-2.1,1-2.6,1.9
		c-0.5,0.9-0.5,2.2-0.5,3.4c-0.1,3.7,0,7.5,0,11.2C180.4,751.2,180.3,752.3,180.2,753.6z"/>
	<path class="st2" d="M688.7,728.4c2.4,0,5-1.2,5.6,1.9c2.2-0.8,4.2-1.9,6.3-2.1c2.9-0.4,4.9,1.1,5.9,3.9c0.4,1,0.7,2,0.7,3.1
		c0.1,6.1,0,12.1,0,18.5c-2.1,0-4,0-6.2,0c-0.1-1.2-0.2-2.4-0.2-3.5c0-4.1,0-8.2,0-12.3c0-2.9-0.9-4.2-2.6-4.3
		c-1.8-0.1-3.2,1.4-3.3,4.2c-0.2,3.8-0.1,7.7-0.1,11.6c0,1.4,0,2.7,0,4.3c-2.2,0-4,0-6.1,0C688.7,745.2,688.7,737,688.7,728.4z"/>
	<path class="st2" d="M227.9,753.6c-2.2,0-3.9,0-5.6,0c-0.7-2.4-1-19-0.5-24.7c3.8-1.1,4.3-1,5.8,1.4c2.1-0.7,4.1-1.8,6.2-2.1
		c3-0.4,4.8,1,5.9,3.8c0.3,0.8,0.6,1.6,0.6,2.4c0,6.3,0,12.6,0,19.2c-1.9,0-3.7,0-5.8,0c-0.1-0.9-0.3-1.7-0.3-2.6c0-4,0-8,0-11.9
		c0-1.3-0.1-2.6-0.6-3.8c-0.3-0.7-1.3-1.6-1.9-1.6c-0.9,0-2.1,0.6-2.5,1.3c-0.6,1-0.8,2.4-0.9,3.7c-0.1,3.6-0.1,7.3-0.1,10.9
		C228,750.7,227.9,752,227.9,753.6z"/>
	<path class="st2" d="M357.2,733.4c-0.3-1.1-0.6-2.3-0.9-3.5c3.6-2.2,7.2-2.3,10.8-1.6c2.9,0.6,4.6,2.6,5.3,5.5
		c0.3,1.4,0.5,2.8,0.6,4.2c0.1,5.1,0,10.2,0,15.6c-2.4,0.2-4.9,1.3-6.3-1.9c-0.9,0.6-1.6,1.2-2.5,1.6c-3.4,1.8-7.2,0.5-8.9-2.9
		c-2.2-4.4-0.3-9.7,4.3-11.8c2-0.9,4.2-1.3,6.3-1.9C366,732.7,364.6,732.1,357.2,733.4z M366.3,741.4c-4.3,0.4-6.1,2.1-5.8,5
		c0.2,1.9,1.2,3,2.7,3.1c1.5,0.1,2.9-0.9,3.1-2.7C366.4,745,366.3,743.3,366.3,741.4z"/>
	<path class="st2" d="M215.5,753.7c-2.4,0-4.8,1.1-6-1.9c-0.5,0.3-0.9,0.5-1.3,0.8c-2.4,1.8-5,2.2-7.5,0.7c-2.9-1.6-3.7-4.5-3.4-7.5
		c0.4-3.9,2.7-6.4,6.3-7.6c1.6-0.5,3.4-0.8,5-1.2c0.2-3.1-0.6-4.1-3.2-4.2c-1.7,0-3.4,0.4-5.4,0.6c-0.3-1-0.7-2.1-1.1-3.4
		c3.9-2.2,7.8-2.5,11.9-1.3c1.9,0.6,3.1,2,3.9,3.8c0.4,1,0.8,2,0.8,3C215.6,741.5,215.5,747.4,215.5,753.7z M209,741.5
		c-4.1,0-6.1,2.1-5.4,5.3c0.3,1.3,0.9,2.4,2.4,2.6c1.6,0.1,2.7-0.6,3.1-2.2C209.5,745.3,209.7,743.4,209,741.5z"/>
	<path class="st2" d="M122.9,741.2c0.2-3,0.7-5.9,2.2-8.5c1.8-3.2,4.6-4.8,8.4-4.7c3.7,0.2,6.2,2.1,7.5,5.4c2.1,4.9,2.1,10,0.1,15
		c-1.5,3.9-4.7,5.8-8.8,5.7c-3.9-0.1-6.8-2.2-8.1-6.1C123.6,745.8,123.3,743.4,122.9,741.2z M136.3,741.3c-0.4-2.2-0.6-4.4-1.2-6.5
		c-0.2-0.8-1.4-1.8-2.2-1.9c-0.8,0-2,0.9-2.3,1.6c-1.6,4.3-1.6,8.7,0.1,12.9c0.3,0.8,1.5,1.5,2.4,1.6c0.6,0,1.7-0.9,1.9-1.6
		C135.6,745.5,135.9,743.4,136.3,741.3z"/>
	<path class="st2" d="M600.3,741.2c-0.6,2.3-0.9,5.1-1.9,7.5c-1.5,3.7-4.5,5.5-8.6,5.3c-4-0.1-6.6-2.2-7.9-5.8
		c-1.8-4.8-1.8-9.6,0.1-14.4c1.6-3.9,4.7-5.9,8.7-5.9c4,0.1,6.9,2.2,8.2,6.4C599.5,736.5,599.8,738.7,600.3,741.2z M586.8,741.1
		c0.4,2.2,0.6,4.5,1.4,6.7c0.9,2.2,3.4,2.1,4.2-0.1c1.6-4.3,1.6-8.7,0.1-13c-0.3-0.8-1.5-1.7-2.2-1.7c-0.8,0-1.9,1-2.2,1.8
		C587.4,736.7,587.2,738.8,586.8,741.1z"/>
	<path class="st2" d="M442.6,736.7c-0.8-4.3-2.2-4.8-8.8-3.2c-0.3-1.1-0.7-2.2-1.1-3.6c4-2.2,7.9-2.5,11.9-1.2
		c2.6,0.8,3.8,3,4.3,5.5c0.3,1.6,0.4,3.2,0.4,4.9c0.1,4.7,0,9.3,0,14c-3.5,1.2-4.5,1-6.2-1.4c-0.6,0.4-1.3,0.9-1.9,1.3
		c-4,2.4-8.4,0.7-9.9-3.7c-1.5-4.5,0.6-9.1,5.1-10.9C438.3,737.7,440.4,737.3,442.6,736.7z M442.8,741.4c-4.3,0.4-6.1,2-5.8,4.9
		c0.2,1.9,1.2,3,2.7,3.1c1.5,0.1,2.9-0.9,3.1-2.7C443,745.1,442.8,743.3,442.8,741.4z"/>
	<path class="st2" d="M682.9,743.4c-3.9,0-7.8,0-11.6,0c0.2,5.3,2,6.2,10,5.5c0.3,1.2,0.5,2.4,0.8,3.5c-7.7,4.3-15.9,0.6-17.2-7.8
		c-0.5-3.5-0.5-7.1,1.2-10.3c1-1.9,2.4-3.9,4.1-5.1c4.5-3.1,10.1-1.2,12.1,3.9C683.6,736.1,683.8,739.1,682.9,743.4z M677.7,738.6
		c-0.2-1.5-0.1-2.8-0.6-3.7c-0.5-0.9-1.4-1.9-2.4-2.2c-1.3-0.4-2.2,0.6-2.6,1.8c-0.4,1.2-0.6,2.6-1,4.1
		C673.4,738.6,675.2,738.6,677.7,738.6z"/>
	<path class="st2" d="M563.6,743.3c-2.1,0-4.1,0-6.1,0c-1.8,0-3.7,0-5.5,0c0.1,5.3,2.1,6.4,10,5.6c0.3,1.3,0.5,2.6,0.8,3.9
		c-3.4,1.5-6.7,1.5-9.9,0.9c-3.2-0.7-5.4-2.8-6.5-5.9c-1.7-4.8-1.5-9.7,0.7-14.3c1.1-2.3,2.8-4,5.2-5c4.5-1.7,8.8,0.2,10.6,4.7
		C564.1,736.1,564.4,739,563.6,743.3z M558.3,738.6c-0.3-1.6-0.3-3-0.8-4.2c-1-2.3-3.4-2.4-4.6-0.3c-0.7,1.2-0.9,2.8-1.4,4.5
		C553.9,738.6,555.9,738.6,558.3,738.6z"/>
	<path class="st2" d="M351.5,719.2c-0.3,1.7-0.6,3.3-0.9,4.9c-0.8-0.1-1.2-0.1-1.7-0.1c-3.9-0.3-6.3,1.1-7.7,4.6
		c-1.9,5-1.9,10.1-0.1,15.1c1.2,3.4,3.7,4.8,7.4,4.8c0.6,0,1.1-0.1,2.1-0.1c0.3,1.6,0.5,3.1,0.8,4.6c-6.1,2.7-12.9,0.7-15.7-4.9
		c-3.9-7.8-3.9-15.9,0.5-23.5C339.1,719.1,345.1,717.2,351.5,719.2z"/>
	<path class="st2" d="M269.8,743.2c0.1,5.5,1.9,6.4,10,5.8c0.2,1.2,0.4,2.4,0.6,3.5c-7.3,4.2-15.3,0.8-16.9-7.1
		c-0.9-4.3-0.4-8.4,1.6-12.2c1.3-2.5,3.3-4.3,6.1-4.9c4.7-1,8.3,1,9.8,5.7c1,2.9,1,5.9,0.5,9.3C277.7,743.2,273.9,743.2,269.8,743.2
		z M276,738.6c-0.3-1.6-0.2-3-0.7-4.1c-0.4-0.8-1.4-1.8-2.2-1.8c-0.8-0.1-1.9,0.7-2.5,1.4c-0.9,1.2-1.3,2.7-0.7,4.4
		C271.8,738.6,273.6,738.6,276,738.6z"/>
	<path class="st2" d="M519,748.9c0.3,1.4,0.5,2.6,0.7,4c-3.9,1.4-7.6,1.6-11.3,0.3c-2.3-0.8-4-2.6-4.8-4.8
		c-1.9-5.3-1.9-10.6,0.9-15.6c0.9-1.6,2.6-3.1,4.3-4c4.4-2.3,9.2-0.4,11,4.1c1.2,3.2,1.8,6.5,0.8,10.3c-3.9,0-7.7,0-11.4,0
		c-0.4,3.8,1.1,5.6,4.4,5.9c0.9,0.1,1.9,0,2.8-0.1C517.2,749.1,518.1,749,519,748.9z M515.3,738.6c-0.3-1.6-0.4-2.9-0.9-4
		c-0.4-0.8-1.4-1.8-2.2-1.8c-0.9,0-2.2,0.8-2.7,1.7c-0.7,1.1-0.7,2.5-1.1,4.1C510.8,738.6,512.7,738.6,515.3,738.6z"/>
	<path class="st2" d="M536.3,753.8c-1.6,0-2.7,0-3.9,0c-0.6,0-1.1-0.1-2-0.2c-2.3-8.2-4.5-16.5-6.9-25c2.4,0,4.4,0,6.7,0
		c0.5,2.8,1.1,5.6,1.6,8.4c0.5,2.8,1,5.7,1.5,8.5c0.2,0,0.5,0,0.7,0c0.5-2.7,1-5.5,1.5-8.2c0.5-2.9,1-5.7,1.5-8.8c2,0,3.8,0,6.1,0
		C541,737,538.7,745.2,536.3,753.8z"/>
	<path class="st2" d="M725.3,749.2c0,1.5,0,2.9,0,4.4c-1.1,0.1-2,0.3-2.9,0.4c-5.3,0.2-7.6-1.8-7.7-7.2c-0.1-4.4,0-8.9,0-13.4
		c-1.1-0.4-1.9-0.6-3.1-1c-0.1-1-0.1-2.1-0.2-3.4c1.1-0.4,2-0.8,3-1.3c0.1-1.2,0.3-2.5,0.4-4c1.9-0.6,3.7-1.2,5.8-1.9
		c0.2,2.2,0.4,4.1,0.6,6.1c1.6,0.2,2.9,0.4,4.6,0.6c0,1.3,0,2.5,0,3.9c-1.4,0.2-2.8,0.3-4.4,0.5c-0.1,0.9-0.4,1.8-0.4,2.7
		c-0.1,2.7-0.1,5.4,0,8.1C721,747.6,721.3,748.1,725.3,749.2z"/>
	<path class="st2" d="M427.6,732.6c-1.4,0.1-2.8,0.3-4.5,0.5c-0.2,4.4-0.3,8.8,0.1,13.2c0.2,2.2,2.2,2.5,4,2.9c0,1.4,0,2.8,0,4.2
		c-2.1,1-4.2,0.8-6.2,0.3c-2.4-0.5-3.8-2.3-4.1-4.7c-0.3-2.5-0.3-5.1-0.4-7.7c-0.1-2.7,0-5.3,0-8c-1.2-0.4-2.1-0.6-3-0.9
		c0-1.3,0-2.4,0-3.7c0.9-0.3,1.8-0.6,2.6-0.8c0.8-4.6,0.8-4.6,6.6-5.9c0.1,1.9,0.3,3.8,0.4,5.9c1.5,0.2,2.8,0.4,4.5,0.6
		C427.6,729.8,427.6,731.1,427.6,732.6z"/>
	<path class="st2" d="M569.6,717.8c1.8,0,3.6,0,5.6,0c0,12,0,23.7,0,35.7c-1.9,0-3.7,0-5.5,0C568.9,750.8,568.9,721.4,569.6,717.8z"
		/>
	<path class="st2" d="M461.4,717.9c0,11.9,0,23.7,0,35.6c-1.1,0.1-2,0.2-2.9,0.2c-0.9,0-1.8-0.1-2.7-0.2c-0.7-2.8-1-31-0.3-35.7
		C457.4,717.9,459.2,717.9,461.4,717.9z"/>
	<path class="st2" d="M259.8,749c0.1,1.3,0.2,2.7,0.3,3.9c-5.4,2.3-10.9,0.4-13.1-4.6c-2.1-4.7-2.1-9.6,0.2-14.2
		c2.5-5.2,8-7.3,13.4-5.1c-0.2,1.3-0.5,2.6-0.7,4.1c-2.2,0.4-4.8-0.2-6.3,2.2c-1.4,2.1-1.6,4.4-1.5,6.7
		C252.3,747,253.9,748.5,259.8,749z"/>
	<path class="st2" d="M104.7,728.9c-0.3,1.5-0.5,2.9-0.8,4.4c-2.2,0.3-4.6-0.2-6.2,1.9c-1.6,2.1-1.8,4.5-1.6,7
		c0.3,5,2.1,6.7,7.7,6.8c0.1,1.4,0.2,2.8,0.3,4.2c-6.2,2.4-11.8-0.2-13.7-6c-1.2-3.8-1.2-7.6,0.1-11.4
		C92.6,729.7,98.1,727,104.7,728.9z"/>
	<path class="st2" d="M107.9,728.4c2,0,3.4,0,5,0c0.4,0.8,0.8,1.8,1.3,2.8c0.3-0.2,0.6-0.2,0.8-0.4c1.3-1.5,2.5-3.1,5.3-2.4
		c0.1,1.7,0.2,3.5,0.2,5.5c-0.8,0.3-1.5,0.5-2.1,0.7c-2.9,1-3.8,3.3-3.8,6.1c0,4.2,0,8.4,0,12.9c-2.1,0-4,0-6.4,0
		C107.8,745.3,108.2,737,107.9,728.4z"/>
	<path class="st2" d="M402.9,728.5c2.4,0,4.2,0,6.3,0c0,8.4,0,16.7,0,25.1c-2.1,0-3.9,0-6.1,0C402.7,745.3,403,737.1,402.9,728.5z"
		/>
	<path class="st2" d="M314.8,738.5c0,4.1-3.2,7.4-7.2,7.4c-4,0-7.3-3.2-7.4-7.3c-0.1-4.2,3.3-7.6,7.4-7.6
		C311.7,731.1,314.8,734.4,314.8,738.5z"/>
	<path class="st2" d="M78.5,728.5c2,0,3.8,0,5.7,0c0,8.4,0,16.6,0,25.1c-1.9,0-3.7,0-5.7,0C78.5,745.3,78.5,737,78.5,728.5z"/>
	<path class="st2" d="M402.8,721.4c-0.1-1.9,1.3-3.5,3-3.6c1.8-0.1,3.5,1.5,3.5,3.5c0,1.9-1.4,3.3-3.3,3.4
		C404.2,724.7,402.9,723.4,402.8,721.4z"/>
	<path class="st2" d="M84.4,721.2c0,2.1-1.1,3.4-3,3.5c-1.9,0.1-3.2-1.1-3.3-3.2c-0.1-2.1,1.3-3.7,3.2-3.7
		C83.1,717.8,84.4,719.2,84.4,721.2z"/>
	<path class="st2" d="M345.4,659.5c0-38.6,0-76.6,0-115.1c3-0.4,6-1,9-1.3c11.1-0.9,22.2-1,33.1,1.7c21.2,5.1,34.5,19.6,37.6,41.2
		c1.6,11.1,1.3,22.2-1.4,33.1c-5.4,21.6-19.2,34.5-40.8,39.2c-9.3,2.1-18.8,2.3-28.3,1.8C351.6,660,348.6,659.7,345.4,659.5z"/>
	<path class="st2" d="M551.4,131.1c0.7-16.2,6.5-30,17.3-42c2.3,2.3,4.4,4.5,6.8,6.8c-4.2,4.9-7.8,10.2-10.2,16.2
		c-2.4,6-4,12.2-4.1,19C557.9,131.5,554.9,131.5,551.4,131.1z"/>
	<path class="st2" d="M662.5,88.7c10.8,12.1,17.3,25.6,17.7,42c-3.2,0-6.2,0-9.3,0c-1.2-13.2-5-25.2-15.5-34.6
		C657.8,93.6,660,91.3,662.5,88.7z"/>
	<path class="st2" d="M657,169.4c8.4-9.2,12.9-20.7,13.8-33.9c3.2,0,6.1,0,9.4,0c-0.4,16-6.4,29.5-16.8,41.4
		C661.3,174.4,659.3,172,657,169.4z"/>
	<path class="st2" d="M572.4,85.3c11.1-9.9,24.6-15.6,40.4-16.6c0,3.2,0,6.1,0,9.4c-12.9,0.9-24.4,5.7-34,14.6
		C576.8,90.3,574.7,87.9,572.4,85.3z"/>
	<path class="st2" d="M613.1,188.3c0.1,1.1,0.2,2,0.2,3c0,2,0,3.9,0,6.3c-16.1-0.6-29.6-6.6-41.9-17.1c2.5-2.1,4.8-4,7.5-6.3
		c4.3,3.6,9.5,7.3,15.5,9.7C600.3,186.3,606.4,187.6,613.1,188.3z"/>
	<path class="st2" d="M618.1,197.6c-0.1-0.7-0.3-1.2-0.3-1.6c0-2.4,0-4.9,0-7.5c3.3-0.5,6.5-1.2,9.7-1.4c1-0.1,2.2,0.7,3.1,1.4
		c1.8,1.4,3.6,1.7,5.4,0c2-1.9,4-3.8,6-5.8c1.3-1.3,2.6-2.6,4-3.8c2.4-1.9,4.8-3.6,7.5-5.6c2.2,2,4.4,4.1,6.9,6.4
		C648.4,191,634.5,196.9,618.1,197.6z"/>
	<path class="st2" d="M658.9,85.7c-2,1.8-3.8,3.5-5.7,5.2c-1-1.4-2.5-3.2-3.9-5.2c0.1-0.6,0.4-1.5,0.3-2.3c-0.1-0.5-0.8-1.2-1.4-1.4
		c-1.5-0.6-2.4,0.1-2.4,1.9c-0.6-0.1-1.3-0.3-1.8-0.1c-2.8,1.2-5.1-0.2-7.5-1.3c-5.3-2.4-11-3.6-17.1-4.5c3.9-0.5,7.6,0.3,10.9-1.8
		c-1.7-2.5-3.6-3.2-6.3-2.3c-1,0.3-1.9,0.8-2.9,1.2c-1,0.3-2,0.5-3.2,0.8c0-2.3,0-4.5,0-6.6C627.6,66.9,650.5,76.1,658.9,85.7z"/>
	<path class="st2" d="M574.3,131c-2.2,0.1-4,0.3-5.9,0.3c-0.9,0-1.8-0.1-3.1-0.1c0.6-12.3,4.8-23,12.9-31.9c2,2.1,3.9,4.1,6.2,6.5
		C578.7,112.6,575.1,121,574.3,131z"/>
	<path class="st2" d="M551.5,135.7c3.3,0,6.2,0,9.3,0c0.5,3.4,0.9,6.7,1.4,10.2c-1.8,0.4-2.8,2-4.9,1.6c-0.5-0.1-1.6,1.3-1.9,2.2
		c-1.1,3.5,0.2,7,4.8,9.2c1.1,0.5,2.4,0.9,3.3,1.6c3.3,2.5,6.5,5.1,9.6,7.7c0.7,0.6,1.2,1.4,1.9,2.4c-2.2,2.3-4.3,4.4-6.6,6.9
		C557.9,165.5,552.2,151.8,551.5,135.7z"/>
	<path class="st2" d="M582,95.3c8.6-7.6,18.9-12,31-12.7c0,3,0,5.8,0,9c-9.3,0.7-17.7,4.2-25.1,10.5C585.9,99.9,584,97.7,582,95.3z"
		/>
	<path class="st2" d="M653.7,166.9c-0.5-1.3-0.8-2.2-1.2-3c-0.7-1.2-1.2-2.6-3.2-1.7c-0.5,0.2-1.5-0.6-2.5-1.1
		c4-4.9,7.1-9.8,8.8-15.5c0.3-1,1.4-1.6,2.4-2.6c-1.2-2.3-1.3-4.9-0.2-7.5c2.8,0,5.6,0,8.7,0C665.8,147.4,662.1,157.8,653.7,166.9z"
		/>
	<path class="st2" d="M613.2,175.4c0,2.9,0,5.3,0,7.7c-6.7,1.9-23.1-4.1-29.7-11.2c3.3-1,6.4-2,9.9-3.1
		C599,172.4,605.6,174.8,613.2,175.4z"/>
	<path class="st2" d="M657.5,130.7c-0.3-2.6-0.5-5.2-0.8-8.1c-1.4-0.2-1.9-1.3-1.7-2.9c0.4-2.2,0.3-4-1.5-5.8
		c-0.9-0.9-0.8-2.8-1.2-4.4c-1,0-1.8,0.1-2.4,0.1c-1.7-2.4-3.3-4.6-4.8-6.9c-0.7-1.1-1.1-2.3-1.4-3.5c-0.1-0.5,0.4-1.4,0.9-1.6
		c0.5-0.2,1.2,0.3,1.8,0.6c0.2,0.1,0.4,0.4,0.4,0.6c0.6,5.6,5.2,7.3,9.1,9.9c1,0.7,1.8,1.8,2.8,2.6c0.9,0.8,2,1.4,3,2.2
		c0.6,0.5,1.3,1,1.6,1.7c2.1,4.9,3,10,3.5,15.6C663.6,130.7,660.7,130.7,657.5,130.7z"/>
	<path class="st2" d="M618,82.7c7-0.2,13.2,1.9,19.2,4.6c2.8,1.3,3.1,4.4,4.2,6.9c0.3,0.8,0.2,1.8,0.3,3.2c-1.5-1.3-2.6-2.4-4.3-3.9
		c0.2,1.8,0.3,2.8,0.6,4.5c-6.4-4-13-5.9-19.9-6.6C618,88.5,618,85.7,618,82.7z"/>
	<path class="st2" d="M640,104.8c-2,2.4-3.9,4.5-5.8,6.8c-4.9-3.8-10.2-5.7-16.2-6.7c0-3,0-5.8,0-8.9
		C626.5,96.6,633.7,99.7,640,104.8z"/>
	<path class="st2" d="M613.1,96.2c0,3,0,5.8,0,8.8c-5.8,0.6-10.8,2.8-15.6,6.6c-2.2-2-4.2-4-6.3-6
		C595.5,100.6,605.6,96.2,613.1,96.2z"/>
	<path class="st2" d="M616.6,144.5c-1.9-0.3-3.9-0.6-6.1-1c1.4-1.4,2.8-2.2,3.5-3.5c0.8-1.3,1.7-2.9,0.5-4.6
		c-3.9-1.1-4.6-0.9-6.3,1.9c0.5-1.6,0.7-2.9-0.7-4.3c-0.5-0.6,0-2.7,0.6-3.8c0.7-1.1,2-1.8,3.1-2.6c1-0.7,2.1-1.4,3.3-2.2
		c1.7,0.9,4.3,0.8,5.6,3.1c0.3,0.6,1,1.3,0.8,1.8c-0.9,2.6,1.1,4.6,1.5,6.9c0.6,3.1,0.5,3.7-2.6,4.1
		C617.7,140.8,618.2,142.9,616.6,144.5z"/>
	<path class="st2" d="M593.6,152c-2,2-4.1,4-6.5,6.3c-0.8-3.2-1.5-6.5-2.4-9.7c-1-3.3-2.3-6.5-3.4-9.7c1.6-1.5,3.1-2.9,4.8-4.5
		c-0.2-1-0.4-2.1-0.6-3.2c2.3-0.8,2.9-0.7,3.1,1c0.2,1.4,0,2.9,0,4.7c-1.3-0.2-2.1-0.3-3.5-0.5c1.5,1.8-2.3,3.9,1.1,5.6
		c0.5-0.9,0.9-1.6,1.4-2.4C589.5,143.6,591.5,147.7,593.6,152z"/>
	<path class="st2" d="M588.2,108.5c2.1,2,4.1,3.9,6.6,6.3c-2.3,1.9-4.5,3.8-6.7,5.5c-1.4,1.1-3.1,1.9-4.2,3.3
		c-1.6,2-2.9,4.3-2.3,7.2c-1,0.1-1.9,0.2-2.6,0.3C576.8,128.5,583.3,113,588.2,108.5z"/>
	<path class="st2" d="M607.1,169.3c-6.1-1.4-11.5-3.7-16.1-8.3c1.9-2,3.8-4,5.6-5.9c3.5,2.1,6.9,4.1,10.6,6.2
		C606.4,163.7,604,166.4,607.1,169.3z"/>
	<path class="st2" d="M611.1,156.6c-3.8-0.6-7.4-2.3-10.9-5.2c2.2-1.8,4.3-3.5,6.4-5.2c1.9,0.8,4.4,1.9,7.2,3.1c0,1,0,2.2,0,3.4
		C613,153.9,612.1,155.2,611.1,156.6z"/>
	<path class="st2" d="M651.2,122.9c-1.3-1.5-2.5-3.2-4.6-2.2c-1.4-1.5-2.4-3.4-4-4.2c-1.6-0.8-3.8-0.6-6.6-0.9
		c2.7-2.8,4.9-5.1,7.3-7.7c1.9,2.7,5.4,4.2,3.4,8.3c2.4,1.8,5.1,3.3,5.2,6.6c0,1.1-0.6,2.3-0.9,3.4c-0.3-0.1-0.6-0.2-1-0.3
		C650.5,125.1,650.8,124,651.2,122.9z"/>
	<path class="st2" d="M617.9,109.5c4.8,0.4,8.6,2.1,12,4.2c-0.2,1.4-0.3,2.5-0.5,3.7c-1.5,1.3-3,2.6-4.8,4.1c-0.8-0.5-1.7-1-2.8-1.6
		c1.8-1.6,3.9-3,2.2-6c-1.1,0.7-2,1.3-3,1.8c-1.8,0.9-2.9,0.3-3.1-1.7C617.8,112.7,617.9,111.3,617.9,109.5z"/>
	<path class="st2" d="M600,115.6c3.7-3.6,8-5.4,13.1-5.9c0,2.2,0,4.1,0,6.3c-1-0.1-2-0.2-3-0.2c-0.2,0.2-0.3,0.3-0.5,0.5
		c-0.7,0.9-1.3,2.6-2,2.6c-1.6,0.1-3.4-0.4-4.9-1C601.9,117.5,601.2,116.6,600,115.6z"/>
	<path class="st2" d="M641.4,156.8c0.4-1.3,0.8-2.7,1-4c0.2-1.1,0.2-2.3-0.1-3.4c-0.6-2.5-0.6-2.8,2-3.5c2.1-0.6,4.2-0.9,6.8-1.5
		c-1.2,5.1-3.4,8.9-6.5,12.3c-0.6-0.5-1.2-0.8-1.8-1.3C642.5,156,641.9,156.3,641.4,156.8L641.4,156.8z"/>
	<path class="st2" d="M566.9,147.1c-0.6-3.7-1.2-7.4-1.9-11.5c3,0,5.5-0.1,8,0.1c0.5,0,1.1,0.7,1.3,1.3c0.1,0.4-0.2,1.1-0.6,1.4
		c-1.5,1.2-3.4,2.1-4.5,3.6c-1,1.4-1.2,3.4-1.7,5.1C567.3,147,567.1,147.1,566.9,147.1z"/>
	<path class="st2" d="M629.7,154.6c-0.7,0.8-1.3,1.7-2.2,2.4c-1.2,0.9-2.5,1.7-3.8,2.3c-0.6,0.3-1.8,0.3-2.3-0.1
		c-2-1.7-4.2-1.5-7.1-0.5c1.4-1.5,2.3-2.6,3.4-3.5c0.5-0.4,1.4-0.7,1.9-0.5c3.3,1.8,6.4,1,9.5-0.8
		C629.3,154.1,629.5,154.4,629.7,154.6z"/>
	<path class="st2" d="M624.5,183.3c-2.7,0.2-4.5,0.4-6.5,0.6c0-2.4,0-4.6,0-7.1c1-0.1,2-0.1,3.5-0.2
		C620.7,179.4,621.4,181.6,624.5,183.3z"/>
	<path class="st2" d="M644.2,163.6c1.9,2.5,3.6,4.8,5.6,7.3c-1.6,1.2-2.9,2.3-4.2,3.3c-1.6-0.8-1.1-1.7-0.5-2.6
		c1.7-2.6,1.7-2.7-0.9-4.5C642.8,166.2,642.4,165.4,644.2,163.6z"/>
	<path class="st2" d="M594,140c2,1.6,3.9,3.3,6.2,5.2c-1,1.1-1.8,2-2.8,3c-2.3-2.2-3.3-4.9-4.2-7.6C593.5,140.4,593.7,140.2,594,140
		z"/>
	<path class="st2" d="M652.5,140.5c-1.6-1.7-3.5-2.6-3.2-5c1.2,0,2.4,0,4,0C653,137.1,652.8,138.5,652.5,140.5z"/>
	<path class="st2" d="M641.4,156.7c-0.3,0.7-0.5,2-0.9,2c-1.6,0.3-3.4,0.5-5,0.2c-1.3-0.2-2.5-1.1-3.7-2c1.9,0.4,3.7,0.8,5.6,1.3
		C639.1,158.8,640.6,158.6,641.4,156.7C641.4,156.8,641.4,156.7,641.4,156.7z"/>
	<path class="st2" d="M600.8,135c0.5-0.6,1-1.6,1.6-1.8c1-0.3,2.1-0.1,2.4,1.8c-1.2,0.2-2.4,0.5-3.6,0.7
		C601,135.5,600.9,135.3,600.8,135z"/>
	<path class="st2" d="M653,127.4c0,1.4,0,2.3,0,3.8c-1-0.4-2.2-0.6-2.3-1C650.2,128.3,652.2,128.6,653,127.4z"/>
	<path class="st2" d="M579.4,139.3c-0.3-1.1-1-2.2,0-3.4C579.4,137.1,579.4,138.2,579.4,139.3z"/>
	<path class="st2" d="M631.2,145c0.4,0.5,0.8,1,1.1,1.6c-0.1,0.1-0.2,0.3-0.4,0.4c-0.5-0.4-1-0.8-1.5-1.2
		C630.7,145.6,630.9,145.3,631.2,145z"/>
</g>
</svg>
