<svg width="175" height="71" viewBox="0 0 175 71" xmlns="http://www.w3.org/2000/svg"><g fill="none" fill-rule="evenodd"><path d="M58.2 36.434h.004v3.177a2.725 2.725 0 0 1-.894 2.013 2.73 2.73 0 0 1 .894 2.022v18.745h-5.801v-18.74c.006-.764.33-1.49.893-2a2.725 2.725 0 0 1-.898-2.026v-3.19H58.2zm48.036 4.863c4.778 0 9.329 3.783 9.333 10.692v.08c0 6.903-4.476 10.687-9.333 10.687a7.845 7.845 0 0 1-6.389-3.088v8.875h-5.815V41.684h5.815v2.971c1.417-1.929 3.366-3.358 6.39-3.358zm26.875 3.167v.018-2.802h5.815v20.767h-5.815v-2.97c-1.417 1.924-3.366 3.353-6.389 3.353-4.782 0-9.333-3.779-9.333-10.687v-.075c0-6.913 4.472-10.692 9.333-10.692a7.845 7.845 0 0 1 6.39 3.088zm18.616 13.312c1.949 0 3.287-.85 4.704-2.19l3.38 3.47c-1.987 2.205-4.283 3.784-8.376 3.784a10.42 10.42 0 0 1-7.565-3.074 10.61 10.61 0 0 1-3.083-7.618v-.075a10.667 10.667 0 0 1 3.105-7.689 10.474 10.474 0 0 1 7.64-3.083c3.866 0 6.274 1.313 8.186 3.471l-3.556 3.858c-1.3-1.387-2.602-2.274-4.667-2.274-2.907 0-4.972 2.587-4.972 5.633v.08c0 3.162 2.028 5.707 5.204 5.707zm15.481-16.092h4.82v5.027h-4.82v15.657h-5.814V43.656a2.73 2.73 0 0 1 .898-2 2.725 2.725 0 0 1-.898-2.022v-3.237h5.814v5.287zm-82.347-.397c4.329 0 6.926 2.62 6.921 7.605v13.476h-5.814V50.826c0-2.775-1.218-4.204-3.403-4.204s-3.523 1.401-3.523 4.204v11.537h-5.82V50.821c0-2.775-1.222-4.204-3.403-4.204-1.972 0-3.245 1.182-3.472 3.457v12.303h-5.893V41.69h5.88v2.868c1.351-1.719 3.106-3.27 6.018-3.27 2.676 0 4.704 1.187 5.778 3.27 1.796-2.111 3.953-3.27 6.731-3.27zM58.2 8.693v3.195a2.725 2.725 0 0 1-.893 2.013c.568.516.893 1.251.893 2.023v18.703h-5.8V15.882a2.72 2.72 0 0 1 .893-1.976 2.734 2.734 0 0 1-.894-2.028V8.693H58.2zm14.079 4.853c4.398 0 6.958 2.957 6.958 7.703v13.396h-5.815V23.103c0-2.775-1.3-4.204-3.518-4.204s-3.634 1.43-3.634 4.204v11.542h-5.815V13.957h5.805v2.91c1.352-1.737 3.074-3.32 6.019-3.32zm18.36 8.59c2.88.967 6.2 2.354 6.181 6.124v.08c0 4.596-3.407 6.679-7.842 6.679a14.272 14.272 0 0 1-8.796-3.125l2.486-3.858c2.236 1.62 4.57 2.47 6.481 2.47 1.685 0 2.45-.611 2.45-1.545v-.09c0-1.274-1.987-1.7-4.246-2.395-2.875-.85-6.116-2.196-6.116-6.208v-.08c0-4.204 3.366-6.54 7.495-6.54 2.726.041 5.382.871 7.653 2.392l-2.217 4.055c-2.037-1.2-4.065-1.93-5.556-1.93-1.417 0-2.139.617-2.139 1.425v.08c0 1.154 1.95 1.695 4.167 2.466zm31.089-5.857v-2.705h5.792v16.04c0 7.796-3.825 11.477-11.44 11.477-3.15.031-6.262-.711-9.065-2.162l1.99-4.4a13.289 13.289 0 0 0 6.945 1.868c4 0 5.852-2.48 5.852-6.185v-1.004c-1.722 2.083-3.597 3.359-6.695 3.359-4.782 0-9.101-3.513-9.101-9.65v-.076c0-6.175 4.398-9.65 9.101-9.65 3.176 0 5.051 1.355 6.62 3.088zm20.023-2.733c4.398 0 6.963 2.957 6.963 7.703v13.396h-5.815V23.103c0-2.775-1.3-4.204-3.518-4.204s-3.635 1.43-3.635 4.204v11.538h-5.814V8.655h5.8v8.212c1.352-1.737 3.075-3.32 6.019-3.32zm-43.218.378h5.834v20.721h-5.834v-20.72zm68.181 16.27v-.01h8.074v4.447h-15.444v-2.658c0-.914.42-1.777 1.138-2.335l.047-.042 6.11-4.709c1.811-1.4 2.848-2.499 2.848-3.736 0-1.238-.866-2-2.176-2s-2.68.963-4.208 2.728l-6.158-5.334V34.64h-5.824V15.92a2.73 2.73 0 0 1 .894-2 2.739 2.739 0 0 1-.894-2.027V8.67h5.824v5.25h4.815v2.603a8.456 8.456 0 0 1 5.917-2.215c4.264 0 6.903 2.836 6.903 6.573v.051c0 3.162-1.62 4.788-4.519 6.9l-3.347 2.363zm-56.958 21.874v-.08c0-3.432-2.297-5.712-5.014-5.712-2.718 0-4.972 2.28-4.972 5.713v.08c0 3.432 2.273 5.707 4.972 5.707 2.699 0 5.014-2.237 5.014-5.708zm23.43.075v-.075c0-3.438-2.273-5.712-4.972-5.712-2.7 0-5.014 2.237-5.014 5.712v.075c0 3.433 2.296 5.708 5.014 5.708 2.718 0 4.972-2.275 4.972-5.708zm-11.384-29.227v-.079c0-2.812-2.18-4.783-5.014-4.783-2.833 0-4.972 1.98-4.972 4.783v.08c0 2.858 2.139 4.787 4.972 4.787 2.833 0 5.014-1.985 5.014-4.788z" fill="#FFF"/><path d="M42.329 27.29a6.524 6.524 0 0 1 2.125 4.826v16.199c-.02 12.374-9.958 22.4-22.223 22.421C9.966 70.718.027 60.69.01 48.315h.033c-.037-.364-.037-.724-.037-1.046v-15.2a6.523 6.523 0 0 1 2.134-4.778A6.523 6.523 0 0 1 0 22.456v-.023C0 10.043 9.954 0 22.234 0c12.28 0 22.234 10.043 22.234 22.433v.051a6.514 6.514 0 0 1-2.14 4.807zM22.24 66.762c10.098-.013 18.28-8.272 18.287-18.46V22.428c.149-6.69-3.303-12.939-9.023-16.328a18.152 18.152 0 0 0-18.529 0c-5.719 3.39-9.172 9.637-9.022 16.328V48.31c.01 10.186 8.191 18.44 18.287 18.451zm14.12-34.645c0 7.38-.01 16.176-.01 16.176-.007 7.866-6.323 14.243-14.12 14.256-7.794-.01-14.11-6.383-14.12-14.247V32.144v-.028a6.523 6.523 0 0 1 2.148-4.825 6.523 6.523 0 0 1-2.139-4.835v-.093C8.334 14.636 14.614 8.49 22.275 8.51c7.66.019 13.91 6.195 14.086 13.923v.01a6.519 6.519 0 0 1-2.139 4.834 6.528 6.528 0 0 1 2.14 4.839zm-14.12 22.673v.019c3.542-.018 6.408-2.914 6.421-6.488V32.116a6.509 6.509 0 0 0-2.162-4.84 6.541 6.541 0 0 0 1.738-7.169 6.446 6.446 0 0 0-6.023-4.19 6.446 6.446 0 0 0-6.023 4.19 6.541 6.541 0 0 0 1.739 7.17 6.5 6.5 0 0 0-2.13 4.82v16.2c.01 3.583 2.888 6.484 6.44 6.492z" fill="#F9D031"/></g></svg>