<?xml version="1.0" standalone="no"?>
<!DOCTYPE svg PUBLIC "-//W3C//DTD SVG 20010904//EN"
 "http://www.w3.org/TR/2001/REC-SVG-20010904/DTD/svg10.dtd">
<svg version="1.0" xmlns="http://www.w3.org/2000/svg"
 width="260.000000pt" height="260.000000pt" viewBox="0 0 260.000000 260.000000"
 preserveAspectRatio="xMidYMid meet">
<metadata>
Created by potrace 1.11, written by Peter Selinger 2001-2013
</metadata>
<g transform="translate(0.000000,260.000000) scale(0.100000,-0.100000)"
fill="#000000" stroke="none">
<path d="M1205 2504 c-11 -2 -44 -9 -74 -15 -167 -34 -350 -157 -450 -303 -77
-111 -126 -248 -137 -381 -7 -93 5 -150 41 -194 l25 -29 -32 -53 -33 -52 0
-371 c0 -355 1 -374 23 -449 95 -331 372 -552 702 -563 176 -5 310 32 450 127
141 95 243 231 300 398 33 99 35 126 35 502 l0 356 -33 53 c-33 52 -33 53 -14
74 42 46 52 84 48 179 -14 350 -277 652 -623 715 -54 9 -193 13 -228 6z m240
-138 c160 -39 294 -133 385 -266 45 -67 66 -113 91 -200 16 -60 18 -110 16
-620 l-2 -555 -28 -79 c-27 -75 -90 -183 -139 -237 -82 -88 -210 -159 -337
-184 -342 -70 -676 160 -740 508 -7 37 -10 251 -10 575 0 479 2 523 20 592 21
83 39 125 78 185 94 145 240 247 401 281 60 12 215 13 265 0z"/>
<path d="M1157 2185 c-189 -63 -314 -219 -334 -416 -6 -64 6 -110 43 -164 l24
-36 -24 -32 c-13 -18 -28 -47 -35 -66 -15 -45 -15 -640 0 -713 44 -216 250
-387 466 -388 231 0 435 164 482 388 15 73 15 667 0 713 -7 19 -22 48 -35 66
l-24 32 24 36 c37 54 49 100 43 164 -15 157 -103 295 -242 377 -109 63 -268
80 -388 39z m228 -245 c112 -50 164 -177 116 -286 -12 -26 -29 -56 -37 -66
-15 -15 -14 -20 8 -50 47 -64 47 -71 47 -410 -1 -287 -3 -327 -19 -363 -47
-107 -159 -157 -269 -120 -59 19 -121 82 -139 142 -15 50 -15 640 0 686 6 18
21 46 34 64 l24 32 -25 37 c-105 154 -2 355 180 352 22 0 58 -8 80 -18z"/>
</g>
</svg>
