<svg width="24" height="27" viewBox="0 0 24 27" xmlns="http://www.w3.org/2000/svg"><title>Shape</title><path d="M13.285 26.899c5.52-.606 9.943-4.932 10.572-10.343.826-7.075-4.783-13.098-11.814-13.175V.207c0-.176-.225-.27-.377-.16L5 4.847a.199.199 0 0 0 0 .325l6.666 4.8c.152.11.377.01.377-.16V6.642c4.94.077 8.897 4.199 8.56 9.125-.287 4.237-3.811 7.676-8.133 7.946-4.581.286-8.476-2.92-9.173-7.164-.13-.787-.832-1.36-1.641-1.36-1.006 0-1.793.876-1.636 1.85.978 6.046 6.672 10.58 13.265 9.859z" fill="#2F939C" fill-rule="evenodd"/></svg>