<svg width="7" height="12" viewBox="0 0 7 12" xmlns="http://www.w3.org/2000/svg"><path d="M6.737.002L5.057 0C3.173 0 1.953 1.16 1.953 2.953v1.362H.264c-.146 0-.264.11-.264.244v1.974c0 .134.118.244.264.244h1.688v4.979c0 .134.119.244.264.244h2.202c.146 0 .265-.11.265-.244V6.777h1.974c.146 0 .264-.11.264-.244V4.559a.238.238 0 0 0-.077-.173.275.275 0 0 0-.187-.07H4.683V3.16c0-.555.143-.837.922-.837h1.131c.146 0 .264-.11.264-.245V.247c0-.135-.118-.244-.263-.245z" fill="#001D22" fill-rule="evenodd"/></svg>
