<svg width="14" height="12" viewBox="0 0 14 12" xmlns="http://www.w3.org/2000/svg"><path d="M11.789.956A2.799 2.799 0 0 0 9.692 0c-1.585 0-2.87 1.356-2.87 3.03 0 .237.024.467.073.69C4.508 3.592 2.392 2.387.975.552c-.248.449-.39.97-.39 1.525 0 1.05.508 1.977 1.279 2.52a2.761 2.761 0 0 1-1.302-.377v.037c0 1.468.99 2.693 2.305 2.97a2.724 2.724 0 0 1-1.297.053c.365 1.204 1.425 2.08 2.682 2.103A5.575 5.575 0 0 1 0 10.64 7.838 7.838 0 0 0 4.403 12c5.284 0 8.172-4.615 8.172-8.619 0-.132-.002-.263-.007-.392A5.995 5.995 0 0 0 14 1.42a5.506 5.506 0 0 1-1.65.476A3.013 3.013 0 0 0 13.615.222a5.555 5.555 0 0 1-1.825.734z" fill="#001D22" fill-rule="evenodd"/></svg>
