<?xml version="1.0" encoding="utf-8"?>
<!-- Generator: Adobe Illustrator 22.0.1, SVG Export Plug-In . SVG Version: 6.00 Build 0)  -->
<svg version="1.1" id="Layer_1" xmlns="http://www.w3.org/2000/svg" xmlns:xlink="http://www.w3.org/1999/xlink" x="0px" y="0px"
	 viewBox="0 0 1000 200" style="enable-background:new 0 0 1000 200;" xml:space="preserve">
<style type="text/css">
	.st0{fill:#FFFFFF;}
	.st1{fill:none;stroke:#FFFFFF;stroke-width:1.515;}
</style>
<path class="st0" d="M350.9,56.3v-28h-84.5h-45.1l-12.9,93.5l-12.9-93.5h-46.3h-95v28h26.4v115.5h31.8v-55.4h27.8V89.8h-27.8V56.3
	h35.8l-3.2,104.8c9.6-2.7,19.9-4.9,30.7-6.4V65.9l14.4,87.2c11.6-0.8,23.7-0.8,36.3,0.5L241,65.9v89.7c10,1.7,20.3,4.3,30.8,7.8
	l-3.3-107.1h24.3v115.5h31.7V56.3H350.9z"/>
<line class="st1" x1="403.3" y1="4" x2="403.3" y2="196.1"/>
<g>
	<path class="st0" d="M488.5,177.2c-1.3,0.7-4.3,1.4-8.1,1.4c-9.9,0-16-6.2-16-15.8c0-10.3,7.2-16.6,16.7-16.6
		c3.8,0,6.5,0.8,7.6,1.4l-1.3,4.6c-1.5-0.7-3.5-1.2-6.1-1.2c-6.4,0-11,4-11,11.5c0,6.9,4,11.3,10.9,11.3c2.3,0,4.7-0.5,6.2-1.2
		L488.5,177.2z"/>
</g>
<g>
	<path class="st0" d="M514,166.6c0,8.3-5.9,12-11.6,12c-6.4,0-11.3-4.4-11.3-11.7c0-7.4,4.9-12,11.7-12
		C509.5,155,514,159.7,514,166.6z M497,166.8c0,4.4,2.1,7.7,5.6,7.7c3.3,0,5.5-3.2,5.5-7.8c0-3.5-1.6-7.6-5.5-7.6
		C498.6,159.2,497,163.1,497,166.8z"/>
	<path class="st0" d="M518.7,162.2c0-2.6,0-4.8-0.2-6.7h5l0.3,3.4h0.1c1-1.8,3.4-3.9,7.2-3.9c4,0,8,2.6,8,9.7v13.4h-5.7v-12.8
		c0-3.3-1.2-5.7-4.3-5.7c-2.3,0-3.9,1.6-4.5,3.3c-0.2,0.5-0.2,1.2-0.2,1.9v13.3h-5.8V162.2z"/>
	<path class="st0" d="M545,172.9c1.3,0.8,3.8,1.6,5.8,1.6c2.5,0,3.6-1,3.6-2.5c0-1.5-0.9-2.3-3.7-3.3c-4.4-1.5-6.3-4-6.2-6.6
		c0-4,3.3-7.1,8.6-7.1c2.5,0,4.7,0.7,6,1.3l-1.1,4c-1-0.6-2.8-1.3-4.8-1.3c-2,0-3.2,1-3.2,2.4c0,1.4,1.1,2.1,4,3.2
		c4.1,1.5,6,3.6,6,6.9c0,4.1-3.2,7.1-9.2,7.1c-2.7,0-5.2-0.7-6.9-1.6L545,172.9z"/>
	<path class="st0" d="M585,171.3c0,2.7,0.1,4.9,0.2,6.8h-5l-0.3-3.4h-0.1c-1,1.6-3.2,4-7.3,4c-4.1,0-7.9-2.5-7.9-9.9v-13.3h5.7v12.3
		c0,3.8,1.2,6.2,4.2,6.2c2.3,0,3.8-1.6,4.4-3.1c0.2-0.5,0.3-1.1,0.3-1.8v-13.7h5.7V171.3z"/>
	<path class="st0" d="M591.2,162.2c0-2.6,0-4.8-0.2-6.7h4.9l0.2,3.3h0.1c1.1-1.8,3.2-3.9,7-3.9c3,0,5.3,1.7,6.3,4.2h0.1
		c0.8-1.3,1.7-2.2,2.8-2.8c1.3-0.9,2.7-1.3,4.6-1.3c3.8,0,7.6,2.6,7.6,9.8v13.3H619v-12.5c0-3.8-1.3-6-4-6c-2,0-3.4,1.4-4,3
		c-0.1,0.6-0.3,1.3-0.3,1.9v13.6h-5.6V165c0-3.2-1.3-5.4-3.9-5.4c-2.1,0-3.6,1.7-4.1,3.3c-0.2,0.6-0.3,1.2-0.3,1.9v13.4h-5.6V162.2z
		"/>
	<path class="st0" d="M634.6,168.4c0.1,4.1,3.3,5.9,7,5.9c2.6,0,4.6-0.4,6.3-1l0.8,4c-2,0.8-4.6,1.4-7.9,1.4
		c-7.3,0-11.7-4.5-11.7-11.4c0-6.3,3.8-12.2,11.1-12.2c7.3,0,9.8,6,9.8,11c0,1.1-0.1,1.9-0.2,2.4H634.6z M644.6,164.4
		c0-2.1-0.9-5.5-4.7-5.5c-3.5,0-5,3.2-5.3,5.5H644.6z"/>
	<path class="st0" d="M654.6,162.8c0-3.1,0-5.3-0.2-7.3h5l0.2,4.3h0.2c1.1-3.2,3.8-4.8,6.2-4.8c0.6,0,0.9,0,1.3,0.1v5.4
		c-0.5-0.1-1-0.2-1.7-0.2c-2.7,0-4.6,1.8-5.1,4.3c-0.1,0.5-0.2,1.1-0.2,1.8v11.7h-5.7V162.8z"/>
</g>
<path class="st0" d="M725.6,72.5c-15.8,0-28.5,12.8-28.5,28.5c0,15.8,12.8,28.5,28.5,28.5c15.8,0,28.5-12.8,28.5-28.5
	C754.1,85.3,741.3,72.5,725.6,72.5 M725.6,118c-9.4,0-17-7.6-17-17c0-9.4,7.6-17,17-17c9.4,0,17,7.6,17,17
	C742.5,110.4,734.9,118,725.6,118"/>
<rect x="688.8" y="124.2" transform="matrix(0.6056 -0.7958 0.7958 0.6056 174.3022 612.9651)" class="st0" width="33.4" height="12.9"/>
<polygon class="st0" points="462.8,55.8 502.6,55.8 502.6,66.2 475.4,66.2 475.4,85.2 500.8,85.2 500.8,95.6 475.4,95.6 
	475.4,124.9 462.8,124.9 "/>
<path class="st0" d="M525.6,61.1c0,3.8-2.8,6.8-7.2,6.8c-4.2,0-7-3-7-6.8c0-3.9,2.9-6.9,7.1-6.9C522.8,54.2,525.5,57.2,525.6,61.1
	 M512.2,75h12.7v49.9h-12.7V75z"/>
<path class="st0" d="M538.4,89.9c0-5.7-0.1-10.6-0.4-14.9H549l0.6,7.5h0.3c2.1-3.9,7.6-8.6,15.9-8.6c8.7,0,17.7,5.6,17.7,21.4v29.6
	H571V96.7c0-7.2-2.7-12.6-9.5-12.6c-5,0-8.5,3.6-9.8,7.4c-0.4,1.1-0.5,2.7-0.5,4.1v29.3h-12.7V89.9z"/>
<path class="st0" d="M597.2,111.2c4.1,2.4,10.2,4.4,16.7,4.4c8.1,0,12.6-3.8,12.6-9.4c0-5.2-3.5-8.3-12.3-11.5
	c-11.4-4.1-18.6-10.1-18.6-20.1c0-11.3,9.4-19.9,24.4-19.9c7.5,0,13,1.6,16.6,3.5l-3.1,10.1c-2.5-1.3-7.3-3.3-13.7-3.3
	c-8,0-11.5,4.3-11.5,8.3c0,5.3,4,7.8,13.2,11.4c12,4.5,17.8,10.6,17.8,20.5c0,11.1-8.4,20.7-26.2,20.7c-7.3,0-14.9-2.1-18.6-4.3
	L597.2,111.2z"/>
<path class="st0" d="M687.4,123.4c-2.7,1.2-7.9,2.6-14.1,2.6c-15.6,0-25.7-9.9-25.7-25.4c0-15,10.2-26.6,27.8-26.6
	c4.6,0,9.3,1,12.2,2.4l-2.3,9.4c-2.1-0.9-5-1.9-9.5-1.9c-9.6,0-15.4,7.1-15.3,16.2c0,10.2,6.7,16.1,15.3,16.1c4.4,0,7.5-0.9,9.9-1.9
	L687.4,123.4z"/>
<path class="st0" d="M764.5,91.6c0-6.6-0.2-11.9-0.4-16.6h11.1l0.6,7.7h0.2c3.7-5.6,9.5-8.8,17.1-8.8c11.5,0,21,9.8,21,25.4
	c0,18-11.4,26.7-22.7,26.7c-6.2,0-11.5-2.7-14-6.7h-0.2v25.8h-12.6V91.6z M777.1,104c0,1.2,0.1,2.4,0.4,3.5
	c1.2,5.1,5.7,8.8,11.1,8.8c8,0,12.7-6.7,12.7-16.5c0-8.8-4.3-16-12.4-16c-5.2,0-10,3.8-11.3,9.3c-0.3,1-0.5,2.2-0.5,3.2V104z"/>
<path class="st0" d="M833.4,103.5c0.3,9,7.4,12.9,15.4,12.9c5.8,0,10-0.8,13.8-2.3l1.8,8.7c-4.3,1.7-10.2,3.1-17.4,3.1
	c-16.2,0-25.7-9.9-25.7-25.2c0-13.8,8.4-26.8,24.4-26.8c16.2,0,21.5,13.3,21.5,24.3c0,2.4-0.2,4.2-0.4,5.3H833.4z M855.3,94.7
	c0.1-4.6-1.9-12.2-10.3-12.2c-7.8,0-11.1,7.1-11.6,12.2H855.3z"/>
</svg>
