<?xml version="1.0" encoding="UTF-8"?>
<svg width="299px" height="71px" viewBox="0 0 299 71" version="1.1" xmlns="http://www.w3.org/2000/svg" xmlns:xlink="http://www.w3.org/1999/xlink">
    <!-- Generator: Sketch 60 (88103) - https://sketch.com -->
    <title>fmt-MSME</title>
    <desc>Created with Sketch.</desc>
    <g id="Phase-5" stroke="none" stroke-width="1" fill="none" fill-rule="evenodd">
        <g id="Data-SMME-Tanzania" transform="translate(-865.000000, -383.000000)">
            <g id="fmt-MSME" transform="translate(865.000000, 383.000000)">
                <path d="M109,19.1463415 L109,9 L61.388271,9 L56.6491405,42.8815331 L51.9100101,9 L0,9 L0,19.1463415 L9.69868554,19.1463415 L9.69868554,61 L21.3811931,61 L21.3811931,40.9247387 L31.5942029,40.9247387 L31.5942029,31.2857143 L21.3811931,31.2857143 L21.3811931,19.1463415 L34.5331985,19.1463415 L33.3576003,57.1226481 C36.884395,56.1442509 40.6683519,55.3470383 44.635996,54.8034843 L44.635996,22.6250871 L49.9261881,54.2236934 C54.1877317,53.9337979 58.6329626,53.9337979 63.2618807,54.404878 L68.6255477,22.6250871 L68.6255477,55.1296167 C72.2992922,55.7456446 76.0832491,56.6878049 79.9406808,57.9560976 L78.7283451,19.1463415 L87.6555443,19.1463415 L87.6555443,61 L99.3013145,61 L99.3013145,19.1463415 L109,19.1463415 Z" id="Path" fill="#FFFFFF" fill-rule="nonzero"></path>
                <line x1="128" y1="0" x2="128" y2="71" id="Path" stroke="#FFFFFF" stroke-width="1.515"></line>
                <path d="M247.5,25 C241.678947,25 237,29.7157895 237,35.5 C237,41.3210526 241.715789,46 247.5,46 C253.321053,46 258,41.2842105 258,35.5 C258,29.7157895 253.284211,25 247.5,25 M247.5,41.7631579 C244.036842,41.7631579 241.236842,38.9631579 241.236842,35.5 C241.236842,32.0368421 244.036842,29.2368421 247.5,29.2368421 C250.963158,29.2368421 253.763158,32.0368421 253.763158,35.5 C253.726316,38.9631579 250.926316,41.7631579 247.5,41.7631579" id="Shape" fill="#FFFFFF" fill-rule="nonzero"></path>
                <polygon id="Path" fill="#FFFFFF" fill-rule="nonzero" points="234 50.0523256 241.285246 40 245 42.9476744 237.714754 53"></polygon>
                <path d="M150,18.5984598 L164.664194,18.5984598 L164.664194,22.4884488 L154.642433,22.4884488 L154.642433,29.5951595 L164.000989,29.5951595 L164.000989,33.4851485 L154.642433,33.4851485 L154.642433,44.4444444 L150,44.4444444 L150,18.5984598 Z M173.138477,20.5808581 C173.138477,22.0022002 172.106825,23.1243124 170.485658,23.1243124 C168.93818,23.1243124 167.906528,22.0022002 167.906528,20.5808581 C167.906528,19.1221122 168.975025,18 170.522502,18 C172.106825,18 173.101632,19.1221122 173.138477,20.5808581 M168.201286,25.779978 L172.880564,25.779978 L172.880564,44.4444444 L168.201286,44.4444444 L168.201286,25.779978 Z M177.854599,31.3531353 C177.854599,29.2211221 177.817755,27.3883388 177.707221,25.779978 L181.760138,25.779978 L181.981207,28.5852585 L182.091741,28.5852585 C182.86548,27.1265127 184.891939,25.3685369 187.950049,25.3685369 C191.155539,25.3685369 194.471563,27.4631463 194.471563,33.3729373 L194.471563,44.4444444 L189.865974,44.4444444 L189.865974,33.8965897 C189.865974,31.2035204 188.871167,29.1837184 186.365727,29.1837184 C184.523492,29.1837184 183.233927,30.530253 182.754946,31.9515952 C182.607567,32.3630363 182.570722,32.9614961 182.570722,33.4851485 L182.570722,44.4444444 L177.891444,44.4444444 L177.854599,31.3531353 L177.854599,31.3531353 Z M199.519288,39.320132 C201.029921,40.2178218 203.277448,40.9658966 205.672354,40.9658966 C208.656775,40.9658966 210.314787,39.5445545 210.314787,37.449945 C210.314787,35.5049505 209.025223,34.3454345 205.782888,33.1485149 C201.582591,31.6149615 198.929773,29.3707371 198.929773,25.630363 C198.929773,21.4037404 202.393175,18.1870187 207.919881,18.1870187 C210.683234,18.1870187 212.709693,18.7854785 214.036103,19.4961496 L212.893917,23.2739274 C211.972799,22.7876788 210.204253,22.039604 207.846192,22.039604 C204.898615,22.039604 203.60905,23.6479648 203.60905,25.1441144 C203.60905,27.1265127 205.082839,28.0616062 208.472552,29.4081408 C212.893917,31.0913091 215.03091,33.3729373 215.03091,37.0759076 C215.03091,41.2277228 211.935955,44.8184818 205.377596,44.8184818 C202.687933,44.8184818 199.887735,44.0330033 198.524481,43.210121 C198.524481,43.210121 199.519288,39.320132 199.519288,39.320132 Z M232.753215,43.8833883 C231.758408,44.3322332 229.842483,44.8558856 227.558111,44.8558856 C221.810336,44.8558856 218.089021,41.1529153 218.089021,35.3553355 C218.089021,29.7447745 221.847181,25.4059406 228.33185,25.4059406 C230.026706,25.4059406 231.758408,25.779978 232.826904,26.3036304 L231.979476,29.819582 C231.205737,29.4829483 230.13724,29.1089109 228.479228,29.1089109 C224.942136,29.1089109 222.805143,31.7645765 222.841988,35.1683168 C222.841988,38.9834983 225.310584,41.190319 228.479228,41.190319 C230.100396,41.190319 231.242582,40.8536854 232.126855,40.479648 L232.753215,43.8833883 L232.753215,43.8833883 Z M261.160485,31.9889989 C261.160485,29.520352 261.086795,27.5379538 261.013106,25.779978 L265.102868,25.779978 L265.323937,28.660066 L265.397626,28.660066 C266.76088,26.5654565 268.897873,25.3685369 271.698071,25.3685369 C275.935213,25.3685369 279.43546,29.0341034 279.43546,34.8690869 C279.43546,41.6017602 275.235163,44.8558856 271.071711,44.8558856 C268.787339,44.8558856 266.83457,43.8459846 265.913452,42.349835 L265.839763,42.349835 L265.839763,52 L261.197329,52 L261.160485,31.9889989 L261.160485,31.9889989 Z M265.802918,36.6270627 C265.802918,37.0759076 265.839763,37.5247525 265.950297,37.9361936 C266.392433,39.8437844 268.050445,41.2277228 270.040059,41.2277228 C272.987636,41.2277228 274.719337,38.7216722 274.719337,35.0561056 C274.719337,31.7645765 273.135015,29.0715072 270.150593,29.0715072 C268.234669,29.0715072 266.466123,30.4928493 265.987141,32.550055 C265.876607,32.9240924 265.802918,33.3729373 265.802918,33.7469747 L265.802918,36.6270627 L265.802918,36.6270627 Z M286.546489,36.440044 C286.657023,39.8063806 289.272997,41.2651265 292.220574,41.2651265 C294.357567,41.2651265 295.905045,40.9658966 297.305143,40.4048405 L297.968348,43.6589659 C296.384026,44.2948295 294.210188,44.8184818 291.557369,44.8184818 C285.588526,44.8184818 282.088279,41.1155116 282.088279,35.3927393 C282.088279,30.2310231 285.183234,25.3685369 291.078388,25.3685369 C297.04723,25.3685369 299,30.3432343 299,34.4576458 C299,35.3553355 298.926311,36.0286029 298.852621,36.440044 L286.546489,36.440044 L286.546489,36.440044 Z M294.61548,33.1485149 C294.652324,31.4279428 293.91543,28.5852585 290.820475,28.5852585 C287.946588,28.5852585 286.730712,31.2409241 286.546489,33.1485149 L294.61548,33.1485149 L294.61548,33.1485149 Z" id="Shape" fill="#FFFFFF" fill-rule="nonzero"></path>
                <g id="Group" transform="translate(150.000000, 52.000000)" fill="#FCFCFC" fill-rule="nonzero">
                    <path d="M14.6955801,10.4170213 C14.621547,8.42765957 14.5475138,6.04042553 14.5475138,3.65319149 L14.4364641,3.65319149 C13.918232,5.75106383 13.2149171,8.10212766 12.5486188,10.0191489 L10.5127072,16.4212766 L7.55138122,16.4212766 L5.73756906,10.0553191 C5.18232044,8.13829787 4.62707182,5.78723404 4.2198895,3.65319149 L4.18287293,3.65319149 C4.0718232,5.85957447 3.99779006,8.39148936 3.88674033,10.4531915 L3.59060773,16.6744681 L0.0740331492,16.6744681 L1.14751381,0.253191489 L6.21878453,0.253191489 L7.84751381,5.75106383 C8.36574586,7.66808511 8.8839779,9.69361702 9.25414365,11.6106383 L9.3281768,11.6106383 C9.80939227,9.69361702 10.3646409,7.52340426 10.9198895,5.71489362 L12.7337017,0.253191489 L17.6939227,0.253191489 L18.619337,16.6744681 L14.9176796,16.6744681 L14.6955801,10.4170213 Z" id="Path"></path>
                    <path d="M21.6917127,12.8765957 C22.7281768,13.3829787 24.2828729,13.8893617 25.9116022,13.8893617 C27.6513812,13.8893617 28.5767956,13.1659574 28.5767956,12.1170213 C28.5767956,11.1042553 27.7624309,10.5255319 25.7635359,9.80212766 C22.9872928,8.86170213 21.1364641,7.34255319 21.1364641,4.95531915 C21.1364641,2.17021277 23.5425414,0 27.5033149,0 C29.3911602,0 30.7977901,0.39787234 31.7972376,0.831914894 L30.9458564,3.83404255 C30.279558,3.50851064 29.058011,3.03829787 27.4292818,3.03829787 C25.8005525,3.03829787 24.9861878,3.76170213 24.9861878,4.62978723 C24.9861878,5.6787234 25.9486188,6.14893617 28.0955801,6.94468085 C31.0569061,8.02978723 32.4635359,9.51276596 32.4635359,11.8276596 C32.4635359,14.5765957 30.279558,16.9276596 25.6895028,16.9276596 C23.7646409,16.9276596 21.8767956,16.4574468 20.9143646,15.9148936 L21.6917127,12.8765957 Z" id="Path"></path>
                    <path d="M49.2320442,10.4170213 C49.158011,8.42765957 49.0839779,6.04042553 49.0839779,3.65319149 L49.0099448,3.65319149 C48.4917127,5.75106383 47.7883978,8.10212766 47.1220994,10.0191489 L45.0861878,16.4212766 L42.1248619,16.4212766 L40.3110497,10.0553191 C39.7558011,8.13829787 39.2005525,5.78723404 38.7933702,3.65319149 L38.7563536,3.65319149 C38.6453039,5.85957447 38.5712707,8.39148936 38.460221,10.4531915 L38.1640884,16.6744681 L34.6475138,16.6744681 L35.7209945,0.253191489 L40.7922652,0.253191489 L42.4209945,5.75106383 C42.9392265,7.66808511 43.4574586,9.69361702 43.8276243,11.6106383 L43.9016575,11.6106383 C44.3828729,9.69361702 44.9381215,7.52340426 45.4933702,5.71489362 L47.3071823,0.253191489 L52.2674033,0.253191489 L53.1928177,16.6744681 L49.4911602,16.6744681 L49.2320442,10.4170213 Z" id="Path"></path>
                    <polygon id="Path" points="66.1486188 9.76595745 59.9668508 9.76595745 59.9668508 13.6723404 66.8889503 13.6723404 66.8889503 16.7106383 56.1541436 16.7106383 56.1541436 0.289361702 66.5187845 0.289361702 66.5187845 3.32765957 59.9668508 3.32765957 59.9668508 6.72765957 66.1486188 6.72765957"></polygon>
                </g>
            </g>
        </g>
    </g>
</svg>