<?xml version="1.0" encoding="UTF-8"?>
<svg width="16px" height="16px" viewBox="0 0 16 16" version="1.1" xmlns="http://www.w3.org/2000/svg" xmlns:xlink="http://www.w3.org/1999/xlink">
    <!-- Generator: Sketch 54.1 (76490) - https://sketchapp.com -->
    <title>NationalSurveys</title>
    <desc>Created with Sketch.</desc>
    <g id="Page-1" stroke="none" stroke-width="1" fill="none" fill-rule="evenodd">
        <path d="M8,16 C3.581722,16 0,12.418278 0,8 C0,3.581722 3.581722,0 8,0 C12.418278,0 16,3.581722 16,8 C16,12.418278 12.418278,16 8,16 Z M7.994,2 C4.682,2 2,4.688 2,8 C2,11.312 4.682,14 7.994,14 C11.312,14 14,11.312 14,8 C14,4.688 11.312,2 7.994,2 Z M12.152,5.6 L10.382,5.6 C10.19,4.85 9.914,4.13 9.554,3.464 C10.658,3.842 11.576,4.61 12.152,5.6 Z M8,3.224 C8.498,3.944 8.888,4.742 9.146,5.6 L6.854,5.6 C7.112,4.742 7.502,3.944 8,3.224 Z M3.356,9.2 C3.26,8.816 3.2,8.414 3.2,8 C3.2,7.586 3.26,7.184 3.356,6.8 L5.384,6.8 C5.336,7.196 5.3,7.592 5.3,8 C5.3,8.408 5.336,8.804 5.384,9.2 L3.356,9.2 Z M3.848,10.4 L5.618,10.4 C5.81,11.15 6.086,11.87 6.446,12.536 C5.342,12.158 4.424,11.396 3.848,10.4 Z M5.618,5.6 L3.848,5.6 C4.424,4.604 5.342,3.842 6.446,3.464 C6.086,4.13 5.81,4.85 5.618,5.6 Z M8,12.776 C7.502,12.056 7.112,11.258 6.854,10.4 L9.146,10.4 C8.888,11.258 8.498,12.056 8,12.776 Z M9.404,9.2 L6.596,9.2 C6.542,8.804 6.5,8.408 6.5,8 C6.5,7.592 6.542,7.19 6.596,6.8 L9.404,6.8 C9.458,7.19 9.5,7.592 9.5,8 C9.5,8.408 9.458,8.804 9.404,9.2 Z M9.554,12.536 C9.914,11.87 10.19,11.15 10.382,10.4 L12.152,10.4 C11.576,11.39 10.658,12.158 9.554,12.536 Z M10.616,9.2 C10.664,8.804 10.7,8.408 10.7,8 C10.7,7.592 10.664,7.196 10.616,6.8 L12.644,6.8 C12.74,7.184 12.8,7.586 12.8,8 C12.8,8.414 12.74,8.816 12.644,9.2 L10.616,9.2 Z" id="NationalSurveys" fill="#000"></path>
    </g>
</svg>
