<?xml version="1.0" encoding="UTF-8"?>
<svg viewBox="0 0 24 24" version="1.1" xmlns="http://www.w3.org/2000/svg" xmlns:xlink="http://www.w3.org/1999/xlink">
    <!-- Generator: Sketch 54.1 (76490) - https://sketchapp.com -->
    <title>User</title>
    <desc>Created with Sketch.</desc>
    <g id="User" stroke="none" stroke-width="1" fill="none" fill-rule="evenodd">
        <path d="M15.7433893,13.68932 C18.2592144,14.680113 20,16.6487824 20,19 C20,19.8309095 20,19.8309095 20,21 L18,21 C18,19.8309095 18,19.8309095 18,19 C18,16.8771144 15.3720398,15 12,15 C8.62796016,15 6,16.8771144 6,19 L6,21 L4,21 L4,19 C4,16.6487824 5.74078561,14.680113 8.25661074,13.68932 C6.88112885,12.5898625 6,10.8978306 6,9 C6,5.6862915 8.6862915,3 12,3 C15.3137085,3 18,5.6862915 18,9 C18,10.8978306 17.1188712,12.5898625 15.7433893,13.68932 Z M12,13 C14.209139,13 16,11.209139 16,9 C16,6.790861 14.209139,5 12,5 C9.790861,5 8,6.790861 8,9 C8,11.209139 9.790861,13 12,13 Z" fill="#FFFFFF" fill-rule="nonzero"></path>
    </g>
</svg>
