<!-- Generated by IcoMoon.io -->
<svg version="1.1" xmlns="http://www.w3.org/2000/svg" width="32" height="32" viewBox="0 0 32 32">
<title>download</title>
<path d="M13.491 1.799l0.011-0.050v21.413l-6.746-6.731c-0.329-0.33-0.776-0.51-1.244-0.51s-0.911 0.181-1.242 0.51l-1.048 1.047c-0.329 0.329-0.511 0.768-0.511 1.236s0.181 0.907 0.51 1.237l11.538 11.539c0.331 0.331 0.771 0.511 1.24 0.51 0.471 0.001 0.912-0.18 1.242-0.51l11.539-11.539c0.329-0.329 0.51-0.768 0.51-1.237s-0.181-0.907-0.51-1.236l-1.048-1.047c-0.329-0.33-0.768-0.51-1.236-0.51s-0.884 0.181-1.213 0.51l-6.784 6.807v-21.463c0-0.964-0.831-1.775-1.795-1.775h-1.482c-0.964 0-1.73 0.834-1.73 1.799z"></path>
</svg>
