<!-- Generated by IcoMoon.io -->
<svg version="1.1" xmlns="http://www.w3.org/2000/svg" width="32" height="32" viewBox="0 0 32 32">
<title>icon-download</title>
<path fill="#2f939c" d="M14.118 5.349l0.008-0.037v16.060l-5.060-5.048c-0.247-0.247-0.582-0.383-0.933-0.383s-0.683 0.136-0.931 0.383l-0.786 0.785c-0.247 0.247-0.383 0.576-0.383 0.927s0.136 0.68 0.383 0.928l8.653 8.655c0.248 0.248 0.578 0.383 0.93 0.383 0.353 0.001 0.684-0.134 0.932-0.383l8.654-8.654c0.247-0.247 0.383-0.576 0.383-0.928s-0.136-0.68-0.383-0.927l-0.786-0.785c-0.247-0.247-0.576-0.383-0.927-0.383s-0.663 0.136-0.91 0.383l-5.088 5.105v-16.097c0-0.723-0.623-1.331-1.346-1.331h-1.112c-0.723 0-1.298 0.626-1.298 1.349z"></path>
</svg>
