<!-- Generated by IcoMoon.io -->
<svg version="1.1" xmlns="http://www.w3.org/2000/svg" width="26" height="32" viewBox="0 0 26 32">
<title>pin</title>
<path fill="#2f939c" d="M12.648 32c-0.305 0-0.61-0.152-0.914-0.305-0.457-0.457-11.733-9.448-11.733-19.048 0-7.162 5.486-12.648 12.648-12.648s12.648 5.486 12.648 12.648c0 9.6-11.276 18.59-11.733 19.048-0.305 0.152-0.61 0.305-0.914 0.305zM12.648 3.048c-5.333 0-9.6 4.267-9.6 9.6 0 6.552 7.010 13.562 9.6 15.848 2.59-2.286 9.6-9.143 9.6-15.848 0-5.333-4.267-9.6-9.6-9.6zM12.648 18.59c-3.352 0-5.943-2.743-5.943-5.943s2.743-5.943 5.943-5.943 5.943 2.743 5.943 5.943-2.59 5.943-5.943 5.943zM12.648 9.752c-1.676 0-2.895 1.371-2.895 2.895s1.371 2.895 2.895 2.895c1.676 0 2.895-1.371 2.895-2.895s-1.219-2.895-2.895-2.895z"></path>
</svg>
