<!-- Generated by IcoMoon.io -->
<svg version="1.1" xmlns="http://www.w3.org/2000/svg" width="39" height="32" viewBox="0 0 39 32">
<title>poligono</title>
<path d="M4.216 23.583l4.409-15.75 3.424 0.959-4.409 15.75-3.424-0.959z"></path>
<path d="M8.178 25.244h22.044v3.556h-22.044v-3.556z"></path>
<path d="M26.402 8.768l3.341-1.215 5.712 15.705-3.341 1.215-5.712-15.705z"></path>
<path d="M14.4 3.2h9.422v3.556h-9.422v-3.556z"></path>
<path d="M16.178 9.956h-9.778v-9.956h9.956l-0.178 9.956zM9.956 6.4h2.844v-2.844h-2.844v2.844z"></path>
<path d="M32 9.956h-9.956v-9.956h9.956v9.956zM25.6 6.4h2.844v-2.844h-2.844v2.844z"></path>
<path d="M38.4 32h-9.956v-9.956h9.956v9.956zM32 28.444h2.844v-2.844h-2.844v2.844z"></path>
<path d="M9.956 32h-9.956v-9.956h9.956v9.956zM3.556 28.444h2.844v-2.844h-2.844v2.844z"></path>
</svg>
