<!-- Generated by IcoMoon.io -->
<svg version="1.1" xmlns="http://www.w3.org/2000/svg" width="32" height="32" viewBox="0 0 32 32">
<title>settings</title>
<path d="M16 32c-8.889 0-16-7.111-16-16s7.111-16 16-16c8.889 0 16 7.111 16 16s-7.111 16-16 16zM16 1.778c-7.822 0-14.222 6.4-14.222 14.222s6.4 14.222 14.222 14.222 14.222-6.4 14.222-14.222-6.4-14.222-14.222-14.222z"></path>
<path d="M21.867 12.8l1.244-2.311-1.6-1.6-2.311 1.244c-0.356-0.178-0.711-0.356-1.244-0.356l-0.889-2.667h-2.133l-0.889 2.489c-0.356 0.178-0.889 0.356-1.244 0.533l-2.311-1.244-1.6 1.6 1.244 2.311c-0.178 0.356-0.356 0.889-0.533 1.244l-2.489 0.889v2.133l2.489 0.889c0.178 0.356 0.356 0.711 0.356 1.244l-1.067 2.311 1.6 1.6 2.311-1.244c0.356 0.178 0.711 0.356 1.244 0.356l0.889 2.667h2.133l0.889-2.489c0.356-0.178 0.711-0.356 1.244-0.356l2.311 1.244 1.6-1.6-1.244-2.311c0.178-0.356 0.356-0.711 0.356-1.244l2.667-1.067v-2.133l-2.489-0.889c-0.178-0.356-0.356-0.889-0.533-1.244zM16 19.378c-1.956 0-3.378-1.422-3.378-3.378s1.422-3.378 3.378-3.378 3.378 1.422 3.378 3.378-1.422 3.378-3.378 3.378z"></path>
</svg>
