<!-- Generated by IcoMoon.io -->
<svg version="1.1" xmlns="http://www.w3.org/2000/svg" width="28" height="32" viewBox="0 0 28 32">
<title>share</title>
<path d="M22 12c3.308 0 6-2.692 6-6s-2.692-6-6-6c-3.308 0-6 2.692-6 6 0 0.448 0.058 0.88 0.15 1.3l-6.438 4.022c-1.024-0.814-2.304-1.322-3.712-1.322-3.308 0-6 2.692-6 6s2.692 6 6 6c1.408 0 2.688-0.508 3.712-1.322l6.438 4.024c-0.092 0.418-0.15 0.85-0.15 1.298 0 3.308 2.692 6 6 6s6-2.692 6-6c0-3.308-2.692-6-6-6-1.408 0-2.686 0.508-3.712 1.322l-6.438-4.024c0.092-0.418 0.15-0.852 0.15-1.298 0-0.448-0.058-0.88-0.15-1.298l6.44-4.024c1.024 0.814 2.302 1.322 3.71 1.322zM22 4c1.102 0 2 0.896 2 2s-0.898 2-2 2c-1.102 0-2-0.896-2-2s0.898-2 2-2zM6 18c-1.102 0-2-0.896-2-2s0.898-2 2-2c1.102 0 2 0.896 2 2s-0.898 2-2 2zM22 24c1.102 0 2 0.896 2 2s-0.898 2-2 2c-1.102 0-2-0.896-2-2s0.898-2 2-2z"></path>
</svg>
