<svg aria-hidden="true" style="position: absolute; width: 0; height: 0; overflow: hidden;" version="1.1" xmlns="http://www.w3.org/2000/svg" xmlns:xlink="http://www.w3.org/1999/xlink">
  <defs>
    <symbol id="icon-search" viewBox="0 0 32 32">
      <title>search</title>
      <path d="M30.494 27.859l-5.835-5.835c1.694-2.259 2.635-4.894 2.635-7.906 0-7.341-5.835-13.176-13.176-13.176s-13.176 5.835-13.176 13.176c0 7.341 5.835 13.176 13.176 13.176 3.012 0 5.647-0.941 7.906-2.635l5.835 5.835c0.376 0.376 0.941 0.565 1.318 0.565s0.941-0.188 1.318-0.565c0.753-0.753 0.753-1.882 0-2.635zM4.706 14.118c0-5.271 4.141-9.412 9.412-9.412s9.412 4.141 9.412 9.412-4.141 9.412-9.412 9.412-9.412-4.141-9.412-9.412z"></path>
    </symbol>
    <symbol id="icon-map" viewBox="0 0 32 32">
      <title>map</title>
      <path d="M29.2 0.2l-9.2 3.6-7.2-3.6c-0.4-0.2-1-0.2-1.6 0l-10 4c-0.8 0.2-1.2 1-1.2 1.8v24c0 1.4 1.4 2.4 2.8 1.8l9.2-3.6 7.2 3.6c0.6 0.2 1 0.2 1.6 0l10-3.8c0.8-0.2 1.2-1 1.2-1.8v-24.2c0-1.4-1.4-2.4-2.8-1.8zM14 5.2l4 2v19.6l-4-2v-19.6zM4 7.4l6-2.4v19.6l-6 2.4v-19.6zM28 24.8l-6 2.2v-19.6l6-2.4v19.8z"></path>
    </symbol>
    <symbol id="icon-flag" viewBox="0 0 32 32">
      <title>flag</title>
      <path d="M14.2 31l-14-26c-0.4-1-0.2-2.2 0.8-2.8 1-0.4 2.2-0.2 2.8 0.8l14 26c0.4 1 0.2 2.2-0.8 2.8-1 0.4-2.2 0.2-2.8-0.8z"></path>
      <path d="M32 11.4c-5.6 5-12.4-1.2-16.6 6.2l-6.4-11.4c4.2-7.4 11-1.2 16.4-6.2l6.6 11.4z"></path>
    </symbol>
    <symbol id="icon-share" viewBox="0 0 28 32">
      <title>share</title>
      <path d="M22 12c3.308 0 6-2.692 6-6s-2.692-6-6-6c-3.308 0-6 2.692-6 6 0 0.448 0.058 0.88 0.15 1.3l-6.438 4.022c-1.024-0.814-2.304-1.322-3.712-1.322-3.308 0-6 2.692-6 6s2.692 6 6 6c1.408 0 2.688-0.508 3.712-1.322l6.438 4.024c-0.092 0.418-0.15 0.85-0.15 1.298 0 3.308 2.692 6 6 6s6-2.692 6-6c0-3.308-2.692-6-6-6-1.408 0-2.686 0.508-3.712 1.322l-6.438-4.024c0.092-0.418 0.15-0.852 0.15-1.298 0-0.448-0.058-0.88-0.15-1.298l6.44-4.024c1.024 0.814 2.302 1.322 3.71 1.322zM22 4c1.102 0 2 0.896 2 2s-0.898 2-2 2c-1.102 0-2-0.896-2-2s0.898-2 2-2zM6 18c-1.102 0-2-0.896-2-2s0.898-2 2-2c1.102 0 2 0.896 2 2s-0.898 2-2 2zM22 24c1.102 0 2 0.896 2 2s-0.898 2-2 2c-1.102 0-2-0.896-2-2s0.898-2 2-2z"></path>
    </symbol>
    <symbol id="icon-play" viewBox="0 0 32 32">
      <title>play</title>
      <path d="M13.305 11.116v9.768l7.916-4.884z"></path>
      <path d="M16 32c-8.758 0-16-7.242-16-16s7.242-16 16-16 16 7.242 16 16-7.242 16-16 16zM16 3.368c-6.905 0-12.632 5.726-12.632 12.632s5.726 12.632 12.632 12.632 12.632-5.726 12.632-12.632-5.726-12.632-12.632-12.632z"></path>
    </symbol>
    <symbol id="icon-settings" viewBox="0 0 32 32">
      <title>settings</title>
      <path d="M16 32c-8.889 0-16-7.111-16-16s7.111-16 16-16c8.889 0 16 7.111 16 16s-7.111 16-16 16zM16 1.778c-7.822 0-14.222 6.4-14.222 14.222s6.4 14.222 14.222 14.222 14.222-6.4 14.222-14.222-6.4-14.222-14.222-14.222z"></path>
      <path d="M21.867 12.8l1.244-2.311-1.6-1.6-2.311 1.244c-0.356-0.178-0.711-0.356-1.244-0.356l-0.889-2.667h-2.133l-0.889 2.489c-0.356 0.178-0.889 0.356-1.244 0.533l-2.311-1.244-1.6 1.6 1.244 2.311c-0.178 0.356-0.356 0.889-0.533 1.244l-2.489 0.889v2.133l2.489 0.889c0.178 0.356 0.356 0.711 0.356 1.244l-1.067 2.311 1.6 1.6 2.311-1.244c0.356 0.178 0.711 0.356 1.244 0.356l0.889 2.667h2.133l0.889-2.489c0.356-0.178 0.711-0.356 1.244-0.356l2.311 1.244 1.6-1.6-1.244-2.311c0.178-0.356 0.356-0.711 0.356-1.244l2.667-1.067v-2.133l-2.489-0.889c-0.178-0.356-0.356-0.889-0.533-1.244zM16 19.378c-1.956 0-3.378-1.422-3.378-3.378s1.422-3.378 3.378-3.378 3.378 1.422 3.378 3.378-1.422 3.378-3.378 3.378z"></path>
    </symbol>
    <symbol id="icon-info" viewBox="0 0 32 32">
      <title>info</title>
      <path d="M16 32c-8.889 0-16-7.111-16-16s7.111-16 16-16c8.889 0 16 7.111 16 16s-7.111 16-16 16zM16 1.778c-7.822 0-14.222 6.4-14.222 14.222s6.4 14.222 14.222 14.222 14.222-6.4 14.222-14.222-6.4-14.222-14.222-14.222z"></path>
      <path d="M17.778 10.844h-3.556v-3.733h3.556v3.733zM14.222 12.8h3.556v12.089h-3.556v-12.089z"></path>
    </symbol>
    <symbol id="icon-movelegend" viewBox="0 0 70 32">
      <title>movelegend</title>
      <path d="M0 0h70.4v6.4h-70.4v-6.4z"></path>
      <path d="M0 25.6h70.4v6.4h-70.4v-6.4z"></path>
    </symbol>
    <symbol id="icon-layersneeded" viewBox="0 0 37 32">
      <title>layersneeded</title>
      <path d="M36.752 20.376l-4.413-4.57c2.185-2.959 1.737-7.099-1.030-9.523s-6.93-2.323-9.576 0.232c-2.646 2.555-2.892 6.712-0.567 9.562s6.448 3.442 9.481 1.361l4.413 4.57 1.691-1.633zM20.794 11.525c0.057-3.245 2.733-5.83 5.978-5.773s5.83 2.733 5.773 5.978c-0.057 3.245-2.733 5.83-5.978 5.773-3.244-0.060-5.826-2.735-5.773-5.978z"></path>
      <path d="M2.641 6.247l18.225-4.883c0.325-0.087 0.659 0.106 0.747 0.431l6.209 23.171c0.087 0.325-0.106 0.659-0.431 0.747l-18.225 4.883c-0.325 0.087-0.659-0.106-0.746-0.431l-6.209-23.171c-0.087-0.325 0.106-0.659 0.431-0.747z"></path>
      <path d="M16.175 10.629c0.64 2.389-0.8 4.85-3.216 5.497s-4.894-0.764-5.534-3.153c-0.64-2.389 0.8-4.85 3.216-5.497s4.894 0.764 5.534 3.153z"></path>
      <path d="M11.8 11.801l1.288 4.806c-1.913 0.512-3.86-0.136-5.079-1.511l3.791-3.295z"></path>
      <path d="M9.862 21.712l12.935-3.466 0.262 0.978-12.935 3.466-0.262-0.978z"></path>
      <path d="M10.517 24.158l12.935-3.466 0.262 0.978-12.935 3.466-0.262-0.978z"></path>
    </symbol>
    <symbol id="icon-pin" viewBox="0 0 26 32">
      <title>pin</title>
      <path d="M12.648 32c-0.305 0-0.61-0.152-0.914-0.305-0.457-0.457-11.733-9.448-11.733-19.048 0-7.162 5.486-12.648 12.648-12.648s12.648 5.486 12.648 12.648c0 9.6-11.276 18.59-11.733 19.048-0.305 0.152-0.61 0.305-0.914 0.305zM12.648 3.048c-5.333 0-9.6 4.267-9.6 9.6 0 6.552 7.010 13.562 9.6 15.848 2.59-2.286 9.6-9.143 9.6-15.848 0-5.333-4.267-9.6-9.6-9.6zM12.648 18.59c-3.352 0-5.943-2.743-5.943-5.943s2.743-5.943 5.943-5.943 5.943 2.743 5.943 5.943-2.59 5.943-5.943 5.943zM12.648 9.752c-1.676 0-2.895 1.371-2.895 2.895s1.371 2.895 2.895 2.895c1.676 0 2.895-1.371 2.895-2.895s-1.219-2.895-2.895-2.895z"></path>
    </symbol>
    <symbol id="icon-poligono" viewBox="0 0 39 32">
      <title>poligono</title>
      <path d="M4.216 23.583l4.409-15.75 3.424 0.959-4.409 15.75-3.424-0.959z"></path>
      <path d="M8.178 25.244h22.044v3.556h-22.044v-3.556z"></path>
      <path d="M26.402 8.768l3.341-1.215 5.712 15.705-3.341 1.215-5.712-15.705z"></path>
      <path d="M14.4 3.2h9.422v3.556h-9.422v-3.556z"></path>
      <path d="M16.178 9.956h-9.778v-9.956h9.956l-0.178 9.956zM9.956 6.4h2.844v-2.844h-2.844v2.844z"></path>
      <path d="M32 9.956h-9.956v-9.956h9.956v9.956zM25.6 6.4h2.844v-2.844h-2.844v2.844z"></path>
      <path d="M38.4 32h-9.956v-9.956h9.956v9.956zM32 28.444h2.844v-2.844h-2.844v2.844z"></path>
      <path d="M9.956 32h-9.956v-9.956h9.956v9.956zM3.556 28.444h2.844v-2.844h-2.844v2.844z"></path>
    </symbol>
    <symbol id="icon-analysis" viewBox="0 0 36 32">
      <title>analysis</title>
      <path d="M0 27h36v5h-36v-5z"></path>
      <path d="M6 24h3c0.828 0 1.5-0.672 1.5-1.5v-13.5c0-0.828-0.672-1.5-1.5-1.5h-3c-0.828 0-1.5 0.672-1.5 1.5v13.5c0 0.828 0.672 1.5 1.5 1.5z"></path>
      <path d="M16.5 24h3c0.828 0 1.5-0.672 1.5-1.5v-21c0-0.828-0.672-1.5-1.5-1.5h-3c-0.828 0-1.5 0.672-1.5 1.5v21c0 0.828 0.672 1.5 1.5 1.5z"></path>
      <path d="M25.5 15v7.5c0 0.828 0.672 1.5 1.5 1.5h3c0.828 0 1.5-0.672 1.5-1.5v-7.5c0-0.828-0.672-1.5-1.5-1.5h-3c-0.828 0-1.5 0.672-1.5 1.5z"></path>
    </symbol>
    <symbol id="icon-layers" viewBox="0 0 34 32">
      <title>layers</title>
      <path d="M29.111 17.709l4.164 2.863-16.636 11.429-16.636-11.429 4.158-2.861 12.478 8.575 12.472-8.577zM16.64 0l16.632 11.429-16.632 11.429-16.64-11.429 16.64-11.429z"></path>
    </symbol>
  </defs>
</svg>
