<?xml version="1.0" encoding="UTF-8"?>
<svg width="191px" height="89px" viewBox="0 0 191 89" version="1.1" xmlns="http://www.w3.org/2000/svg" xmlns:xlink="http://www.w3.org/1999/xlink">
    <title>chart-heatmap</title>
    <g id="Phase-7-Mobile/Gender" stroke="none" stroke-width="1" fill="none" fill-rule="evenodd">
        <g id="Data-Modal-Change" transform="translate(-535.000000, -526.000000)" stroke="#FFFFFF">
            <g id="chart-heatmap" transform="translate(536.000000, 527.000000)">
                <rect id="Rectangle" fill="#0A454A" x="-0.5" y="51.5" width="49" height="19"></rect>
                <rect id="Rectangle" fill="#3B99A2" x="-0.5" y="68.5" width="49" height="19"></rect>
                <rect id="Rectangle" fill="#BBDCDF" x="46.5" y="51.5" width="49" height="19"></rect>
                <rect id="Rectangle" fill="#63AEB5" x="46.5" y="68.5" width="49" height="19"></rect>
                <rect id="Rectangle" fill="#7FBCC2" x="93.5" y="51.5" width="48" height="19"></rect>
                <rect id="Rectangle" fill="#C1E0E3" x="93.5" y="68.5" width="48" height="19"></rect>
                <rect id="Rectangle" fill="#E8F4F6" x="140.5" y="51.5" width="49" height="19"></rect>
                <rect id="Rectangle" fill="#27838B" x="140.5" y="68.5" width="49" height="19"></rect>
                <rect id="Rectangle" fill="#2C8D95" x="-0.5" y="16.5" width="49" height="19"></rect>
                <rect id="Rectangle" fill="#A4D0D4" x="-0.5" y="33.5" width="49" height="19"></rect>
                <rect id="Rectangle" fill="#BBDCDF" x="46.5" y="16.5" width="49" height="19"></rect>
                <rect id="Rectangle" fill="#D9ECEE" x="46.5" y="33.5" width="49" height="19"></rect>
                <rect id="Rectangle" fill="#D9ECEE" x="93.5" y="16.5" width="48" height="19"></rect>
                <rect id="Rectangle" fill="#C1E0E3" x="93.5" y="33.5" width="48" height="19"></rect>
                <rect id="Rectangle" fill="#2D8D96" x="140.5" y="16.5" width="49" height="19"></rect>
                <rect id="Rectangle" fill="#63AEB5" x="140.5" y="33.5" width="49" height="19"></rect>
                <rect id="Rectangle" fill="#A4D0D4" x="-0.5" y="-0.5" width="49" height="19"></rect>
                <rect id="Rectangle" fill="#63AEB5" x="46.5" y="-0.5" width="49" height="19"></rect>
                <rect id="Rectangle" fill="#C1E0E3" x="93.5" y="-0.5" width="48" height="19"></rect>
                <rect id="Rectangle" fill="#F2F8F9" x="140.5" y="-0.5" width="49" height="19"></rect>
            </g>
        </g>
    </g>
</svg>