<svg width="104" height="107" viewBox="0 0 104 107" xmlns="http://www.w3.org/2000/svg" xmlns:xlink="http://www.w3.org/1999/xlink"><title>001A9856-D0B8-4A6C-83EC-0C4C8F3DB3C8</title><defs><path d="M53.344 22.78V.017c14.095.358 26.796 6.324 35.954 15.75L73.486 31.65a29.473 29.473 0 0 0-20.142-8.87z" id="a"/><mask id="b" x="-2" y="-2" width="39.955" height="35.633"><path fill="#fff" d="M51.344-1.983h39.955V33.65H51.344z"/><use xlink:href="#a"/></mask></defs><g fill="none" fill-rule="evenodd"><path d="M8.198 83.036C17.442 97.449 33.606 107 52 107c28.719 0 52-23.281 52-52 0-13.564-5.193-25.915-13.7-35.173L74.22 35.429a29.322 29.322 0 0 1 7.662 19.8c0 16.275-13.222 29.467-29.533 29.467-10.35 0-19.457-5.312-24.73-13.352L8.198 83.036z" fill="#2F939C"/><path d="M7.212 81.436C2.63 73.69 0 64.652 0 55 0 26.281 23.281 3 52 3v22.765c-16.15.187-29.185 13.307-29.185 29.465a29.28 29.28 0 0 0 3.921 14.682L7.212 81.436z" fill="#001D22"/><g transform="translate(0 3)"><use fill="#F9D031" xlink:href="#a"/><use stroke="#FFF" mask="url(#b)" stroke-width="4" xlink:href="#a"/></g></g></svg>