<svg width="107" height="107" viewBox="0 0 107 107" xmlns="http://www.w3.org/2000/svg"><title>223B8EDD-8F38-42D6-8AFD-AE640C1311FD</title><g fill="none" fill-rule="evenodd"><g stroke="#2F939C" stroke-width="4" transform="translate(2 2)"><ellipse opacity=".1" cx="51.423" cy="51.261" rx="50.882" ry="50.767"/><ellipse stroke-linecap="round" stroke-dasharray="130,1000" cx="51.423" cy="51.261" rx="50.882" ry="50.767"/></g><path d="M42.088 47.72c0-.384-.064-.744-.192-1.08a2.679 2.679 0 0 0-.552-.888 2.571 2.571 0 0 0-.852-.6 2.688 2.688 0 0 0-1.092-.216c-.4 0-.764.072-1.092.216a2.571 2.571 0 0 0-.852.6c-.24.256-.424.552-.552.888a3.008 3.008 0 0 0-.192 1.08c0 .384.064.74.192 1.068.128.328.312.62.552.876.24.256.524.456.852.6.328.144.692.216 1.092.216.4 0 .764-.072 1.092-.216.328-.144.612-.344.852-.6s.424-.548.552-.876c.128-.328.192-.684.192-1.068zm3.144-.072c0 .816-.144 1.568-.432 2.256a5.322 5.322 0 0 1-1.212 1.788 5.53 5.53 0 0 1-1.848 1.176 6.34 6.34 0 0 1-2.34.42 6.395 6.395 0 0 1-2.232-.408c-.736-.272-1.4-.716-1.992-1.332-.592-.616-1.068-1.42-1.428-2.412-.36-.992-.54-2.208-.54-3.648 0-1.456.144-2.764.432-3.924.288-1.16.704-2.144 1.248-2.952.544-.808 1.212-1.424 2.004-1.848.792-.424 1.684-.636 2.676-.636 1.488 0 2.708.424 3.66 1.272.952.848 1.54 2 1.764 3.456H41.8a2.482 2.482 0 0 0-.684-1.248c-.36-.368-.876-.552-1.548-.552-.928 0-1.652.388-2.172 1.164-.52.776-.844 1.764-.972 2.964.416-.336.9-.596 1.452-.78a5.317 5.317 0 0 1 1.692-.276c.816 0 1.568.136 2.256.408a5.485 5.485 0 0 1 1.788 1.128c.504.48.9 1.06 1.188 1.74.288.68.432 1.428.432 2.244zm13.08 0c0 .8-.152 1.544-.456 2.232a5.538 5.538 0 0 1-1.248 1.788c-.528.504-1.152.9-1.872 1.188a6.276 6.276 0 0 1-2.352.432c-.848 0-1.62-.124-2.316-.372a5.666 5.666 0 0 1-1.812-1.032 4.891 4.891 0 0 1-1.212-1.56 5.17 5.17 0 0 1-.516-1.956h3.192c.128.608.428 1.08.9 1.416.472.336 1.06.504 1.764.504.336 0 .672-.052 1.008-.156.336-.104.632-.268.888-.492.256-.224.464-.508.624-.852.16-.344.24-.756.24-1.236 0-.832-.244-1.512-.732-2.04s-1.124-.792-1.908-.792c-.512 0-.996.124-1.452.372a3.158 3.158 0 0 0-1.14 1.068l-2.856-.768.984-9.048h9.24v2.952h-6.792l-.408 3.48c.4-.256.828-.452 1.284-.588a4.726 4.726 0 0 1 1.356-.204 5.8 5.8 0 0 1 2.208.42 5.22 5.22 0 0 1 1.776 1.176 5.571 5.571 0 0 1 1.176 1.8c.288.696.432 1.452.432 2.268zm5.496-.336V53h-3.192V36.344h3.192v6.72l6.264-6.72h4.368l-6.768 6.96L74.728 53H70.6l-5.16-7.392-1.632 1.704zM41.115 62.604l-2.064 3.3h2.064v-3.3zm1.476 4.704V69h-1.476v-1.692H37.48v-1.404l3.264-5.232h1.848v5.232h.888v1.404h-.888zm6.108-.948c0-.192-.032-.372-.096-.54a1.34 1.34 0 0 0-.276-.444 1.286 1.286 0 0 0-.972-.408 1.286 1.286 0 0 0-.972.408 1.34 1.34 0 0 0-.276.444 1.504 1.504 0 0 0-.096.54c0 .192.032.37.096.534.064.164.156.31.276.438a1.286 1.286 0 0 0 .972.408 1.286 1.286 0 0 0 .972-.408c.12-.128.212-.274.276-.438.064-.164.096-.342.096-.534zm1.572-.036c0 .408-.072.784-.216 1.128a2.661 2.661 0 0 1-.606.894c-.26.252-.568.448-.924.588a3.17 3.17 0 0 1-1.17.21c-.376 0-.748-.068-1.116-.204a2.648 2.648 0 0 1-.996-.666c-.296-.308-.534-.71-.714-1.206-.18-.496-.27-1.104-.27-1.824 0-.728.072-1.382.216-1.962.144-.58.352-1.072.624-1.476a2.79 2.79 0 0 1 1.002-.924 2.79 2.79 0 0 1 1.338-.318c.744 0 1.354.212 1.83.636.476.424.77 1 .882 1.728h-1.596a1.241 1.241 0 0 0-.342-.624c-.18-.184-.438-.276-.774-.276-.464 0-.826.194-1.086.582-.26.388-.422.882-.486 1.482.208-.168.45-.298.726-.39.276-.092.558-.138.846-.138.408 0 .784.068 1.128.204.344.136.642.324.894.564.252.24.45.53.594.87.144.34.216.714.216 1.122zM52.851 69h-1.704v-1.692h1.704V69zm6.864-2.484c0 .328-.064.65-.192.966a2.428 2.428 0 0 1-.57.84 2.895 2.895 0 0 1-.942.594c-.376.152-.812.228-1.308.228s-.93-.074-1.302-.222a2.731 2.731 0 0 1-.936-.6 2.472 2.472 0 0 1-.57-.888 3.284 3.284 0 0 1-.204-1.098h1.584c.008.424.136.754.384.99s.592.354 1.032.354c.456 0 .81-.112 1.062-.336a1.09 1.09 0 0 0 .378-.852c0-.704-.452-1.056-1.356-1.056h-.528v-1.38h.324c.496 0 .84-.09 1.032-.27a.904.904 0 0 0 .288-.69c0-.304-.098-.546-.294-.726-.196-.18-.478-.27-.846-.27-.216 0-.4.034-.552.102a1.091 1.091 0 0 0-.612.672 1.45 1.45 0 0 0-.072.45h-1.584c0-.36.064-.704.192-1.032a2.51 2.51 0 0 1 1.434-1.44 3.1 3.1 0 0 1 1.194-.216c.464 0 .866.066 1.206.198.34.132.62.306.84.522.22.216.382.462.486.738.104.276.156.554.156.834 0 .36-.088.69-.264.99-.176.3-.44.534-.792.702.24.072.446.174.618.306s.31.282.414.45c.104.168.18.35.228.546.048.196.072.394.072.594zm7.596-.576a.853.853 0 0 0-.648.282.957.957 0 0 0-.264.678c0 .264.088.49.264.678a.853.853 0 0 0 .648.282.859.859 0 0 0 .642-.282.945.945 0 0 0 .27-.678c0-.264-.09-.49-.27-.678a.859.859 0 0 0-.642-.282zm-4.848-2.208a.853.853 0 0 0 .648-.282.957.957 0 0 0 .264-.678.957.957 0 0 0-.264-.678.853.853 0 0 0-.648-.282.84.84 0 0 0-.636.282.957.957 0 0 0-.264.678c0 .264.088.49.264.678a.84.84 0 0 0 .636.282zM67.311 69a2.14 2.14 0 0 1-.84-.162 1.955 1.955 0 0 1-.66-.45 2.193 2.193 0 0 1-.438-.672 2.078 2.078 0 0 1-.162-.816 2.118 2.118 0 0 1 .6-1.482 2.077 2.077 0 0 1 1.5-.618c.296 0 .572.056.828.168a2.067 2.067 0 0 1 1.11 1.116c.108.256.162.528.162.816a2.138 2.138 0 0 1-.606 1.488 2.02 2.02 0 0 1-.666.45 2.108 2.108 0 0 1-.828.162zm-.78-8.328h1.284L63.243 69H61.96l4.572-8.328zm-4.068 0c.296 0 .574.054.834.162.26.108.482.258.666.45.184.192.33.416.438.672.108.256.162.528.162.816 0 .288-.054.558-.162.81a2.214 2.214 0 0 1-.438.666 1.94 1.94 0 0 1-.666.45c-.26.108-.538.162-.834.162-.296 0-.572-.054-.828-.162a2.02 2.02 0 0 1-.666-.45 2.158 2.158 0 0 1-.444-.666 2.034 2.034 0 0 1-.162-.81 2.138 2.138 0 0 1 .606-1.488 2.02 2.02 0 0 1 .666-.45c.256-.108.532-.162.828-.162z" fill="#001D22"/></g></svg>