<?xml version="1.0" encoding="utf-8"?>
<!-- Generator: Adobe Illustrator 23.0.2, SVG Export Plug-In . SVG Version: 6.00 Build 0)  -->
<svg version="1.1" id="Layer_1" xmlns="http://www.w3.org/2000/svg" xmlns:xlink="http://www.w3.org/1999/xlink" x="0px" y="0px"
	 viewBox="0 0 300 180" style="enable-background:new 0 0 300 180;" xml:space="preserve">
<style type="text/css">
	.st0{fill:#4997D0;}
	.st1{fill:#FFFFFF;}
	.st2{fill:none;stroke:#24420E;stroke-width:1.706989e-02;}
	.st3{fill:#67923D;stroke:#24420E;stroke-width:1.706989e-02;}
	.st4{fill:#406325;stroke:#24420E;stroke-width:1.706989e-02;}
	.st5{fill:#BA1F3E;stroke:#511124;stroke-width:1.706989e-02;stroke-linecap:round;stroke-linejoin:round;}
	.st6{fill:#2CA02C;stroke:#24420E;stroke-width:1.706989e-02;}
	.st7{fill:#8C959D;stroke:#485654;stroke-width:1.706989e-02;}
	.st8{fill:#8C959D;}
	.st9{fill:#485654;}
	.st10{fill:#6C301E;stroke:#351710;stroke-width:1.706989e-02;stroke-linejoin:round;}
	.st11{fill:#B2B6BA;stroke:#485654;stroke-width:1.706989e-02;}
	.st12{fill:none;stroke:#485654;stroke-width:1.706989e-02;stroke-linecap:round;stroke-linejoin:round;}
	.st13{fill:#FAB81C;stroke:#6C301E;stroke-width:1.706989e-02;}
	.st14{fill:#FAB81C;}
	.st15{fill:#6C301E;}
	.st16{fill:none;stroke:#000000;stroke-width:1.706989e-02;}
	.st17{fill:#F9F0AA;stroke:#726D51;stroke-width:1.706989e-02;}
	.st18{fill:#F9F0AA;stroke:#999270;stroke-width:1.706989e-02;}
	.st19{fill:url(#_x38_0_1_);stroke:#999270;stroke-width:1.706989e-02;}
	.st20{fill:url(#_x37_8_1_);stroke:#999270;stroke-width:1.706989e-02;}
	.st21{fill:url(#_x37_6_1_);stroke:#999270;stroke-width:1.706989e-02;}
	.st22{fill:url(#_x37_4_1_);stroke:#999270;stroke-width:1.706989e-02;}
	.st23{fill:url(#_x37_2_1_);}
	.st24{fill:#999270;}
	.st25{fill:url(#_x37_0_1_);}
	.st26{fill:#B07E09;}
	.st27{fill:url(#_x33_9_1_);stroke:#999270;stroke-width:1.706989e-02;}
	.st28{fill:url(#_x33_7_1_);stroke:#999270;stroke-width:1.706989e-02;}
	.st29{fill:url(#_x33_5_1_);stroke:#999270;stroke-width:1.706989e-02;}
	.st30{fill:#A50A0A;stroke:#4C0505;stroke-width:1.706989e-02;}
	.st31{fill:url(#_x33_3_1_);stroke:#4C0505;stroke-width:1.706989e-02;}
	.st32{fill:#448127;stroke:#34541F;stroke-width:1.706989e-02;}
	.st33{fill:#EAC102;stroke:#A08307;stroke-width:1.706989e-02;}
	.st34{stroke:#000000;stroke-width:1.706989e-02;}
	.st35{fill:#34541F;}
	.st36{fill:url(#_x32_0_1_);}
	.st37{fill:none;}
	.st38{fill:#A08307;}
	.st39{fill:#448127;}
</style>
<title>Artboard 1</title>
<rect id="_x33_56" x="-20.4" y="-55.1" transform="matrix(0.9887 -0.1498 0.1498 0.9887 -11.4321 26.7431)" class="st0" width="384.4" height="288.7"/>
<rect id="_x33_55" x="107.9" y="-53.4" transform="matrix(0.9887 -0.1498 0.1498 0.9887 -11.8124 25.0843)" class="st1" width="105.4" height="288.7"/>
<g>
	<path id="_x33_54" class="st2" d="M151.6,117.6c0.9-0.1,1.4-0.4,1.9-0.6"/>
	<path id="_x33_53" class="st2" d="M154.2,115.7c0.4,0.5,0.8,1,1,1.5"/>
	<path id="_x33_52" class="st2" d="M152.6,115.6c0.5,0.4,0.8,0.9,1,1.3"/>
	<path id="_x33_51" class="st2" d="M137.6,72.8c-0.3,0.5-1,0.9-1.5,1.1"/>
	<path id="_x33_50" class="st2" d="M135.9,73.8c0-0.4-0.1-1,0-1.4"/>
	<path id="_x33_49" class="st2" d="M135.3,74c0,0.1,0.1,0.5,0.2,0.7"/>
	<path id="_x33_48" class="st2" d="M136.2,75c-0.1,0-0.5,0.1-0.7,0.1"/>
	<path id="_x33_47" class="st2" d="M134.2,74.8c0,0.8,0.1,1.8,0.2,2.5"/>
	<path id="_x33_46" class="st2" d="M133.8,77c0.2,0.2,0.3,0.5,0.5,0.6"/>
	<path id="_x33_45" class="st2" d="M132.8,79.7c0.2,0.3,0.3,0.7,0.4,1.3"/>
	<path id="_x33_44" class="st2" d="M134.5,79.5c-0.1,0.1-0.4,0.3-0.6,0.5"/>
	<path id="_x33_43" class="st2" d="M134.4,81.4c-0.3,0.3-0.7,0.5-1.1,0.7"/>
	<path id="_x33_42" class="st2" d="M132,95.2c0.4,0.6,0.8,1.1,1.3,1.5"/>
	<path id="_x33_41" class="st2" d="M133.5,97.2c-0.4-0.1-0.7-0.2-1-0.3"/>
	<path id="_x33_40" class="st2" d="M133.9,99.6l0.5,0.3"/>
	<path id="_x33_39" class="st2" d="M134.4,101c0.4,0.3,0.8,0.7,1.2,1.2"/>
	<path id="_x33_38" class="st2" d="M135.1,103.2c0.4,0.1,0.8,0.2,1,0.3"/>
	<path id="_x33_37" class="st2" d="M135.8,104.3h0.7"/>
	<path id="_x33_36" class="st2" d="M136.9,102.6c0,0.5-0.1,1-0.2,1.4"/>
	<path id="_x33_35" class="st2" d="M137.1,104.5l0.1-0.5"/>
	<path id="_x33_34" class="st2" d="M138.7,105.9v1"/>
	<path id="_x33_33" class="st2" d="M151.3,116l-0.4,0.5"/>
	<path id="_x33_32" class="st2" d="M150.2,115.2l-0.2-0.6"/>
	<path id="_x33_31" class="st3" d="M136.8,102.8c-0.9-2-0.4-7-0.1-7.6C138.8,99.4,138.1,102.8,136.8,102.8z"/>
	<path id="_x33_30" class="st4" d="M136.8,102.7c1.4,0.1,2.1-3.4-0.1-7.6C137.1,99.1,137.1,102.4,136.8,102.7z"/>
	<path id="_x33_29" class="st4" d="M162.5,120c-0.3-0.4-0.7-0.7-1.1-0.9c-2.5-1.3-5-1.9-7.8-2.3c-0.6-0.1-1.3-0.7-2-1
		c-1.6-0.8-3.4-1.1-4.9-1.8c-0.1,0-0.5-0.3-0.7-0.5c-0.6-0.7-1.7-0.9-2.4-1.6c-2.7-2.5-5.5-4.9-7-8.3c-1.8-4.1-4-8.3-3.7-13
		c0.2-2.9-0.2-5.9,0.5-8.7c1.1-4.2,2.5-8.3,5-11.7l-0.4,0.3c-2.5,3.4-3.9,7.6-5,11.7c-0.7,2.8-0.3,5.8-0.5,8.7
		c-0.3,4.7,1.9,8.9,3.7,13c1.5,3.4,4.4,5.7,7,8.3c0.7,0.7,1.8,0.9,2.4,1.6c0.2,0.2,0.6,0.5,0.7,0.5c1.6,0.8,3.3,1.1,4.9,1.8
		c0.7,0.3,1.3,0.9,2,1c2.8,0.5,5.3,1,7.8,2.3c0.4,0.2,0.8,0.5,1.1,0.9L162.5,120"/>
	<path id="_x33_28" class="st3" d="M151.6,117.4c-2.3,0.1-6.7,3-7.1,3.7C149.4,121.1,152.3,118.7,151.6,117.4z"/>
	<path id="_x33_27" class="st3" d="M154,116c-2.2-1.8-4.6-7.6-4.5-8.6C154.3,111,155.6,115.3,154,116z"/>
	<path id="_x33_26" class="st3" d="M152.4,116.1c-2.2-1.4-5.1-6.5-5.1-7.3C152.1,111.4,153.7,115.2,152.4,116.1z"/>
	<path id="_x33_25" class="st3" d="M147.3,113.9c0.3-2.5-1.8-7.8-2.4-8.4C143.9,110.8,145.8,114.4,147.3,113.9z"/>
	<path id="_x33_24" class="st3" d="M138.5,106c-0.7-1.8-0.2-6.2,0.2-6.8C140.4,103,139.7,106.1,138.5,106z"/>
	<path id="_x33_23" class="st4" d="M140.4,109.2c-1.4-1.8-6.3-3.7-7-3.6C136.3,109.5,139.8,110.5,140.4,109.2z"/>
	<path id="_x33_22" class="st4" d="M132.5,92.1c-0.4-2.6-4-7.3-4.8-7.7C128.2,89.9,131.2,92.9,132.5,92.1z"/>
	<path id="_x33_21" class="st4" d="M135.2,103.1c-1.6-1.2-6.1-1.7-6.8-1.5C131.7,104.3,135,104.3,135.2,103.1L135.2,103.1z"/>
	<path id="_x33_20" class="st4" d="M132.2,95.1c-0.9-1.8-4.8-4.4-5.5-4.4C128.5,94.7,131.4,96.2,132.2,95.1z"/>
	<path id="_x33_19" class="st4" d="M133.1,79.8c0.3-2.4-1.8-7.6-2.4-8.1C129.8,76.8,131.7,80.3,133.1,79.8z"/>
	<path id="_x33_18" class="st3" d="M134.1,81.2c1.2-2.1,5.9-5.1,6.8-5.1C138.7,80.8,135,82.5,134.1,81.2z"/>
	<path id="_x33_17" class="st3" d="M134.3,79.4c0.7-2.4,4.8-6.2,5.6-6.5C138.7,78,135.5,80.4,134.3,79.4z"/>
	<path id="_x33_16" class="st4" d="M134.5,74.9c0.9-2.1,0.2-7.2-0.2-7.9C132.3,71.4,133.1,75,134.5,74.9z"/>
	<path id="_x33_15" class="st4" d="M136.1,72.5c1-1.5,1.3-5.7,1.1-6.3C134.9,69.3,135,72.3,136.1,72.5z"/>
	<path id="_x33_14" class="st4" d="M138.1,70.5c1.4-1.1,3-5,2.9-5.6C137.9,67.1,137.1,70,138.1,70.5z"/>
	<path id="_x33_13" class="st4" d="M132.9,84.4c0,0.3-0.3-2.6-3.2-5.9C129.8,83.3,131.7,85.1,132.9,84.4z"/>
	<path id="_x33_12" class="st3" d="M143.3,111.4c-1.6-2-2.6-7.7-2.4-8.5C144.6,107,144.8,111.1,143.3,111.4z"/>
	<path id="_x33_11" class="st4" d="M143.4,112.1c-2-1.5-7.6-2.2-8.3-1.9C139.1,113.6,143.1,113.6,143.4,112.1z"/>
	<path id="_x33_10" class="st3" d="M132.3,84.1c1.3-1.5,5.6-2.9,6.3-2.9C136,84.6,132.8,85.3,132.3,84.1z"/>
	<path id="_x33_09" class="st4" d="M147.3,113.8c-1.5,0.5-3.4-3-2.4-8.4C145.8,110,146.9,113.6,147.3,113.8z"/>
	<path id="_x33_08" class="st4" d="M151.6,117.4c0.7,1.3-2.2,3.7-7,3.7C148.4,119.5,151.4,117.9,151.6,117.4z"/>
	<path id="_x33_07" class="st4" d="M154,116c1.6-0.7,0.4-5-4.5-8.5C152.2,111.8,154.1,115.4,154,116z"/>
	<path id="_x33_06" class="st4" d="M152.3,116c1.4-0.9-0.2-4.7-5.1-7.3C150.2,112.3,152.4,115.5,152.3,116L152.3,116z"/>
	<path id="_x33_05" class="st4" d="M138.5,106c1.2,0.1,1.9-3,0.2-6.8C138.9,102.8,138.8,105.7,138.5,106L138.5,106z"/>
	<path id="_x33_04" class="st3" d="M140.4,109.2c-0.6,1.3-4.1,0.3-7-3.6C136.9,107.8,139.9,109.3,140.4,109.2z"/>
	<path id="_x33_03" class="st3" d="M132.5,92.1c-1.4,0.9-4.2-2.2-4.7-7.7C129.9,88.6,132,91.9,132.5,92.1z"/>
	<path id="_x33_02" class="st3" d="M135.2,103.1c-0.2,1.2-3.5,1.2-6.7-1.5C131.9,102.7,134.8,103.3,135.2,103.1z"/>
	<path id="_x33_01" class="st3" d="M132.2,95.1c-0.8,1-3.6-0.4-5.4-4.4C129.4,93.3,131.7,95.1,132.2,95.1z"/>
	<path id="_x33_00" class="st3" d="M133.1,79.7c-1.4,0.5-3.3-2.9-2.4-8.1C131.6,76,132.6,79.5,133.1,79.7z"/>
	<path id="_x32_99" class="st4" d="M134.1,81.2c1,1.3,4.5-0.4,6.7-5.1C137.5,79.1,134.6,81.3,134.1,81.2L134.1,81.2z"/>
	<path id="_x32_98" class="st4" d="M134.4,79.4c1.2,1,4.4-1.4,5.6-6.5C137.3,76.6,134.9,79.3,134.4,79.4z"/>
	<path id="_x32_97" class="st3" d="M134.5,74.9c-1.4,0.1-2.2-3.5-0.2-7.9C134.1,71.2,134.2,74.6,134.5,74.9z"/>
	<path id="_x32_96" class="st3" d="M136.1,72.5c-1.1-0.2-1.2-3.1,1.1-6.3C136.4,69.4,135.9,72.1,136.1,72.5z"/>
	<path id="_x32_95" class="st3" d="M138.1,70.5c-1-0.5-0.2-3.4,2.9-5.6C139.2,67.7,138,70.1,138.1,70.5z"/>
	<path id="_x32_94" class="st3" d="M132.9,84.5c-1.2,0.7-3.1-1.1-3.2-5.9C131.3,82.3,132.4,84.3,132.9,84.5z"/>
	<path id="_x32_93" class="st4" d="M143.3,111.4c1.5-0.4,1.3-4.5-2.3-8.5C142.6,107.3,143.6,110.9,143.3,111.4z"/>
	<path id="_x32_92" class="st3" d="M143.4,112.2c-0.3,1.5-4.2,1.4-8.3-1.9C139.3,111.6,142.9,112.4,143.4,112.2z"/>
	<path id="_x32_91" class="st4" d="M132.3,84.2c0.5,1.2,3.7,0.5,6.3-2.9C134.7,83.5,133.2,84.4,132.3,84.2z"/>
	<path id="_x32_90" class="st4" d="M132.9,89.9c0.7-2.7-0.5-7.3-1.4-8.3C129.9,86.6,131.4,90.2,132.9,89.9z"/>
	<path id="_x32_89" class="st3" d="M132.8,90.5c-1.9,0.4-2.8-3.9-1.3-8.7C131.8,86.2,132.4,90.2,132.8,90.5z"/>
	<path id="_x32_88" class="st3" d="M134,99.7c-2.2,0.4-6.9-1.5-7.4-2C131.3,96.6,134.5,98.3,134,99.7z"/>
	<path id="_x32_87" class="st4" d="M134,99.6c0.5-1.4-2.7-3-7.4-2C130.6,98.3,133.7,99.3,134,99.6z"/>
	<path id="_x32_86" class="st3" d="M133.3,96.5c0.3-1.8,2.8-5.1,3.3-5.4C136.3,95,134.3,97.2,133.3,96.5L133.3,96.5z"/>
	<path id="_x32_85" class="st4" d="M133.4,96.5c0.9,0.6,3-1.5,3.3-5.4C135.2,94.1,133.7,96.4,133.4,96.5z"/>
	<path id="_x32_84" class="st3" d="M132.4,90.5c-0.2-2.4,2.2-7.5,2.9-8C135.9,87.7,133.8,91,132.4,90.5L132.4,90.5z"/>
	<path id="_x32_83" class="st4" d="M132.4,90.5c1.4,0.5,3.5-2.8,2.9-7.9C134.1,86.8,132.9,90.2,132.4,90.5z"/>
	<path id="_x32_82" class="st3" d="M132.8,93.6c0-2.5,2.7-7.2,3.4-7.6C136.5,91.2,134.2,94.3,132.8,93.6z"/>
	<path id="_x32_81" class="st4" d="M132.8,93.7c1.4,0.7,3.7-2.4,3.4-7.6C134.8,90.2,133.3,93.5,132.8,93.7z"/>
	<path id="_x32_80" class="st3" d="M140.7,109.1c-1.3-1.4-2.3-5.6-2.2-6.2C141.5,105.7,141.9,108.8,140.7,109.1z"/>
	<path id="_x32_79" class="st4" d="M140.7,109.1c1.1-0.3,0.7-3.4-2.2-6.2C140,106,140.9,108.7,140.7,109.1z"/>
	<path id="_x32_78" class="st5" d="M134,76.8c0,0.2-0.2,0.4-0.4,0.4s-0.3-0.2-0.3-0.4c0-0.2,0.2-0.4,0.4-0.4
		C133.9,76.5,134,76.6,134,76.8L134,76.8z"/>
	<path id="_x32_77" class="st5" d="M136.8,74.8c0,0.2-0.2,0.4-0.4,0.4S136,75,136,74.8c0-0.2,0.2-0.4,0.4-0.4
		C136.6,74.5,136.8,74.6,136.8,74.8z"/>
	<path id="_x32_76" class="st5" d="M135.6,73.7c0,0.2-0.2,0.4-0.4,0.4s-0.4-0.2-0.4-0.4c0-0.2,0.2-0.4,0.4-0.4
		C135.4,73.4,135.6,73.5,135.6,73.7L135.6,73.7z"/>
	<path id="_x32_75" class="st5" d="M132.7,96.8c0,0.2-0.2,0.4-0.4,0.4s-0.4-0.2-0.4-0.4c0-0.2,0.2-0.4,0.4-0.4
		S132.7,96.6,132.7,96.8z"/>
	<path id="_x32_74" class="st5" d="M133.5,91.6c0,0.2-0.2,0.4-0.4,0.4s-0.4-0.2-0.4-0.4c0-0.2,0.2-0.4,0.4-0.4
		S133.5,91.4,133.5,91.6z"/>
	<path id="_x32_73" class="st5" d="M137.8,103.7c0,0.2-0.2,0.4-0.4,0.4s-0.4-0.2-0.4-0.4c0-0.2,0.2-0.4,0.4-0.4
		C137.6,103.3,137.8,103.5,137.8,103.7z"/>
	<path id="_x32_72" class="st5" d="M135.9,104.3c0,0.2-0.2,0.4-0.4,0.4s-0.4-0.2-0.4-0.4c0-0.2,0.2-0.4,0.4-0.4
		S135.9,104.1,135.9,104.3L135.9,104.3z"/>
	<path id="_x32_71" class="st5" d="M150.2,114.4c0,0.2-0.2,0.4-0.4,0.4s-0.4-0.2-0.4-0.4l0,0c0-0.2,0.2-0.4,0.4-0.4
		S150.2,114.2,150.2,114.4z"/>
	<path id="_x32_70" class="st5" d="M151.2,116.7c0,0.2-0.2,0.4-0.4,0.4s-0.4-0.2-0.4-0.4c0-0.2,0.2-0.4,0.4-0.4
		C151,116.3,151.2,116.5,151.2,116.7z"/>
	<path id="_x32_69" class="st3" d="M135.3,101c-1.2-1.9-1.3-6.8-0.9-7.4C137,97.4,136.7,100.9,135.3,101z"/>
	<path id="_x32_68" class="st4" d="M134.5,101c-0.9-2-4.8-5-5.5-5.1C130.6,100.3,133.6,102.1,134.5,101z"/>
	<path id="_x32_67" class="st4" d="M135.3,101c1.4-0.1,1.7-3.6-0.9-7.4C135.2,97.4,135.5,100.6,135.3,101z"/>
	<path id="_x32_66" class="st3" d="M134.4,101.1c-0.9,1.1-3.9-0.7-5.4-5.1C131.6,98.9,134,101,134.4,101.1z"/>
	<path id="_x32_65" class="st3" d="M149.9,115.4c-2.7,0.1-8,3.6-8.4,4.4C147.3,119.9,150.7,117,149.9,115.4z"/>
	<path id="_x32_64_1_" class="st4" d="M149.9,115.5c0.8,1.6-2.6,4.4-8.4,4.4C146.1,118,149.7,116.1,149.9,115.5z"/>
	<path id="_x32_63" class="st2" d="M186.8,79.3c0.2,0.2,0.4,0.3,0.7,0.6"/>
	<path id="_x32_62" class="st2" d="M185.4,73.8c0-0.4-0.2-1.2-0.3-1.6"/>
	<path id="_x32_61" class="st2" d="M186.2,73.2c0,0.6-0.1,1.2-0.3,1.8"/>
	<path id="_x32_60" class="st2" d="M184.5,74.8c0.6,0.5,1.1,1,1.7,1.3"/>
	<path id="_x32_59" class="st2" d="M187.4,76.4c0,0.6,0,1.3-0.2,1.9"/>
	<path id="_x32_58" class="st2" d="M187.3,78.8l0.4-0.7"/>
	<path id="_x32_57" class="st2" d="M187.1,82c0.5,0.1,0.9,0.6,1.1,1.1"/>
	<path id="_x32_56" class="st2" d="M188.4,82.7L189,82"/>
	<path id="_x32_55" class="st2" d="M189.5,92c-0.2,0.4-0.5,0.8-0.8,1.1"/>
	<path id="_x32_54" class="st2" d="M187.4,93.1c0.3,0.5,0.5,1,0.8,1.3"/>
	<path id="_x32_53" class="st2" d="M189.1,96.3c-0.4,0.6-0.9,1-1.4,1.3"/>
	<path id="_x32_52" class="st2" d="M187.7,99c-0.4,0.2-0.8,1-1.2,1.5"/>
	<path id="_x32_51" class="st2" d="M189.2,94l-0.7,0.3"/>
	<path id="_x32_50" class="st2" d="M188.1,91.9l0.4,0.4"/>
	<path id="_x32_49" class="st2" d="M185.5,104.3c-0.3,0-0.5,0-0.7,0"/>
	<path id="_x32_48" class="st2" d="M184.1,103.7l0.2,0.5"/>
	<path id="_x32_47" class="st2" d="M181.9,105.9c-0.1,0.6,0,1.2,0.1,1.8"/>
	<path id="_x32_46" class="st2" d="M183.3,104.8l0.3,0.7"/>
	<path id="_x32_45" class="st2" d="M184.9,105.5l-0.8,0.1"/>
	<path id="_x32_44" class="st2" d="M174.1,113.7l-0.3,0.6"/>
	<path id="_x32_43" class="st2" d="M177.6,113c-0.5,0.1-0.9,0-1.3-0.1"/>
	<path id="_x32_42" class="st2" d="M174.6,114.9c-0.3-0.1-0.7-0.2-0.9-0.3"/>
	<path id="_x32_41" class="st2" d="M168.8,115.4c-0.3,0.2-0.6,0.8-1,1.3"/>
	<path id="_x32_40" class="st2" d="M167.7,115.3c-0.8,0.4-1,1.2-1.4,1.9"/>
	<path id="_x32_39" class="st2" d="M167.1,118.1c-0.5-0.1-1.1-0.4-1.7-0.7"/>
	<path id="_x32_38" class="st2" d="M170.8,117.2c-0.7-0.4-1.5-0.4-2.3-0.5"/>
	<path id="_x32_37" class="st2" d="M172,116.6c-1.2-0.2-2.3-0.2-3.3,0"/>
	<path id="_x32_36" class="st2" d="M171.2,115.7l-0.5-0.2"/>
	<path id="_x32_35" class="st2" d="M169,117.3l-0.7-0.4"/>
	<path id="_x32_34" class="st6" d="M186.9,101c-0.4,0.3-0.8,0.7-1.2,1.2"/>
	<path id="_x32_33" class="st4" d="M184.3,103.7c0.9-2.4,0-8-0.5-8.7C181.7,100,182.8,103.9,184.3,103.7z"/>
	<path id="_x32_32" class="st3" d="M184.3,103.7c-1.6,0.2-2.6-3.7-0.5-8.7C183.7,99.6,183.9,103.3,184.3,103.7z"/>
	<path id="_x32_31" class="st4" d="M158.7,120c0.3-0.4,0.7-0.7,1.1-0.9c2.5-1.3,5-1.9,7.8-2.3c0.6-0.1,1.3-0.7,2-1
		c1.6-0.8,3.4-1.1,4.9-1.8c0.1,0,0.5-0.3,0.7-0.5c0.6-0.7,1.7-0.9,2.4-1.6c2.7-2.5,5.5-4.9,7-8.3c1.8-4.1,4-8.3,3.7-13
		c-0.2-2.9,0.2-5.9-0.5-8.7c-1.1-4.2-2.4-8.3-5-11.7l0.4,0.3c2.5,3.4,3.9,7.6,5,11.7c0.7,2.8,0.3,5.8,0.5,8.7
		c0.3,4.7-1.9,8.9-3.7,13c-1.5,3.4-4.4,5.7-7,8.3c-0.7,0.7-1.8,0.9-2.4,1.6c-0.2,0.2-0.6,0.5-0.7,0.5c-1.6,0.8-3.3,1.1-4.9,1.8
		c-0.7,0.3-1.3,0.9-2,1c-2.8,0.5-5.3,1-7.8,2.3c-0.4,0.2-0.8,0.5-1.1,0.9L158.7,120"/>
	<path id="_x32_30" class="st3" d="M167.1,117.8c2.3,0.1,6.7,3,7.1,3.7C169.3,121.5,166.4,119.1,167.1,117.8z"/>
	<path id="_x32_29" class="st3" d="M167.1,115.2c0.7-2.6,4.8-6.8,5.7-7.2C171.6,113.6,168.3,116.3,167.1,115.2z"/>
	<path id="_x32_28" class="st3" d="M173.9,113.8c-0.3-2.5,1.8-7.8,2.4-8.4C177.3,110.8,175.4,114.4,173.9,113.8z"/>
	<path id="_x32_27" class="st4" d="M182,106c0.7-1.8,0.2-6.2-0.2-6.8C180.1,103,180.8,106.1,182,106z"/>
	<path id="_x32_26" class="st3" d="M180.9,109.1c1.4-1.8,6.3-3.7,7-3.6C185,109.5,181.5,110.4,180.9,109.1z"/>
	<path id="_x32_25" class="st3" d="M189.2,91.9c0.3-2,3.1-5.8,3.7-6.1C192.6,90.2,190.3,92.6,189.2,91.9z"/>
	<path id="_x32_24" class="st3" d="M185.4,104.2c1.9-1.4,7.1-2,7.9-1.8C189.5,105.6,185.7,105.6,185.4,104.2z"/>
	<path id="_x32_23" class="st3" d="M188.7,96.3c1-1.9,5-4.6,5.7-4.7C192.6,95.9,189.5,97.4,188.7,96.3L188.7,96.3z"/>
	<path id="_x32_22" class="st3" d="M188.3,81.6c0-2.5,2.6-7.3,3.2-7.8C191.9,79,189.6,82.2,188.3,81.6z"/>
	<path id="_x32_21" class="st4" d="M187.5,82.1c-1.1-2-5.4-4.7-6.2-4.7C183.3,81.7,186.6,83.2,187.5,82.1z"/>
	<path id="_x32_20" class="st4" d="M187,79.5c-0.6-2-4-5.2-4.7-5.4C183.3,78.3,186,80.3,187,79.5z"/>
	<path id="_x32_19" class="st3" d="M186,73.2c-0.8-1.7-0.4-5.9,0-6.5C187.8,70.3,187.2,73.3,186,73.2z"/>
	<path id="_x32_18" class="st3" d="M184.7,72.5c-1.7-1.5-3.4-6.4-3.4-7.1C185.1,68.4,185.9,72,184.7,72.5z"/>
	<path id="_x32_17" class="st3" d="M188.4,83.7c-0.1,0.3,1-2.5,4.6-4.9C191.7,83.4,189.4,84.6,188.4,83.7z"/>
	<path id="_x32_16" class="st4" d="M177.3,112.1c1.4-2.1,1.8-7.9,1.5-8.7C175.6,107.8,175.7,111.9,177.3,112.1z"/>
	<path id="_x32_15" class="st3" d="M177.4,112.7c2.3-1.7,8.6-2.5,9.4-2.2C182.2,114.3,177.7,114.4,177.4,112.7z"/>
	<path id="_x32_14" class="st4" d="M188.5,84.3c-1.1-1.3-4.9-2.6-5.5-2.5C185.3,84.7,188,85.3,188.5,84.3z"/>
	<path id="_x32_13" class="st4" d="M174,113.8c1.5,0.5,3.4-3,2.4-8.4C175.5,110,174.4,113.5,174,113.8z"/>
	<path id="_x32_12" class="st4" d="M167.1,117.8c-0.7,1.3,2.2,3.7,7,3.7C170.2,119.9,167.2,118.3,167.1,117.8z"/>
	<path id="_x32_11" class="st4" d="M167.1,115.2c1.2,1.1,4.5-1.6,5.6-7.1C170.1,112.1,167.7,115.1,167.1,115.2L167.1,115.2z"/>
	<path id="_x32_10" class="st3" d="M182,106c-1.2,0.1-1.9-3-0.2-6.8C181.6,102.8,181.7,105.7,182,106L182,106z"/>
	<path id="_x32_09" class="st4" d="M180.9,109.2c0.6,1.3,4.1,0.3,7-3.6C184.4,107.8,181.4,109.3,180.9,109.2z"/>
	<path id="_x32_08" class="st4" d="M189.2,91.9c1.1,0.7,3.3-1.7,3.7-6.1C191.3,89.2,189.6,91.8,189.2,91.9z"/>
	<path id="_x32_07" class="st4" d="M185.4,104.3c0.3,1.4,4,1.4,7.9-1.8C189.3,103.8,185.9,104.5,185.4,104.3z"/>
	<path id="_x32_06" class="st4" d="M188.8,96.3c0.8,1.1,3.8-0.4,5.7-4.6C191.7,94.4,189.2,96.3,188.8,96.3z"/>
	<path id="_x32_05" class="st4" d="M188.3,81.6c1.4,0.7,3.6-2.6,3.2-7.8C190.2,78,188.8,81.4,188.3,81.6z"/>
	<path id="_x32_04" class="st3" d="M187.5,82.1c-0.9,1.2-4.2-0.4-6.2-4.7C184.3,80.1,187,82.1,187.5,82.1z"/>
	<path id="_x32_03" class="st3" d="M186.9,79.5c-1,0.8-3.6-1.2-4.6-5.4C184.5,77.1,186.5,79.4,186.9,79.5z"/>
	<path id="_x32_02" class="st4" d="M186.1,73.2c1.1,0,1.7-2.9,0-6.5C186.3,70.2,186.3,72.9,186.1,73.2z"/>
	<path id="_x32_01" class="st4" d="M184.7,72.5c1.3-0.6,0.4-4.1-3.4-7.1C183.4,69,184.8,72,184.7,72.5z"/>
	<path id="_x32_00" class="st4" d="M188.4,83.7c1,1,3.3-0.3,4.6-5C190.5,82,188.9,83.6,188.4,83.7z"/>
	<path id="_x31_99" class="st3" d="M177.3,112.1c-1.6-0.2-1.7-4.3,1.5-8.7C177.6,107.9,177,111.6,177.3,112.1z"/>
	<path id="_x31_98" class="st4" d="M177.4,112.7c0.3,1.7,4.8,1.6,9.4-2.2C182,112.1,178,113,177.4,112.7z"/>
	<path id="_x31_97" class="st3" d="M188.5,84.3c-0.5,1-3.2,0.4-5.5-2.5C186.4,83.7,187.7,84.6,188.5,84.3z"/>
	<path id="_x31_96" class="st3" d="M188.6,90c-0.3-2.5,1.3-6.5,2.1-7.3C191.6,87.4,189.9,90.5,188.6,90z"/>
	<path id="_x31_95" class="st4" d="M188.7,90.6c1.7,0.6,2.9-3.2,2.1-7.7C190,86.8,189,90.4,188.7,90.6z"/>
	<path id="_x31_94" class="st4" d="M187.6,99.3c2,0.3,6.1-1.3,6.6-1.8C190,96.5,187.2,98,187.6,99.3z"/>
	<path id="_x31_93" class="st3" d="M187.6,99.2c-0.4-1.2,2.4-2.7,6.5-1.8C190.7,98.1,187.9,98.9,187.6,99.2z"/>
	<path id="_x31_92" class="st4" d="M187.5,97.4c0-1.8-2.1-5.4-2.6-5.8C184.8,95.5,186.5,97.9,187.5,97.4z"/>
	<path id="_x31_91" class="st3" d="M187.5,97.4c-1,0.5-2.7-1.9-2.5-5.8C186,94.8,187.2,97.3,187.5,97.4z"/>
	<path id="_x31_90" class="st4" d="M188.9,90.5c0.2-2.4-2.2-7.5-2.9-8C185.4,87.6,187.5,91,188.9,90.5z"/>
	<path id="_x31_89" class="st3" d="M188.9,90.5c-1.4,0.5-3.5-2.8-2.9-7.9C187.1,86.8,188.4,90.2,188.9,90.5z"/>
	<path id="_x31_88" class="st4" d="M187.7,93c0-2.5-2.7-7.2-3.4-7.6C184,90.6,186.3,93.7,187.7,93z"/>
	<path id="_x31_87" class="st3" d="M187.6,93.1c-1.4,0.7-3.7-2.4-3.4-7.6C185.7,89.6,187.2,92.9,187.6,93.1z"/>
	<path id="_x31_86" class="st4" d="M179.7,110.2c1.1-1.6,1.4-5.9,1.2-6.5C178.4,107,178.5,110.1,179.7,110.2z"/>
	<path id="_x31_85" class="st3" d="M179.6,110.2c-1.2-0.2-1.3-3.2,1.1-6.5C179.9,107.1,179.4,109.9,179.6,110.2z"/>
	<path id="_x31_84" class="st5" d="M187.5,78c0,0.2,0.2,0.4,0.4,0.3c0.2,0,0.3-0.2,0.3-0.3c0-0.2-0.2-0.4-0.3-0.4
		C187.7,77.6,187.5,77.8,187.5,78L187.5,78z"/>
	<path id="_x31_83" class="st5" d="M188.8,81.8c0,0.2,0.2,0.4,0.4,0.3c0.2,0,0.3-0.2,0.3-0.3c0-0.2-0.2-0.4-0.3-0.4
		C188.9,81.5,188.8,81.6,188.8,81.8L188.8,81.8z"/>
	<path id="_x31_82" class="st5" d="M189.1,93.9c0,0.2,0.2,0.4,0.4,0.4s0.4-0.2,0.4-0.4l0,0c0-0.2-0.2-0.4-0.4-0.4
		S189.1,93.7,189.1,93.9z"/>
	<path id="_x31_81" class="st5" d="M187.5,91.7c0,0.2,0.2,0.4,0.4,0.4s0.4-0.2,0.4-0.4l0,0c0-0.2-0.2-0.4-0.4-0.4
		C187.7,91.3,187.5,91.5,187.5,91.7z"/>
	<path id="_x31_80" class="st5" d="M182.7,104.6c0,0.2,0.2,0.4,0.4,0.4s0.4-0.2,0.4-0.4c0-0.2-0.2-0.4-0.4-0.4
		C182.9,104.1,182.7,104.3,182.7,104.6z"/>
	<path id="_x31_79" class="st5" d="M184.8,105.4c0,0.2,0.2,0.4,0.4,0.4s0.4-0.2,0.4-0.4c0-0.2-0.2-0.4-0.4-0.4
		C184.9,105,184.8,105.2,184.8,105.4z"/>
	<path id="_x31_78" class="st5" d="M171.1,115.9c0,0.2,0.2,0.4,0.4,0.4s0.4-0.2,0.4-0.4c0-0.2-0.2-0.4-0.4-0.4
		C171.2,115.5,171.1,115.7,171.1,115.9z"/>
	<path id="_x31_77" class="st5" d="M168.8,117.5c0,0.2,0.2,0.4,0.4,0.4s0.4-0.2,0.4-0.4c0-0.2-0.2-0.4-0.4-0.4
		S168.8,117.3,168.8,117.5z"/>
	<path id="_x31_76" class="st3" d="M187.2,76.6c-0.7-1.9,0-6.5,0.4-7C189.3,73.5,188.4,76.7,187.2,76.6z"/>
	<path id="_x31_75" class="st4" d="M187.2,76.5c1.2,0.1,2.1-3,0.4-7C187.7,73.2,187.5,76.2,187.2,76.5z"/>
	<path id="_x31_74" class="st3" d="M168.4,115.4c0.8-2.6,5.2-6.8,6.1-7.1C173.1,113.9,169.6,116.5,168.4,115.4z"/>
	<path id="_x31_73" class="st4" d="M168.5,115.3c1.2,1.2,4.6-1.4,6-7.1C171.7,112.3,169,115.3,168.5,115.3L168.5,115.3z"/>
	<path id="_x31_72" class="st4" d="M186,101c1.2-1.9,1.3-6.8,0.9-7.4C184.3,97.4,184.6,100.9,186,101z"/>
	<path id="_x31_71" class="st3" d="M186,101.9c0.9-2,4.8-5,5.5-5.1C189.9,101.2,186.9,103,186,101.9z"/>
	<path id="_x31_70" class="st3" d="M186,100.9c-1.4-0.1-1.7-3.6,0.9-7.4C186.1,97.4,185.7,100.6,186,100.9z"/>
	<path id="_x31_69" class="st4" d="M186.1,101.9c0.9,1.1,3.9-0.7,5.4-5.1C188.9,99.8,186.6,101.9,186.1,101.9z"/>
	<path id="_x31_68" class="st4" d="M170.6,117.3c1.4,1.8,6.3,3.6,7.1,3.5C174.9,116.9,171.2,116,170.6,117.3z"/>
	<path id="_x31_67" class="st3" d="M170.6,117.3c0.7-1.3,4.2-0.4,7.1,3.5C174.2,118.6,171.1,117.2,170.6,117.3z"/>
	<line id="_x31_66" class="st2" x1="186.3" y1="76.6" x2="185.6" y2="76.3"/>
	<path id="_x31_65" class="st5" d="M185.1,76.2c0,0.2,0.2,0.4,0.4,0.3c0.2,0,0.3-0.2,0.3-0.3c0-0.2-0.2-0.4-0.3-0.4
		C185.2,75.8,185.1,76,185.1,76.2L185.1,76.2z"/>
	<path id="_x31_64" class="st7" d="M145.8,104.3c0,0.3,0.3,0.8,0.7,0.7c0.1,0,0.2-0.2,0-0.2c-0.1,0-0.3,0-0.4-0.1
		c-0.2-0.2-0.2-0.4-0.1-0.6C145.9,104.1,145.9,104.2,145.8,104.3L145.8,104.3z"/>
	<path id="_x31_63" class="st8" d="M146.7,104.9c-0.3,0.4-0.8,0.5-1.1,0.3c-0.2-0.2-0.3-0.4-0.2-0.6c-0.1,0.2-0.3,0.3-0.4,0.4
		c0,0,0.2,0.4,0.6,0.6c0.4,0.2,1-0.1,1.3-0.5c0.2-0.3,0.5-0.8,0.3-1.2c-0.1-0.2-0.4-0.5-0.6-0.5c-0.1,0.1-0.2,0.2-0.3,0.4
		c0.2-0.1,0.4,0,0.5,0.1C147.3,104.1,147,104.6,146.7,104.9L146.7,104.9L146.7,104.9z"/>
	<path id="_x31_62" class="st9" d="M146.7,104.9c-0.1,0.1-0.2,0.2-0.4,0.3c-0.1,0.1-0.3,0.1-0.5,0.1c-0.1,0-0.2,0-0.2-0.1
		c-0.1-0.1-0.1-0.1-0.2-0.2c0-0.1-0.1-0.2-0.1-0.2c0-0.1,0-0.2,0-0.2l0,0l-0.4,0.4l0,0c0.1,0.2,0.2,0.3,0.3,0.4s0.1,0.1,0.2,0.1
		c0.1,0,0.2,0,0.3,0c0.2,0,0.4-0.1,0.5-0.2c0.2-0.1,0.3-0.2,0.4-0.3c0.1-0.1,0.2-0.3,0.3-0.4c0.1-0.2,0.1-0.3,0.1-0.5
		c0-0.1,0-0.2-0.1-0.3c0-0.1-0.1-0.1-0.2-0.2c-0.1-0.1-0.3-0.2-0.4-0.3l0,0l-0.3,0.4l0,0c0.1,0,0.2,0,0.2,0c0.1,0,0.2,0,0.2,0.1
		c0.1,0.1,0.3,0.2,0.3,0.4c0,0.2,0,0.3-0.1,0.5C146.9,104.7,146.9,104.8,146.7,104.9L146.7,104.9L146.7,104.9z M146.7,104.9
		L146.7,104.9L146.7,104.9L146.7,104.9c0.1-0.1,0.2-0.3,0.3-0.4s0.1-0.3,0.1-0.5c0-0.1-0.2-0.3-0.3-0.3c-0.1-0.1-0.3-0.1-0.4,0l0,0
		l0.3-0.4l0,0l0,0c0.2,0.1,0.3,0.2,0.5,0.3c0.1,0.1,0.1,0.1,0.2,0.2c0,0.1,0.1,0.2,0.1,0.3c0,0.2,0,0.4-0.1,0.5
		c-0.1,0.2-0.2,0.3-0.3,0.5c-0.1,0.1-0.3,0.3-0.4,0.3c-0.2,0.1-0.3,0.2-0.5,0.2c-0.1,0-0.2,0-0.3,0s-0.2-0.1-0.2-0.2
		c-0.1-0.1-0.3-0.3-0.3-0.4l0,0l0,0l0.4-0.4l0,0c0,0.1,0,0.1,0,0.2s0,0.2,0.1,0.2c0,0.1,0.1,0.1,0.2,0.2c0.1,0,0.1,0.1,0.2,0.1
		c0.2,0,0.3,0,0.5-0.1C146.5,105.2,146.6,105.1,146.7,104.9z"/>
	<path id="_x31_61" class="st10" d="M171.9,76.2l-13,12.8c-1,1-12.3,11.7-13.3,12.7c-0.4,0.4-1.4,1.6-1.5,1.7
		c-0.7,0.7-1.4,1.7-2.3,2.6c-0.2,0.2-0.4,0.1-0.6,0.2c-0.6,0.3-1.2,0.9-1.6,1.4l-3.9,4.4c-0.3,0.3-0.3,0.4-0.1,0.6l2.1,2.9
		c0.4,0.4,0.9,0.6,1,0.3c1-1.8,3.5-4.4,4.5-6.6c0.6-1.3,1.3-3.6,1.8-4.1c0.6-0.7,2.3-2.5,3.8-4.1c0.1-0.1,0.2-0.2,0.3-0.3
		c0.1-0.1,0.2-0.2,0.3-0.3c7.6-7.7,16.4-17.1,22.8-23.8C172,76.3,172.2,76.4,171.9,76.2L171.9,76.2z"/>
	<path id="_x31_60" class="st7" d="M145,101.6c-0.4,0-0.7-0.2-0.9-0.5c0.4,0.1,0.8,0.3,1.1,0.1L145,101.6z"/>
	<path id="_x31_59" class="st11" d="M185.4,66.8l-10.3,8.5c-0.1,0.1-0.2,0.1-0.3,0l-0.9-0.8l0,0c0-0.1,0-0.1,0-0.1l0.5-0.5
		c0.1-0.1,0-0.1,0-0.2c-0.1-0.1-0.1-0.1-0.2-0.2c-0.1-0.1-0.1,0-0.2,0.1l-0.5,0.5c-0.2,0-0.4,0.2-0.4,0.4
		c-6.2,6-11.6,11.4-17.7,17.4l-7.3,7c-0.3,0.3-1.4,0.9-2.1,1.4c-0.3,0.2-0.5,0.3-0.6,0.5l-0.6,1.8c-0.2,0.4-0.8,1.3-0.8,1.4
		c0.8,0.8,0.7,0.7,1.2,1.2c0.6-0.7,2.2-2.3,3.6-3.8c0.1-0.1,0.1-0.1,0.3-0.3c-0.1-0.2-0.3-0.4-0.4-0.5c-0.1-0.1-0.3-0.2-0.4-0.4
		c-0.1-0.1-0.2-0.1-0.2-0.2c-0.1-0.1,0.1-0.1,0.1-0.2c8.5-8.3,17.8-17.3,25.3-24.7h0.1c0.1,0,0.1,0,0.2,0l0.9,1
		c0.2,0.2,0.4,0.2,0.6,0.1L185.4,66.8L185.4,66.8z"/>
	<path id="_x31_58" class="st9" d="M144.7,102.4c0.1,0,0.1,0,0.2,0c0.1,0,0.1,0,0.2-0.1l0,0c0.1-0.3,0.2-0.5,0.2-0.8
		c0.1-0.3,0.2-0.5,0.2-0.8l0,0c-0.1-0.1-0.1-0.1-0.2-0.2c0.1,0,0.2,0.1,0.2,0.1l0,0l0,0c-0.1,0.3-0.2,0.5-0.2,0.8
		c-0.1,0.3-0.2,0.5-0.2,0.8l0,0l0,0c-0.1,0-0.1,0-0.2,0C144.8,102.4,144.8,102.4,144.7,102.4z"/>
	<path id="_x31_57" class="st12" d="M147.3,101.6c0,0.1-0.1,0.2-0.2,0.2c-0.1,0-0.2-0.1-0.2-0.2s0.1-0.2,0.2-0.2
		S147.3,101.5,147.3,101.6z"/>
	<path id="_x31_56" class="st12" d="M146,102.8c0,0.1-0.1,0.2-0.2,0.2c-0.1,0-0.2-0.1-0.2-0.2s0.1-0.2,0.2-0.2
		C146,102.7,146,102.7,146,102.8z"/>
	<path id="_x31_55" class="st9" d="M148,99.8c-0.1-0.1-0.2-0.2-0.3-0.3c-0.1-0.1-0.2-0.2-0.3-0.3c0.1,0.1,0.2,0.2,0.3,0.3
		C147.8,99.6,147.9,99.7,148,99.8z"/>
	<polygon id="_x31_54" class="st7" points="168.8,80.4 169.1,80.2 167.9,79.1 167.7,79.3 167.7,79.3 	"/>
	<path id="_x31_53" class="st7" d="M174.5,104.8c0,0.4-0.3,0.7-0.7,0.6c-0.1,0-0.2-0.2,0-0.2c0.1,0,0.3,0,0.4-0.1
		c0.2-0.2,0.2-0.4,0.2-0.6C174.4,104.6,174.5,104.7,174.5,104.8L174.5,104.8z"/>
	<path id="_x31_52" class="st8" d="M173.5,105.4c0.3,0.4,0.8,0.6,1.1,0.3c0.2-0.2,0.3-0.4,0.2-0.6c0.1,0.2,0.2,0.3,0.3,0.4
		c0,0-0.3,0.4-0.6,0.5c-0.4,0.2-1-0.1-1.3-0.6c-0.2-0.3-0.5-0.8-0.3-1.2c0.1-0.2,0.4-0.4,0.7-0.5c0.1,0.1,0.2,0.3,0.3,0.4
		c-0.2-0.1-0.4-0.1-0.6,0.1C173,104.6,173.3,105.1,173.5,105.4L173.5,105.4L173.5,105.4z"/>
	<path id="_x31_51" class="st9" d="M173.5,105.4c0.1,0.1,0.2,0.2,0.4,0.3c0.1,0.1,0.3,0.1,0.5,0.1c0.1,0,0.2,0,0.2-0.1
		c0.1,0,0.1-0.1,0.2-0.2c0-0.1,0.1-0.1,0.1-0.2s0-0.2,0-0.2l0,0c0.1,0.1,0.2,0.3,0.3,0.4l0,0l0,0c-0.1,0.2-0.2,0.3-0.4,0.4
		c-0.1,0.1-0.2,0.1-0.2,0.1c-0.1,0-0.2,0-0.3,0c-0.2,0-0.4-0.1-0.5-0.2C173.6,105.7,173.5,105.6,173.5,105.4
		c-0.2-0.1-0.3-0.3-0.4-0.5s-0.1-0.4-0.1-0.6c0-0.1,0-0.2,0.1-0.3c0.1-0.1,0.1-0.2,0.2-0.2c0.1-0.1,0.3-0.2,0.5-0.3l0,0l0,0l0.3,0.4
		l0,0c-0.1-0.1-0.3-0.1-0.4,0c-0.1,0.1-0.3,0.2-0.3,0.3c-0.1,0.1,0,0.3,0,0.5C173.3,105.2,173.4,105.3,173.5,105.4z M173.5,105.4
		c-0.1-0.1-0.2-0.3-0.3-0.4s-0.1-0.3,0-0.5c0-0.1,0.1-0.1,0.1-0.2c0.1-0.1,0.1-0.1,0.2-0.1c0.1-0.1,0.3-0.1,0.5,0l0,0l-0.3-0.4l0,0
		c-0.2,0.1-0.3,0.2-0.5,0.3c-0.1,0.1-0.1,0.1-0.2,0.2c0,0.1-0.1,0.2-0.1,0.2c0,0.2,0,0.4,0.1,0.5c0.1,0.2,0.2,0.3,0.3,0.5
		c0.1,0.1,0.3,0.3,0.4,0.4c0.2,0.1,0.3,0.2,0.5,0.2c0.1,0,0.2,0,0.3,0s0.2-0.1,0.2-0.1c0.1-0.1,0.3-0.3,0.4-0.4l0,0
		c-0.1-0.1-0.2-0.3-0.3-0.4l0,0c0,0.1,0,0.2,0,0.3c0,0.1,0,0.2-0.1,0.2c0,0.1-0.1,0.1-0.2,0.2c-0.1,0-0.2,0.1-0.2,0.1
		c-0.2,0-0.3,0-0.5-0.1C173.7,105.7,173.6,105.5,173.5,105.4z"/>
	<path id="_x31_50" class="st10" d="M149.7,75.5L162,88.9c0.9,1,11.7,12.3,12.6,13.4c0.3,0.4,1.3,1.6,1.4,1.8
		c0.6,0.8,1.3,1.8,2.2,2.7c0.2,0.2,0.4,0.1,0.6,0.3c0.6,0.4,1.1,1,1.6,1.5l3.7,4.6c0.2,0.3,0.3,0.5,0.1,0.6l-2.3,2.8
		c-0.4,0.4-0.9,0.6-1,0.2c-0.9-1.8-3.3-4.6-4.2-6.8c-0.5-1.3-1.1-3.6-1.6-4.2c-0.6-0.7-2.2-2.6-3.6-4.3c-0.1-0.1-0.2-0.2-0.3-0.3
		c-0.1-0.1-0.2-0.2-0.3-0.3c-7.2-8.1-15.5-17.9-21.6-24.8C149.6,75.5,149.5,75.7,149.7,75.5L149.7,75.5z"/>
	<path id="_x31_49" class="st7" d="M175.4,102.2c0.4,0,0.7-0.2,0.9-0.4c-0.4,0.1-0.8,0.2-1.1,0.1L175.4,102.2z"/>
	<path id="_x31_48" class="st11" d="M136.8,65.4l9.8,9c0.1,0.1,0.2,0.1,0.3,0l1-0.7l0,0c0-0.1,0-0.1,0-0.1l-0.4-0.5
		c-0.1-0.1,0-0.1,0-0.2c0.1-0.1,0.1-0.1,0.2-0.2c0.1-0.1,0.1,0,0.2,0.1l0.4,0.5c0.2,0,0.4,0.2,0.4,0.5c5.9,6.3,11,12,16.9,18.2
		l6.9,7.3c0.2,0.4,1.3,1,2.1,1.5c0.3,0.2,0.5,0.4,0.6,0.5l0.5,1.8c0.2,0.4,0.7,1.3,0.7,1.4c-0.8,0.7-0.8,0.7-1.3,1.1
		c-0.6-0.7-2-2.4-3.4-4c-0.1-0.1-0.1-0.1-0.3-0.3c0.1-0.2,0.3-0.4,0.5-0.5c0.1-0.1,0.3-0.2,0.4-0.3c0.1-0.1,0.2-0.1,0.2-0.2
		c0.1,0-0.1-0.1-0.1-0.2c-8.1-8.7-16.9-18.2-24-25.9h-0.1c-0.1,0-0.1,0-0.2-0.1l-1,1c-0.2,0.2-0.4,0.2-0.6,0.1L136.8,65.4
		L136.8,65.4z"/>
	<path id="_x31_47" class="st9" d="M175.7,103c-0.1,0-0.1,0-0.2,0c-0.1,0-0.1,0-0.2-0.1l0,0l0,0c-0.1-0.3-0.1-0.5-0.2-0.8
		c-0.1-0.3-0.1-0.5-0.2-0.8l0,0l0,0l0.1-0.1h0.1c-0.1,0-0.2,0.1-0.2,0.1l0,0c0.1,0.3,0.1,0.5,0.2,0.8c0.1,0.3,0.1,0.5,0.2,0.8l0,0
		c0.1,0,0.1,0.1,0.2,0.1S175.6,103,175.7,103z"/>
	<path id="_x31_46" class="st12" d="M173.2,102.1c0,0.1,0.1,0.2,0.2,0.2c0.1,0,0.2-0.1,0.2-0.2s-0.1-0.2-0.2-0.2
		S173.2,102,173.2,102.1z"/>
	<path id="_x31_45" class="st12" d="M174.3,103.4c0,0.1,0.1,0.2,0.2,0.2c0.1,0,0.2-0.1,0.2-0.2s-0.1-0.2-0.2-0.2
		C174.4,103.2,174.4,103.3,174.3,103.4z"/>
	<path id="_x31_44" class="st9" d="M172.6,100.2c0.1-0.1,0.2-0.2,0.3-0.3c0.1-0.1,0.2-0.2,0.3-0.2c-0.1,0.1-0.2,0.2-0.3,0.3
		C172.8,100.1,172.7,100.1,172.6,100.2z"/>
	<polygon id="_x31_43" class="st7" points="153.8,78.8 153.8,78.8 152.7,79.9 152.5,79.7 153.6,78.6 	"/>
	<path id="_x31_42" class="st3" d="M145.7,113.7c-2.5-1.1-8.7-0.2-9.4,0.3C141.5,116.6,145.8,115.4,145.7,113.7z"/>
	<path id="_x31_41" class="st4" d="M145.6,113.7c0.1,1.8-4.1,2.9-9.4,0.3C141.2,114.3,145.2,114.1,145.6,113.7z"/>
	<path id="_x31_40" class="st3" d="M174.4,114.7c2.5-1.1,8.7-0.2,9.4,0.3C178.6,117.6,174.3,116.5,174.4,114.7z"/>
	<path id="_x31_39" class="st4" d="M174.5,114.8c-0.1,1.8,4.1,2.9,9.4,0.3C178.9,115.4,174.9,115.2,174.5,114.8z"/>
	<path id="_x31_38" class="st11" d="M169.8,111.9c-6.7-9.7-16.8-17.6-24.6-22c1.1-0.1,3.7,1.3,4.7,1.9c7.7,5,14.3,11.6,21.2,19.3
		c-0.4,0.4-0.7,0.6-1.1,1L169.8,111.9z"/>
	<path id="_x31_37" class="st8" d="M170.4,111.9l-0.5,0.5c-7.4-9.6-17.8-18.7-24.8-22.3C154.9,94.4,163.1,103.5,170.4,111.9
		L170.4,111.9z"/>
	<path id="_x31_36" class="st9" d="M170.4,111.9l-0.5,0.5l0,0l0,0c-1.7-2.2-3.5-4.3-5.4-6.4c-1.9-2-3.9-4-5.9-5.9
		c-2.1-1.9-4.2-3.7-6.4-5.4c-1.1-0.8-2.2-1.7-3.4-2.4c-1.2-0.8-2.4-1.5-3.6-2.1v-0.1c2.5,1.2,5,2.6,7.2,4.3c2.3,1.6,4.4,3.5,6.5,5.4
		s4,3.9,5.9,6C166.7,107.6,168.6,109.7,170.4,111.9z M170.4,111.9c-1.9-2.1-3.7-4.2-5.6-6.3c-1.9-2.1-3.9-4.1-5.9-6
		c-2.1-1.9-4.2-3.7-6.5-5.4c-2.3-1.6-4.7-3.1-7.2-4.3v-0.1c1.2,0.6,2.4,1.4,3.6,2.2c1.2,0.8,2.3,1.6,3.4,2.4
		c2.2,1.7,4.3,3.5,6.4,5.4c2.1,1.9,4,3.9,5.9,5.9c1.9,2.1,3.7,4.2,5.4,6.4l0,0L170.4,111.9z"/>
	<path id="_x31_35" class="st13" d="M172.7,110.3c-0.6,0.2-1.2,0.4-1.7,0.7c-0.1,0.5-0.6,1-1.2,1.1c-0.1-0.1-0.1-0.2-0.2-0.2
		c0,0,0,0-0.1,0c0,0-0.1,0.1-0.2,0.1c-0.2,0-0.4,0.1-0.5,0.3c-0.1,0.3,0.1,0.7,0.4,1c0.3,0.2,0.4,0.3,0.8,0.3
		c0.3-0.1,0.5-0.4,0.6-0.5c1.2,1.5,2.1,2.2,3.6,3.4c0.7,0,1-0.4,0.8-0.9c-0.1-0.2-0.3-0.3-0.4-0.2v-0.1c0.8-0.7,1.1-1.6,0.3-3.2
		C174.2,110.8,173.4,110.3,172.7,110.3L172.7,110.3z M174.7,111.8c0.1,0.2,0.2,0.4,0.3,0.7c0.5,1,0.1,2.1-0.8,2.5c0,0,0,0-0.1,0
		c0.1-0.2-0.3-0.7-0.5-0.5c0.1-0.2-0.2-0.7-0.5-0.5c0.1-0.2-0.2-0.6-0.5-0.5c0.1-0.2-0.1-0.6-0.4-0.5c0.1-0.3-0.1-0.6-0.4-0.5
		c0-0.2-0.1-0.4-0.2-0.5c0.4-0.3,0.8-0.7,1.1-0.9C173.8,110.6,174.3,111.3,174.7,111.8L174.7,111.8L174.7,111.8L174.7,111.8
		L174.7,111.8z"/>
	<path id="_x31_34" class="st13" d="M175.1,112.8c-0.2-0.1-0.2-0.2-0.2-0.4c0.1-0.1,0.2-0.1,0.4-0.1c0.2,0.1,0.3,0.2,0.2,0.4
		C175.4,112.9,175.2,112.9,175.1,112.8L175.1,112.8z"/>
	<path id="_x31_33" class="st14" d="M170.7,113.1c0.2-0.6,0.7-1.1,1.1-1.2"/>
	<path id="_x31_32" class="st15" d="M170.7,113.1c0-0.1,0.1-0.3,0.2-0.4c0.1-0.1,0.2-0.2,0.2-0.4c0.1-0.1,0.2-0.2,0.3-0.3
		c0.1-0.1,0.3-0.2,0.4-0.2c-0.1,0-0.3,0.1-0.4,0.2c-0.1,0.1-0.2,0.2-0.3,0.3C170.9,112.6,170.8,112.8,170.7,113.1z"/>
	<path id="_x31_31" class="st14" d="M171.1,113.6c0.5,0.1,1.1-0.4,1.3-0.8"/>
	<path id="_x31_30" class="st15" d="M171.1,113.6c0.1,0,0.3,0,0.4,0c0.1,0,0.2-0.1,0.3-0.2s0.2-0.2,0.3-0.3c0.1-0.1,0.2-0.2,0.2-0.3
		c-0.1,0.1-0.1,0.2-0.2,0.3c-0.1,0.1-0.2,0.2-0.3,0.3c-0.1,0.1-0.2,0.1-0.4,0.2C171.4,113.7,171.2,113.7,171.1,113.6z"/>
	<path id="_x31_29" class="st14" d="M171.6,114.2c0.6,0,1-0.4,1.2-0.8"/>
	<path id="_x31_28" class="st15" d="M171.6,114.2c0.1,0,0.3,0,0.4-0.1c0.1,0,0.2-0.1,0.3-0.2s0.2-0.2,0.3-0.2
		c0.1-0.1,0.2-0.2,0.2-0.3c-0.1,0.2-0.3,0.4-0.5,0.6c-0.1,0.1-0.2,0.1-0.3,0.2C171.8,114.2,171.7,114.2,171.6,114.2z"/>
	<path id="_x31_27" class="st14" d="M172.1,114.6c0.5,0,1-0.4,1.2-0.8"/>
	<path id="_x31_26" class="st15" d="M172.1,114.6c0.2,0,0.5-0.1,0.7-0.2c0.1-0.1,0.2-0.1,0.3-0.2s0.2-0.2,0.2-0.3
		c0,0.1-0.1,0.2-0.2,0.3c-0.1,0.1-0.2,0.2-0.3,0.2c-0.1,0.1-0.2,0.1-0.3,0.2C172.3,114.6,172.2,114.7,172.1,114.6z"/>
	<path id="_x31_25" class="st14" d="M172.6,115.1c0.6,0,1-0.3,1.2-0.7"/>
	<path id="_x31_24" class="st15" d="M172.6,115.1c0.1,0,0.2,0,0.3-0.1c0.1,0,0.2-0.1,0.3-0.1c0.1-0.1,0.2-0.1,0.3-0.2
		s0.2-0.2,0.2-0.3c0,0.1-0.1,0.2-0.2,0.3c-0.1,0.1-0.2,0.2-0.3,0.2C173,115.1,172.8,115.1,172.6,115.1z"/>
	<path id="_x31_23" class="st14" d="M173.1,115.6c0.5,0,1-0.3,1.1-0.6"/>
	<path id="_x31_22" class="st15" d="M173.1,115.6c0.1,0,0.2,0,0.3,0s0.2-0.1,0.3-0.1s0.2-0.1,0.3-0.2s0.2-0.2,0.2-0.3
		c0,0.1-0.1,0.2-0.2,0.3c-0.1,0.1-0.2,0.1-0.3,0.2s-0.2,0.1-0.3,0.1S173.2,115.6,173.1,115.6z"/>
	<path id="_x31_21" class="st14" d="M170.7,113.2c0.4,0.1,1.1-0.4,1.2-0.8"/>
	<path id="_x31_20" class="st15" d="M170.7,113.2c0.1,0,0.3,0,0.4-0.1c0.1,0,0.2-0.1,0.3-0.2s0.2-0.2,0.3-0.3
		c0.1-0.1,0.2-0.2,0.2-0.3c0,0.1-0.1,0.2-0.2,0.3c-0.1,0.1-0.2,0.2-0.3,0.3c-0.1,0.1-0.2,0.1-0.3,0.2
		C171,113.2,170.9,113.2,170.7,113.2z"/>
	<path id="_x31_19" class="st14" d="M173.7,116c0.5,0,0.9-0.3,1-0.6"/>
	<path id="_x31_18" class="st15" d="M173.7,116c0.1,0,0.2,0,0.3,0s0.2-0.1,0.3-0.1c0.1-0.1,0.2-0.1,0.2-0.2c0.1-0.1,0.1-0.2,0.2-0.3
		c-0.1,0.2-0.2,0.4-0.4,0.5c-0.1,0.1-0.2,0.1-0.3,0.1S173.8,116,173.7,116z"/>
	<path id="_x31_17" class="st13" d="M175,112.5c-0.2-0.1-0.2-0.2-0.2-0.4c0.1-0.1,0.2-0.1,0.4-0.1c0.2,0.1,0.3,0.2,0.2,0.4
		C175.3,112.5,175.1,112.6,175,112.5L175,112.5z"/>
	<path id="_x31_16" class="st13" d="M174.8,112.1c-0.2-0.1-0.2-0.2-0.2-0.4c0.1-0.1,0.2-0.1,0.4-0.1c0.2,0.1,0.3,0.2,0.2,0.4
		C175.1,112.2,174.9,112.2,174.8,112.1L174.8,112.1z"/>
	<path id="_x31_15" class="st13" d="M174.5,111.8c-0.2-0.1-0.2-0.2-0.2-0.4c0.1-0.1,0.2-0.1,0.4-0.1c0.2,0.1,0.3,0.2,0.2,0.4
		C174.9,111.8,174.7,111.9,174.5,111.8L174.5,111.8z"/>
	<path id="_x31_14" class="st13" d="M174.2,111.5c-0.2-0.1-0.2-0.2-0.2-0.4l0,0c0.1,0,0.2,0.1,0.2,0c0,0,0-0.1,0,0
		c0,0,0.1,0,0.2,0.1c0.2,0.1,0.3,0.2,0.2,0.4C174.5,111.5,174.3,111.6,174.2,111.5L174.2,111.5L174.2,111.5z"/>
	<path id="_x31_13" class="st4" d="M137.7,73.2c2.3-0.8,6-5,6.3-5.8C139,68.7,136.6,72,137.7,73.2z"/>
	<path id="_x31_12" class="st3" d="M137.7,73.2c-1.1-1.2,1.2-4.4,6.2-5.8C140.4,70.1,137.8,72.7,137.7,73.2L137.7,73.2z"/>
	<path id="_x31_11" class="st4" d="M184.8,74.7c-0.5-2.3-4.3-6.1-5-6.4C180.6,73.2,183.6,75.6,184.8,74.7z"/>
	<path id="_x31_10" class="st3" d="M184.8,74.7c-1.2,0.9-4.1-1.5-5-6.4C182.1,71.9,184.3,74.6,184.8,74.7z"/>
	<path id="_x31_09" class="st16" d="M147.2,113.8l0.3,0.6"/>
	<path id="_x31_08" class="st11" d="M150.9,111.1c7.3-9.3,17.8-16.6,25.8-20.5c-1.1-0.1-3.8,1-4.8,1.6c-8,4.5-15,10.7-22.3,18
		c0.4,0.4,0.6,0.7,1.1,1.1L150.9,111.1z"/>
	<path id="_x31_07" class="st8" d="M150.2,111l0.4,0.5c8-9.1,18.9-17.6,26-20.8C166.8,94.5,158.1,103.1,150.2,111L150.2,111z"/>
	<path id="_x31_06" class="st9" d="M150.2,111l0.4,0.5l0,0c1.8-2.1,3.8-4.1,5.8-6.1c2-1.9,4.1-3.8,6.3-5.6c2.2-1.8,4.4-3.5,6.7-5
		c1.2-0.8,2.3-1.5,3.5-2.2s2.4-1.4,3.7-1.9v0.1c-2.6,1-5.1,2.3-7.5,3.8s-4.6,3.2-6.8,5s-4.2,3.7-6.3,5.6
		C154.2,107,152.2,109,150.2,111z M150.2,111c2-2,3.9-4,6-5.9c2-1.9,4.1-3.8,6.3-5.6c2.2-1.8,4.4-3.5,6.8-5c2.4-1.5,4.9-2.8,7.5-3.9
		v0.1c-1.3,0.6-2.5,1.2-3.7,1.9c-1.2,0.7-2.4,1.5-3.5,2.2c-2.3,1.6-4.5,3.3-6.7,5c-2.2,1.8-4.3,3.6-6.3,5.6c-2,1.9-4,3.9-5.8,6l0,0
		l0,0L150.2,111z"/>
	<path id="_x31_05" class="st13" d="M151.8,111.5c-0.1-0.3-0.3-0.4-0.5-0.3c-0.1-0.1-0.1-0.1-0.2-0.1c0,0,0,0-0.1,0
		c-0.1,0.1-0.1,0.1-0.2,0.2c-0.5-0.1-1-0.7-1.1-1.1c-0.5-0.3-1-0.6-1.7-0.8l0,0c-0.8-0.1-1.6,0.3-2.4,1.6c-0.9,1.5-0.6,2.4,0.1,3.2
		v0.1c-0.2-0.1-0.4,0-0.4,0.2c-0.3,0.5,0.1,0.9,0.8,1c1.6-1.1,2.5-1.8,3.8-3.2c0.1,0.1,0.2,0.4,0.6,0.5c0.3,0.1,0.5,0,0.8-0.2
		C151.6,112.2,151.9,111.8,151.8,111.5z M148.7,111.4c-0.3-0.1-0.5,0.2-0.5,0.5c-0.3-0.1-0.6,0.3-0.4,0.5c-0.3-0.1-0.6,0.2-0.5,0.5
		c-0.2-0.1-0.6,0.3-0.5,0.5c-0.2-0.2-0.6,0.3-0.5,0.5c0,0,0,0-0.1,0c-0.8-0.4-1.1-1.6-0.6-2.5c0.1-0.2,0.2-0.4,0.4-0.6l0,0
		c0.4-0.4,1-1.1,1.8-0.7c0.3,0.2,0.7,0.7,1.1,0.9C148.8,111,148.7,111.1,148.7,111.4z"/>
	<path id="_x31_04" class="st14" d="M149.9,112.2c-0.2-0.6-0.6-1.1-1.1-1.3"/>
	<path id="_x31_03" class="st15" d="M149.9,112.2c-0.1-0.3-0.2-0.5-0.4-0.8c-0.1-0.1-0.2-0.2-0.3-0.3c-0.1-0.1-0.2-0.2-0.4-0.2
		c0.1,0,0.3,0.1,0.4,0.2c0.1,0.1,0.2,0.2,0.3,0.3c0.1,0.1,0.2,0.2,0.2,0.4C149.8,111.9,149.9,112.1,149.9,112.2z"/>
	<path id="_x31_02" class="st14" d="M149.4,112.7c-0.5,0.1-1-0.5-1.2-0.9"/>
	<path id="_x31_01" class="st15" d="M149.4,112.7c-0.1,0-0.3,0-0.4,0c-0.1,0-0.2-0.1-0.3-0.2s-0.2-0.2-0.3-0.3
		c-0.1-0.1-0.1-0.2-0.2-0.3c0.1,0.1,0.1,0.2,0.2,0.3c0.1,0.1,0.2,0.2,0.3,0.3c0.1,0.1,0.2,0.2,0.3,0.2
		C149.2,112.7,149.3,112.7,149.4,112.7z"/>
	<path id="_x31_00" class="st14" d="M148.9,113.2c-0.6,0-1-0.5-1.2-0.8"/>
	<path id="_x39_9" class="st15" d="M148.9,113.2c-0.1,0-0.3,0-0.4-0.1c-0.1,0-0.2-0.1-0.3-0.2c-0.2-0.2-0.4-0.4-0.4-0.6
		c0.1,0.1,0.1,0.2,0.2,0.3c0.1,0.1,0.2,0.2,0.3,0.3c0.1,0.1,0.2,0.1,0.3,0.2C148.7,113.2,148.8,113.2,148.9,113.2z"/>
	<path id="_x39_8" class="st14" d="M148.4,113.7c-0.5,0-1-0.5-1.1-0.9"/>
	<path id="_x39_7" class="st15" d="M148.4,113.7c-0.1,0-0.2,0-0.4-0.1c-0.1,0-0.2-0.1-0.3-0.2s-0.2-0.2-0.3-0.3
		c-0.1-0.1-0.1-0.2-0.2-0.3c0.1,0.1,0.1,0.2,0.2,0.3c0.1,0.1,0.2,0.2,0.3,0.3C147.9,113.5,148.2,113.6,148.4,113.7z"/>
	<path id="_x39_6" class="st14" d="M147.9,114.1c-0.6-0.1-1-0.3-1.1-0.7"/>
	<path id="_x39_5" class="st15" d="M147.9,114.1c-0.2,0-0.5-0.1-0.7-0.2c-0.1-0.1-0.2-0.1-0.3-0.2s-0.1-0.2-0.2-0.3
		c0,0.1,0.1,0.2,0.2,0.3c0.1,0.1,0.2,0.2,0.3,0.2c0.1,0.1,0.2,0.1,0.3,0.1C147.7,114.1,147.8,114.1,147.9,114.1z"/>
	<path id="_x39_4" class="st14" d="M147.4,114.5c-0.5,0-1-0.3-1.1-0.7"/>
	<path id="_x39_3" class="st15" d="M147.4,114.5c-0.1,0-0.2,0-0.3,0s-0.2-0.1-0.3-0.1c-0.1-0.1-0.2-0.1-0.3-0.2s-0.1-0.2-0.2-0.3
		c0,0.1,0.1,0.2,0.2,0.3c0.1,0.1,0.2,0.1,0.3,0.2s0.2,0.1,0.3,0.1C147.1,114.5,147.3,114.5,147.4,114.5z"/>
	<path id="_x39_2" class="st14" d="M149.9,112.3c-0.4,0.1-1-0.5-1.2-0.9"/>
	<path id="_x39_1" class="st15" d="M149.9,112.3c-0.1,0-0.3,0-0.4-0.1c-0.1-0.1-0.2-0.1-0.3-0.2s-0.2-0.2-0.3-0.3
		c-0.1-0.1-0.1-0.2-0.2-0.4c0,0.1,0.1,0.2,0.2,0.3c0.1,0.1,0.2,0.2,0.3,0.3c0.1,0.1,0.2,0.2,0.3,0.2
		C149.6,112.3,149.7,112.3,149.9,112.3z"/>
	<path id="_x39_0" class="st14" d="M146.8,115c-0.5,0-0.9-0.4-1-0.7"/>
	<path id="_x38_9" class="st15" d="M146.8,115c-0.1,0-0.2,0-0.3,0s-0.2-0.1-0.3-0.1c-0.2-0.1-0.3-0.3-0.4-0.5c0,0.1,0.1,0.2,0.2,0.3
		c0.1,0.1,0.1,0.2,0.2,0.2c0.1,0.1,0.2,0.1,0.3,0.1C146.6,114.9,146.7,115,146.8,115z"/>
	<path id="_x38_8" class="st13" d="M145.6,111.7c0.2-0.1,0.3-0.2,0.2-0.3c0-0.1-0.2-0.2-0.4-0.1s-0.3,0.2-0.2,0.3
		C145.2,111.7,145.4,111.8,145.6,111.7L145.6,111.7L145.6,111.7z"/>
	<path id="_x38_7" class="st13" d="M145.7,111.4c0.2-0.1,0.3-0.2,0.2-0.3c0-0.1-0.2-0.2-0.4-0.1s-0.3,0.2-0.2,0.3
		C145.3,111.4,145.5,111.4,145.7,111.4L145.7,111.4L145.7,111.4z"/>
	<path id="_x38_6" class="st13" d="M145.9,111c0.2-0.1,0.3-0.2,0.2-0.3c0-0.1-0.2-0.2-0.4-0.1s-0.3,0.2-0.2,0.3
		C145.5,111,145.7,111.1,145.9,111L145.9,111L145.9,111z"/>
	<path id="_x38_5" class="st13" d="M146.2,110.7c0.2-0.1,0.3-0.2,0.2-0.3c0-0.1-0.2-0.2-0.4-0.1s-0.3,0.2-0.2,0.3
		C145.8,110.7,146,110.8,146.2,110.7L146.2,110.7L146.2,110.7z"/>
	<path id="_x38_4" class="st13" d="M146.5,110.4c0.2-0.1,0.3-0.2,0.2-0.3l0,0c-0.1,0-0.2,0-0.2-0.1c0,0,0.1-0.1,0,0
		c0,0-0.2,0-0.2,0.1c-0.2,0.1-0.3,0.2-0.2,0.3C146.2,110.4,146.3,110.5,146.5,110.4L146.5,110.4z"/>
	<path id="_x38_3" class="st17" d="M150,78.2"/>
	<path id="_x38_2" class="st18" d="M151.6,98.4c0,0-2,0.2-2.5-2.5c-0.6-2.9,1.7-3.2,1.7-3.2s2.6-0.3,4.2-0.3l0.7,5.8L151.6,98.4z"/>
	<path id="_x38_1" class="st17" d="M151,92.6"/>
	
		<radialGradient id="_x38_0_1_" cx="267.934" cy="653.4146" r="5.3398" gradientTransform="matrix(1 0 0 1 -117.8999 -558.1888)" gradientUnits="userSpaceOnUse">
		<stop  offset="0.2165" style="stop-color:#B07E09;stop-opacity:0"/>
		<stop  offset="1" style="stop-color:#B07E09"/>
	</radialGradient>
	<path id="_x38_0" class="st19" d="M151.6,98.4c0,0-2,0.2-2.5-2.5c-0.6-2.9,1.7-3.2,1.7-3.2s2.6-0.3,4.2-0.3l0.7,5.8L151.6,98.4z"/>
	<path id="_x37_9" class="st18" d="M151.8,97.5c0,0-1.3,0.2-1.6-1.8c-0.2-1.4,0.7-1.6,0.7-1.6l3,0.5v2.7L151.8,97.5z"/>
	
		<radialGradient id="_x37_8_1_" cx="269.2714" cy="654.9411" r="3.5239" gradientTransform="matrix(1 0 0 1 -117.8999 -558.1888)" gradientUnits="userSpaceOnUse">
		<stop  offset="0.2165" style="stop-color:#B07E09;stop-opacity:0"/>
		<stop  offset="1" style="stop-color:#B07E09"/>
	</radialGradient>
	<path id="_x37_8" class="st20" d="M151.8,97.5c0,0-1.3,0.2-1.6-1.8c-0.2-1.4,0.7-1.6,0.7-1.6l3,0.5v2.7L151.8,97.5z"/>
	<path id="_x37_7" class="st18" d="M151,94.1c0,0,1.9-0.1,2.9-0.3l0.4,1.8l-2.3,0.1C152,95.8,151.9,94.1,151,94.1z"/>
	
		<radialGradient id="_x37_6_1_" cx="270.0959" cy="653.5353" r="3.1583" gradientTransform="matrix(1 0 0 1 -117.8999 -558.1888)" gradientUnits="userSpaceOnUse">
		<stop  offset="0.2165" style="stop-color:#B07E09;stop-opacity:0"/>
		<stop  offset="1" style="stop-color:#B07E09"/>
	</radialGradient>
	<path id="_x37_6" class="st21" d="M151,94.1c0,0,1.9-0.1,2.9-0.3l0.4,1.8l-2.3,0.1C152,95.8,151.9,94.1,151,94.1z"/>
	<path id="_x37_5" class="st18" d="M150.6,92.7c0,0,2.4-0.6,2.8,2.1c0.1,0.7-0.3,2.3-1.5,2.7l4.5-0.5l-0.4-4.8l-1.5,0.1
		C154.4,92.3,151.2,92.4,150.6,92.7z"/>
	
		<radialGradient id="_x37_4_1_" cx="271.4777" cy="653.0232" r="5.6046" gradientTransform="matrix(1 0 0 1 -117.8999 -558.1888)" gradientUnits="userSpaceOnUse">
		<stop  offset="0.2165" style="stop-color:#B07E09;stop-opacity:0"/>
		<stop  offset="1" style="stop-color:#B07E09"/>
	</radialGradient>
	<path id="_x37_4" class="st22" d="M150.6,92.7c0,0,2.4-0.6,2.8,2.1c0.1,0.7-0.3,2.3-1.5,2.7l4.5-0.5l-0.4-4.8l-1.5,0.1
		C154.4,92.3,151.2,92.4,150.6,92.7z"/>
	<path id="_x37_3" class="st18" d="M151.6,98.4c0,0,16.8-1.1,18.5-1.1c5.1-2.8,0-13.7-4.3-19.9c0.5-1.4-9.6-4.5-14.2-4.2
		c-0.6,0-1.1,0.1-1.7,0.1c-2.5,0.3-2.5,3.5-1.5,5.5s9.8,17.8,3.6,19.5L151.6,98.4z"/>
	
		<linearGradient id="_x37_2_1_" gradientUnits="userSpaceOnUse" x1="276.4454" y1="637.561" x2="275.9448" y2="628.7737" gradientTransform="matrix(1 0 0 1 -117.8999 -558.1888)">
		<stop  offset="0.2165" style="stop-color:#B07E09;stop-opacity:0"/>
		<stop  offset="1" style="stop-color:#B07E09"/>
	</linearGradient>
	<path id="_x37_2" class="st23" d="M169.5,83.9c-1.1-2.4-2.5-4.6-3.8-6.5c0.5-1.4-9.6-4.5-14.2-4.2c-0.6,0-1.1,0.1-1.7,0.1
		c-2.5,0.3-2.5,3.5-1.5,5.5c0.3,0.6,1.4,2.6,2.5,5.1"/>
	<path id="_x37_1" class="st24" d="M169.5,83.9c-0.5-1.1-1.1-2.2-1.8-3.3c-0.6-1.1-1.3-2.1-2-3.2l0,0l0,0c0-0.1,0-0.1,0-0.2
		s-0.1-0.1-0.1-0.2c-0.1-0.1-0.2-0.2-0.3-0.3c-0.2-0.2-0.5-0.3-0.8-0.5c-0.5-0.3-1.1-0.5-1.7-0.7c-1.1-0.4-2.3-0.8-3.5-1.1
		c-1.2-0.3-2.4-0.6-3.6-0.8c-0.6-0.1-1.2-0.2-1.8-0.3c-0.6-0.1-1.2-0.1-1.8-0.1c-0.3,0-0.6,0-0.9,0l-0.9,0.1h-0.5
		c-0.1,0-0.3,0-0.4,0.1c-0.3,0.1-0.6,0.2-0.8,0.4c-0.2,0.2-0.4,0.4-0.5,0.7c-0.1,0.3-0.2,0.6-0.3,0.9c-0.1,0.6-0.1,1.2,0,1.8
		c0.1,0.6,0.3,1.2,0.6,1.7s0.6,1.1,0.8,1.6c0.6,1.1,1.1,2.2,1.6,3.3c-0.5-1.1-1.1-2.2-1.6-3.3l-0.8-1.6c-0.3-0.5-0.5-1.1-0.6-1.7
		s-0.1-1.2,0-1.8c0.1-0.3,0.1-0.6,0.3-0.9c0.1-0.3,0.3-0.5,0.6-0.7c0.2-0.2,0.5-0.3,0.8-0.4c0.1,0,0.3-0.1,0.5-0.1h0.5l0.9-0.1
		c0.3,0,0.6,0,0.9,0c0.6,0,1.2,0,1.8,0.1s1.2,0.2,1.8,0.3c1.2,0.2,2.4,0.5,3.6,0.8c1.2,0.3,2.3,0.7,3.5,1.1c0.6,0.2,1.1,0.5,1.7,0.7
		c0.3,0.1,0.5,0.3,0.8,0.5c0.1,0.1,0.2,0.2,0.3,0.3c0,0.1,0.1,0.1,0.1,0.2s0,0.2,0,0.2l0,0c0.7,1,1.4,2.1,2,3.2
		C168.4,81.7,169,82.8,169.5,83.9z"/>
	
		<linearGradient id="_x37_0_1_" gradientUnits="userSpaceOnUse" x1="279.4895" y1="649.6626" x2="280.2542" y2="659.3278" gradientTransform="matrix(1 0 0 1 -117.8999 -558.1888)">
		<stop  offset="0.2165" style="stop-color:#B07E09;stop-opacity:0"/>
		<stop  offset="1" style="stop-color:#B07E09"/>
	</linearGradient>
	<path id="_x37_0" class="st25" d="M152.5,87.7c1.8,4.7,2.8,9.7-0.5,10.6l-0.4,0.1c0,0,16.8-1.1,18.5-1.1c2.8-1.5,2.5-5.4,1-9.7"/>
	<path id="_x36_9" class="st24" d="M152.5,87.7c0.4,1,0.7,1.9,1,2.9s0.5,2,0.6,3c0.1,0.5,0.1,1,0.1,1.5s-0.1,1-0.3,1.5
		s-0.5,0.9-0.9,1.2c-0.2,0.2-0.4,0.3-0.7,0.4c-0.1,0-0.2,0.1-0.4,0.1l-0.4,0.1l0,0l4.6-0.3l4.6-0.3c1.5-0.1,3.1-0.2,4.6-0.3
		c0.8,0,1.5-0.1,2.3-0.1c0.4,0,0.8,0,1.2,0s0.8,0,1.2,0l0,0c0.4-0.2,0.7-0.5,1-0.8s0.5-0.7,0.7-1.1c0.3-0.8,0.4-1.7,0.4-2.6
		s-0.2-1.8-0.3-2.6c-0.2-0.9-0.4-1.7-0.7-2.5c0.3,0.8,0.5,1.7,0.7,2.5c0.2,0.9,0.3,1.7,0.4,2.6c0,0.4,0,0.9-0.1,1.3
		s-0.2,0.9-0.3,1.3c-0.2,0.4-0.4,0.8-0.7,1.1c-0.3,0.3-0.6,0.6-1,0.8l0,0l0,0c-0.4,0-0.8,0-1.2,0s-0.8,0-1.2,0.1
		c-0.8,0-1.5,0.1-2.3,0.1c-1.5,0.1-3.1,0.2-4.6,0.3l-4.6,0.3l-4.6,0.3l0,0l0.4-0.1c0.1,0,0.2-0.1,0.4-0.1c0.2-0.1,0.5-0.2,0.7-0.4
		c0.4-0.3,0.7-0.7,0.9-1.2s0.3-1,0.3-1.5s0-1-0.1-1.5c-0.1-1-0.3-2-0.6-3C153.2,89.6,152.9,88.6,152.5,87.7z"/>
	<path id="_x36_8" class="st26" d="M158.5,86.3c0,0,0,0.1,0.1,0.1c0,0,0.1,0,0.1,0.1h0.1h0.1c0,0,0,0,0.1,0l0,0l0,0l0,0h-0.1h-0.1
		h-0.1h-0.1h-0.1h-0.1h-0.1h-0.1c0,0,0,0-0.1,0l0,0l0,0l0,0h0.1h0.1c0,0,0,0,0-0.1v-0.1l-0.4-1v-0.1l0,0l0,0c0,0,0,0-0.1,0
		c0,0,0,0-0.1,0h-0.1c0,0,0,0-0.1,0l0,0l0,0l0,0c0.1,0,0.2-0.1,0.2-0.1c0.1,0,0.2-0.1,0.2-0.1s0,0,0.1,0c0,0,0,0,0.1,0L158.5,86.3z"
		/>
	<path id="_x36_7" class="st26" d="M158.7,84.9h0.1c0.1,0,0.1,0,0.2,0c0.1,0,0.1,0,0.2,0c0.1,0,0.1,0,0.2,0c0,0,0,0,0.1,0l0,0l0,0
		l0,0l0,0l0,0l0,0l0,0c0,0,0,0,0,0.1c0,0,0,0,0,0.1c0,0,0,0,0,0.1c0,0,0,0,0,0.1c0,0,0,0,0,0.1c0,0,0,0-0.1,0h-0.1h-0.1h-0.1H159
		v0.1c0,0.1,0,0.1,0.1,0.2l0,0l0,0l0,0c0,0,0,0,0.1,0c0,0,0,0,0.1,0h0.1c0.1,0,0.2,0,0.3,0s0.2,0.1,0.2,0.1c0.1,0,0.1,0.1,0.2,0.2
		c0.1,0.1,0.1,0.1,0.1,0.2s0.1,0.2,0.1,0.3c0,0.1,0,0.1-0.1,0.2c0,0.1-0.1,0.1-0.2,0.1c-0.1,0-0.2,0.1-0.3,0.1h-0.1
		c-0.1,0-0.1,0-0.1,0s-0.1,0-0.1-0.1l-0.1-0.1v-0.1c0,0,0-0.1,0.1-0.1c0,0,0,0,0.1,0c0,0,0,0,0.1,0c0,0,0,0,0.1,0c0,0,0,0,0,0.1l0,0
		l0,0l0,0l0,0l0,0l0,0c0,0,0,0,0.1,0c0,0,0,0,0.1,0s0.2-0.1,0.2-0.1c0-0.1,0-0.2-0.1-0.3c0-0.1-0.1-0.2-0.2-0.3
		c-0.1-0.1-0.2-0.1-0.3-0.1s-0.1,0-0.1,0h-0.1h-0.1c0,0,0,0-0.1-0.1c0-0.1-0.1-0.2-0.1-0.3C158.7,85.1,158.7,85,158.7,84.9
		L158.7,84.9L158.7,84.9L158.7,84.9z"/>
	<path id="_x36_6" class="st26" d="M160.9,85.2c0-0.1,0-0.1-0.1-0.1c0,0,0-0.1-0.1-0.1c0,0-0.1,0-0.1-0.1h-0.1c0,0,0,0-0.1,0l0,0
		l0,0l0,0c0,0,0,0,0.1,0h0.1c0,0,0,0,0.1,0h0.1c0.1,0,0.1,0,0.2,0c0.1,0,0.1,0,0.2,0c0.1,0,0.3,0,0.4,0.1c0.1,0,0.3,0.1,0.4,0.2
		c0.1,0.1,0.2,0.2,0.3,0.3c0.1,0.1,0.2,0.2,0.2,0.4c0.1,0.1,0.1,0.3,0.1,0.4s0,0.2-0.1,0.3c-0.1,0.1-0.1,0.1-0.2,0.2
		c-0.1,0-0.2,0.1-0.3,0.1s-0.2,0-0.2,0c-0.1,0-0.1,0-0.2,0h-0.1h-0.1h-0.1h-0.1c0,0,0,0-0.1,0l0,0l0,0l0,0h0.1l0,0c0,0,0,0,0-0.1
		v-0.1L160.9,85.2z M161.6,86c0,0.1,0.1,0.2,0.1,0.2l0.1,0.1h0.1c0,0,0.1,0,0.2,0c0.1,0,0.1,0,0.2-0.1l0.1-0.1c0-0.1,0-0.1,0-0.2
		s0-0.2-0.1-0.3c0-0.1-0.1-0.2-0.2-0.3c-0.1-0.1-0.1-0.2-0.2-0.2c-0.1-0.1-0.2-0.1-0.3-0.1s-0.2,0-0.4,0l0,0c0,0,0,0,0,0.1L161.6,86
		z"/>
	<path id="_x36_5" class="st26" d="M163.7,84.6L163.7,84.6c0.1,0,0.1,0,0.1,0.1l0,0l0,0l0,0v0.1v0.1l0,0l0,0l0,0l0,0
		c0-0.1-0.1-0.1-0.1-0.1s0-0.1-0.1-0.1h-0.1h-0.1h-0.2h-0.1l0,0l0,0v0.1l0.2,0.4l0,0l0,0c0.1,0,0.1,0,0.2,0h0.1c0,0,0,0,0-0.1V85
		l0,0l0,0l0,0l0,0v0.1c0,0,0,0,0,0.1c0,0,0,0,0,0.1c0,0,0,0,0,0.1s0,0.1,0.1,0.1c0,0,0,0,0,0.1v0.1l0,0l0,0l0,0l0,0
		c0,0,0-0.1-0.1-0.1c0,0,0,0-0.1-0.1h-0.1c0,0-0.1,0-0.2,0l0,0l0,0l0.1,0.3c0,0.1,0.1,0.1,0.1,0.2c0,0,0,0.1,0.1,0.1h0.1
		c0,0,0.1,0,0.2,0h0.1h0.1c0,0,0,0,0.1,0c0,0,0,0,0-0.1c0,0,0,0,0-0.1v-0.1l0,0l0,0c0,0,0,0,0.1,0l0,0c0,0.1,0,0.1,0.1,0.2
		c0,0.1,0,0.1,0.1,0.2l0,0l0,0l0,0l0,0h-0.9c-0.1,0-0.1,0-0.2,0c-0.1,0-0.1,0-0.2,0c0,0,0,0-0.1,0l0,0l0,0l0,0h0.1l0,0
		c0,0,0,0,0-0.1V86l-0.4-1v-0.1c0,0,0-0.1-0.1-0.1c0,0,0-0.1-0.1-0.1c0,0,0,0-0.1,0c0,0,0,0-0.1,0c0,0,0,0-0.1,0l0,0l0,0l0,0l0,0
		c0.1,0,0.1,0,0.2,0c0,0,0.1,0,0.2,0L163.7,84.6z"/>
	<path id="_x36_4" class="st26" d="M159.4,92.3C159.4,92.2,159.4,92.2,159.4,92.3c0-0.1,0-0.2-0.1-0.2c0,0,0,0-0.1-0.1h-0.1
		c0,0,0,0-0.1,0l0,0l0,0l0,0c0,0,0,0,0.1,0h0.1c0,0,0,0,0.1,0h0.1c0.1,0,0.1,0,0.2,0c0.1,0,0.1,0,0.2,0c0.1,0,0.3,0,0.4,0
		c0.1,0,0.3,0.1,0.4,0.2c0.1,0.1,0.2,0.2,0.3,0.3c0.1,0.1,0.1,0.2,0.2,0.4c0,0.1,0,0.3,0,0.4s-0.1,0.2-0.1,0.3
		c-0.1,0.1-0.1,0.1-0.3,0.2c-0.1,0-0.2,0.1-0.3,0.1s-0.2,0-0.2,0c-0.1,0-0.1,0-0.2,0h-0.1h-0.1h-0.1h-0.1c0,0,0,0-0.1,0l0,0l0,0l0,0
		h0.1c0,0,0,0,0.1,0c0,0,0,0,0-0.1v-0.1L159.4,92.3z M160,93.1c0,0.1,0,0.2,0.1,0.2c0,0,0,0.1,0.1,0.1h0.1c0,0,0.1,0,0.2,0
		c0.1,0,0.1,0,0.2-0.1c0.1,0,0.1-0.1,0.1-0.1c0-0.1,0-0.1,0-0.2s0-0.2,0-0.3c0-0.1-0.1-0.2-0.1-0.3c0-0.1-0.1-0.2-0.2-0.2
		c-0.1-0.1-0.2-0.1-0.3-0.1s-0.2,0-0.4,0l0,0c0,0,0,0,0,0.1L160,93.1z"/>
	<path id="_x36_3" class="st26" d="M162.2,91.7C162.3,91.7,162.3,91.7,162.2,91.7C162.3,91.7,162.3,91.7,162.2,91.7
		c0.1,0.1,0.1,0.1,0.1,0.1l0,0l0,0v0.1V92l0,0l0,0l0,0l0,0c0-0.1,0-0.1-0.1-0.1c0,0,0-0.1-0.1-0.1c0,0,0,0-0.1,0h-0.1h-0.2h-0.1l0,0
		l0,0v0.1l0.1,0.4l0,0l0,0c0.1,0,0.1,0,0.2,0h0.1c0,0,0,0,0-0.1v-0.1l0,0l0,0l0,0l0,0v0.1c0,0,0,0,0,0.1c0,0,0,0,0,0.1
		c0,0,0,0,0,0.1s0,0.1,0,0.1s0,0,0,0.1v0.1l0,0l0,0l0,0l0,0v-0.1c0,0,0,0-0.1-0.1h-0.1c0,0-0.1,0-0.2,0l0,0l0,0l0.1,0.3
		c0,0.1,0,0.1,0.1,0.2c0,0,0,0.1,0.1,0.1h0.1c0,0,0.1,0,0.2,0h0.1h0.1h0.1c0,0,0,0,0-0.1c0,0,0,0,0-0.1v-0.1l0,0l0,0c0,0,0,0,0.1,0
		l0,0c0,0.1,0,0.1,0,0.2s0,0.1,0,0.2l0,0l0,0l0,0l0,0l-0.9,0.1c-0.1,0-0.1,0-0.2,0s-0.1,0-0.2,0c0,0,0,0-0.1,0l0,0l0,0l0,0h0.1
		c0,0,0,0,0.1,0c0,0,0,0,0-0.1v-0.1l-0.2-1v-0.1V92c0,0,0-0.1-0.1-0.1c0,0,0,0-0.1,0c0,0,0,0-0.1,0c0,0,0,0-0.1,0l0,0l0,0l0,0l0,0
		c0.1,0,0.1,0,0.2,0c0,0,0.1,0,0.2,0L162.2,91.7z"/>
	<path id="_x36_2" class="st26" d="M164.3,93L164.3,93c0,0.1,0,0.1,0.1,0.2h0.1h0.1l0,0l0,0l0,0l0,0h-0.1h-0.1h-0.1h-0.1h-0.1H164
		h-0.1h-0.1c0,0,0,0-0.1,0l0,0l0,0l0,0h0.1h0.1c0,0,0,0,0.1-0.1V93l-0.2-1v-0.1l0,0l0,0c0,0,0,0-0.1,0c0,0,0,0-0.1,0h-0.1
		c0,0,0,0-0.1,0l0,0l0,0l0,0c0.1,0,0.2-0.1,0.3-0.1s0.2-0.1,0.3-0.1c0,0,0,0,0.1,0l0,0L164.3,93z"/>
	<path id="_x36_1" class="st26" d="M165.5,91.9c0-0.1-0.1-0.2-0.1-0.2s-0.1-0.1-0.2-0.1c-0.1,0-0.1,0-0.2,0.1c0,0,0,0.1,0,0.2V92
		l0.1,0.1c0,0,0.1,0,0.1,0.1c0,0,0.1,0,0.2,0.1l0,0l0,0l0.1-0.1C165.5,92.1,165.5,92,165.5,91.9L165.5,91.9L165.5,91.9z M165.8,92.9
		c0-0.1,0-0.1-0.1-0.1l-0.1-0.1l-0.1-0.1c-0.1,0-0.1,0-0.2-0.1l0,0c-0.1,0-0.1,0.1-0.1,0.2s0,0.1,0,0.2s0.1,0.2,0.1,0.3
		c0.1,0.1,0.1,0.1,0.2,0.1c0.1,0,0.2,0,0.2-0.1C165.8,93,165.8,93,165.8,92.9z M166.1,92.8c0,0.1,0,0.2,0,0.2c0,0.1-0.1,0.1-0.1,0.2
		c0,0-0.1,0.1-0.2,0.1s-0.1,0-0.2,0c-0.1,0-0.1,0-0.2,0c-0.1,0-0.1,0-0.2-0.1c-0.1,0-0.1-0.1-0.2-0.1c0-0.1-0.1-0.1-0.1-0.2
		s0-0.2,0-0.3c0.1-0.1,0.1-0.1,0.2-0.2c-0.1,0-0.2-0.1-0.2-0.2c-0.1-0.1-0.1-0.2-0.1-0.2c0-0.1,0-0.1,0-0.2s0-0.1,0.1-0.2
		c0,0,0.1-0.1,0.2-0.1c0.1,0,0.1,0,0.2,0c0.1,0,0.1,0,0.2,0c0.1,0,0.1,0,0.2,0.1c0.1,0,0.1,0.1,0.1,0.1c0,0.1,0.1,0.1,0.1,0.2V92
		v0.1l-0.1,0.1c0,0-0.1,0-0.1,0.1c0,0,0.1,0,0.1,0.1c0.1,0,0.1,0.1,0.2,0.1l0.1,0.1C166,92.7,166.1,92.7,166.1,92.8L166.1,92.8z"/>
	<path id="_x36_0" class="st26" d="M167.1,93c0.1,0,0.1,0,0.1-0.1c0,0,0-0.1,0-0.2l0,0l0,0c0,0,0,0,0.1,0l0,0c0,0.1,0,0.1,0,0.2
		s0,0.1,0,0.2s0,0.1-0.1,0.1l-0.1,0.1c-0.1,0-0.1,0-0.2,0c-0.1,0-0.1,0-0.2,0c-0.1,0-0.1,0-0.2,0h-0.1c-0.1,0-0.1,0-0.1,0s0,0-0.1,0
		l0,0h-0.1c0,0,0,0,0-0.1l0,0c0-0.1,0-0.2,0.1-0.2c0-0.1,0.1-0.1,0.1-0.2s0.1-0.1,0.1-0.1l0.1-0.1l0.1-0.1l0.1-0.1v-0.1
		c0,0,0-0.1,0-0.2s-0.1-0.2-0.1-0.3c-0.1-0.1-0.2-0.1-0.3-0.1h-0.1c0,0-0.1,0-0.1,0.1c0,0,0,0,0,0.1c0,0,0,0,0,0.1l0,0l0,0l0,0
		c0,0,0,0,0.1,0h0.1c0,0,0,0.1,0.1,0.1v0.1h-0.1c-0.1,0-0.1,0-0.1,0s-0.1,0-0.1-0.1c0,0,0-0.1-0.1-0.1v-0.1c0-0.1,0-0.1,0-0.2
		s0-0.1,0.1-0.2c0,0,0.1-0.1,0.2-0.1c0.1,0,0.1,0,0.2,0c0.1,0,0.2,0,0.3,0s0.1,0.1,0.2,0.1c0.1,0,0.1,0.1,0.1,0.2s0.1,0.1,0.1,0.2
		s0,0.2,0,0.3c0,0.1-0.1,0.1-0.1,0.2c-0.1,0.1-0.1,0.1-0.2,0.2c0,0-0.1,0-0.1,0.1l-0.1,0.1c-0.1,0-0.1,0.1-0.1,0.1V93l0,0
		c0,0,0.1,0,0.2,0h0.1h0.1C167,93,167,93,167.1,93L167.1,93L167.1,93z"/>
	<path id="_x35_9" class="st26" d="M168.4,92.9L168.4,92.9c0,0.1,0,0.1,0.1,0.2h0.1h0.1l0,0l0,0l0,0l0,0h-0.1h-0.1h-0.1h-0.1h-0.1
		h-0.1H168h-0.1c0,0,0,0-0.1,0l0,0l0,0l0,0h0.1h0.1c0,0,0,0,0.1-0.1v-0.1l-0.2-1v-0.1l0,0l0,0c0,0,0,0-0.1,0c0,0,0,0-0.1,0h-0.1
		c0,0,0,0-0.1,0c0,0,0,0,0-0.1l0,0l0,0c0.1,0,0.2-0.1,0.3-0.1s0.2-0.1,0.3-0.1c0,0,0,0,0.1,0l0,0L168.4,92.9z"/>
	<path id="_x35_8" class="st26" d="M153.6,82c0-0.1,0-0.1-0.1-0.1c0,0,0-0.1-0.1-0.1h-0.1h-0.1c0,0,0,0-0.1,0l0,0l0,0l0,0
		c0.1,0,0.1,0,0.2,0c0.1,0,0.1,0,0.2,0h0.1h0.1h0.1h0.1c0,0,0,0,0.1,0l0,0l0,0l0,0h-0.1l0,0c0,0,0,0,0,0.1c0,0,0,0.1,0.1,0.1
		l0.4,0.9c0,0.1,0,0.1,0.1,0.1c0,0,0,0.1,0.1,0.1c0,0,0,0,0.1,0h0.1c0,0,0,0,0.1,0h0.1c0.1,0,0.1,0,0.1,0s0.1,0,0.1-0.1v-0.1
		c0,0,0-0.1,0-0.2l0,0l0,0c0,0,0,0,0.1,0l0,0c0,0.1,0,0.2,0.1,0.2c0,0.1,0.1,0.1,0.1,0.2l0,0l0,0l0,0l0,0l-0.9,0.1
		c-0.1,0-0.1,0-0.2,0c-0.1,0-0.1,0-0.2,0c0,0,0,0-0.1,0l0,0l0,0l0,0h0.1l0,0c0,0,0,0,0-0.1V83L153.6,82L153.6,82z"/>
	<path id="_x35_7" class="st26" d="M155.2,81.9c0-0.1,0-0.1-0.1-0.1c0,0,0-0.1-0.1-0.1c0,0,0,0-0.1,0h-0.1c0,0,0,0-0.1,0l0,0l0,0
		l0,0c0.1,0,0.1,0,0.2,0c0.1,0,0.1,0,0.2,0h0.1h0.1h0.1h0.1c0,0,0,0,0.1,0l0,0l0,0l0,0h-0.1l0,0c0,0,0,0,0,0.1c0,0,0,0.1,0.1,0.1
		l0.4,1c0,0.1,0,0.1,0.1,0.1c0,0,0,0,0.1,0.1c0,0,0,0,0.1,0h0.1c0,0,0,0,0.1,0l0,0l0,0l0,0c-0.1,0-0.1,0-0.2,0c-0.1,0-0.1,0-0.2,0
		c-0.1,0-0.1,0-0.2,0c-0.1,0-0.1,0-0.2,0c0,0,0,0-0.1,0l0,0l0,0l0,0h0.1c0,0,0,0,0.1,0c0,0,0,0,0-0.1v-0.1L155.2,81.9z"/>
	<path id="_x35_6" class="st26" d="M156.6,82.2L156.6,82.2L156.6,82.2L156.6,82.2c0.2,0,0.2,0,0.2,0s0.1,0,0.1-0.1V82
		c0,0,0-0.1,0-0.2s0-0.1-0.1-0.1l-0.1-0.1h-0.1h-0.1h-0.1l0,0l0,0l0,0c0,0,0,0,0,0.1L156.6,82.2z M156.8,82.7c0,0.1,0.1,0.2,0.1,0.2
		L157,83h0.1h0.1c0.1,0,0.2,0,0.2-0.1s0-0.1,0-0.2s-0.1-0.1-0.1-0.2l-0.1-0.1c0,0-0.1,0-0.2,0c-0.1,0-0.1,0-0.2,0l0,0l0,0
		c0,0,0,0,0,0.1L156.8,82.7z M156.2,81.9L156.2,81.9c0-0.1,0-0.2-0.1-0.2c0,0,0-0.1-0.1-0.1c0,0,0,0-0.1,0c0,0,0,0-0.1,0
		c0,0,0,0-0.1,0c0,0,0,0-0.1,0l0,0l0,0l0,0c0,0,0,0,0.1,0h0.1c0,0,0,0,0.1,0h0.1h0.1h0.1h0.1h0.1h0.1c0.1,0,0.1,0,0.2,0
		c0.1,0,0.1,0,0.2,0c0.1,0,0.1,0,0.1,0.1l0.1,0.1c0,0,0.1,0.1,0.1,0.2s0,0.1,0,0.2v0.1c0,0,0,0.1-0.1,0.1c0,0-0.1,0-0.1,0.1l0,0l0,0
		c0.2,0,0.3,0.1,0.4,0.1c0.1,0.1,0.2,0.2,0.3,0.3c0,0.1,0.1,0.2,0,0.2c0,0.1,0,0.1-0.1,0.2c0,0-0.1,0.1-0.2,0.1c-0.1,0-0.1,0-0.2,0
		h-0.1H157h-0.1h-0.1h-0.1h-0.1h-0.1h-0.1c0,0,0,0-0.1,0l0,0l0,0l0,0h0.1l0,0c0,0,0,0,0-0.1v-0.1L156.2,81.9z"/>
	<path id="_x35_5" class="st26" d="M158.6,81.3L158.6,81.3c0.1,0,0.1,0,0.1,0.1l0,0l0,0l0,0c0,0,0,0.1,0.1,0.1v0.1l0,0l0,0l0,0l0,0
		c0-0.1-0.1-0.1-0.1-0.1L158.6,81.3l-0.1,0.1h-0.1h-0.2h-0.1l0,0l0,0v0.1l0.2,0.4l0,0l0,0c0.1,0,0.1,0,0.2,0h0.1c0,0,0,0,0-0.1v-0.1
		l0,0l0,0l0,0l0,0v0.1c0,0,0,0,0,0.1c0,0,0,0,0,0.1c0,0,0,0,0,0.1s0,0.1,0.1,0.1c0,0,0,0,0,0.1v0.1l0,0l0,0l0,0l0,0
		c0,0,0-0.1-0.1-0.1c0,0,0,0-0.1-0.1h-0.1c0,0-0.1,0-0.2,0l0,0l0,0l0.1,0.3c0,0.1,0.1,0.1,0.1,0.2c0,0,0,0.1,0.1,0.1h0.1
		c0,0,0.1,0,0.2,0h0.1h0.1c0,0,0,0,0.1,0c0,0,0,0,0-0.1c0,0,0,0,0-0.1v-0.1l0,0l0,0c0,0,0,0,0.1,0l0,0c0,0.1,0,0.1,0.1,0.2
		c0,0.1,0,0.1,0.1,0.2l0,0l0,0l0,0l0,0l-0.9,0.1c-0.1,0-0.1,0-0.2,0c-0.1,0-0.1,0-0.2,0c0,0,0,0-0.1,0l0,0l0,0l0,0h0.1l0,0
		c0,0,0,0,0-0.1v-0.1l-0.4-1v-0.1c0,0,0-0.1-0.1-0.1c0,0,0-0.1-0.1-0.1c0,0,0,0-0.1,0c0,0,0,0-0.1,0c0,0,0,0-0.1,0l0,0l0,0l0,0l0,0
		c0.1,0,0.1,0,0.2,0c0,0,0.1,0,0.2,0L158.6,81.3z"/>
	<path id="_x35_4" class="st26" d="M159.3,81.7L159.3,81.7c0-0.1,0-0.2-0.1-0.2c0,0,0-0.1-0.1-0.1c0,0,0,0-0.1,0c0,0,0,0-0.1,0
		c0,0,0,0-0.1,0c0,0,0,0-0.1,0l0,0l0,0l0,0c0,0,0,0,0.1,0h0.1c0,0,0,0,0.1,0h0.1c0.1,0,0.1,0,0.1,0h0.1c0.1,0,0.1,0,0.2,0
		c0.1,0,0.1,0,0.2,0c0.1,0,0.1,0,0.2,0.1c0.1,0,0.1,0.1,0.2,0.1c0.1,0.1,0.1,0.1,0.1,0.2s0,0.1,0,0.2s0,0.1,0,0.1l-0.1,0.1
		c0,0-0.1,0-0.1,0.1l0,0l0,0c0.1,0,0.1,0.1,0.2,0.1c0.1,0,0.1,0.1,0.1,0.1l0.1,0.1l0.1,0.1c0,0,0,0.1,0.1,0.1c0,0,0,0.1,0.1,0.1
		c0,0,0,0.1,0.1,0.1l0,0l0,0c0,0,0,0,0-0.1l0,0l0,0c0,0,0,0,0.1,0c0,0,0,0,0,0.1v0.1v0.1c0,0,0,0-0.1,0.1h-0.1h-0.1h-0.1h-0.1
		c0,0,0,0-0.1-0.1c0,0,0-0.1-0.1-0.1c0,0,0-0.1-0.1-0.1c0,0,0-0.1-0.1-0.1c0,0,0-0.1-0.1-0.1c-0.1-0.1-0.1-0.2-0.2-0.2
		c-0.1,0-0.1-0.1-0.2-0.1c0,0,0,0-0.1,0c0,0,0,0,0,0.1l0.1,0.3c0,0.1,0,0.1,0.1,0.1c0,0,0,0.1,0.1,0.1h0.1h0.1c0,0,0,0,0.1,0l0,0
		l0,0l0,0h-0.1h-0.1h-0.1h-0.1c-0.1,0-0.1,0-0.2,0c-0.1,0-0.1,0-0.2,0c0,0,0,0-0.1,0l0,0l0,0l0,0h0.1l0,0c0,0,0,0,0-0.1v-0.1
		L159.3,81.7z M159.8,82C159.8,82,159.8,82.1,159.8,82c0.1,0.1,0.1,0.1,0.1,0.1c0.1,0,0.1,0,0.1,0s0.1,0,0.1-0.1v-0.1
		c0,0,0-0.1-0.1-0.2c0-0.1-0.1-0.1-0.1-0.2l-0.1-0.1h-0.1h-0.1c-0.1,0-0.1,0-0.1,0s0,0,0,0.1L159.8,82z"/>
	<path id="_x35_3" class="st26" d="M162.1,82.6c0,0.1,0,0.1,0.1,0.1c0,0,0,0,0.1,0.1c0,0,0,0,0.1,0h0.1c0,0,0,0,0.1,0l0,0l0,0l0,0
		c-0.1,0-0.1,0-0.2,0c-0.1,0-0.1,0-0.2,0c-0.1,0-0.1,0-0.2,0c-0.1,0-0.1,0-0.2,0c0,0,0,0-0.1,0l0,0l0,0l0,0c0.1,0,0.1,0,0.1,0
		s0,0,0.1,0c0,0,0,0,0-0.1v-0.1l-0.5-1.1c0-0.1,0-0.1-0.1-0.1h-0.1c-0.1,0-0.1,0-0.1,0H161v0.1c0,0,0,0.1,0,0.2l0,0l0,0l0,0l0,0
		c0-0.1,0-0.1-0.1-0.2c0-0.1-0.1-0.1-0.1-0.2v-0.1h0.1l1.4-0.1h0.1c0,0,0.1,0,0.1,0.1c0,0,0,0,0,0.1v0.1v0.1c0,0,0,0.1,0.1,0.1l0,0
		l0,0l0,0l0,0c0-0.1-0.1-0.1-0.1-0.2l-0.1-0.1h-0.1h-0.1c-0.1,0-0.1,0-0.1,0s0,0,0,0.1V82.6z"/>
	<path id="_x35_2" class="st26" d="M163.3,82.3L163.3,82.3L163.3,82.3v0.3c0,0,0,0,0,0.1l0,0l0,0c0,0,0,0,0.1,0c0,0,0,0,0.1,0
		c0,0,0,0,0.1,0l0,0l0,0l0,0c0,0,0,0-0.1,0h-0.1h-0.1h-0.1h-0.1H163c0,0,0,0-0.1,0l0,0l0,0l0,0l0,0c0,0,0,0,0.1,0l0,0c0,0,0,0,0-0.1
		v-0.1V81c0,0,0,0,0.1,0h0.1c0.1,0.1,0.2,0.2,0.3,0.4c0.1,0.1,0.2,0.2,0.3,0.4c0.1,0.1,0.2,0.3,0.3,0.4s0.2,0.2,0.3,0.4l0.1,0.1
		c0,0,0.1,0,0.1,0.1c0,0,0,0,0.1,0c0,0,0,0,0.1,0c0,0,0,0,0.1,0l0,0l0,0l0,0h-0.1h-0.1h-0.1h-0.1c-0.1,0-0.1,0-0.2,0
		c-0.1,0-0.1,0-0.2,0c0,0,0,0-0.1,0l0,0l0,0l0,0c0.1,0,0.1,0,0.1,0s0,0,0-0.1l0,0c0,0,0,0,0-0.1c0,0,0-0.1-0.1-0.1
		c0,0-0.1-0.1-0.1-0.2l0,0c0,0,0,0-0.1,0L163.3,82.3z M163.7,82.1L163.7,82.1L163.7,82.1l-0.4-0.6l0,0l0,0v0.6l0,0l0,0H163.7z"/>
	<path id="_x35_1" class="st26" d="M164.7,81.5c0-0.1,0-0.1-0.1-0.1c0,0,0-0.1-0.1-0.1c0,0-0.1,0-0.1-0.1s-0.1,0-0.1,0s0,0-0.1,0
		l0,0l0,0l0,0c0,0,0,0,0.1,0h0.1c0,0,0,0,0.1,0h0.1c0.1,0,0.1,0,0.2,0c0.1,0,0.1,0,0.2,0c0.1,0,0.3,0,0.4,0.1c0.1,0,0.3,0.1,0.4,0.2
		c0.1,0.1,0.2,0.2,0.3,0.3c0.1,0.1,0.2,0.2,0.2,0.4c0.1,0.1,0.1,0.3,0.1,0.4s0,0.2-0.1,0.3c-0.1,0.1-0.1,0.1-0.2,0.2
		c-0.1,0-0.2,0.1-0.3,0.1s-0.2,0-0.2,0c-0.1,0-0.1,0-0.2,0h-0.1h-0.1h-0.1H165c0,0,0,0-0.1,0l0,0l0,0l0,0h0.1l0,0c0,0,0,0,0-0.1V83
		L164.7,81.5z M165.3,82.3c0,0.1,0.1,0.2,0.1,0.2s0,0.1,0.1,0.1h0.1c0,0,0.1,0,0.2,0c0.1,0,0.1,0,0.2,0l0.1-0.1c0-0.1,0-0.1,0-0.2
		s0-0.2-0.1-0.3c0-0.1-0.1-0.2-0.2-0.3c-0.1-0.1-0.1-0.2-0.2-0.2c-0.1-0.1-0.2-0.1-0.3-0.1s-0.2,0-0.4,0l0,0c0,0,0,0,0,0.1
		L165.3,82.3z"/>
	<path id="_x35_0" class="st26" d="M154.9,89.2c0,0,0,0.1,0.1,0.1l0.1,0.1c0,0,0.1,0,0.1,0.1h0.1c0.1,0,0.2,0.1,0.2,0.1
		c0.1,0,0.1,0.1,0.2,0.1c0.1,0,0.1,0.1,0.2,0.2C156,90,156,90,156,90.1s0,0.2,0,0.2c0,0.1,0,0.1-0.1,0.2c0,0-0.1,0.1-0.2,0.1
		c-0.1,0-0.1,0-0.2,0c-0.1,0-0.1,0-0.2,0c-0.1,0-0.1,0-0.2-0.1l0,0l0,0l0,0l0,0l0,0l0,0l0,0l0,0v-0.1v-0.1v-0.1c0,0,0-0.1-0.1-0.1
		l0,0l0,0c0,0,0,0,0.1,0l0,0c0,0.1,0.1,0.1,0.1,0.2s0.1,0.1,0.1,0.1c0.1,0,0.1,0.1,0.2,0.1c0.1,0,0.1,0,0.2,0h0.1c0,0,0.1,0,0.1-0.1
		v-0.1v-0.1c0-0.1,0-0.1-0.1-0.1l-0.1-0.1l-0.1-0.1c-0.1,0-0.1,0-0.2-0.1c-0.1,0-0.1,0-0.2-0.1c-0.1,0-0.1-0.1-0.2-0.1
		c-0.1,0-0.1-0.1-0.2-0.1c0-0.1-0.1-0.1-0.1-0.2s0-0.2,0-0.2c0-0.1,0-0.1,0.1-0.2c0,0,0.1-0.1,0.2-0.1c0.1,0,0.1,0,0.2,0h0.1h0.1
		c0,0,0,0,0.1,0l0,0l0,0l0,0l0,0l0,0l0,0v0.1V89v0.1c0,0,0,0.1,0.1,0.1l0,0l0,0l0,0l0,0c0-0.1-0.1-0.1-0.1-0.2l-0.1-0.1h-0.1h-0.1
		h-0.1c0,0-0.1,0-0.1,0.1c0,0,0,0,0,0.1C154.8,89.1,154.8,89.2,154.9,89.2L154.9,89.2z"/>
	<path id="_x34_9" class="st26" d="M157,88.7C157,88.7,157.1,88.7,157,88.7c0.1,0,0.1,0,0.1,0.1l0,0l0,0l0,0v0.1V89l0,0l0,0l0,0l0,0
		c0-0.1-0.1-0.1-0.1-0.1s0-0.1-0.1-0.1h-0.1h-0.1h-0.2h-0.1l0,0l0,0v0.1l0.2,0.4l0,0l0,0c0.1,0,0.1,0,0.2,0h0.1c0,0,0,0,0-0.1v-0.1
		l0,0l0,0l0,0l0,0v0.1c0,0,0,0,0,0.1c0,0,0,0,0,0.1c0,0,0,0,0,0.1s0,0.1,0.1,0.1c0,0,0,0,0,0.1v0.1l0,0l0,0l0,0l0,0
		c0,0,0-0.1-0.1-0.1c0,0,0,0-0.1-0.1h-0.1c0,0-0.1,0-0.2,0l0,0l0,0l0.1,0.3c0,0.1,0,0.1,0.1,0.2c0,0,0,0.1,0.1,0.1h0.1
		c0,0,0.1,0,0.2,0h0.1h0.1c0,0,0,0,0.1,0c0,0,0,0,0-0.1c0,0,0,0,0-0.1v-0.1l0,0l0,0c0,0,0,0,0.1,0l0,0c0,0.1,0,0.1,0,0.2
		s0,0.1,0.1,0.2l0,0l0,0l0,0l0,0l-0.9,0.1c-0.1,0-0.1,0-0.2,0c-0.1,0-0.1,0-0.2,0c0,0,0,0-0.1,0l0,0l0,0l0,0h0.1c0,0,0,0,0.1,0
		c0,0,0,0,0-0.1v-0.1l-0.3-1v-0.1V89c0,0,0,0-0.1-0.1c0,0,0,0-0.1,0c0,0,0,0-0.1,0c0,0,0,0-0.1,0l0,0l0,0l0,0l0,0c0.1,0,0.1,0,0.2,0
		c0,0,0.1,0,0.2,0L157,88.7z"/>
	<path id="_x34_8" class="st26" d="M158.4,90c0,0.1,0,0.1,0.1,0.1c0,0,0,0.1,0.1,0.1h0.1h0.1c0,0,0,0,0.1,0l0,0l0,0l0,0
		c-0.1,0-0.2,0-0.2,0c-0.1,0-0.1,0-0.2,0c-0.1,0-0.1,0-0.2,0c-0.1,0-0.1,0-0.2,0c0,0,0,0-0.1,0l0,0l0,0l0,0h0.1l0,0c0,0,0,0,0-0.1
		V90l-0.3-1v-0.1v-0.1c0,0,0-0.1-0.1-0.1c0,0,0,0-0.1,0c0,0,0,0-0.1,0c0,0,0,0-0.1,0l0,0l0,0l0,0l0,0c0.1,0,0.1,0,0.2,0
		c0,0,0.1,0,0.2,0c0.1,0,0.2,0,0.2,0c0.1,0,0.1,0,0.2,0c0.1,0,0.1,0,0.2,0c0.1,0,0.1,0,0.2,0.1c0.1,0,0.1,0.1,0.2,0.1
		c0.1,0.1,0.1,0.1,0.1,0.2s0,0.2,0,0.3c0,0.1-0.1,0.1-0.1,0.2c-0.1,0-0.1,0.1-0.2,0.1c-0.1,0-0.2,0-0.3,0.1l0,0l0,0L158.4,90z
		 M158.2,89.5L158.2,89.5L158.2,89.5c0.1,0,0.2,0,0.2,0s0.1,0,0.1-0.1v-0.1c0,0,0-0.1,0-0.2s-0.1-0.2-0.2-0.3
		c-0.1,0-0.1-0.1-0.3-0.1c-0.1,0-0.1,0-0.1,0s0,0,0,0.1L158.2,89.5z"/>
	<path id="_x34_7" class="st26" d="M160.2,89.9C160.2,90,160.2,90,160.2,89.9c0,0.1,0,0.1,0,0.2c0,0,0,0,0.1,0h0.1c0,0,0,0,0.1,0
		l0,0l0,0l0,0c-0.1,0-0.1,0-0.2,0c-0.1,0-0.1,0-0.2,0c-0.1,0-0.1,0-0.2,0c-0.1,0-0.1,0-0.2,0c0,0,0,0-0.1,0l0,0l0,0l0,0
		c0.1,0,0.1,0,0.1,0s0,0,0.1,0c0,0,0,0,0-0.1v-0.1l-0.4-1.1c0-0.1,0-0.1-0.1-0.1h-0.1c-0.1,0-0.1,0-0.1,0s-0.1,0-0.1,0.1v0.1
		c0,0,0,0.1,0,0.2l0,0l0,0l0,0l0,0c0-0.1,0-0.1-0.1-0.2c0-0.1,0-0.1-0.1-0.2v-0.1h0.1l1.3-0.1h0.1c0,0,0.1,0,0.1,0.1c0,0,0,0,0,0.1
		v0.1v0.1V89l0,0l0,0l0,0l0,0c0-0.1-0.1-0.1-0.1-0.2l-0.1-0.1h-0.1H160c-0.1,0-0.1,0-0.1,0s0,0,0,0.1L160.2,89.9z"/>
	<path id="_x34_6" class="st26" d="M160.8,88.9c0-0.1,0-0.1-0.1-0.1c0,0,0-0.1-0.1-0.1c0,0,0,0-0.1,0h-0.1c0,0,0,0-0.1,0l0,0l0,0
		l0,0c0.1,0,0.1,0,0.2,0c0.1,0,0.1,0,0.2,0h0.1h0.1h0.1h0.1c0,0,0,0,0.1,0l0,0l0,0l0,0h-0.1l0,0c0,0,0,0,0,0.1v0.1l0.3,1
		c0,0.1,0,0.1,0,0.1s0,0,0,0.1c0,0,0,0,0.1,0h0.1c0,0,0,0,0.1,0l0,0l0,0l0,0c-0.1,0-0.1,0-0.2,0c-0.1,0-0.1,0-0.2,0
		c-0.1,0-0.1,0-0.2,0c-0.1,0-0.1,0-0.2,0c0,0,0,0-0.1,0l0,0l0,0l0,0c0.1,0,0.1,0,0.1,0s0,0,0.1,0c0,0,0,0,0-0.1v-0.1L160.8,88.9z"/>
	<path id="_x34_5" class="st26" d="M162.7,88.4C162.7,88.3,162.7,88.4,162.7,88.4c0.1,0,0.1,0,0.1,0.1l0,0l0,0l0,0v0.1v0.1l0,0l0,0
		l0,0l0,0c0-0.1-0.1-0.1-0.1-0.1s0-0.1-0.1-0.1h-0.1h-0.1h-0.2h-0.1l0,0l0,0v0.1l0.1,0.4l0,0l0,0c0.1,0,0.1,0,0.2,0h0.1
		c0,0,0,0,0-0.1v-0.1l0,0l0,0l0,0l0,0v0.1c0,0,0,0,0,0.1c0,0,0,0,0,0.1c0,0,0,0,0,0.1s0,0.1,0.1,0.1c0,0,0,0,0,0.1v0.1l0,0l0,0l0,0
		l0,0c0,0,0-0.1-0.1-0.1c0,0,0,0-0.1-0.1h-0.1c0,0-0.1,0-0.2,0l0,0l0,0l0.1,0.3c0,0.1,0,0.1,0.1,0.2c0,0,0,0.1,0.1,0.1h0.1
		c0,0,0.1,0,0.2,0h0.1h0.1c0,0,0,0,0.1,0c0,0,0,0,0-0.1c0,0,0,0,0-0.1v-0.1l0,0l0,0c0,0,0,0,0.1,0l0,0c0,0.1,0,0.1,0,0.2
		s0,0.1,0.1,0.2l0,0l0,0l0,0l0,0h-0.9c-0.1,0-0.1,0-0.2,0c-0.1,0-0.1,0-0.2,0c0,0,0,0-0.1,0l0,0l0,0l0,0h0.1c0,0,0,0,0.1,0
		c0,0,0,0,0-0.1v-0.1l-0.3-1v-0.1v-0.1c0,0,0-0.1-0.1-0.1c0,0,0,0-0.1,0c0,0,0,0-0.1,0c0,0,0,0-0.1,0l0,0l0,0l0,0l0,0
		c0.1,0,0.1,0,0.2,0c0,0,0.1,0,0.2,0L162.7,88.4z"/>
	<path id="_x34_4" class="st26" d="M163.4,88.7L163.4,88.7c0-0.1,0-0.1,0-0.2c0,0,0,0-0.1,0h-0.1c0,0,0,0-0.1,0l0,0l0,0l0,0
		c0,0,0,0,0.1,0h0.1h0.1h0.1h0.1h0.1l0.9,1.2l0,0l0,0l0.1-1.2c0,0,0,0,0.1,0c0,0,0.1,0,0.2,0c0.1,0,0.1,0,0.2,0c0.1,0,0.1,0,0.1,0
		s0,0,0.1,0l0,0l0,0l0,0c-0.1,0-0.1,0-0.1,0l0,0c0,0,0,0,0,0.1c0,0,0,0.1,0.1,0.2l0.3,0.9c0,0.1,0,0.1,0,0.1s0,0,0,0.1
		c0,0,0,0,0.1,0h0.1c0,0,0,0,0.1,0l0,0l0,0l0,0c-0.1,0-0.1,0-0.2,0c-0.1,0-0.1,0-0.2,0c-0.1,0-0.1,0-0.2,0c-0.1,0-0.1,0-0.2,0
		c0,0,0,0-0.1,0l0,0l0,0l0,0c0.1,0,0.1,0,0.1,0s0,0,0.1,0c0,0,0,0,0-0.1v-0.1l-0.3-1l0,0l0,0l-0.1,0.9c0,0.1,0,0.1,0,0.2
		s0,0.1,0,0.2l0,0l0,0l0,0l0,0l-1-1.3l0,0l0,0l0.3,1c0,0.1,0,0.1,0.1,0.1c0,0,0,0.1,0.1,0.1c0,0,0,0,0.1,0h0.1l0,0l0,0l0,0l0,0h-0.1
		c0,0-0.1,0-0.2,0c-0.1,0-0.1,0-0.2,0H164l0,0l0,0l0,0l0,0h0.1c0,0,0,0,0.1,0c0,0,0,0,0-0.1v-0.1L163.4,88.7z"/>
	<path id="_x34_3" class="st26" d="M166.2,88.9C166.2,89,166.2,89,166.2,88.9C166.2,89,166.2,89,166.2,88.9L166.2,88.9
		c0.1,0,0.2,0,0.2,0s0.1,0,0.1-0.1v-0.1c0,0,0-0.1,0-0.2s0-0.1-0.1-0.1l-0.1-0.1h-0.1h-0.1H166l0,0l0,0l0,0c0,0,0,0,0,0.1
		L166.2,88.9z M166.3,89.5c0,0.1,0.1,0.2,0.1,0.2s0,0.1,0.1,0.1c0,0,0,0,0.1,0h0.1c0.1,0,0.2,0,0.2-0.1s0-0.1,0-0.2
		s-0.1-0.1-0.1-0.2l-0.1-0.1c0,0-0.1,0-0.1-0.1c-0.1,0-0.1,0-0.2,0l0,0l0,0c0,0,0,0,0,0.1L166.3,89.5z M165.8,88.7L165.8,88.7v-0.2
		c0,0,0-0.1-0.1-0.1c0,0,0,0-0.1,0c0,0,0,0-0.1,0c0,0,0,0-0.1,0l0,0l0,0l0,0l0,0c0,0,0,0,0.1,0h0.1c0,0,0,0,0.1,0h0.1h0.1h0.1h0.1
		h0.1h0.1c0.1,0,0.1,0,0.2,0c0.1,0,0.1,0,0.2,0c0.1,0,0.1,0,0.1,0.1l0.1,0.1c0,0,0.1,0.1,0.1,0.2s0,0.1,0,0.2v0.1c0,0,0,0.1-0.1,0.1
		c0,0-0.1,0-0.1,0.1l0,0l0,0c0.2,0,0.3,0.1,0.4,0.2c0.1,0.1,0.2,0.2,0.2,0.3c0,0.1,0,0.2,0,0.2c0,0.1,0,0.1-0.1,0.2
		c0,0-0.1,0.1-0.2,0.1c-0.1,0-0.1,0-0.2,0h-0.1h-0.1h-0.1h-0.1h-0.1h-0.1h-0.1h-0.1c0,0,0,0-0.1,0l0,0l0,0l0,0h0.1c0,0,0,0,0.1,0
		c0,0,0,0,0-0.1v-0.1L165.8,88.7z"/>
	<path id="_x34_2" class="st26" d="M167.4,88.6L167.4,88.6v-0.2c0,0,0-0.1-0.1-0.1c0,0,0,0-0.1,0c0,0,0,0-0.1,0c0,0,0,0-0.1,0l0,0
		l0,0l0,0l0,0c0,0,0,0,0.1,0h0.1c0,0,0,0,0.1,0h0.1c0.1,0,0.1,0,0.1,0h0.1c0.1,0,0.1,0,0.2,0c0.1,0,0.1,0,0.2,0c0.1,0,0.1,0,0.2,0.1
		c0.1,0,0.1,0.1,0.2,0.1c0.1,0.1,0.1,0.1,0.1,0.2s0,0.1,0,0.2s0,0.1,0,0.1l-0.1,0.1c0,0-0.1,0-0.1,0.1l0,0l0,0
		c0.1,0,0.1,0.1,0.2,0.1l0.1,0.1l0.1,0.1c0,0,0,0.1,0.1,0.1c0,0,0,0.1,0.1,0.1c0,0,0,0.1,0.1,0.1c0,0,0,0.1,0.1,0.1l0,0l0,0
		c0,0,0,0,0-0.1l0,0l0,0c0,0,0,0,0.1,0c0,0,0,0,0,0.1V90c0,0,0,0.1-0.1,0.1c0,0-0.1,0-0.1,0.1h-0.1h-0.1h-0.1h-0.1c0,0,0,0-0.1-0.1
		c0,0,0-0.1-0.1-0.1c0,0,0-0.1-0.1-0.1c0,0,0-0.1-0.1-0.1v-0.1c-0.1-0.1-0.1-0.2-0.2-0.2c-0.1,0-0.1-0.1-0.2-0.1c0,0,0,0-0.1,0
		c0,0,0,0,0,0.1l0.1,0.3c0,0.1,0,0.1,0.1,0.1c0,0,0,0.1,0.1,0.1h0.1h0.1c0,0,0,0,0.1,0l0,0l0,0l0,0h-0.1h-0.1H168h-0.1
		c-0.1,0-0.1,0-0.2,0c-0.1,0-0.1,0-0.2,0c0,0,0,0-0.1,0l0,0l0,0l0,0h0.1c0,0,0,0,0.1,0c0,0,0,0,0-0.1v-0.1L167.4,88.6z M167.8,88.9
		C167.8,88.9,167.8,89,167.8,88.9c0.1,0.1,0.1,0.1,0.1,0.1c0.1,0,0.1,0,0.2,0c0,0,0.1,0,0.1-0.1v-0.1c0,0,0-0.1,0-0.2s0-0.1-0.1-0.2
		l-0.1-0.1c0,0-0.1,0-0.1-0.1h-0.1c-0.1,0-0.1,0-0.1,0s0,0,0,0.1L167.8,88.9z"/>
	<path id="_x34_1" class="st26" d="M170,88.1C170,88.1,170.1,88.1,170,88.1c0.1,0,0.1,0,0.1,0.1l0,0l0,0l0,0v0.1v0.1l0,0l0,0l0,0
		l0,0c0-0.1-0.1-0.1-0.1-0.1s0-0.1-0.1-0.1h-0.1h-0.1h-0.2h-0.1l0,0l0,0v0.1l0.1,0.4l0,0l0,0c0.1,0,0.1,0,0.2,0h0.1c0,0,0,0,0-0.1
		v-0.1l0,0l0,0l0,0l0,0v0.1c0,0,0,0,0,0.1c0,0,0,0,0,0.1c0,0,0,0,0,0.1s0,0.1,0,0.1s0,0,0,0.1v0.1l0,0l0,0l0,0l0,0
		c0-0.1,0-0.1-0.1-0.1c0,0,0,0-0.1-0.1h-0.1c0,0-0.1,0-0.2,0l0,0l0,0l0.1,0.3c0,0.1,0,0.1,0.1,0.2c0,0,0,0.1,0.1,0.1h0.1
		c0,0,0.1,0,0.2,0h0.1h0.1h0.1l0,0c0,0,0,0,0-0.1v-0.1l0,0l0,0c0,0,0,0,0.1,0l0,0c0,0.1,0,0.1,0,0.2s0,0.1,0,0.2l0,0l0,0l0,0l0,0
		h-0.9c-0.1,0-0.1,0-0.2,0c-0.1,0-0.1,0-0.2,0c0,0,0,0-0.1,0l0,0l0,0l0,0h0.1c0,0,0,0,0.1,0c0,0,0,0,0-0.1v-0.1l-0.3-1v-0.1v-0.1
		c0,0,0-0.1-0.1-0.1c0,0,0,0-0.1,0c0,0,0,0-0.1,0c0,0,0,0-0.1,0l0,0l0,0l0,0l0,0c0.1,0,0.1,0,0.2,0c0,0,0.1,0,0.2,0L170,88.1z"/>
	<path id="_x34_0" class="st18" d="M150,74.3c-1.2,0-1.5,1.2-1.5,1.9c0,1.9,1.5,2,1.5,2l1.9-0.1l0.9-3.9L150,74.3z"/>
	
		<radialGradient id="_x33_9_1_" cx="267.4687" cy="635.3593" r="4.2042" gradientTransform="matrix(1 0 0 1 -117.8999 -558.1888)" gradientUnits="userSpaceOnUse">
		<stop  offset="0.2165" style="stop-color:#B07E09;stop-opacity:0"/>
		<stop  offset="1" style="stop-color:#B07E09"/>
	</radialGradient>
	<path id="_x33_9" class="st27" d="M150,74.3c-1.2,0-1.5,1.2-1.5,1.9c0,1.9,1.5,2,1.5,2l1.9-0.1l0.9-3.9L150,74.3z"/>
	<path id="_x33_8" class="st18" d="M150,74.3l2.8-0.2l0.3,2.9l-2.5,0.1C150.7,77.2,151.5,74.9,150,74.3z"/>
	
		<linearGradient id="_x33_7_1_" gradientUnits="userSpaceOnUse" x1="269.2034" y1="634.4153" x2="270.439" y2="631.5261" gradientTransform="matrix(1 0 0 1 -117.8999 -558.1888)">
		<stop  offset="0.2165" style="stop-color:#B07E09;stop-opacity:0"/>
		<stop  offset="1" style="stop-color:#B07E09"/>
	</linearGradient>
	<path id="_x33_7" class="st28" d="M150,74.3l2.8-0.2l0.3,2.9l-2.5,0.1C150.7,77.2,151.5,74.9,150,74.3z"/>
	<path id="_x33_6" class="st18" d="M165.8,77.5c2.2-0.3,2.1-3.3,0.7-4.4c-5-0.2-11.6,0-16.4,0.3c0.5,0,2,0.1,2.2,2.1
		c0.1,0.9-0.4,1.8-1,2.3s-1.3,0.5-1.3,0.5c0.1,0,0.7,0,1.2,0c0.2,0,0.8-0.1,1-0.1C159,77.2,165.7,77.5,165.8,77.5L165.8,77.5
		L165.8,77.5z"/>
	
		<linearGradient id="_x33_5_1_" gradientUnits="userSpaceOnUse" x1="276.3013" y1="630.4772" x2="277.1461" y2="641.1989" gradientTransform="matrix(1 0 0 1 -117.8999 -558.1888)">
		<stop  offset="0.2165" style="stop-color:#B07E09;stop-opacity:0"/>
		<stop  offset="1" style="stop-color:#B07E09"/>
	</linearGradient>
	<path id="_x33_5" class="st29" d="M165.8,77.5c2.2-0.3,2.1-3.3,0.7-4.4c-5-0.2-11.6,0-16.4,0.3c0.5,0,2,0.1,2.2,2.1
		c0.1,0.9-0.4,1.8-1,2.3s-1.3,0.5-1.3,0.5c0.1,0,0.7,0,1.2,0c0.2,0,0.8-0.1,1-0.1C159,77.2,165.7,77.5,165.8,77.5L165.8,77.5
		L165.8,77.5z"/>
	<path id="_x33_4" class="st30" d="M159.2,66.5L158,68c-0.4,1.7,0.6,3,2.5,4.1c1.5,1,4.4,0.8,5.3,0l-4.4-3.8L159.2,66.5z"/>
	
		<radialGradient id="_x33_3_1_" cx="276.3945" cy="627.4417" r="4.7266" gradientTransform="matrix(1 0 0 1 -117.8999 -558.1888)" gradientUnits="userSpaceOnUse">
		<stop  offset="0.2592" style="stop-color:#4C0505;stop-opacity:0"/>
		<stop  offset="1" style="stop-color:#4C0505"/>
	</radialGradient>
	<path id="_x33_3" class="st31" d="M159.2,66.5L158,68c-0.4,1.7,0.6,3,2.5,4.1c1.5,1,4.4,1.2,5.3,0.4l-4.4-4.2L159.2,66.5z"/>
	<path id="_x33_2" class="st32" d="M168.2,110.1c-0.2-0.3-0.4-0.5-0.7-0.8c-2.8,3.6-6.2,6.9-10.5,9.2
		C161.8,117.1,165,113.6,168.2,110.1z"/>
	<path id="_x33_1" class="st32" d="M163.2,121.6c1.7-3.5,3.8-7,5.9-10.4c-0.2-0.3-0.5-0.6-0.7-0.9
		C166,114.3,163.2,118.9,163.2,121.6z"/>
	<path id="_x33_0" class="st32" d="M176.7,84.6c-0.3-1.4-0.7-2.9-1.4-4.2c-0.9-1.8-2.1-3.5-3.8-5.4c-3-3.3-6.1-6.5-10.3-8.8l0,0l0,0
		h0.1l-0.1-0.1h0.2l-0.1-0.1h0.1l-0.1-0.1h0.1l-0.1-0.1h0.2l-0.1-0.1h0.1l-0.1-0.1h0.2l-0.1-0.1h0.2l-0.1-0.1l0.2-0.1l-0.2-0.1
		l0.2-0.1l-0.2-0.1l0.2-0.1l-0.2-0.1l0.2-0.1h-0.2l0.2-0.2h-0.2l0.1-0.2h-0.2l0,0l0.1-0.1h-0.2l0.1-0.2l-0.5,0l0.1-0.2l-0.2,0.1
		v-0.2l-0.2,0.2v-0.2l-0.2,0.2v-0.2l-0.2,0.2v-0.2l-0.1,0.2l-0.1-0.2l-0.1,0.2l-0.1-0.2l-0.1,0.2v-0.2l-0.1,0.2l-0.1-0.2l-0.1,0.2
		l-0.1-0.2l-0.1,0.2l-0.1-0.2l-0.1,0.2l-0.1-0.2V64l-0.1-0.2v0.3l-0.1-0.2v0.3l-0.1-0.2v0.2l-0.1-0.1l0.1,0.2l-0.2-0.1l0.1,0.2
		l-0.1-0.1v0.2h-0.1l0.1,0.2l0,0h-0.1l0.1,0.1l0,0c-0.1,0.3-0.1,0.7-0.1,1.1c0,0.1,0.2,0.1,0.2,0.2c0.1,0.1,0.1,0.2,0.1,0.2
		c-0.5,0.8-1,1.5-1,2.4c0.4-0.5,0.8-1.2,1.4-1.2c-0.3,0.5-0.4,2-0.1,2.2l0.2-0.4c0,0.3,0.1,0.6,0.1,0.7c0.1-0.2,0.2-0.4,0.3-0.6
		c0,0.5,0.1,0.9,0.2,1.1c0.1-0.2,0.3-0.4,0.5-0.5c-0.1,0.3-0.2,0.5-0.1,0.9c0.2-0.4,0.4-0.6,0.6-0.8c-0.1,0.5,0,0.9,0.1,1.5
		c0.1-0.7,0.2-0.7,0.5-1c0,0.6-0.1,1.2,0,1.5c0.3-0.5,0.5-0.5,0.6-0.8c0,0.5-0.1,1.1,0,1.5c0.1-0.5,0.4-0.7,0.6-0.9
		c0,0.7,0.2,0.6-0.3,1.2c0.2,0.1,0.8-0.1,1.2-0.3c-0.2,0.4-0.1,0.7-0.3,0.9c0.3-0.2,0.6-0.5,0.9-0.7c-0.1,0.4-0.5,0.9-0.3,1.3
		c0.1-0.4,0.4-0.7,0.7-0.8c0,0.2-0.1,0.7-0.4,0.9c0.8,0.1,1.1-0.5,1.5-0.9c-0.1,0.4,0,0.8,0.5,1.4c-0.1-0.8,0.1-0.6,0.4-1.1
		c0.2,0.7,0.4,1.4,1.1,1.9c-0.3-0.7-0.4-1.1-0.2-1.6c0.1,0.5,0.5,1,0.7,1.5c0.1-0.5,0.1-1,0.3-1.3c0.2,0.6,0.4,1.2,0.4,1.8
		c0.2-0.3,0.3-0.7,0.4-1c6.4,6.7,7.8,15.1,0.8,24.1c2.5-1.7,3.2-4.4,4.6-6.7c-1.4,3-2,6.4-4.4,8.9c2.3-2,2.8-3.8,4.2-5.8
		c-1.5,4-3.5,8.5-6.4,12.5c0.5,0.6,1,1.1,1.5,1.7c0.4-0.7,0.9-1.5,1.3-2.2C174.2,102.6,179.2,95.5,176.7,84.6z"/>
	<path id="_x32_9" class="st33" d="M158.3,65.2c-0.3,0.1-0.4,0.2-0.7,0.5c0.3,0.1,0.5,0.1,0.8,0.1c0.1,0,0.1-0.1,0.1-0.2v-0.3
		C158.5,65.2,158.3,65.2,158.3,65.2L158.3,65.2z"/>
	<path id="_x32_8" class="st34" d="M159.8,65.5c0.1,0,0.3-0.1,0.3-0.3c0-0.1-0.1-0.3-0.3-0.3c-0.1,0-0.3,0.1-0.3,0.3
		C159.6,65.4,159.7,65.5,159.8,65.5z"/>
	<path id="_x32_7" class="st35" d="M163.2,121.5c0.2-0.5,0.3-1,0.5-1.4c0.2-0.5,0.4-0.9,0.6-1.4c0.4-0.9,0.9-1.8,1.3-2.7
		c0.5-0.9,1-1.8,1.5-2.6c0.3-0.4,0.5-0.9,0.8-1.3l0.8-1.3l-0.8,1.3c-0.3,0.4-0.5,0.9-0.8,1.3c-0.5,0.9-1,1.7-1.5,2.6
		s-0.9,1.8-1.3,2.7c-0.2,0.5-0.4,0.9-0.6,1.4C163.5,120.6,163.4,121,163.2,121.5z"/>
	<path id="_x32_6" class="st35" d="M157.1,118.5c0.5-0.2,1.1-0.5,1.6-0.8s1-0.6,1.5-0.9c1-0.6,1.9-1.3,2.8-2.1
		c0.9-0.8,1.7-1.6,2.5-2.4c0.4-0.4,0.8-0.9,1.1-1.3c0.4-0.4,0.7-0.9,1.1-1.4c-0.3,0.5-0.7,0.9-1.1,1.4c-0.4,0.5-0.7,0.9-1.1,1.3
		c-0.8,0.9-1.6,1.7-2.5,2.5s-1.8,1.5-2.8,2.1c-0.5,0.3-1,0.6-1.5,0.9C158.2,118,157.7,118.2,157.1,118.5z"/>
	<path id="_x32_5" class="st35" d="M169.2,109c0.2-0.3,0.5-0.7,0.7-1.1s0.5-0.7,0.7-1.1c0.4-0.7,0.9-1.5,1.3-2.2
		c0.4-0.7,0.8-1.5,1.2-2.3l1.2-2.3l-0.6,1.2l-0.6,1.1c-0.4,0.8-0.8,1.5-1.2,2.3c-0.4,0.7-0.8,1.5-1.3,2.2
		C170.1,107.6,169.7,108.3,169.2,109z"/>
	<path id="_x32_4" class="st35" d="M171.1,100.9c0.6-0.7,1.1-1.3,1.5-2.1c0.5-0.7,0.9-1.5,1.2-2.3c0.7-1.6,1.2-3.2,1.6-4.9
		c0-0.2,0.1-0.4,0.1-0.6s0.1-0.4,0.1-0.6c0.1-0.4,0.1-0.8,0.1-1.3c0.1-0.9,0.1-1.7,0-2.6s-0.2-1.7-0.4-2.5s-0.5-1.7-0.8-2.4
		c0.3,0.8,0.6,1.6,0.8,2.4s0.3,1.7,0.4,2.5c0.1,0.9,0.1,1.7,0,2.6c0,0.4-0.1,0.9-0.1,1.3c0,0.2-0.1,0.4-0.1,0.6s-0.1,0.4-0.1,0.6
		c-0.4,1.7-0.9,3.3-1.6,4.9c-0.4,0.8-0.8,1.5-1.2,2.3C172.1,99.5,171.6,100.2,171.1,100.9z"/>
	<path id="_x32_3" class="st35" d="M170.5,99c0.6-0.6,1.1-1.2,1.6-1.9c0.5-0.7,0.9-1.4,1.2-2.1c0.4-0.7,0.7-1.5,1-2.3
		c0.1-0.4,0.3-0.8,0.4-1.2l0.1-0.3c0-0.1,0.1-0.2,0.1-0.3c0.1-0.2,0.1-0.4,0.2-0.6l0,0c0.2-0.8,0.3-1.6,0.3-2.5
		c0-0.8-0.1-1.7-0.2-2.5c-0.1-0.8-0.3-1.6-0.6-2.4c-0.2-0.8-0.5-1.6-0.8-2.4c0.3,0.8,0.6,1.6,0.9,2.3c0.2,0.8,0.4,1.6,0.6,2.4
		c0.1,0.8,0.2,1.7,0.2,2.5s-0.1,1.7-0.3,2.5l0,0l0,0c-0.1,0.2-0.1,0.4-0.2,0.6c0,0.1-0.1,0.2-0.1,0.3l-0.1,0.3
		c-0.1,0.4-0.3,0.8-0.4,1.2c-0.3,0.8-0.6,1.5-1,2.3c-0.4,0.7-0.8,1.5-1.2,2.1C171.7,97.8,171.1,98.5,170.5,99z"/>
	<path id="_x32_2" class="st35" d="M168.6,108.5c0.4-0.5,0.8-1.1,1.2-1.6l0.6-0.8c0.2-0.3,0.4-0.5,0.6-0.8c0.3-0.6,0.6-1.2,0.9-1.7
		c0.3-0.6,0.6-1.2,0.9-1.8c0.6-1.2,1.1-2.4,1.6-3.6s0.8-2.5,1.1-3.8s0.5-2.6,0.6-3.9s0.2-2.6,0-4c-0.1-1.3-0.4-2.6-0.9-3.9
		c-0.4-1.2-1-2.4-1.6-3.6c0.7,1.2,1.2,2.3,1.7,3.6c0.4,1.2,0.8,2.5,0.9,3.9c0.1,1.3,0.1,2.6,0,4c-0.1,1.3-0.3,2.6-0.6,3.9
		s-0.6,2.6-1.1,3.8c-0.5,1.2-1,2.4-1.6,3.6c-0.3,0.6-0.6,1.2-0.9,1.8c-0.3,0.6-0.6,1.2-0.9,1.7c-0.2,0.3-0.4,0.5-0.6,0.8l-0.6,0.8
		C169.4,107.4,169,107.9,168.6,108.5z"/>
	<path id="_x32_1" class="st35" d="M169.5,109.4c0.8-1.2,1.5-2.5,2.2-3.7c0.7-1.3,1.4-2.5,2.1-3.8c0.6-1.3,1.2-2.7,1.6-4
		c0.2-0.7,0.4-1.4,0.5-2.1c0.1-0.4,0.1-0.7,0.2-1.1c0.1-0.4,0.1-0.7,0.2-1.1c0.2-1.4,0.3-2.9,0.3-4.3c0-1.5-0.1-2.9-0.4-4.3
		c-0.3-1.4-0.7-2.8-1.3-4.2c-0.6-1.3-1.3-2.6-2.2-3.7c0.9,1.1,1.7,2.4,2.3,3.7c0.6,1.3,1,2.7,1.3,4.2c0.3,1.4,0.4,2.9,0.4,4.3
		c0,1.5-0.1,2.9-0.3,4.4c0,0.4-0.1,0.7-0.2,1.1c-0.1,0.4-0.1,0.7-0.2,1.1c-0.1,0.7-0.3,1.4-0.5,2.1c-0.4,1.4-1,2.7-1.6,4
		s-1.4,2.6-2.1,3.8C171.1,107,170.3,108.2,169.5,109.4z"/>
	
		<radialGradient id="_x32_0_1_" cx="47.8759" cy="576.6148" r="0.1113" gradientTransform="matrix(1 0 0 1 111.9897 -511.4252)" gradientUnits="userSpaceOnUse">
		<stop  offset="0" style="stop-color:#FFFFFF"/>
		<stop  offset="1" style="stop-color:#FFFFFF;stop-opacity:0"/>
	</radialGradient>
	<path id="_x32_0" class="st36" d="M159.9,65.3c0.1,0,0.1-0.1,0.1-0.1c0-0.1,0-0.1-0.1-0.1s-0.1,0.1-0.1,0.1
		C159.8,65.3,159.8,65.3,159.9,65.3z"/>
	<line id="_x31_9" class="st37" x1="157.7" y1="65.7" x2="158.4" y2="65.5"/>
	<path id="_x31_8" class="st38" d="M157.7,65.7c0.1,0,0.2-0.1,0.3-0.1s0.2,0,0.3-0.1c-0.1,0-0.2,0.1-0.3,0.1S157.8,65.6,157.7,65.7z
		"/>
	<path id="_x31_7" class="st35" d="M160.6,67c0.2,0,0.3,0,0.5,0s0.3,0.1,0.5,0.1c0.3,0.1,0.6,0.2,0.9,0.3c0.6,0.2,1.1,0.6,1.6,0.9
		c0.5,0.4,0.9,0.8,1.4,1.2c0.2,0.2,0.4,0.4,0.6,0.7c0.2,0.2,0.4,0.5,0.6,0.7c-0.2-0.2-0.4-0.5-0.6-0.7c-0.2-0.2-0.4-0.5-0.6-0.7
		c-0.4-0.4-0.9-0.8-1.4-1.2c-0.5-0.4-1-0.7-1.6-0.9c-0.3-0.1-0.6-0.2-0.9-0.3C161.2,67,160.9,67,160.6,67z"/>
	<path id="_x31_6" class="st39" d="M165.8,70.5c0,0,1,0.6,1.5,1.4c0,0-1.5-0.3-2.6-1.5"/>
	<path id="_x31_5" class="st35" d="M165.8,70.5c0.2,0.1,0.3,0.2,0.4,0.3c0.1,0.1,0.3,0.2,0.4,0.3c0.1,0.1,0.3,0.2,0.4,0.4
		c0.1,0.1,0.2,0.3,0.3,0.4V72h-0.1c-0.3-0.1-0.5-0.1-0.7-0.2s-0.5-0.2-0.7-0.3c-0.4-0.3-0.8-0.6-1.2-1c0.3,0.4,0.8,0.7,1.2,0.9
		c0.2,0.1,0.5,0.2,0.7,0.3c0.2,0.1,0.5,0.2,0.7,0.2V72c-0.1-0.1-0.2-0.3-0.3-0.4s-0.2-0.3-0.4-0.4c-0.1-0.1-0.3-0.2-0.4-0.3
		C166.1,70.7,166,70.6,165.8,70.5z"/>
	<path id="_x31_4" class="st39" d="M163.7,70.2c0,0,2.3,1.5,2.7,1.6c0,0-0.5-1.1-1.6-1.6"/>
	<path id="_x31_3" class="st35" d="M163.7,70.2L165,71c0.2,0.1,0.4,0.3,0.7,0.4c0.1,0.1,0.2,0.1,0.3,0.2s0.2,0.1,0.3,0.2l0,0
		c-0.1-0.2-0.2-0.3-0.3-0.5s-0.2-0.3-0.4-0.4c-0.1-0.1-0.3-0.3-0.4-0.4c-0.2-0.1-0.3-0.2-0.5-0.3c0.2,0.1,0.4,0.2,0.5,0.3
		c0.2,0.1,0.3,0.2,0.5,0.4c0.1,0.1,0.3,0.3,0.4,0.4c0.1,0.2,0.2,0.3,0.3,0.5v0.1h-0.1c-0.2-0.1-0.5-0.2-0.7-0.4
		c-0.2-0.1-0.4-0.3-0.7-0.4C164.5,70.7,164.1,70.5,163.7,70.2z"/>
	<path id="_x31_2" class="st39" d="M164.6,69.4c0,0,1.2,0.5,1.5,1.4c0,0-2.2-0.9-2.6-1.4"/>
	<path id="_x31_1" class="st35" d="M164.6,69.4c0.2,0.1,0.3,0.1,0.5,0.2s0.3,0.2,0.4,0.3c0.1,0.1,0.3,0.2,0.4,0.4
		c0.1,0.1,0.2,0.3,0.2,0.5v0.1H166c-0.2-0.1-0.4-0.2-0.7-0.3c-0.2-0.1-0.4-0.2-0.7-0.3c-0.2-0.1-0.4-0.2-0.6-0.4
		c-0.1-0.1-0.2-0.1-0.3-0.2s-0.2-0.2-0.3-0.2c0.1,0.1,0.2,0.2,0.3,0.2c0.1,0.1,0.2,0.1,0.3,0.2c0.2,0.1,0.4,0.2,0.7,0.3
		c0.4,0.2,0.9,0.4,1.3,0.6l0,0c-0.1-0.2-0.1-0.3-0.2-0.5c-0.1-0.1-0.2-0.3-0.4-0.4c-0.1-0.1-0.3-0.2-0.4-0.3
		C164.9,69.6,164.7,69.5,164.6,69.4z"/>
	<path id="_x31_0" class="st39" d="M162.7,70.4c0,0,2.1,1.5,2.8,1.5c0,0-0.6-1.1-1.7-1.5"/>
	<path id="_x39_" class="st35" d="M162.7,70.4c0.2,0.1,0.4,0.3,0.7,0.4c0.2,0.1,0.5,0.3,0.7,0.4s0.5,0.3,0.7,0.4
		c0.1,0.1,0.2,0.1,0.4,0.2c0.1,0,0.2,0.1,0.4,0.1V72c-0.1-0.2-0.2-0.3-0.3-0.5c-0.1-0.1-0.3-0.3-0.4-0.4c-0.1-0.1-0.3-0.3-0.5-0.4
		s-0.3-0.2-0.5-0.3c0.4,0.1,0.7,0.4,1,0.6c0.1,0.1,0.3,0.3,0.4,0.4c0.1,0.1,0.2,0.3,0.4,0.5V72h-0.1c-0.1,0-0.3-0.1-0.4-0.1
		c-0.1-0.1-0.2-0.1-0.4-0.2s-0.5-0.3-0.7-0.4s-0.4-0.3-0.7-0.4C163.2,70.7,163,70.5,162.7,70.4z"/>
	<path id="_x38_" class="st39" d="M162.7,70.8c0,0,1.1,0.9,1.8,0.9c0,0-0.6-1.1-1.7-1.5"/>
	<path id="_x37_" class="st35" d="M162.7,70.8c0.1,0.1,0.3,0.2,0.4,0.3c0.1,0.1,0.3,0.2,0.4,0.3c0.1,0.1,0.3,0.2,0.4,0.2
		c0.1,0,0.2,0.1,0.2,0.1c0.1,0,0.2,0,0.2,0v0.1c-0.1-0.2-0.2-0.3-0.3-0.5c-0.1-0.1-0.3-0.3-0.4-0.4c-0.1-0.1-0.3-0.3-0.5-0.4
		s-0.3-0.2-0.5-0.3c0.4,0.1,0.7,0.4,1,0.6c0.1,0.1,0.3,0.3,0.4,0.4c0.1,0.1,0.2,0.3,0.4,0.5v0.1h-0.1c-0.2,0-0.3-0.1-0.5-0.1
		c-0.2-0.1-0.3-0.2-0.4-0.2c-0.1-0.1-0.3-0.2-0.4-0.3C163,71.1,162.9,70.9,162.7,70.8z"/>
	<path id="_x36_" class="st39" d="M162.2,68.7c0,0,2.3,1.7,2.6,2.6c0,0-2.1-1-2.5-1.5"/>
	<path id="_x35_" class="st35" d="M162.2,68.7c0.3,0.2,0.5,0.4,0.7,0.5c0.2,0.2,0.5,0.4,0.7,0.6s0.5,0.4,0.7,0.6
		c0.1,0.1,0.2,0.2,0.3,0.4c0.1,0.1,0.2,0.3,0.2,0.4v0.1h-0.1c-0.2-0.1-0.4-0.2-0.7-0.3c-0.2-0.1-0.4-0.2-0.6-0.3
		c-0.2-0.1-0.4-0.2-0.6-0.4c-0.1-0.1-0.2-0.1-0.3-0.2s-0.2-0.2-0.3-0.2c0.1,0.1,0.2,0.2,0.3,0.2c0.1,0.1,0.2,0.1,0.3,0.2
		c0.2,0.1,0.4,0.2,0.6,0.4c0.4,0.2,0.9,0.4,1.3,0.6l0,0c0-0.1-0.1-0.3-0.2-0.4c-0.1-0.1-0.2-0.2-0.3-0.4c-0.2-0.2-0.4-0.4-0.7-0.6
		c-0.2-0.2-0.5-0.4-0.7-0.6C162.7,69.1,162.4,68.9,162.2,68.7z"/>
	<path id="_x34_" class="st4" d="M149.3,115.3c-1.6,1.2-6,1.8-6.6,1.6C145.9,114.1,149,114.1,149.3,115.3z"/>
	<path id="_x33_" class="st3" d="M149.2,115.3c-0.2-1.2-3.4-1.1-6.6,1.5C146,115.7,148.9,115.1,149.2,115.3L149.2,115.3z"/>
	<path id="_x32_" class="st4" d="M171.8,116.7c1.7,1.5,6.8,2.6,7.6,2.4C176,115.6,172.2,115.3,171.8,116.7z"/>
	<path id="_x31_" class="st3" d="M171.8,116.7c0.4-1.4,4.1-1.1,7.5,2.4C175.5,117.5,172.3,116.5,171.8,116.7z"/>
</g>
</svg>
