<?xml version="1.0" encoding="utf-8"?>
<!-- Generator: Adobe Illustrator 23.0.1, SVG Export Plug-In . SVG Version: 6.00 Build 0)  -->
<svg version="1.1" id="Layer_1" xmlns="http://www.w3.org/2000/svg" xmlns:xlink="http://www.w3.org/1999/xlink" x="0px" y="0px"
	 viewBox="0 0 300 180" style="enable-background:new 0 0 300 180;" xml:space="preserve">
<style type="text/css">
	.st0{fill:#D21034;}
	.st1{fill:#00209F;}
	.st2{fill:#FFFFFF;}
	.st3{fill:#016A16;stroke:#016A16;stroke-width:0.366;}
	.st4{fill:#F1B517;stroke:#000000;stroke-width:0.183;}
	.st5{fill:#FFFFFF;stroke:#000000;stroke-width:0.183;}
	.st6{fill:#0A328C;stroke:#000000;stroke-width:0.183;}
	.st7{fill:#D20014;stroke:#000000;stroke-width:0.183;}
	.st8{fill:#0A328C;stroke:#0A328C;stroke-width:0.183;}
	.st9{fill:#D20014;stroke:#D20014;stroke-width:0.183;}
	.st10{fill:#016A16;stroke:#016A16;stroke-width:0.183;}
	.st11{fill:#016A16;stroke:#000000;stroke-width:0.183;}
	.st12{fill:#F1B517;stroke:#000000;stroke-width:0.186;}
	.st13{fill:#F1B517;stroke:#000000;stroke-width:0.19;}
	.st14{fill:#F1B517;stroke:#000000;stroke-width:0.181;}
	.st15{fill:#F1B517;stroke:#000000;stroke-width:0.184;}
	.st16{fill:#016A16;stroke:#FFFFFF;stroke-width:0.237;stroke-linecap:round;}
	.st17{fill:#016A16;stroke:#FFFFFF;stroke-width:0.181;stroke-linecap:round;}
	.st18{fill:#016A16;stroke:#F1B517;stroke-width:0.183;}
	.st19{fill:#503200;stroke:#000000;stroke-width:0.183;}
	.st20{fill-rule:evenodd;clip-rule:evenodd;fill:#F1B517;stroke:#000000;stroke-width:0.183;stroke-linecap:round;}
	.st21{fill-rule:evenodd;clip-rule:evenodd;fill:#F1B517;stroke:#000000;stroke-width:0.183;}
	.st22{fill:#0A328C;stroke:#0A328C;stroke-width:0.231;}
	.st23{fill:#F1B517;stroke:#000000;stroke-width:0.187;}
	.st24{fill:#0A328C;stroke:#0A328C;stroke-width:0.187;}
	.st25{fill:none;stroke:#000000;stroke-width:0.187;}
	.st26{fill:#FFFFFF;stroke:#FFFFFF;stroke-width:0.192;}
	.st27{fill:#F1B517;stroke:#000000;stroke-width:0.231;}
	.st28{fill:#D20014;stroke:#F1B517;stroke-width:0.183;}
	.st29{fill:#FFFFFF;stroke:#000000;stroke-width:0.366;}
</style>
<title>Artboard 1</title>
<path class="st0" d="M-103.6-59.9H396v299.8h-499.6V-59.9z"/>
<path class="st1" d="M-103.6-59.9H396V90h-499.6V-59.9z"/>
<g>
	<path class="st2" d="M98.9,52.3h94.6v75.3H98.9V52.3z"/>
	<path class="st3" d="M165.2,106.8l-19.3,0.6l-19.2,0.2c0,0-9.9,3.7-13.9,4.5c-4,0.8-3.5,2.1-6.6,2.8c-2.5,0.6-2.8,0.7-4.2,0.8
		c-0.9,0.1-2,0.7-3,1.5v10.4h94.6v-9.9c-1-0.6-2-0.9-3-1.3c-1.4-0.5-2.3-1-4.8-1.5c-3.1-0.7-2.6-2-6.6-2.8
		C175,111.2,165.2,106.8,165.2,106.8L165.2,106.8z"/>
	<g transform="scale(2)">
		<g id="a">
			<path class="st4" d="M70.4,41.8l0.7,0l1.3,5.4l-0.3,1.7L70.4,41.8L70.4,41.8z"/>
			<path class="st5" d="M69.6,38.2l0.5,4.1l0.5,0L69.6,38.2z"/>
			<path class="st4" d="M71,47.3l-2.1-5.8l0.8,0l2.5,7L71,47.3z"/>
			<path class="st5" d="M67.8,38.2l0.9,4h0.7L67.8,38.2z"/>
			<path class="st4" d="M69.1,45.3l-1.3-2.7l0.5-0.1l2.3,4.5L69.1,45.3z"/>
			<path class="st5" d="M66.1,39.4l1.4,3.8h0.7L66.1,39.4z"/>
			<g>
				<path class="st6" d="M69.2,45.7l-5.7-6.2c-1.8,1.4-1.5,4-1.5,4l6.5,5.1L69.2,45.7L69.2,45.7z"/>
				<path class="st7" d="M72.5,49.1l-4.2-4.3c-1.8,0.1-0.4,2.7-0.3,3.1l4.5,3.9V49.1z"/>
				<path class="st4" d="M72.2,48.4L63.4,39l-0.3,0.2l9.3,10.3L72.2,48.4L72.2,48.4z M62.9,38.4l-0.2-0.2l0-0.4l-1.8-1.2l0.8,1.8
					l0.6,0.1l0.2,0.2L62.9,38.4z"/>
				<path class="st4" d="M62,39.1c0.3-0.4,0.7-0.7,1.3-1.1l0.5,0.7l-1.1,0.9L62,39.1z"/>
				<path class="st8" d="M61,40.6l0.3,0.5c0.2-0.1,2-1.7,2-1.7l1.3,0L65,39c-1-1-1.9,0.1-1.9,0.1L61,40.6z"/>
				<path class="st9" d="M62.1,41.5c0.1-0.5,0.9-1.6,1.1-1.6c0.7,0.2,1.3,0.6,1.9-0.9c-0.6,0.7-1.7,0-1.7,0l-0.5,0.4l0,0.2L61.3,41
					L62.1,41.5L62.1,41.5z"/>
			</g>
			<g>
				<path class="st6" d="M66.7,47.3l-7.2-5.7c-1.2,1.3-0.2,5.1-0.2,5.1l7,3.8L66.7,47.3L66.7,47.3z"/>
				<path class="st7" d="M72.7,52l-5.9-4.7c-2,0.3-0.4,3.3-0.3,3.6l6.2,3.4L72.7,52L72.7,52z"/>
				<path class="st4" d="M72.4,51l-12.8-9.6l-0.3,0.3l13.4,10.5L72.4,51z M59.1,40.9l-0.2-0.2l-0.1-0.4l-2-0.8l1.1,1.7l0.6,0
					l0.2,0.2L59.1,40.9z"/>
				<path class="st4" d="M58.3,41.7c0.2-0.4,0.5-0.8,1.1-1.3L60,41l-0.9,1.1L58.3,41.7z"/>
				<path class="st8" d="M57.6,43.3l0.1,0.5c0.2-0.1,1.8-1.9,1.8-1.9l1.3-0.2l0.3-0.4c-0.9-1.1-1.9,0.3-1.9,0.3L57.6,43.3z"/>
				<path class="st9" d="M58.6,44.3c-0.1-0.5,0.6-1.9,0.7-2c0.8,0.2,1.4,0.6,1.7-1c-0.4,0.8-1.7,0.2-1.7,0.2l-0.4,0.5l0.1,0.3
					l-1.3,1.7L58.6,44.3z"/>
			</g>
			<g>
				<path class="st6" d="M66.2,50.8c-0.1,0-9.3-5.2-9.3-5.2c-0.7,1.1-0.1,2.8,0.2,3c0,0.7-0.3,1.2,0.4,2.7c0.2,1,0.7,2,1.3,2.5
					c0.8,3.2,4.1,3.4,5.4,0.8L66.2,50.8L66.2,50.8z"/>
				<path class="st7" d="M72.3,54.2L66,50.6c-2,0.3,0,4,0.2,4.4l6.1,2.2L72.3,54.2L72.3,54.2z"/>
				<path class="st4" d="M71.2,52.9l-14.2-7.5l-0.2,0.3L71.8,54L71.2,52.9z M56.4,45l-0.3-0.1L56,44.4l-2.1-0.5l1.4,1.5l0.6-0.1
					l0.3,0.2L56.4,45z"/>
				<path class="st4" d="M55.7,45.9c0.2-0.4,0.4-0.9,0.9-1.5l0.7,0.5l-0.7,1.2L55.7,45.9z"/>
				<path class="st8" d="M55.2,47.6l0.3,0.6c0.2-0.1,1.5-2.3,1.5-2.3l1.2-0.4l0.2-0.5c-1-0.9-1.7,0.7-1.7,0.7L55.2,47.6z"/>
				<path class="st9" d="M56.5,48.4c-0.1-0.5,0.2-2.1,0.3-2.2c0.8,0.2,1.4,0.3,1.6-1.3c-0.5,0.8-1.7,0.5-1.7,0.5L56.4,46l0.1,0.2
					l-1,2L56.5,48.4z"/>
			</g>
		</g>
		<g transform="matrix(-1 0 0 1 499.859 0)">
			<g>
				<path class="st4" d="M75.8,41.8l-0.7,0l-1.3,5.4l0.3,1.7L75.8,41.8L75.8,41.8z"/>
				<path class="st5" d="M76.5,38.2L76,42.3l-0.5,0L76.5,38.2z"/>
				<path class="st4" d="M75.2,47.3l2.1-5.8l-0.8,0l-2.5,7L75.2,47.3z"/>
				<path class="st5" d="M78.3,38.2l-0.9,4h-0.7L78.3,38.2z"/>
				<path class="st4" d="M77.1,45.3l1.3-2.7l-0.5-0.1l-2.3,4.5L77.1,45.3z"/>
				<path class="st5" d="M80,39.4l-1.4,3.8h-0.7L80,39.4z"/>
				<g>
					<path class="st6" d="M76.9,45.7l5.7-6.2c1.8,1.4,1.5,4,1.5,4l-6.5,5.1L76.9,45.7L76.9,45.7z"/>
					<path class="st7" d="M73.6,49.1l4.2-4.3c1.8,0.1,0.4,2.7,0.3,3.1l-4.5,3.9V49.1z"/>
					<path class="st4" d="M74,48.4l8.8-9.4l0.3,0.2l-9.3,10.3L74,48.4L74,48.4z M83.2,38.4l0.2-0.2l0-0.4l1.8-1.2l-0.8,1.8l-0.6,0.1
						l-0.2,0.2L83.2,38.4z"/>
					<path class="st4" d="M84.2,39.1c-0.3-0.4-0.7-0.7-1.3-1.1l-0.5,0.7l1.1,0.9L84.2,39.1z"/>
					<path class="st8" d="M85.1,40.6l-0.3,0.5c-0.2-0.1-2-1.7-2-1.7l-1.3,0L81.1,39c1-1,1.9,0.1,1.9,0.1L85.1,40.6z"/>
					<path class="st9" d="M84.1,41.5C84,41,83.1,39.9,83,39.9c-0.7,0.2-1.3,0.6-1.9-0.9c0.6,0.7,1.7,0,1.7,0l0.5,0.4l0,0.2l1.5,1.4
						L84.1,41.5L84.1,41.5z"/>
				</g>
				<g>
					<path class="st6" d="M79.4,47.3l7.2-5.7c1.2,1.3,0.2,5.1,0.2,5.1l-7,3.8L79.4,47.3L79.4,47.3z"/>
					<path class="st7" d="M73.4,52l5.9-4.7c2,0.3,0.4,3.3,0.3,3.6l-6.2,3.4L73.4,52L73.4,52z"/>
					<path class="st4" d="M73.7,51l12.8-9.6l0.3,0.3L73.3,52.2L73.7,51z M87.1,40.9l0.2-0.2l0.1-0.4l2-0.8l-1.1,1.7l-0.6,0l-0.2,0.2
						L87.1,40.9z"/>
					<path class="st4" d="M87.8,41.7c-0.2-0.4-0.5-0.8-1.1-1.3L86.1,41l0.9,1.1L87.8,41.7z"/>
					<path class="st8" d="M88.6,43.3l-0.1,0.5c-0.2-0.1-1.8-1.9-1.8-1.9l-1.3-0.2l-0.3-0.4c0.9-1.1,1.9,0.3,1.9,0.3L88.6,43.3z"/>
					<path class="st9" d="M87.5,44.3c0.1-0.5-0.6-1.9-0.7-2c-0.8,0.2-1.4,0.6-1.7-1c0.4,0.8,1.7,0.2,1.7,0.2l0.4,0.5l-0.1,0.3
						l1.3,1.7L87.5,44.3z"/>
				</g>
				<g>
					<path class="st6" d="M79.9,50.8c0.1,0,9.3-5.2,9.3-5.2c0.7,1.1,0.1,2.8-0.2,3c0,0.7,0.3,1.2-0.4,2.7c-0.2,1-0.7,2-1.3,2.5
						c-0.8,3.2-4.1,3.4-5.4,0.8L79.9,50.8L79.9,50.8z"/>
					<path class="st7" d="M73.9,54.2l6.3-3.7c2,0.3,0,4-0.2,4.4l-6.1,2.2L73.9,54.2L73.9,54.2z"/>
					<path class="st4" d="M74.9,52.9l14.2-7.5l0.2,0.3L74.4,54L74.9,52.9z M89.8,45l0.3-0.1l0.1-0.4l2.1-0.5l-1.4,1.5l-0.6-0.1
						L90,45.4L89.8,45z"/>
					<path class="st4" d="M90.4,45.9c-0.2-0.4-0.4-0.9-0.9-1.5L88.8,45l0.7,1.2L90.4,45.9z"/>
					<path class="st8" d="M91,47.6l-0.3,0.6c-0.2-0.1-1.5-2.3-1.5-2.3l-1.2-0.4L87.7,45c1-0.9,1.7,0.7,1.7,0.7L91,47.6z"/>
					<path class="st9" d="M89.6,48.4c0.1-0.5-0.2-2.1-0.3-2.2c-0.8,0.2-1.4,0.3-1.6-1.3c0.5,0.8,1.7,0.5,1.7,0.5l0.4,0.5l-0.1,0.2
						l1,2L89.6,48.4z"/>
				</g>
			</g>
		</g>
	</g>
	<g transform="scale(2)">
		<path class="st10" d="M72.6,32.8l-0.2,4.5h1.4l-0.2-4.5l1.5-0.2l-0.2-1.8L71.2,31l0,1.6L72.6,32.8L72.6,32.8z"/>
		<g id="b">
			<path class="st11" d="M73,31c-3.9-3.9-6.9-2-7.7-1.4c0.5,0.1,0.9-0.2,1.1-0.2c-0.1,0.2-0.4,0.6-0.4,0.6s1.2-0.6,1.3-0.5
				c-0.2,0.1-0.4,0.5-0.4,0.5c0.1,0,0.8-0.5,0.9-0.5c-0.2,0.2-0.3,0.8-0.3,0.8l0.6-0.3c0.2,0.1,0,0.3,0.1,0.3c1-0.1,2.3,0.9,2.5,1.2
				"/>
			<path class="st11" d="M72,31.7c-0.4-0.9-7.8-2.5-9.3,0.1c0.6,0.1,1.1-0.5,1.1-0.5l-0.1,0.6l1-0.8l-0.4,0.8l0.8-0.6l0,0.6l1-1
				l-0.1,0.6l0.9-0.4l-0.1,0.5"/>
			<path class="st11" d="M71.7,31.8c-1.9-1.3-4.8-0.4-4.8-0.4c-1.9,1-2.9,0.9-3.1,2.8c0.2-0.1,0.7-0.7,0.7-0.7l0.4,0.8l0.1-1.1
				l0.3,0.8l0.5-1.4l0.1,0.9l0.7-0.9l0.3,0.3l0.3-0.7l0.3,0.5c0,0,0.5-0.3,0.8-0.1l0.5-0.6l0.1,0.4l0.5-0.5l0.2,0.4l0.5-0.4l0,0.3
				l1.6,0"/>
			<path class="st11" d="M71.3,32c-1.3,0-5.1,1.4-6.1,2.9c0.2-0.1,0.4-0.2,0.6-0.3l0.2,0.6l0.2-0.6l0,0.5c0.1-0.4,0.3-0.4,0.6,0
				l0.1-0.6l0.2,0.5l0.3-0.6c0,0,0.2,0.6,0.3,0.6c0,0,0.4-1.1,0.6-1.1l0,0.7l0.3-0.7l0.2,0.5l0-0.7l0.3,0.6c0,0,0.1-0.6,0.3-0.7
				l0.4,0.3l1.7-1.2"/>
			<path class="st11" d="M71.5,32.3c-1.8,0.7-3.3,3.1-3.2,4.1c0.8-1,0.6-0.8,1,0.3c0,0,0.1-1,0.3-1.1l0.2,0.7l0.1-0.9l0.2,0L70,34.8
				l0.3,0.3c-0.1-0.3-0.2-0.5,0.2-0.7c0,0-0.5,0.1-0.1-0.8l0.3,0.3c0,0-0.1-0.4,0.1-0.5l1.2-0.4"/>
			<path class="st11" d="M71.7,32.5l-0.7,1.3l0.3,0.1l-0.8,0.6l0.6-0.1c0,0-1,0.4-1.1,1.3l1-0.4c0,0-0.9,0.9-1,1.4l0.6-0.5
				c0,0-0.6,0.6-0.5,1.5l0.4-0.5c-0.1,1.1-0.1,1.2,0.4,2.1c0,0-0.1-1.3,0-1.5l1.1,1.2l-0.6-1.7c0,0,0.7,1.1,1.1,1l-0.9-1.3l0.9,0.7
				l-1-1.5l0.9,0.3c0,0-0.7-0.8-0.6-1.4l0.6,0.7c0,0-0.2-0.8-0.2-1l0.3,0.1l-0.6-0.7l0.4-0.1l-0.1-0.5l0.3-0.1l0-0.5 M72.4,32.9
				c-1.1,1.5-0.5,3.8-1.2,4.9"/>
		</g>
		<g transform="matrix(-1 0 0 1 499.859 0)">
			<g>
				<path class="st11" d="M73.1,31c3.9-3.9,6.9-2,7.7-1.4c-0.5,0.1-0.9-0.2-1.1-0.2c0.1,0.2,0.4,0.6,0.4,0.6s-1.2-0.6-1.3-0.5
					c0.2,0.1,0.4,0.5,0.4,0.5c-0.1,0-0.8-0.5-0.9-0.5c0.2,0.2,0.3,0.8,0.3,0.8l-0.6-0.3c-0.2,0.1,0,0.3-0.1,0.3
					c-1-0.1-2.3,0.9-2.5,1.2"/>
				<path class="st11" d="M74.1,31.7c0.4-0.9,7.8-2.5,9.3,0.1c-0.6,0.1-1.1-0.5-1.1-0.5l0.1,0.6l-1-0.8l0.4,0.8l-0.8-0.6l0,0.6l-1-1
					l0.1,0.6l-0.9-0.4l0.1,0.5"/>
				<path class="st11" d="M74.4,31.8c1.9-1.3,4.8-0.4,4.8-0.4c1.9,1,2.9,0.9,3.1,2.8c-0.2-0.1-0.7-0.7-0.7-0.7l-0.4,0.8l-0.1-1.1
					L80.9,34l-0.5-1.4l-0.1,0.9l-0.7-0.9l-0.3,0.3L79,32.2l-0.3,0.5c0,0-0.5-0.3-0.8-0.1L77.4,32l-0.1,0.4l-0.5-0.5l-0.2,0.4
					l-0.5-0.4l0,0.3l-1.6,0"/>
				<path class="st11" d="M74.8,32c1.3,0,5.1,1.4,6.1,2.9c-0.2-0.1-0.4-0.2-0.6-0.3l-0.2,0.6l-0.2-0.6l0,0.5c-0.1-0.4-0.3-0.4-0.6,0
					l-0.1-0.6L79,35l-0.3-0.6c0,0-0.2,0.6-0.3,0.6c0,0-0.4-1.1-0.6-1.1l0,0.7l-0.3-0.7l-0.2,0.5l0-0.7L77,34.3c0,0-0.1-0.6-0.3-0.7
					l-0.4,0.3l-1.7-1.2"/>
				<path class="st11" d="M74.6,32.3c1.8,0.7,3.3,3.1,3.2,4.1c-0.8-1-0.6-0.8-1,0.3c0,0-0.1-1-0.3-1.1l-0.2,0.7l-0.1-0.9l-0.2,0
					l0.1-0.6l-0.3,0.3c0.1-0.3,0.2-0.5-0.2-0.7c0,0,0.5,0.1,0.1-0.8l-0.3,0.3c0,0,0.1-0.4-0.1-0.5L74,33"/>
				<path class="st11" d="M74.4,32.5l0.7,1.3l-0.3,0.1l0.8,0.6l-0.6-0.1c0,0,1,0.4,1.1,1.3l-1-0.4c0,0,0.9,0.9,1,1.4l-0.6-0.5
					c0,0,0.6,0.6,0.5,1.5l-0.4-0.5c0.1,1.1,0.1,1.2-0.4,2.1c0,0,0.1-1.3,0-1.5L73.8,39l0.6-1.7c0,0-0.7,1.1-1.1,1l0.9-1.3l-0.9,0.7
					l1-1.5l-0.9,0.3c0,0,0.7-0.8,0.6-1.4l-0.6,0.7c0,0,0.2-0.8,0.2-1l-0.3,0.1l0.6-0.7L73.4,34l0.1-0.5l-0.3-0.1l0-0.5 M73.7,32.9
					c1.1,1.5,0.5,3.8,1.2,4.9"/>
			</g>
		</g>
		<path class="st4" d="M73.7,53.3c0,0,0.6-5,0.6-7.1c0-1.7-0.4-5.4-0.4-5.4h-1.7c0,0-0.3,3.7-0.2,5.4c0,2.1,0.6,7.1,0.6,7.1
			L73.7,53.3L73.7,53.3z"/>
		<path class="st4" d="M72,41h2l-0.2-1.3h-1.4L72,41z"/>
		<path class="st4" d="M72.2,39.9h1.8l-0.3-1.3h-1.1L72.2,39.9z"/>
		<path class="st4" d="M72.3,38.8h1.5l-0.2-1.3h-0.9L72.3,38.8z"/>
		<path class="st4" d="M73.6,37.3h-1l-0.1,0.5h1.2L73.6,37.3z"/>
		<path class="st12" d="M73.8,52.2h-1.4"/>
		<path class="st13" d="M73.9,51.2h-1.6"/>
		<path class="st14" d="M74,50.2h-1.8"/>
		<path class="st15" d="M74.1,49.1h-2 M74.1,48.1h-2.1"/>
		<path class="st4" d="M74.2,47.1H72 M74.2,46.2h-2.3 M74.2,45.1h-2.3"/>
		<path class="st14" d="M74.1,44h-2.2"/>
		<path class="st4" d="M74,43h-2"/>
		<path class="st15" d="M74,42h-1.9"/>
		<g>
			<path class="st8" d="M73.1,29.5c-0.3-0.2-1.1-0.7-0.9-1l0.4-0.6c0.5-1.1,0-0.7-0.1-1.1c-0.1-0.3,1.9-0.1,2,0.7
				c0,0.2-0.1,0.1-0.1,1.3l-0.4,0.7C73.6,29.7,73.3,29.6,73.1,29.5L73.1,29.5z"/>
			<path class="st4" d="M73.3,32.5l-0.5-0.4l0.1-3.5l0.5,0.1L73.3,32.5z"/>
			<path class="st9" d="M73.9,29.6c0.3-0.2,0.5-0.7,0.3-1c-0.5-0.6-0.8-0.4-1.7-0.7c-0.2,0.2-0.5,0.5-0.5,0.8
				c1.1,0.5,0.7,0.1,1.1,0.1C73.4,28.9,73.5,29.1,73.9,29.6L73.9,29.6z"/>
		</g>
	</g>
	<g transform="scale(2)">
		<g transform="matrix(1 0 0 -1 -.002 320.37)">
			<path id="c" class="st16" d="M67.4,50.1c-0.1-0.2-0.5-0.4-1-0.4c-0.5,0-0.9,0.2-1,0.4c0-0.1,0-0.1,0-0.2c0-0.3,0.5-0.6,1-0.6
				s1,0.3,1,0.6C67.4,50,67.4,50.1,67.4,50.1z"/>
		</g>
		<path class="st17" d="M67.3,50.9c0,0.6-0.4,1.2-0.9,1.2c-0.5,0-0.9-0.5-0.9-1.2v-0.6h1.8V50.9z"/>
		<ellipse class="st2" cx="66.4" cy="50" rx="0.9" ry="0.4"/>
		<path class="st18" d="M66.2,50.5L66,48.9h0.7l-0.1,1.6H66.2z"/>
		<path class="st16" d="M67.4,50.1c-0.1,0.2-0.5,0.4-1,0.4c-0.5,0-0.9-0.2-1-0.4c0,0.1,0,0.1,0,0.2c0,0.3,0.5,0.6,1,0.6s1-0.3,1-0.6
			C67.4,50.2,67.4,50.1,67.4,50.1z"/>
		<g id="d">
			<path class="st4" d="M71.1,56.4l-3.5-1.1l-1.5-2.6l-5.4-0.3l0.2,2l4.6,0.9l0.4,0.8l5.3,1.5L71.1,56.4L71.1,56.4z"/>
			<path class="st19" d="M67.4,57.1l-5.6-8.2l-0.3,0.2l5.5,8.2L67.4,57.1z"/>
			<path class="st5" d="M62.4,49.2l-0.6-1c-0.1-0.2-0.3-0.2-0.5-0.1c-0.2,0.1-0.2,0.4-0.1,0.6l0.6,0.9L62.4,49.2z"/>
			<path class="st4" d="M68.1,52.1l-11.2-1.1l-0.3,1.6l11.2,1.1L68.1,52.1L68.1,52.1z"/>
			<path class="st4" d="M56.7,50.5l-0.3,2.3h0.5l0.3-2.1L56.7,50.5z M58.5,50.9l-0.1,2l0.3,0l0.2-1.8L58.5,50.9L58.5,50.9z
				 M66.1,51.7l-0.3,1.9l0.5,0l0.2-1.9H66.1z M67.8,51.8L67.4,54l0.6,0.1l0.2-1.2c0,0.2,0.3,0.4,0.5,0.4c0.3,0,0.5-0.2,0.5-0.5
				s-0.2-0.5-0.5-0.5c-0.2,0-0.4,0.1-0.5,0.3l0.1-0.8L67.8,51.8L67.8,51.8z M63.8,52.2l-1.5,1.7l0.2,0.2l2-1.4L63.8,52.2z
				 M60.2,56.5l1.5-1.7l-0.2-0.2l-2,1.4L60.2,56.5z M64.2,56.1l-1.9-1.5l-0.2,0.1l1.5,1.9L64.2,56.1z M59.6,52.7l1.9,1.4l0.2-0.2
				l-1.5-1.9L59.6,52.7z M61.7,51.5l0.2,2.3l0.3,0l0.6-2.2L61.7,51.5z M62.3,57.1l-0.2-2.3l-0.3,0l-0.3,2.3L62.3,57.1L62.3,57.1z
				 M64.8,54l-2.4,0.3l0,0.2l2.4,0.3L64.8,54L64.8,54z M59.1,54.8l2.3-0.4l0-0.2L59.1,54L59.1,54.8z"/>
			<ellipse class="st4" cx="62" cy="54.3" rx="0.6" ry="0.6"/>
			<path class="st20" d="M65.3,54.3c0,1.8-1.5,3.3-3.4,3.3c-1.9,0-3.4-1.5-3.4-3.3c0-1.8,1.5-3.3,3.4-3.3
				C63.8,51,65.3,52.5,65.3,54.3z M64.7,54.3c0,1.4-1.2,2.6-2.7,2.6c-1.5,0-2.7-1.2-2.7-2.6c0-1.4,1.2-2.6,2.7-2.6
				C63.4,51.7,64.7,52.8,64.7,54.3z"/>
			<path class="st4" d="M59.8,52.6l-0.5-0.4 M63.6,52.2l0.5-0.5 M64.6,56.3L64,55.9 M59.8,56.8l0.5-0.5"/>
			<g>
				<path class="st4" d="M71.2,51.1l0.6,2.9l-0.5,0.2l-0.5-3.1L71.2,51.1L71.2,51.1z"/>
				<path class="st5" d="M70.9,50.7c-0.3-0.1-0.6,0.1-1.2-0.6c-0.9,0.9-0.1,1,0.1,1.8c0.3,0.1,0.4-0.7,1.2-0.7
					c0.1,0,1.1-0.1,1.1-0.1l-0.3-0.4C71.8,50.7,71.1,50.7,70.9,50.7L70.9,50.7z"/>
				<path class="st5" d="M71.3,51.3l-0.1-0.9c-0.1-0.3-0.5,0-0.5,0.1l0.1,0.8L71.3,51.3z"/>
			</g>
			<path class="st21" d="M68.5,53.7l0,0.8c-0.3,0.1-0.2,0.3-0.2,0.6l0,2.4c-0.1,0.2-0.4,0.2-0.5,0.3c-0.1,0.1-0.1,0.4,0.5,0.5l0.5,0
				c0.7-0.2,0.9-0.4,0.5-0.5c-0.2-0.1-0.5-0.2-0.6-0.3l0-0.6l0.5,0c0.1,0,0.4-0.3,0.4-0.6l0-1.2c0-0.7-0.5-0.8-0.7-0.8l0-0.6
				L68.5,53.7L68.5,53.7z M69.3,55c0-0.2-0.3-0.4-0.4-0.4c-0.1,0-0.4,0.2-0.4,0.4v0.5c0,0.2,0.2,0.8,0.5,0.8c0.1,0,0.3-0.2,0.3-0.4
				L69.3,55L69.3,55z"/>
			<g>
				<path class="st5" d="M65.2,56.2c-0.3-0.1-0.3,0.6-0.3,0.6l0.5,0c0.2,0.1,0.4,0.4,0.3,0.6c-0.1,0.1-1.1-0.2-1.2,0
					c0.2,1,1.5,1.3,1.9,0.9c0.5-0.4,0.6-1.5-0.9-1.8L65.2,56.2L65.2,56.2z M65.5,56.4l-0.1,0.3"/>
			</g>
			<g>
				<path class="st4" d="M55.6,56.5l-0.5-2 M56.2,56.4l-0.7-1.6 M57.4,56l-1.7-0.9 M58.2,55.8l-3.1-1.3"/>
				<path class="st9" d="M53.2,53c0,0-1.1,0-1.3,0.1c-0.1,0,0.3,0.4,0.2,0.6c-0.3,0.5-2.2,0.5-2.3,0.3c-0.3-0.2,1.8-0.4,1.8-0.5
					c0-0.2-0.3-0.6-0.3-0.8c0.1-0.3,0.9-0.5,0.9-0.5L53.2,53z"/>
				<path class="st19" d="M54.7,54l-2.5-2.1c0,0-0.1-0.1-0.2,0c-0.1,0.1,0,0.2,0,0.2l2.6,2.2L54.7,54z"/>
				<path class="st4" d="M57.2,56.1c0,0-2.1-1.8-2.1-1.8L55,53.8c0,0-0.3,0.2-0.4,0.3s-0.3,0.4-0.3,0.4l0.6,0l1.8,1.6L57.2,56.1
					L57.2,56.1z"/>
			</g>
			<g>
				<ellipse class="st4" cx="64.4" cy="58.5" rx="0.4" ry="0.4"/>
				<ellipse class="st4" cx="63.4" cy="57.8" rx="0.4" ry="0.4"/>
				<ellipse class="st4" cx="62.2" cy="58.3" rx="0.4" ry="0.4"/>
				<ellipse class="st4" cx="60.2" cy="58.7" rx="0.4" ry="0.4"/>
				<ellipse class="st4" cx="59.4" cy="58.8" rx="0.4" ry="0.4"/>
				<ellipse class="st4" cx="58.5" cy="58.8" rx="0.4" ry="0.4"/>
				<ellipse class="st4" cx="57.7" cy="58.8" rx="0.4" ry="0.4"/>
				<ellipse class="st4" cx="58.1" cy="58.2" rx="0.4" ry="0.4"/>
				<ellipse class="st4" cx="58.9" cy="58.2" rx="0.4" ry="0.4"/>
				<ellipse class="st4" cx="59.7" cy="58.1" rx="0.4" ry="0.4"/>
				<ellipse class="st4" cx="59.3" cy="57.5" rx="0.4" ry="0.4"/>
				<ellipse class="st4" cx="58.5" cy="57.5" rx="0.4" ry="0.4"/>
			</g>
			<path class="st21" d="M66.3,59c0-0.2-0.4-0.1-0.4-0.3c0-0.2,0.6-0.1,0.7,0.1c0.3-0.3,0.5-0.1,0.7,0c0.3-0.4,0.6-0.4,1-0.1
				c0.2-0.2,0.7-0.1,0.9,0.1c0.3-0.3,0.6-0.2,0.9,0c0.1-0.2,0.2-0.1,0.3,0c0.2-0.3,0.6-0.2,0.8,0c0.2-0.2,0.3,0,0.6,0.1
				c0.1-0.1,0.4-0.1,0.4,0c0,0.1-0.3,0.1-0.3,0.2c0,0.1,0.2,0.1,0.2,0.2c0,0.1-0.3,0.2-0.4,0c-0.1,0.2-0.5,0.1-0.6-0.1
				c-0.1,0.2-0.4,0.2-0.6,0c-0.1,0.1-0.3,0.1-0.4,0c-0.3,0.3-0.7,0.2-0.8-0.1l-0.1,0c-0.3,0.3-0.7,0.2-0.8,0c-0.4,0.3-0.7,0.2-0.9,0
				c-0.3,0.3-0.7,0.3-0.8,0c-0.2,0.1-0.6,0.2-0.6,0C66,59.1,66.3,59.1,66.3,59z M67.2,59.1c0,0.1-0.1,0.1-0.2,0.1
				c-0.1,0-0.2-0.1-0.2-0.1c0-0.1,0.1-0.1,0.2-0.1C67.1,58.9,67.2,59,67.2,59.1z M68.1,59c0,0.1-0.1,0.2-0.3,0.2S67.6,59,67.6,59
				c0-0.1,0.1-0.2,0.3-0.2C68,58.8,68.1,58.9,68.1,59z M69.9,59c0,0.1-0.1,0.2-0.2,0.2c-0.1,0-0.2-0.1-0.2-0.2
				c0-0.1,0.1-0.2,0.2-0.2C69.8,58.9,69.9,59,69.9,59z M68.9,59c0,0.1-0.1,0.2-0.2,0.2s-0.2-0.1-0.2-0.2c0-0.1,0.1-0.2,0.2-0.2
				S68.9,58.9,68.9,59z M70.9,59c0,0.1-0.1,0.2-0.2,0.2c-0.1,0-0.2-0.1-0.2-0.2c0-0.1,0.1-0.2,0.2-0.2C70.8,58.8,70.9,58.9,70.9,59z
				 M70.3,59.1c0,0.1-0.1,0.1-0.1,0.1c-0.1,0-0.1-0.1-0.1-0.1c0-0.1,0.1-0.1,0.1-0.1C70.3,58.9,70.3,59,70.3,59.1z M71.5,59.1
				c0,0.1-0.1,0.2-0.2,0.2c-0.1,0-0.2-0.1-0.2-0.2s0.1-0.2,0.2-0.2C71.5,58.9,71.5,59,71.5,59.1z"/>
		</g>
		<g transform="matrix(-1 0 0 1 499.859 0)">
			<g>
				<path class="st4" d="M75,56.4l3.5-1.1l1.5-2.6l5.4-0.3l-0.2,2l-4.6,0.9L80.2,56l-5.3,1.5L75,56.4L75,56.4z"/>
				<path class="st19" d="M78.7,57.1l5.6-8.2l0.3,0.2L79,57.4L78.7,57.1z"/>
				<path class="st5" d="M83.7,49.2l0.6-1c0.1-0.2,0.3-0.2,0.5-0.1c0.2,0.1,0.2,0.4,0.1,0.6l-0.6,0.9L83.7,49.2z"/>
				<path class="st4" d="M78,52.1l11.2-1.1l0.3,1.6l-11.2,1.1L78,52.1L78,52.1z"/>
				<path class="st4" d="M89.5,50.5l0.3,2.3h-0.5L89,50.7L89.5,50.5z M87.6,50.9l0.1,2l-0.3,0l-0.2-1.8L87.6,50.9L87.6,50.9z
					 M80,51.7l0.3,1.9l-0.5,0l-0.2-1.9H80z M78.3,51.8l0.4,2.2l-0.6,0.1l-0.2-1.2c0,0.2-0.3,0.4-0.5,0.4c-0.3,0-0.5-0.2-0.5-0.5
					s0.2-0.5,0.5-0.5c0.2,0,0.4,0.1,0.5,0.3l-0.1-0.8L78.3,51.8L78.3,51.8z M82.4,52.2l1.5,1.7l-0.2,0.2l-2-1.4L82.4,52.2z M86,56.5
					l-1.5-1.7l0.2-0.2l2,1.4L86,56.5z M81.9,56.1l1.9-1.5l0.2,0.1l-1.5,1.9L81.9,56.1z M86.5,52.7l-1.9,1.4l-0.2-0.2l1.5-1.9
					L86.5,52.7z M84.5,51.5l-0.2,2.3l-0.3,0l-0.6-2.2L84.5,51.5z M83.8,57.1l0.2-2.3l0.3,0l0.3,2.3L83.8,57.1L83.8,57.1z M81.3,54
					l2.4,0.3l0,0.2l-2.4,0.3L81.3,54L81.3,54z M87,54.8l-2.3-0.4l0-0.2l2.4-0.3L87,54.8z"/>
				<ellipse class="st4" cx="84.2" cy="54.3" rx="0.6" ry="0.6"/>
				<path class="st20" d="M80.8,54.3c0,1.8,1.5,3.3,3.4,3.3s3.4-1.5,3.4-3.3c0-1.8-1.5-3.3-3.4-3.3C82.3,51,80.8,52.5,80.8,54.3z
					 M81.5,54.3c0,1.4,1.2,2.6,2.7,2.6c1.5,0,2.7-1.2,2.7-2.6c0-1.4-1.2-2.6-2.7-2.6C82.7,51.7,81.5,52.8,81.5,54.3z"/>
				<path class="st4" d="M86.3,52.6l0.5-0.4 M82.5,52.2l-0.5-0.5 M81.5,56.3l0.6-0.4 M86.3,56.8l-0.5-0.5"/>
				<g>
					<path class="st4" d="M74.9,51.1L74.4,54l0.5,0.2l0.5-3.1L74.9,51.1L74.9,51.1z"/>
					<path class="st5" d="M75.2,50.7c0.3-0.1,0.6,0.1,1.2-0.6c0.9,0.9,0.1,1-0.1,1.8c-0.3,0.1-0.4-0.7-1.2-0.7
						C75.1,51.1,74,51,74,51l0.3-0.4C74.3,50.7,75,50.7,75.2,50.7L75.2,50.7z"/>
					<path class="st5" d="M74.8,51.3l0.1-0.9c0.1-0.3,0.5,0,0.5,0.1l-0.1,0.8L74.8,51.3z"/>
				</g>
				<path class="st21" d="M77.6,53.7l0,0.8c0.3,0.1,0.2,0.3,0.2,0.6l0,2.4c0.1,0.2,0.4,0.2,0.5,0.3c0.1,0.1,0.1,0.4-0.5,0.5l-0.5,0
					c-0.7-0.2-0.9-0.4-0.5-0.5c0.2-0.1,0.5-0.2,0.6-0.3l0-0.6l-0.5,0c-0.1,0-0.4-0.3-0.4-0.6l0-1.2c0-0.7,0.5-0.8,0.7-0.8l0-0.6
					L77.6,53.7L77.6,53.7z M76.8,55c0-0.2,0.3-0.4,0.4-0.4c0.1,0,0.4,0.2,0.4,0.4v0.5c0,0.2-0.2,0.8-0.5,0.8c-0.1,0-0.3-0.2-0.3-0.4
					L76.8,55L76.8,55z"/>
				<g>
					<path class="st5" d="M80.9,56.2c0.3-0.1,0.3,0.6,0.3,0.6l-0.5,0c-0.2,0.1-0.4,0.4-0.3,0.6c0.1,0.1,1.1-0.2,1.2,0
						c-0.2,1-1.5,1.3-1.9,0.9c-0.5-0.4-0.6-1.5,0.9-1.8L80.9,56.2L80.9,56.2z M80.6,56.4l0.1,0.3"/>
				</g>
				<g>
					<path class="st4" d="M90.5,56.5l0.5-2 M90,56.4l0.7-1.6 M88.7,56l1.7-0.9 M88,55.8l3.1-1.3"/>
					<path class="st9" d="M92.9,53c0,0,1.1,0,1.3,0.1c0.1,0-0.3,0.4-0.2,0.6c0.3,0.5,2.2,0.5,2.3,0.3c0.3-0.2-1.8-0.4-1.8-0.5
						c0-0.2,0.3-0.6,0.3-0.8c-0.1-0.3-0.9-0.5-0.9-0.5L92.9,53z"/>
					<path class="st19" d="M91.4,54l2.5-2.1c0,0,0.1-0.1,0.2,0c0.1,0.1,0,0.2,0,0.2l-2.6,2.2L91.4,54z"/>
					<path class="st4" d="M88.9,56.1c0,0,2.1-1.8,2.1-1.8l0.1-0.5c0,0,0.3,0.2,0.4,0.3s0.3,0.4,0.3,0.4l-0.6,0l-1.8,1.6L88.9,56.1
						L88.9,56.1z"/>
				</g>
				<g>
					<ellipse class="st4" cx="81.8" cy="58.5" rx="0.4" ry="0.4"/>
					<ellipse class="st4" cx="82.7" cy="57.8" rx="0.4" ry="0.4"/>
					<ellipse class="st4" cx="84" cy="58.3" rx="0.4" ry="0.4"/>
					<ellipse class="st4" cx="85.9" cy="58.7" rx="0.4" ry="0.4"/>
					<ellipse class="st4" cx="86.8" cy="58.8" rx="0.4" ry="0.4"/>
					<ellipse class="st4" cx="87.6" cy="58.8" rx="0.4" ry="0.4"/>
					<ellipse class="st4" cx="88.4" cy="58.8" rx="0.4" ry="0.4"/>
					<ellipse class="st4" cx="88" cy="58.2" rx="0.4" ry="0.4"/>
					<ellipse class="st4" cx="87.2" cy="58.2" rx="0.4" ry="0.4"/>
					<ellipse class="st4" cx="86.4" cy="58.1" rx="0.4" ry="0.4"/>
					<ellipse class="st4" cx="86.8" cy="57.5" rx="0.4" ry="0.4"/>
					<ellipse class="st4" cx="87.6" cy="57.5" rx="0.4" ry="0.4"/>
				</g>
				<path class="st21" d="M79.8,59c0-0.2,0.4-0.1,0.4-0.3c0-0.2-0.6-0.1-0.7,0.1c-0.3-0.3-0.5-0.1-0.7,0c-0.3-0.4-0.6-0.4-1-0.1
					c-0.2-0.2-0.7-0.1-0.9,0.1c-0.3-0.3-0.6-0.2-0.9,0c-0.1-0.2-0.2-0.1-0.3,0c-0.2-0.3-0.6-0.2-0.8,0c-0.2-0.2-0.3,0-0.6,0.1
					c-0.1-0.1-0.4-0.1-0.4,0c0,0.1,0.3,0.1,0.3,0.2c0,0.1-0.2,0.1-0.2,0.2c0,0.1,0.3,0.2,0.4,0c0.1,0.2,0.5,0.1,0.6-0.1
					c0.1,0.2,0.4,0.2,0.6,0c0.1,0.1,0.3,0.1,0.4,0c0.3,0.3,0.7,0.2,0.8-0.1l0.1,0c0.3,0.3,0.7,0.2,0.8,0c0.4,0.3,0.7,0.2,0.9,0
					c0.3,0.3,0.7,0.3,0.8,0c0.2,0.1,0.6,0.2,0.6,0C80.1,59.1,79.8,59.1,79.8,59z M79,59.1c0,0.1,0.1,0.1,0.2,0.1
					c0.1,0,0.2-0.1,0.2-0.1c0-0.1-0.1-0.1-0.2-0.1C79.1,58.9,79,59,79,59.1z M78.1,59c0,0.1,0.1,0.2,0.3,0.2s0.3-0.1,0.3-0.2
					c0-0.1-0.1-0.2-0.3-0.2C78.2,58.8,78.1,58.9,78.1,59z M76.3,59c0,0.1,0.1,0.2,0.2,0.2c0.1,0,0.2-0.1,0.2-0.2
					c0-0.1-0.1-0.2-0.2-0.2C76.4,58.9,76.3,59,76.3,59z M77.2,59c0,0.1,0.1,0.2,0.2,0.2c0.1,0,0.2-0.1,0.2-0.2
					c0-0.1-0.1-0.2-0.2-0.2C77.3,58.8,77.2,58.9,77.2,59z M75.2,59c0,0.1,0.1,0.2,0.2,0.2c0.1,0,0.2-0.1,0.2-0.2
					c0-0.1-0.1-0.2-0.2-0.2C75.3,58.8,75.2,58.9,75.2,59z M75.8,59.1c0,0.1,0.1,0.1,0.1,0.1c0.1,0,0.1-0.1,0.1-0.1
					c0-0.1-0.1-0.1-0.1-0.1C75.9,58.9,75.8,59,75.8,59.1z M74.6,59.1c0,0.1,0.1,0.2,0.2,0.2c0.1,0,0.2-0.1,0.2-0.2s-0.1-0.2-0.2-0.2
					C74.7,58.9,74.6,59,74.6,59.1z"/>
			</g>
		</g>
		<g>
			<path class="st22" d="M73,52.9c-1.3,0-2.3,0.5-2.3,1.1c0,0.1,0,0.2,0.1,0.3c0.3,0.3,1.2,0.5,2.2,0.5c1,0,1.8-0.2,2.1-0.5
				c0.1-0.1,0.1-0.2,0.1-0.3C75.3,53.3,74.3,52.9,73,52.9L73,52.9z"/>
			<path class="st23" d="M75.3,54v3.5c0,0.4-1,0.7-2.3,0.7c-1.3,0-2.3-0.3-2.3-0.7V54c0,0.4,1,0.7,2.3,0.7
				C74.3,54.7,75.3,54.4,75.3,54z"/>
			<path class="st9" d="M70.7,54v0.5l1.1,3.4l0.9-2.6l1,2.7l0.7-2.6l0.9,1.7v-1l-0.8-1.7c-0.1,0-0.2,0-0.3,0.1l-0.5,1.9L73,54.7
				c-0.1,0-0.2,0-0.4,0l-0.7,1.8L71,54.4C70.9,54.2,70.7,54.1,70.7,54L70.7,54z"/>
			<path class="st24" d="M75.3,56.9v0.7c0,0.4-1,0.7-2.3,0.7c-1.3,0-2.3-0.3-2.3-0.7v-0.7c0,0.4,1,0.7,2.3,0.7
				C74.3,57.6,75.3,57.3,75.3,56.9L75.3,56.9z"/>
			<path class="st23" d="M74,57.5c-0.2,0-0.4,0-0.6,0.1l0,0.7c0.2,0,0.4,0,0.6-0.1L74,57.5z M71.5,57.4l0,0.7c0.2,0,0.4,0.1,0.6,0.1
				v-0.7C71.9,57.5,71.7,57.5,71.5,57.4L71.5,57.4z M70.7,56.9v0.7c0,0.1,0.1,0.2,0.3,0.3l0-0.6C70.8,57.1,70.7,57,70.7,56.9
				L70.7,56.9z M75.3,56.9L75.3,56.9c-0.1,0.1-0.2,0.3-0.4,0.4l0,0.7c0.3-0.1,0.4-0.3,0.4-0.4L75.3,56.9L75.3,56.9z"/>
			<path class="st25" d="M75.3,54v3.5c0,0.4-1,0.7-2.3,0.7c-1.3,0-2.3-0.3-2.3-0.7V54"/>
			<path class="st26" d="M74.8,53.8c0,0.3-0.8,0.5-1.8,0.5c-1,0-1.8-0.2-1.8-0.5s0.8-0.5,1.8-0.5C74,53.3,74.8,53.5,74.8,53.8z"/>
			<path class="st27" d="M72.4,54.1l0.1,0.6c0.2,0,0.3,0,0.5,0l0.1-0.6H72.4z M74.5,53.9L74,54.1l0,0.6c0.2,0,0.3-0.1,0.4-0.1
				L74.5,53.9z M71.8,53c-0.1,0-0.2,0.1-0.4,0.1l0.1,0.5l0.3-0.1L71.8,53L71.8,53z M73,52.8c-0.1,0-0.1,0-0.2,0l0.1,0.6l0.3,0
				l0.1-0.6C73.2,52.8,73.1,52.8,73,52.8L73,52.8z M74.4,53l-0.1,0.5l0.3,0.1l0-0.5C74.6,53.1,74.5,53,74.4,53z"/>
			<path class="st4" d="M71.1,54.4l0.1-0.6l-0.5-0.3l0,0.7L71.1,54.4L71.1,54.4z M75.3,54.3l0-0.6l-0.4,0.1L75.3,54.3z"/>
		</g>
		<g>
			<path class="st4" d="M79.9,50c0.4-0.1,1,0.5,1.1,1.2c0,0.6-0.8,0.5-0.8,0.5c0,0.2-0.5,0.4-0.9,0.5c-0.4,0,0.1-0.7,0.1-0.7
				c-0.2-0.6,0.1-1.4,0.1-1.4L79.9,50z"/>
			<path class="st4" d="M79.3,51.5l0.4,0c0,0,0,0.2,0.1,0.2c0.1,0,0.2-0.2,0.2-0.2l0.6,0"/>
			<path class="st28" d="M80.2,50.4c0.3-0.2,0-0.7-0.2-0.7l-0.5,0c-0.3,0-0.7,0.3-0.6,0.5c0.1,0.2,0.2,0.3,0.4,0.3
				c0.1,0,0.3-0.3,0.4-0.3C79.7,50.2,80,50.5,80.2,50.4z"/>
		</g>
		<path class="st21" d="M55.2,57.4c-0.3,0-0.4,0.4-0.2,0.7c-1.3,0.4-2.5,0.9-3.7,1.2c0-0.2,0.6-0.9,0.6-0.9c0.2,0.1,0.3,0.5,0.3,0.5
			c0-0.8,0.8-1.3,0.8-1.3c-0.5-0.1-1.9,0.5-2,0.7c0,0,0.5-0.1,0.6,0c0,0-1.1,1.2-1.1,1.5c0.2,0.4,2,0.7,2,0.7c0,0.1-0.5,0.5-0.5,0.5
			c0.7,0.2,1.8-0.4,2.2-0.7c0,0-0.9-0.1-1.5-0.6c0,0,0.1,0.3,0.1,0.5c0,0-1-0.3-1.2-0.5c0,0,2.5-0.7,3.7-1c0,0.2,0.3,0.6,0.6,0.5
			c0.2-0.1,0.1-0.4,0.1-0.7c0.1,0.1,0.2,0.1,0.3,0.1c0.2,0,0.4-0.2,0.4-0.4c0-0.2-0.2-0.4-0.4-0.4c-0.2,0-0.3,0.1-0.4,0.3
			C55.6,57.8,55.5,57.4,55.2,57.4L55.2,57.4z M56.2,58.2c0,0.1-0.1,0.2-0.2,0.2c-0.1,0-0.2-0.1-0.2-0.2c0-0.1,0.1-0.2,0.2-0.2
			C56.1,58,56.2,58.1,56.2,58.2z"/>
		<g>
			<path class="st4" d="M94.6,58.9c0.1-0.2-0.1-1.1-0.1-1.1c-0.2,0-0.4,0.3-0.4,0.3c0.2-0.8-0.4-2-0.4-2c0.5,0.1,2,1.6,2,1.8
				c0,0-0.7-0.2-0.8-0.2c0.1,0.8,0.6,1.1,0.8,1.5c0,0-0.9,0.2-0.8,0.9l-0.6,0c-0.2-0.2,0.1-0.6,0.1-0.6l-3.9-1.6
				c-0.2-0.1-0.8-0.4-0.7-0.7c0.1-0.3,1,0.1,1.2,0.2L94.6,58.9L94.6,58.9z"/>
			<path class="st4" d="M90.9,58.3l0.5-0.8c0.2-0.2-0.2-0.5-0.4-0.2L90.4,58C90.2,58.4,90.7,58.5,90.9,58.3L90.9,58.3z"/>
		</g>
	</g>
	<g>
		<path class="st29" d="M127.6,120.3l-0.1-1.8l-2.2,0.1l-0.1,2L127.6,120.3L127.6,120.3z"/>
		<path class="st29" d="M111.5,122.9l-2.9-1.7c12.2,1.1,14.6-3.1,17.6-3.4c1.8-0.1,2.1,2-1.4,1l0.9,2.2c0,0-8.6,4.9-17.1,2.8
			L111.5,122.9z M164.4,120.3l0.1-1.8l2.7,0.1l0.1,2L164.4,120.3z"/>
		<path class="st29" d="M181.1,122.5l2.8-1.5c-13.9,0.4-10.8-2.3-17.7-3c-1.8-0.2-3.2,2.1,1.4,1l-0.9,2.2l2.2,0
			c4.7,3.1,11.1,3.4,15.4,2.4L181.1,122.5L181.1,122.5z"/>
		<path class="st29" d="M124.6,118.9v3.2c0,0,7.7,2.9,21.5,2.9c13.8,0,21.5-2.9,21.5-2.9v-3.2c0,0-5.8,2.7-21.5,2.7
			C130.5,121.6,124.6,118.9,124.6,118.9L124.6,118.9z"/>
	</g>
	<path d="M125.8,122.1l0.7-2.3l0.3,0.1l-0.6,2l1.2,0.3l-0.1,0.3L125.8,122.1L125.8,122.1z M128,121l0-0.5l0.1-0.4l0.3,0.1l-0.1,0.4
		l-0.2,0.4L128,121L128,121z M131.3,120.9l0.3,0.1l-0.3,1.4c0,0.2-0.1,0.4-0.2,0.5c-0.1,0.1-0.2,0.2-0.4,0.3c-0.2,0.1-0.4,0.1-0.6,0
		c-0.2,0-0.4-0.1-0.5-0.2c-0.1-0.1-0.2-0.2-0.2-0.4c0-0.2,0-0.4,0-0.6l0.3-1.4l0.3,0.1l-0.3,1.4c0,0.2-0.1,0.4,0,0.5
		c0,0.1,0.1,0.2,0.2,0.3c0.1,0.1,0.2,0.1,0.3,0.1c0.2,0,0.4,0,0.5-0.1c0.1-0.1,0.2-0.3,0.3-0.6L131.3,120.9z M131.7,123.4l0.4-2.4
		l0.3,0.1l1,2.1l0.3-1.9l0.3,0l-0.4,2.4l-0.3-0.1l-1-2.1l-0.3,1.9L131.7,123.4L131.7,123.4z M134.2,123.8l0.3-2.4l0.3,0l-0.3,2.4
		L134.2,123.8L134.2,123.8z M135.2,122.7c0-0.4,0.2-0.7,0.4-0.9c0.2-0.2,0.5-0.3,0.9-0.2c0.2,0,0.4,0.1,0.6,0.2
		c0.2,0.1,0.3,0.3,0.4,0.5c0.1,0.2,0.1,0.4,0.1,0.7c0,0.2-0.1,0.5-0.2,0.6c-0.1,0.2-0.3,0.3-0.5,0.4c-0.2,0.1-0.4,0.1-0.6,0.1
		c-0.2,0-0.4-0.1-0.6-0.2c-0.2-0.1-0.3-0.3-0.4-0.5C135.2,123.1,135.2,122.9,135.2,122.7L135.2,122.7z M135.5,122.8
		c0,0.3,0,0.5,0.2,0.7c0.1,0.2,0.3,0.3,0.6,0.3c0.2,0,0.5,0,0.6-0.2c0.2-0.1,0.3-0.4,0.3-0.7c0-0.2,0-0.4,0-0.5
		c0-0.1-0.1-0.3-0.3-0.4c-0.1-0.1-0.3-0.2-0.4-0.2c-0.2,0-0.4,0-0.6,0.2C135.7,122.2,135.6,122.4,135.5,122.8L135.5,122.8z
		 M137.8,124.2l0.2-2.4l0.3,0l1.1,2l0.2-1.9l0.3,0l-0.2,2.4l-0.3,0l-1.1-2l-0.2,1.9L137.8,124.2z M141.3,124.4l0.1-2.4l1.7,0.1
		l0,0.3l-1.3-0.1l0,0.7l1.2,0l0,0.3l-1.2,0l0,1.1L141.3,124.4L141.3,124.4z M143.1,124.5l1-2.4l0.4,0l1,2.4l-0.4,0l-0.3-0.7l-1,0
		l-0.3,0.7L143.1,124.5L143.1,124.5z M143.9,123.5l0.8,0l-0.2-0.7c-0.1-0.2-0.1-0.3-0.2-0.5c0,0.2-0.1,0.3-0.1,0.5L143.9,123.5
		L143.9,123.5z M145.8,124.5l0-2.4l0.3,0l0,2.4L145.8,124.5L145.8,124.5z M147.3,124.5l0-2.1l-0.8,0l0-0.3l2,0l0,0.3l-0.8,0l0,2.1
		L147.3,124.5L147.3,124.5z M149.8,124.5l-0.1-2.4l0.3,0l0.1,2.1l1.2-0.1l0,0.3L149.8,124.5L149.8,124.5z M151.4,124.4l0.8-2.5
		l0.4,0l1.2,2.3l-0.4,0l-0.3-0.7l-1,0.1l-0.2,0.7L151.4,124.4z M152.1,123.4l0.8-0.1l-0.3-0.6c-0.1-0.2-0.1-0.3-0.2-0.5
		c0,0.2-0.1,0.3-0.1,0.5L152.1,123.4L152.1,123.4z M155,124.1l-0.3-2.4l1.7-0.2l0,0.3l-1.3,0.1l0.1,0.7l1.2-0.1l0,0.3l-1.2,0.1
		l0.1,1.1L155,124.1L155,124.1z M156.8,122.8c-0.1-0.4,0-0.7,0.2-1c0.2-0.3,0.5-0.4,0.8-0.5c0.2,0,0.4,0,0.6,0.1
		c0.2,0.1,0.4,0.2,0.5,0.4c0.1,0.2,0.2,0.4,0.2,0.6c0,0.2,0,0.5-0.1,0.7c-0.1,0.2-0.2,0.4-0.4,0.5c-0.2,0.1-0.4,0.2-0.6,0.2
		c-0.2,0-0.4,0-0.6-0.1c-0.2-0.1-0.4-0.2-0.5-0.4C156.9,123.2,156.9,123,156.8,122.8L156.8,122.8z M157.2,122.7
		c0,0.3,0.2,0.5,0.3,0.6c0.2,0.1,0.4,0.2,0.6,0.2c0.2,0,0.4-0.1,0.6-0.3c0.1-0.2,0.2-0.4,0.1-0.7c0-0.2-0.1-0.3-0.2-0.5
		c-0.1-0.1-0.2-0.2-0.3-0.3c-0.1-0.1-0.3-0.1-0.5-0.1c-0.2,0-0.4,0.1-0.6,0.3C157.2,122.1,157.1,122.4,157.2,122.7L157.2,122.7z
		 M159.8,123.5l-0.4-2.4l1.1-0.2c0.2,0,0.4,0,0.5,0c0.1,0,0.2,0.1,0.3,0.2c0.1,0.1,0.1,0.2,0.2,0.3c0,0.2,0,0.3-0.1,0.5
		c-0.1,0.1-0.3,0.2-0.5,0.3c0.1,0,0.2,0.1,0.2,0.1c0.1,0.1,0.2,0.2,0.3,0.3l0.5,0.6l-0.4,0.1l-0.4-0.4c-0.1-0.1-0.2-0.2-0.3-0.3
		c-0.1-0.1-0.1-0.1-0.2-0.1c-0.1,0-0.1,0-0.2,0c-0.1,0-0.1,0-0.2,0l-0.4,0.1l0.2,1L159.8,123.5L159.8,123.5z M159.9,122.2l0.7-0.1
		c0.1,0,0.3-0.1,0.3-0.1c0.1-0.1,0.2-0.2,0.2-0.4c0-0.1-0.1-0.2-0.2-0.3c-0.1-0.1-0.2-0.1-0.4,0l-0.8,0.1L159.9,122.2L159.9,122.2z
		 M163.8,121.9l0.3,0c0,0.3-0.1,0.5-0.2,0.7c-0.1,0.2-0.3,0.3-0.6,0.3c-0.3,0.1-0.5,0.1-0.7,0c-0.2-0.1-0.4-0.2-0.5-0.4
		c-0.1-0.2-0.2-0.4-0.3-0.6c-0.1-0.2-0.1-0.5,0-0.7c0.1-0.2,0.2-0.4,0.3-0.5c0.2-0.1,0.4-0.2,0.6-0.3c0.2-0.1,0.5,0,0.7,0
		c0.2,0.1,0.3,0.2,0.5,0.4l-0.3,0.1c-0.1-0.2-0.2-0.3-0.3-0.3c-0.1-0.1-0.3-0.1-0.4,0c-0.2,0-0.3,0.1-0.4,0.2
		c-0.1,0.1-0.2,0.2-0.2,0.4c0,0.2,0,0.3,0,0.5c0,0.2,0.1,0.4,0.2,0.5s0.2,0.2,0.4,0.3c0.1,0,0.3,0.1,0.4,0c0.2,0,0.3-0.1,0.4-0.2
		C163.7,122.3,163.8,122.1,163.8,121.9L163.8,121.9z M164.7,122.5l-0.7-2.3l1.7-0.5l0.1,0.3l-1.4,0.4l0.2,0.7l1.3-0.4l0.1,0.3
		l-1.3,0.4l0.2,0.8l1.5-0.4l0.1,0.3L164.7,122.5L164.7,122.5z"/>
</g>
</svg>
