<svg id="Layer_1" data-name="Layer 1" xmlns="http://www.w3.org/2000/svg" viewBox="0 0 300 180"><defs><style>.cls-1{fill:#e00025;}.cls-2{fill:#032ea1;}.cls-3,.cls-4,.cls-5{fill:#fff;}.cls-3,.cls-4,.cls-5,.cls-6{stroke:#000;stroke-width:0.25px;}.cls-4{stroke-linecap:square;}.cls-4,.cls-5{stroke-linejoin:bevel;}.cls-6{fill:none;}</style></defs><title>Artboard 1</title><g id="layer2"><g id="g4095"><path id="rect4074" class="cls-1" d="M-46.57,10,345,68.89l-14.85,98.68L-61.43,108.63Z"/><path id="rect4070" class="cls-2" d="M-26.21-118.76,364.71-59.91,345.31,68.94-45.61,10.09Z"/><path id="rect4072" class="cls-2" d="M-62.82,108.42l393,59.16L310.39,298.92l-393-59.15Z"/></g><g id="g3941"><path id="path4053" class="cls-3" d="M147.17,55.78s-.06-1.63.89-1.65.89,1.65.89,1.65Z"/><path id="path5298" class="cls-3" d="M186.39,98.39V90.26a3.14,3.14,0,0,1,1.8-2.13V80.5c-1,0-1.48,1.3-1.48,1.3L185,89.25v9.07Z"/><path id="path4002" class="cls-4" d="M171.62,82.2h-2.45v5.17h2.45Z"/><path id="rect4016" class="cls-5" d="M125.78,82.2h45.1V99.55h-45.1Z"/><path id="path3912" class="cls-3" d="M109.89,98.36v-8.1a3.17,3.17,0,0,0-1.8-2.13V81l1.48.8,1.7,7.45v9.11Z"/><path id="path3963" class="cls-3" d="M109.89,98.39V90.26a3.17,3.17,0,0,0-1.8-2.13V80.5c1,0,1.48,1.3,1.48,1.3l1.7,7.45v9.07Z"/><path id="path3923" class="cls-3" d="M108.14,100.46a3.71,3.71,0,0,0,1.75-2.1H186.4a3.72,3.72,0,0,0,1.76,2.1Z"/><rect id="rect3953" class="cls-4" x="168.55" y="91.78" width="1.42" height="6.54"/><rect id="rect4008" class="cls-5" x="125.78" y="88.55" width="45.1" height="2.02"/><rect id="rect4010" class="cls-5" x="125.78" y="85.82" width="45.1" height="1.78"/><rect id="rect4014" class="cls-5" x="125.78" y="83.09" width="45.1" height="1.73"/><path id="path3968" class="cls-4" d="M171.62,82.2h-2.45v5.17h2.45Z"/><path id="path3933" class="cls-3" d="M187.38,100.46c-.69-.31-1.69-1.15-1.69-2V88.33l.47-.84H168.92l.67.84V98.45a2.43,2.43,0,0,1-1.37,2Z"/><rect id="rect3951" class="cls-4" x="137.65" y="91.78" width="1.42" height="6.54"/><rect id="rect3955" class="cls-4" x="157.06" y="91.78" width="1.42" height="6.54"/><path id="path3937" class="cls-3" d="M159.44,100.46c-.8-.31-2-1.15-2-2V88.83l1-1.34H137.6l1,1.34v9.62a2.45,2.45,0,0,1-1.6,2Z"/><rect id="rect3939" class="cls-4" x="141.32" y="91.78" width="1.42" height="6.54"/><rect id="rect3941" class="cls-4" x="153.33" y="91.78" width="1.42" height="6.54"/><path id="rect4125" class="cls-3" d="M137.22,76.54v11h21.41V85.14l0-8.6a1.64,1.64,0,0,0-1,1.13v4.67H138.32V77.67A1.86,1.86,0,0,0,137.22,76.54Z"/><path id="path3935" class="cls-3" d="M155.73,100.46c-.7-.31-2.23-1.15-2.23-2V87.68c.15-.6,1-1,1.5-1.33H140.8c.67.35,1.43.65,1.7,1.33V98.45c0,.86-1.21,1.7-1.91,2Z"/><path id="path3868" class="cls-3" d="M157.63,86.46V78.7h-1.94v-.76H140.3v.76h-2v7.76Z"/><rect id="rect3943" class="cls-4" x="126.13" y="91.78" width="1.42" height="6.54"/><path id="path3324" class="cls-3" d="M108.84,100.46c.68-.31,1.68-1.15,1.68-2V88.33l-.47-.84H127.3l-.68.84V98.45a2.42,2.42,0,0,0,1.38,2Z"/><rect id="rect4007" class="cls-4" x="110.68" y="80.76" width="1.59" height="5.9"/><rect id="rect4009" class="cls-4" x="110.67" y="79.49" width="1.59" height="1.24"/><path id="path3905" class="cls-3" d="M124.51,100.46c-.68-.31-1.68-1.15-1.68-2V88.83l1.43-1.34H112.54L114,88.83v9.62c0,.86-1,1.7-1.68,2Z"/><path id="path3901" class="cls-3" d="M122.87,100.46c-.68-.31-1.68-1.15-1.68-2v-8.7l.94-1.33h-7.45l.94,1.33v8.7c0,.86-1,1.7-1.69,2Z"/><path id="path3913" class="cls-3" d="M183.87,100.46c-.69-.31-1.68-1.15-1.68-2V88.83l1.43-1.34H171.9l1.43,1.34v9.62c0,.86-1,1.7-1.68,2Z"/><path id="path3903" class="cls-3" d="M182.23,100.46c-.69-.31-1.69-1.15-1.69-2v-8.7l.94-1.33H174l.94,1.33v8.7c0,.86-1,1.7-1.68,2Z"/><path id="path3887" class="cls-3" d="M116.62,88.42h3.56v12h-3.56Z"/><path id="path3897" class="cls-3" d="M152.66,100.46c-.68-.31-1.68-1.15-1.68-2v-9.2l.56-.83h-7l.56.83v9.2c0,.86-1,1.7-1.68,2Z"/><path id="path3891" class="cls-3" d="M146.26,88.42h3.55v12h-3.55Z"/><path id="path3893" class="cls-3" d="M176,88.42h3.56v12H176Z"/><rect id="rect4019" class="cls-5" x="144.47" y="83.84" width="7.13" height="2.63"/><path id="path3876" class="cls-5" d="M151.68,85.77c0-.79,2.31-.83,3.5-1.5H140.93c1.19.67,3.44.73,3.44,1.5l.48,1.54,5.9.24Z"/><path id="path4078" class="cls-3" d="M154.46,77.4c0-2,.09-2.69.68-2.69v6.17a6,6,0,0,0-2.51,2.4h-9.19a6,6,0,0,0-2.51-2.4V74.71c.73,0,.74.78.74,2.69Z"/><path id="path4023" class="cls-3" d="M143.57,78.55c1.19,1.42,1.08,3.83,1.06,5.25h6.88c0-1.42-.13-3.83,1.06-5.25Z"/><rect id="rect3927" class="cls-4" x="111.78" y="91.78" width="1.42" height="6.54"/><rect id="rect3944" class="cls-4" x="183.98" y="80.76" width="1.59" height="5.9"/><path id="path3929" class="cls-6" d="M108.14,100.46a3.71,3.71,0,0,0,1.75-2.1H186.4a3.72,3.72,0,0,0,1.76,2.1Z"/><rect id="rect3931" class="cls-4" x="123.96" y="91.78" width="1.42" height="6.54"/><path id="path3971" class="cls-3" d="M109.57,78.74v8.75h1V78.72A.87.87,0,0,0,109.57,78.74Z"/><path id="path3973" class="cls-3" d="M109.6,84.41c1.23.63,2.45,1.36,2.76,3.08H109.6Z"/><path id="rect3864" class="cls-4" d="M124.65,82.2h2.44v5.17h-2.44Z"/><path id="path3977" class="cls-3" d="M126.71,81.78v5.71h.8V81.77a.84.84,0,0,0-.8,0Z"/><path id="path4132" class="cls-3" d="M142.22,77.4V75.2c0-1.1-1.1-1.17-1.13-2a3.9,3.9,0,0,1,.18-1.75c.43,1.6,1.21,1.31,1.21.65S142,71,141.13,69.62a2.84,2.84,0,0,1,.3-2.35c.16,1.22.34,1.8.86,1.8.32,0,.58-.21.58-.82,0-.77-.53-1.16-.78-1.87a2,2,0,0,1,.4-2.13c.22,1.2.15,1.68.69,1.68,1.07-.34,0-1.9-.23-2.29s.35-1.37.35-1.37c.34,1.06.45,1.15.82,1s.41-.81-.16-1.37a.9.9,0,0,1,.06-1.3c.39.76.88.71.93.26l-.31-1.74h6.84l-.34,1.69c-.1.48.55.58,1-.21a.9.9,0,0,1,.06,1.3c-.57.56-.63,1.25-.16,1.37s.48,0,.82-1a1.61,1.61,0,0,1,.36,1.37c-.23.39-1.31,2-.23,2.29.53,0,.47-.48.68-1.68a2,2,0,0,1,.41,2.13c-.26.71-.79,1.1-.79,1.87,0,.61.26.82.58.82.52,0,.7-.58.86-1.8a2.84,2.84,0,0,1,.3,2.35c-.91,1.4-1.35,1.93-1.35,2.51s.78,1,1.21-.65a3.75,3.75,0,0,1,.18,1.75c0,.8-1.1.87-1.13,2v2.2Z"/><path id="path5748" class="cls-6" d="M144.73,61.26h6.78"/><path id="path4031" class="cls-3" d="M147.44,62.25l-.95-.49V60.38c.39.11.82.16.86.77.14-.87.38-.83.76-1.17.38.34.62.3.76,1.17,0-.61.47-.66.85-.77v1.38l-.94.49Z"/><path id="path4060" class="cls-6" d="M143.92,63.38h8.29"/><path id="path4029" class="cls-3" d="M147.37,64.52l-1.56-1.07V62.17c.55.13,1.16.18,1.22.85a2.58,2.58,0,0,1,1.08-1.83A2.62,2.62,0,0,1,149.19,63c.06-.67.67-.72,1.22-.85v1.28l-1.56,1.07Z"/><path id="path4058" class="cls-6" d="M143.12,66H153"/><path id="path4025" class="cls-3" d="M147.26,68.07l-1.79-1.58V64.61c.63.19,1.33.26,1.4,1.25a4.09,4.09,0,0,1,1.24-2.69,4.09,4.09,0,0,1,1.24,2.69c.07-1,.77-1.06,1.4-1.25v1.88L149,68.07Z"/><path id="path4037" class="cls-3" d="M150.58,70.16,149,72.41h-1.84l-1.63-2.25Z"/><path id="path4033" class="cls-3" d="M144.55,73.94c.81.44,1.11,1.33,1.2,3h4.58c.08-1.66.38-2.55,1.2-3Z"/><path id="path4062" class="cls-6" d="M142.28,69.09H154"/><path id="path4064" class="cls-6" d="M142,72.67h12.05"/><path id="path4017" class="cls-5" d="M151.6,70.16V67.9a2.07,2.07,0,0,0-1.5,1.29A6.12,6.12,0,0,0,148,65.85c-1.08,1-2.09,2.53-2.07,3.34a2.06,2.06,0,0,0-1.49-1.29v2.26Z"/><path id="path4015" class="cls-5" d="M151.94,73.94V71.68A2.19,2.19,0,0,0,150.3,73,6,6,0,0,0,148,69.63c-1.19,1-2.29,2.53-2.27,3.34a2.19,2.19,0,0,0-1.64-1.29v2.26Z"/><path id="path4013" class="cls-5" d="M152.89,78.58V76a3.74,3.74,0,0,0-2,1.51c0-1.42-1.59-3.57-2.81-4.27-1.26.72-2.82,2.94-2.82,4.27a3.78,3.78,0,0,0-2-1.51v2.61Z"/><path id="path4011" class="cls-5" d="M152.32,84.36V81.68a3.06,3.06,0,0,0-1.5,1.87c.11-2.72-1.53-5.64-2.78-6.38-1.26.74-2.93,3.73-2.79,6.38-.3-.6-.57-1.5-1.5-1.87v2.68Z"/><rect id="rect3946" class="cls-4" x="183.99" y="79.49" width="1.59" height="1.24"/><rect id="rect4066" class="cls-4" x="170.85" y="91.78" width="1.42" height="6.54"/><rect id="rect4068" class="cls-4" x="183.03" y="91.78" width="1.42" height="6.54"/><path id="path3870" class="cls-6" d="M138.35,84.36h19.28"/><rect id="rect3355" class="cls-6" x="144.47" y="84.36" width="7.15" height="2.63"/><path id="path3917" class="cls-3" d="M151.67,88.42V85.74c-1,.23-1,.59-1.35,1.19A5,5,0,0,0,148,82.71a5,5,0,0,0-2.29,4.22c-.31-.6-.35-1-1.35-1.19v2.68Z"/><path id="path3908" class="cls-3" d="M127.51,84.41c-1.23.63-2.45,1.36-2.76,3.08h2.76Z"/><path id="rect3914" class="cls-4" d="M110.56,80.76h1.72v6.7h-1.72Z"/><path id="rect3916" class="cls-4" d="M110.56,79.49h1.71v1.25h-1.71Z"/><path id="path3938" class="cls-4" d="M124.65,82.2h2.44v5.17h-2.44Z"/><path id="path3931" class="cls-3" d="M112.25,87.41V75.94c.49,0,.57,1.68,1.69,1.68.58,0,.52-.7.19-1.27a2.53,2.53,0,0,1-.16-2.48c.33,1,1.23,1.3,1.06.68-.28-1.07-1.1-1.24-.49-2.9.22,1.38,1.1,1.32.89.52s-.74-1.27-.13-2.55c.35,1.45.82,1.37.82.47,0-1.33-.05-2.76,1.66-3.29,0,0,.1-1.22.72-1.22s.72,1.22.72,1.22c1.71.53,1.66,2,1.66,3.29,0,.9.47,1,.82-.47.61,1.28.11,1.65-.13,2.55s.67.86.89-.52c.61,1.66-.21,1.83-.49,2.9-.17.62.73.3,1.06-.68a2.53,2.53,0,0,1-.16,2.48c-.33.57-.39,1.27.19,1.27,1.12,0,1.2-1.68,1.69-1.68V87.41Z"/><path id="path3920" class="cls-3" d="M119.36,71l.72-.61v-.77a.72.72,0,0,0-.6.37,2,2,0,0,0-1-1.16,1.89,1.89,0,0,0-1,1.14.74.74,0,0,0-.6-.35v.77l.71.61Z"/><path id="path3922" class="cls-3" d="M119.74,73l.34-.73v-1a.72.72,0,0,0-.6.37,2,2,0,0,0-1-1.18,2,2,0,0,0-1,1.16.74.74,0,0,0-.6-.35v1l.33.73Z"/><path id="path3924" class="cls-3" d="M119.79,75.59l1.07-1.3V73a1.13,1.13,0,0,0-.89.64c-.25-.88-.79-1.07-1.51-1.5-.72.43-1.26.59-1.51,1.47a1.09,1.09,0,0,0-.89-.61v1.29l1.07,1.3Z"/><path id="path3926" class="cls-3" d="M120.11,78.17s1.24-1.08,1.32-1.68V75.12a1.56,1.56,0,0,0-1.3.74,2.88,2.88,0,0,0-1.67-2,2.9,2.9,0,0,0-1.67,2,1.54,1.54,0,0,0-1.29-.74v1.37a5.84,5.84,0,0,0,1.32,1.68Z"/><path id="path3928" class="cls-3" d="M120.64,82.94s1.7-1.89,1.74-2.63V78.17a2.38,2.38,0,0,0-1.71,1.41,6.05,6.05,0,0,0-2.21-3.87,6.05,6.05,0,0,0-2.21,3.87,2.38,2.38,0,0,0-1.71-1.41v2.14a10.51,10.51,0,0,0,1.75,2.63Z"/><path id="path3930" class="cls-3" d="M120.64,85.75a13.07,13.07,0,0,0,1.74-2.13V81.48a2.38,2.38,0,0,0-1.71,1.41,5.52,5.52,0,0,0-2.21-3.65,5.52,5.52,0,0,0-2.21,3.65,2.38,2.38,0,0,0-1.71-1.41v2.14a19.21,19.21,0,0,0,1.75,2.13Z"/><path id="path3932" class="cls-3" d="M121.23,87.39c-.43-1.85-.79-3.22-2.84-4.61-2,1.39-2.42,2.76-2.84,4.61Z"/><path id="path3911" class="cls-3" d="M122.28,88.42V85.74a4,4,0,0,0-2.08,1.5,6,6,0,0,0-1.84-3,5.85,5.85,0,0,0-1.74,3,4,4,0,0,0-2.08-1.5v2.68Z"/><path id="path3934" class="cls-3" d="M109.57,78.74v8.75h1V78.72A.87.87,0,0,0,109.57,78.74Z"/><path id="path3936" class="cls-3" d="M109.6,84.41c1.23.63,2.45,1.36,2.76,3.08H109.6Z"/><path id="path3940" class="cls-3" d="M126.71,81.78v5.71h.8V81.77a.84.84,0,0,0-.8,0Z"/><path id="path3942" class="cls-3" d="M127.51,84.36c-1.23.63-2.45,1.36-2.76,3.09h2.76Z"/><path id="path3964" class="cls-3" d="M186.69,78.74v8.75h-1V78.72A.87.87,0,0,1,186.69,78.74Z"/><path id="path3939" class="cls-3" d="M171.57,87.41V75.94c.49,0,.56,1.68,1.68,1.68.59,0,.53-.7.2-1.27a2.53,2.53,0,0,1-.16-2.48c.33,1,1.23,1.3,1.06.68-.28-1.07-1.1-1.24-.49-2.9.22,1.38,1.1,1.32.89.52s-.74-1.27-.13-2.55c.35,1.45.82,1.37.82.47,0-1.33-.06-2.76,1.66-3.29,0,0,.1-1.22.72-1.22s.72,1.22.72,1.22c1.71.53,1.66,2,1.66,3.29,0,.9.47,1,.82-.47.61,1.28.11,1.65-.13,2.55s.67.86.89-.52c.61,1.66-.21,1.83-.5,2.9-.16.62.74.3,1.07-.68a2.53,2.53,0,0,1-.16,2.48c-.33.57-.39,1.27.19,1.27,1.12,0,1.2-1.68,1.69-1.68V87.41Z"/><path id="path3331" class="cls-3" d="M178.68,71l.72-.61v-.77a.72.72,0,0,0-.6.37,2,2,0,0,0-1-1.16,1.89,1.89,0,0,0-1,1.14.75.75,0,0,0-.61-.35v.77l.72.61Z"/><path id="path3333" class="cls-3" d="M179.06,73l.34-.73v-1a.72.72,0,0,0-.6.37,2,2,0,0,0-1-1.18,2,2,0,0,0-1,1.16.75.75,0,0,0-.61-.35v1l.34.73Z"/><path id="path3335" class="cls-3" d="M179.11,75.59l1.07-1.3V73a1.13,1.13,0,0,0-.89.64c-.25-.88-.79-1.07-1.51-1.5-.72.43-1.26.59-1.51,1.47a1.09,1.09,0,0,0-.89-.61v1.29l1.07,1.3Z"/><path id="path3337" class="cls-3" d="M179.43,78.17s1.24-1.08,1.32-1.68V75.12a1.56,1.56,0,0,0-1.3.74,2.88,2.88,0,0,0-1.67-2,2.9,2.9,0,0,0-1.67,2,1.54,1.54,0,0,0-1.29-.74v1.37a5.84,5.84,0,0,0,1.32,1.68Z"/><path id="path3339" class="cls-3" d="M180,82.94s1.7-1.89,1.74-2.63V78.17A2.38,2.38,0,0,0,180,79.58a6.05,6.05,0,0,0-2.21-3.87,6.05,6.05,0,0,0-2.21,3.87,2.38,2.38,0,0,0-1.71-1.41v2.14a10.51,10.51,0,0,0,1.75,2.63Z"/><path id="path3341" class="cls-3" d="M180,85.75a13.07,13.07,0,0,0,1.74-2.13V81.48A2.38,2.38,0,0,0,180,82.89a5.52,5.52,0,0,0-2.21-3.65,5.52,5.52,0,0,0-2.21,3.65,2.38,2.38,0,0,0-1.71-1.41v2.14a19.21,19.21,0,0,0,1.75,2.13Z"/><path id="path3343" class="cls-3" d="M180.55,87.39c-.43-1.85-.8-3.22-2.84-4.61-2.05,1.39-2.42,2.76-2.84,4.61Z"/><path id="path3966" class="cls-3" d="M186.66,84.41A4.14,4.14,0,0,0,184,87.49h2.63Z"/><path id="path3970" class="cls-3" d="M169.55,81.78v5.71h-.8V81.77a.84.84,0,0,1,.8,0Z"/><path id="path3972" class="cls-3" d="M168.75,84.41c1.23.63,2.45,1.36,2.76,3.08h-2.76Z"/><path id="path4004" class="cls-3" d="M169.55,81.78v5.71h-.8V81.77a.84.84,0,0,1,.8,0Z"/><path id="path4006" class="cls-3" d="M168.75,84.41c1.23.63,2.45,1.36,2.76,3.08h-2.76Z"/><path id="rect3321" class="cls-3" d="M155.14,76.6a2.33,2.33,0,0,1,1.92-2.48v2c-.73,0-1.08.63-1.08,1.61s.59,1,.59,1v5.62h-1.43Z"/><path id="path4325" class="cls-3" d="M140.94,76.6A2.33,2.33,0,0,0,139,74.12v2c.73,0,1.08.63,1.08,1.61s-.59,1-.59,1v5.62h1.43Z"/><path id="path5240" class="cls-3" d="M181.63,88.39V85.71a4,4,0,0,0-2.08,1.5,6,6,0,0,0-1.84-3,5.88,5.88,0,0,0-1.74,3,4,4,0,0,0-2.08-1.5v2.68Z"/><path id="path4136" class="cls-3" d="M99.49,110.25h97.22v5H99.49Z"/><path id="rect2997" class="cls-3" d="M96.93,115.21H199.28v5H96.93Z"/><path id="path4138" class="cls-3" d="M104.6,102.83h87V106h-87Z"/><path id="path4140" class="cls-3" d="M102.05,106h92.1v4.21h-92.1Z"/><path id="path4134" class="cls-3" d="M106.12,100.36h84v2.44h-84Z"/><g id="g4467"><path id="path3823" class="cls-3" d="M115.23,100.37h6.34v19.79h-6.34Z"/><path id="path3825" class="cls-3" d="M116.63,100.37h3.54v19.79h-3.54Z"/><path id="path4448" class="cls-6" d="M116.57,102.81h3.66"/><path id="path4455" class="cls-6" d="M116.57,105.29h3.66"/><path id="path4457" class="cls-6" d="M116.57,107.76h3.66"/><path id="path4459" class="cls-6" d="M116.57,110.24h3.66"/><path id="path4461" class="cls-6" d="M116.57,112.72h3.66"/><path id="path4463" class="cls-6" d="M116.57,115.19h3.66"/><path id="path4465" class="cls-6" d="M116.57,117.67h3.66"/></g><path id="path4480" class="cls-3" d="M144.82,100.37h6.34v19.79h-6.34Z"/><path id="path3825-1" class="cls-3" d="M146.27,100.37h3.53v19.79h-3.53Z"/><path id="path4484" class="cls-6" d="M146.29,102.81h3.41"/><path id="path4486" class="cls-6" d="M146.29,105.28h3.41"/><path id="path4488" class="cls-6" d="M146.29,107.76h3.41"/><path id="path4490" class="cls-6" d="M146.29,110.24h3.41"/><path id="path4492" class="cls-6" d="M146.29,112.72h3.41"/><path id="path4494" class="cls-6" d="M146.29,115.2h3.41"/><path id="path4496" class="cls-6" d="M146.29,117.67h3.41"/><g id="g4498"><path id="path4500" class="cls-3" d="M174.59,100.37h6.34v19.79h-6.34Z"/><path id="path4502" class="cls-3" d="M176,100.37h3.54v19.79H176Z"/><path id="path4504" class="cls-6" d="M175.93,102.81h3.66"/><path id="path4506" class="cls-6" d="M175.93,105.29h3.66"/><path id="path4508" class="cls-6" d="M175.93,107.76h3.66"/><path id="path4510" class="cls-6" d="M175.93,110.24h3.66"/><path id="path4512" class="cls-6" d="M175.93,112.72h3.66"/><path id="path4514" class="cls-6" d="M175.93,115.19h3.66"/><path id="path4516" class="cls-6" d="M175.93,117.67h3.66"/></g><rect id="rect4518" class="cls-4" x="128.92" y="91.78" width="1.42" height="6.54"/><rect id="rect4520" class="cls-4" x="131.89" y="91.78" width="1.42" height="6.54"/><rect id="rect4522" class="cls-4" x="134.86" y="91.78" width="1.42" height="6.54"/><rect id="rect4524" class="cls-4" x="159.76" y="91.78" width="1.42" height="6.54"/><rect id="rect4526" class="cls-4" x="162.73" y="91.78" width="1.42" height="6.54"/><rect id="rect4528" class="cls-4" x="165.7" y="91.78" width="1.42" height="6.54"/><path id="path3144" class="cls-3" d="M145.08,59.16l-.16-1.24h6.28L151,59.16Z"/><path id="path3916" class="cls-3" d="M145.5,57.89l-.13-1h5.39l-.14,1Z"/><path id="path3918" class="cls-3" d="M146.36,56.84l-.09-1h3.59l-.09,1Z"/></g></g></svg>