<svg id="Layer_1" xmlns="http://www.w3.org/2000/svg" viewBox="0 0 300 180"><style>.st0{fill:#009543}.st1{fill:#00209f}.st2{fill:#fff}</style><path class="st0" d="M-6.1 134.3H309v63H-6.1v-63z"/><path class="st1" d="M-6.1-12.8H309v63H-6.1v-63z"/><path class="st2" d="M-6.1 50.1H309v84.1H-6.1z"/><path d="M137.6 71.2c.1-6.5 2.5-12.2 7.2-14.7 1.2-.6 2.1-.5 3.5-1.1 1-.4 1.6-1.5 3-1.6 1.4 0 2 .9 3 1.6 7 1.1 9.8 6.3 10.7 13.4.1.5-.2 1.5.2 1.7v.5c-.4.3-.1 1.2-.2 1.7-.7 6.2-2.5 11.2-4.7 15.9 5.3 7.6 11 14.7 16.5 22.1 1-.3 1.8-.8 2.8-1.1 2.1 3.9 3.9 8.1 6 12-7.7 5-17.6 7.9-29.3 8.8-.5.1-1.4-.2-1.6.2H148.4c-12.5-.5-22.2-3.8-30.7-8.3 1.7-4.4 3.8-8.2 5.7-12.4.9.4 2 .7 3 1.1 5.7-6.9 10.8-14.4 16.2-21.6-2.1-5-4.2-10.1-4.9-16.5-.1-.6.2-1.4-.1-1.7zM154.3 59v-.2c-1.3 2 .2 7.9-.2 10.6 1.5 1.8 3.3 3.3 5 4.9-1.1.8-2.8-.6-3.8.2-1 .9.4 7.1 0 7.9.6 1.4 1.6 2.4 2.5 3.5 1.6-3.9 3.2-7.9 3.6-12.9.3-.9.3-2.9 0-3.8-.5-5.3-2.2-9.4-7.1-10.2zm-5.7 4.5v-4.6c-4.7 1-6.9 4.7-7.4 9.9-.3.9-.3 3 0 3.9.6 5.2 2 9.6 3.9 13.4.4-1.4 2.3-2.3 2.7-3.9.5-2.3-.4-4.8 0-7.6h-3.9c.8-1 1.9-1.7 2.5-2.8.6-.5 1.1-1 1.6-1.6.3-.2.6-.3.6-.8.2-1.5.2-4.2 0-5.9zm24.2 52c.6 1.3 1.7 2.1 2.4 3.3 1.2-.9 1.9-2.4 2.7-3.8-.8-2.4-3.3.2-5.1.5zm-46.3 2.7c-.6-.9-.6-2.3-1.3-3.2-.6 1.3-1.4 2.5-1.9 3.9 1.1-.2 2.4-.2 3.2-.7zm2.1-3c.5 1.6 1 3.2 1.6 4.7 1.4-.4 3-.6 4.1-1.3-.6-2.5-3.2-2.9-5.7-3.4zm36.5 2.7c.5 1.3 1.5 2.2 2.4 3.2 1.2-1.5 5.7-3 2.4-4.4-1.8.2-3 .9-4.8 1.2zm12 3.3c1.3-.1 2-.7 3.2-.9-.3-1.2-1.1-2-1.4-3.2-1 1-2.4 2.1-1.8 4.1zm-40.2-3.6c.4 1.6 1.2 2.9 1.7 4.4 1.6-.2 2.7-1 4.1-1.4-.5-2.5-3.3-2.6-5.8-3zm19.2 1.5c.7 1 1.3 2.3 2 3.3 1.4-.9 3-1.4 4.4-2.2-.2-2.9-4.2-1.5-6.4-1.1zm-8.5-.1c-.4-.4-1.5-.1-2.2-.2 0 .2 0 .4.2.5.7 1.2 1.2 2.6 2.2 3.6 1.7-1 4.1-1.3 5.7-2.4-.4-.3-.5-.9-.6-1.4h-1.7c-.4-.4-1.4-.1-2-.2-.6.1-1.1.1-1.6.1zm-20.3.8c-1-.3-2.1.7-3.3.8.8 1 2.6 1.1 3.8 1.7 0-1-.5-1.5-.5-2.5zm47 3.1c-.2-1.1-1.4-2.4-2.4-3.3-1.2 1-2.6 1.8-3.6 2.8.4.4.7 1 .9 1.6 1.9-.1 3.2-.9 5.1-1.1zm-39.7-2.5c-1.1.4-2.3.7-3.5 1.1.1.9.3 1.6.6 2.2 1.9.2 3.3.9 5.2 1.1-.8-1.5-1.1-3.3-2.3-4.4zm29.1 1.1c-1.6.6-3 1.5-4.6 2.2.3 3.4 4.9 1.4 7.2.9-.8-1-1.7-2-2.6-3.1zm-19.8.6c-1.6.3-2.8 1-4.4 1.4.1.7.5 1.2.6 1.9 2.2.1 4 .6 6.1.8-.6-1.5-1.7-2.5-2.3-4.1zm9.7 4.1h3.3c-.6-1.6-1.7-2.7-2.5-4.1-2 .6-3.7 1.4-5.7 2 .1 1 .7 1.5 1.1 2.2h1.1c.9 0 2.1.3 2.7-.1z"/></svg>