<?xml version="1.0" encoding="utf-8"?>
<!-- Generator: Adobe Illustrator 22.0.1, SVG Export Plug-In . SVG Version: 6.00 Build 0)  -->
<svg version="1.1" id="Layer_1" xmlns="http://www.w3.org/2000/svg" xmlns:xlink="http://www.w3.org/1999/xlink" x="0px" y="0px"
	 viewBox="0 0 300 180" style="enable-background:new 0 0 300 180;" xml:space="preserve">
<style type="text/css">
	.st0{fill:#009543;}
	.st1{fill:#00209F;}
	.st2{fill:#FFFFFF;}
</style>
<path class="st0" d="M-6.1,134.3c105,0,210,0,315.1,0c0,21,0,42,0,63c-105,0-210,0-315.1,0C-6.1,176.3-6.1,155.3-6.1,134.3z"/>
<path class="st1" d="M-6.1-12.8c105,0,210,0,315.1,0c0,21,0,42,0,63c-105,0-210,0-315.1,0C-6.1,29.2-6.1,8.2-6.1-12.8z"/>
<rect x="-6.1" y="50.1" class="st2" width="315.1" height="84.1"/>
<path d="M137.6,71.2c0.1-6.5,2.5-12.2,7.2-14.7c1.2-0.6,2.1-0.5,3.5-1.1c1-0.4,1.6-1.5,3-1.6c1.4,0,2,0.9,3,1.6
	c7,1.1,9.8,6.3,10.7,13.4c0.1,0.5-0.2,1.5,0.2,1.7c0,0.2,0,0.3,0,0.5c-0.4,0.3-0.1,1.2-0.2,1.7c-0.7,6.2-2.5,11.2-4.7,15.9
	c5.3,7.6,11,14.7,16.5,22.1c1-0.3,1.8-0.8,2.8-1.1c2.1,3.9,3.9,8.1,6,12c-7.7,5-17.6,7.9-29.3,8.8c-0.5,0.1-1.4-0.2-1.6,0.2
	c-0.5,0-1.1,0-1.6,0c-1.6,0-3.2,0-4.7,0c-12.5-0.5-22.2-3.8-30.7-8.3c1.7-4.4,3.8-8.2,5.7-12.4c0.9,0.4,2,0.7,3,1.1
	c5.7-6.9,10.8-14.4,16.2-21.6c-2.1-5-4.2-10.1-4.9-16.5C137.6,72.3,137.9,71.5,137.6,71.2z M154.3,59c0,0,0-0.1,0-0.2
	c-1.3,2,0.2,7.9-0.2,10.6c1.5,1.8,3.3,3.3,5,4.9c-1.1,0.8-2.8-0.6-3.8,0.2c-1,0.9,0.4,7.1,0,7.9c0.6,1.4,1.6,2.4,2.5,3.5
	c1.6-3.9,3.2-7.9,3.6-12.9c0.3-0.9,0.3-2.9,0-3.8C160.9,63.9,159.2,59.8,154.3,59z M148.6,63.5c0-1.5,0-3,0-4.6
	c-4.7,1-6.9,4.7-7.4,9.9c-0.3,0.9-0.3,3,0,3.9c0.6,5.2,2,9.6,3.9,13.4c0.4-1.4,2.3-2.3,2.7-3.9c0.5-2.3-0.4-4.8,0-7.6
	c-1.3,0-2.6,0-3.9,0c0.8-1,1.9-1.7,2.5-2.8c0.6-0.5,1.1-1,1.6-1.6c0.3-0.2,0.6-0.3,0.6-0.8C148.8,67.9,148.8,65.2,148.6,63.5z
	 M172.8,115.5c0.6,1.3,1.7,2.1,2.4,3.3c1.2-0.9,1.9-2.4,2.7-3.8C177.1,112.6,174.6,115.2,172.8,115.5z M126.5,118.2
	c-0.6-0.9-0.6-2.3-1.3-3.2c-0.6,1.3-1.4,2.5-1.9,3.9C124.4,118.7,125.7,118.7,126.5,118.2z M128.6,115.2c0.5,1.6,1,3.2,1.6,4.7
	c1.4-0.4,3-0.6,4.1-1.3C133.7,116.1,131.1,115.7,128.6,115.2z M165.1,117.9c0.5,1.3,1.5,2.2,2.4,3.2c1.2-1.5,5.7-3,2.4-4.4
	C168.1,116.9,166.9,117.6,165.1,117.9z M177.1,121.2c1.3-0.1,2-0.7,3.2-0.9c-0.3-1.2-1.1-2-1.4-3.2
	C177.9,118.1,176.5,119.2,177.1,121.2z M136.9,117.6c0.4,1.6,1.2,2.9,1.7,4.4c1.6-0.2,2.7-1,4.1-1.4
	C142.2,118.1,139.4,118,136.9,117.6z M156.1,119.1c0.7,1,1.3,2.3,2,3.3c1.4-0.9,3-1.4,4.4-2.2C162.3,117.3,158.3,118.7,156.1,119.1z
	 M147.6,119c-0.4-0.4-1.5-0.1-2.2-0.2c0,0.2,0,0.4,0.2,0.5c0.7,1.2,1.2,2.6,2.2,3.6c1.7-1,4.1-1.3,5.7-2.4c-0.4-0.3-0.5-0.9-0.6-1.4
	c-0.6,0-1.2,0-1.7,0c-0.4-0.4-1.4-0.1-2-0.2C148.6,119,148.1,119,147.6,119z M127.3,119.8c-1-0.3-2.1,0.7-3.3,0.8
	c0.8,1,2.6,1.1,3.8,1.7C127.8,121.3,127.3,120.8,127.3,119.8z M174.3,122.9c-0.2-1.1-1.4-2.4-2.4-3.3c-1.2,1-2.6,1.8-3.6,2.8
	c0.4,0.4,0.7,1,0.9,1.6C171.1,123.9,172.4,123.1,174.3,122.9z M134.6,120.4c-1.1,0.4-2.3,0.7-3.5,1.1c0.1,0.9,0.3,1.6,0.6,2.2
	c1.9,0.2,3.3,0.9,5.2,1.1C136.1,123.3,135.8,121.5,134.6,120.4z M163.7,121.5c-1.6,0.6-3,1.5-4.6,2.2c0.3,3.4,4.9,1.4,7.2,0.9
	C165.5,123.6,164.6,122.6,163.7,121.5z M143.9,122.1c-1.6,0.3-2.8,1-4.4,1.4c0.1,0.7,0.5,1.2,0.6,1.9c2.2,0.1,4,0.6,6.1,0.8
	C145.6,124.7,144.5,123.7,143.9,122.1z M153.6,126.2c1.1,0,2.2,0,3.3,0c-0.6-1.6-1.7-2.7-2.5-4.1c-2,0.6-3.7,1.4-5.7,2
	c0.1,1,0.7,1.5,1.1,2.2c0.4,0,0.7,0,1.1,0C151.8,126.3,153,126.6,153.6,126.2z"/>
</svg>
