<?xml version="1.0" encoding="UTF-8"?>
<svg width="250px" height="150px" viewBox="0 0 250 150" version="1.1" xmlns="http://www.w3.org/2000/svg" xmlns:xlink="http://www.w3.org/1999/xlink">
    <!-- Generator: Sketch 54.1 (76490) - https://sketchapp.com -->
    <title>NPL</title>
    <desc>Created with Sketch.</desc>
    <defs>
        <linearGradient x1="50%" y1="0%" x2="50%" y2="100%" id="linearGradient-1">
            <stop stop-color="#000000" stop-opacity="0" offset="0%"></stop>
            <stop stop-color="#000000" stop-opacity="0.1" offset="100%"></stop>
        </linearGradient>
        <rect id="path-2" x="0" y="0" width="250" height="150"></rect>
    </defs>
    <g id="Country-thumbnails" stroke="none" stroke-width="1" fill="none" fill-rule="evenodd">
        <g id="NPL">
            <mask id="mask-3" fill="white">
                <use xlink:href="#path-2"></use>
            </mask>
            <g id="Rectangle-3">
                <use fill="#FFFFFF" xlink:href="#path-2"></use>
                <use fill="url(#linearGradient-1)" xlink:href="#path-2"></use>
            </g>
            <g style="mix-blend-mode: multiply;" mask="url(#mask-3)">
                <g transform="translate(250.103806, 40.644390) rotate(-345.000000) translate(-250.103806, -40.644390) translate(-163.896194, -238.355610)">
                    <rect id="Rectangle" stroke="#FFFFFF" stroke-width="3" fill="#FFFFFF" fill-rule="nonzero" x="0.796125605" y="0.61120148" width="827" height="557"></rect>
                    <polygon id="a" stroke="#003893" stroke-width="15.495" fill="#DC143C" fill-rule="nonzero" points="124.049903 262.466098 453.049903 262.466098 124.049903 92.9643055 124.049903 453.964305 453.049903 453.964305 124.049903 183.10648"></polygon>
                    <polygon id="a_1_" stroke="none" fill="#DC143C" fill-rule="nonzero" points="124.049903 262.466098 453.049903 262.466098 124.049903 92.9643055 124.049903 453.964305 453.049903 453.964305 124.049903 183.10648"></polygon>
                    <g id="Group" opacity="0" stroke="none" stroke-width="1" fill="none" fill-rule="evenodd" transform="translate(141.279737, 176.922809)">
                        <polygon id="Path" fill="#FFFFFF" fill-rule="nonzero" points="23.9784929 134.541304 5.79089482 132.378261 16.7034537 147.086957 0.0136577708 154.225 16.7034537 161.363043 5.79089482 176.071739 23.9784929 173.908696 21.8387755 192.294565 36.388854 181.263043 43.4499215 198.351087 50.510989 181.263043 65.0610675 192.294565 62.9213501 174.125 81.1089482 176.288043 70.1963893 161.579348 86.8861852 154.441304 70.1963893 147.303261 81.1089482 132.594565 62.9213501 134.757609 65.0610675 116.371739 50.510989 127.403261 43.6638932 110.315217 36.6028257 127.186957 22.0527473 116.155435"></polygon>
                    </g>
                </g>
            </g>
        </g>
    </g>
</svg>