<?xml version="1.0" encoding="utf-8"?>
<!-- Generator: Adobe Illustrator 22.0.1, SVG Export Plug-In . SVG Version: 6.00 Build 0)  -->
<svg version="1.1" id="Layer_1" xmlns="http://www.w3.org/2000/svg" xmlns:xlink="http://www.w3.org/1999/xlink" x="0px" y="0px"
	 viewBox="0 0 300 180" style="enable-background:new 0 0 300 180;" xml:space="preserve">
<style type="text/css">
	.st0{fill:#DC143C;stroke:#003893;stroke-width:5.165;}
	.st1{fill:#DC143C;}
	.st2{fill:#FFFFFF;}
</style>
<g>
	<path id="a" class="st0" d="M4,85.7h127.3L4,6v169.8h127.3L4,48.4V85.7z"/>
</g>
<path id="a_1_" class="st1" d="M4,85.7h127.3L4,6v169.8h127.3L4,48.4V85.7z"/>
<g>
	<path class="st2" d="M35.8,81.2c14,0,25.4-11.4,25.4-25.4c-2.2,5.7-6.3,10.4-11.4,13.4l-2.2-1.6l4.2-3.2l-5.1-1.3l2.7-4.6l-5.3,0.8
		l0.8-5.3l-4.6,2.8L39,51.6l-3.2,4.2l-3.2-4.2l-1.3,5.2L26.7,54l0.8,5.3l-5.3-0.8l2.8,4.6l-5.2,1.3l4.2,3.2l-2.1,1.6
		c-5-3-9.1-7.6-11.4-13.4C10.5,69.9,21.8,81.3,35.8,81.2L35.8,81.2z"/>
	<path class="st2" d="M23.6,118.5l-11.4-1.4l6.9,9.1l-10.5,4.5l10.5,4.5l-6.9,9.1l11.4-1.4l-1.4,11.4l9.1-6.9l4.5,10.6l4.5-10.6
		l9.2,6.9L48.1,143l11.4,1.4l-6.9-9.1l10.5-4.5l-10.5-4.5l6.9-9.1l-11.4,1.4l1.4-11.4l-9.1,6.9l-4.5-10.6l-4.5,10.5l-9.2-6.9
		L23.6,118.5L23.6,118.5z"/>
</g>
</svg>
