<?xml version="1.0" encoding="utf-8"?>
<!-- Generator: Adobe Illustrator 22.0.1, SVG Export Plug-In . SVG Version: 6.00 Build 0)  -->
<svg version="1.1" id="Layer_1" xmlns="http://www.w3.org/2000/svg" xmlns:xlink="http://www.w3.org/1999/xlink" x="0px" y="0px"
	 viewBox="0 0 300 180" style="enable-background:new 0 0 300 180;" xml:space="preserve">
<style type="text/css">
	.st0{fill:#FFFFFF;stroke:#FFFFFF;stroke-miterlimit:10;}
	.st1{fill:#DC143C;stroke:#003893;stroke-width:5.165;}
	.st2{fill:#DC143C;}
	.st3{fill:#FFFFFF;}
</style>
<rect x="-53" y="-36.7" class="st0" width="384" height="258"/>
<g>
	<path id="a" class="st1" d="M4,84.6h153L4,6v167.4h153L4,47.8V84.6z"/>
</g>
<path id="a_1_" class="st2" d="M4,84.6h153L4,6v167.4h153L4,47.8V84.6z"/>
<g>
	<path class="st3" d="M32.2,67.2c10.4,0,18.9-8.5,18.9-18.9c-1.6,4.2-4.7,7.7-8.5,10L41,57.1l3.1-2.4l-3.8-1l2-3.4L38.4,51L39,47
		l-3.4,2.1l-1-3.9l-2.4,3.1l-2.4-3.1l-1,3.9L25.4,47L26,51l-3.9-0.6l2.1,3.4l-3.9,1l3.1,2.4l-1.6,1.2c-3.7-2.2-6.8-5.7-8.5-10
		C13.4,58.8,21.8,67.3,32.2,67.2L32.2,67.2z"/>
	<path class="st3" d="M23.1,107.2l-8.5-1l5.1,6.8l-7.8,3.3l7.8,3.3l-5.1,6.8l8.5-1l-1,8.5l6.8-5.1l3.3,7.9l3.3-7.9l6.8,5.1l-1-8.4
		l8.5,1l-5.1-6.8l7.8-3.3l-7.8-3.3l5.1-6.8l-8.5,1l1-8.5l-6.8,5.1L32.3,96l-3.3,7.8l-6.8-5.1L23.1,107.2L23.1,107.2z"/>
</g>
</svg>
