<?xml version="1.0" encoding="utf-8"?>
<!-- Generator: Adobe Illustrator 22.0.1, SVG Export Plug-In . SVG Version: 6.00 Build 0)  -->
<svg version="1.1" id="Layer_1" xmlns="http://www.w3.org/2000/svg" xmlns:xlink="http://www.w3.org/1999/xlink" x="0px" y="0px"
	 viewBox="0 0 300 180" style="enable-background:new 0 0 300 180;" xml:space="preserve">
<style type="text/css">
	.st0{fill:#4D8FCC;stroke:#000000;stroke-width:0.25;}
	.st1{fill:#FFCE46;stroke:#000000;stroke-width:0.25;}
	.st2{fill:#B51F54;stroke:#000000;stroke-width:0.25;}
	.st3{fill:#D4DCD7;stroke:#000000;stroke-width:0.125;}
	.st4{fill:#FFCE46;stroke:#000000;stroke-width:0.125;}
	.st5{fill:none;stroke:#000000;stroke-width:0.125;}
	.st6{fill:#FFFFFF;stroke:#000000;stroke-width:0.125;}
	.st7{fill:#FFFFFF;}
	.st8{fill:#4D8FCC;stroke:#000000;stroke-width:0.125;}
	.st9{fill:#B51F54;}
</style>
<rect x="-31.2" y="-31" class="st0" width="369.7" height="231"/>
<polygon class="st1" points="-82.5,125.3 318,-67.2 382.5,55.7 -18,248.2 "/>
<polygon class="st2" points="-24.5,235.9 376,43.4 324.4,-54.9 -76.1,137.6 "/>
<g>
	<g>
		<polygon class="st3" points="210,47.7 216,47.7 221.8,40.4 212.5,40.5 208.7,45.2 		"/>
		<polygon class="st3" points="206.8,57.7 212.8,57.6 218.6,50.4 209.3,50.4 205.5,55.1 		"/>
	</g>
	<g>
		<path class="st4" d="M85.5,125.1c-0.4,0.2-1.2-0.2-1.6-1.2c-0.5-1-0.3-1.9,0.1-2.1l152.6-74.1c0.3-0.2,1.1,0.2,1.6,1.2
			c0.5,1,0.3,1.8-0.1,2L85.5,125.1z"/>
		<path class="st4" d="M99,101.6c-0.3,0.1-0.9-0.2-1.2-1c-0.4-0.8-0.2-1.5,0-1.6l111-53.9c0.2-0.1,0.8,0.2,1.2,1s0.3,1.4,0,1.6
			L99,101.6z"/>
		<path class="st4" d="M95.7,111.6c-0.3,0.1-0.9-0.2-1.2-1c-0.4-0.8-0.2-1.5,0-1.6l111-53.9c0.2-0.1,0.9,0.2,1.2,1
			c0.4,0.8,0.3,1.4,0,1.6L95.7,111.6z"/>
	</g>
	<g>
		<path class="st5" d="M207.6,45.8c0.2-0.1,0.8,0.2,1.2,1s0.3,1.4,0,1.6"/>
		<path class="st5" d="M206.2,46.4c0.2-0.1,0.9,0.2,1.2,1c0.4,0.8,0.3,1.4,0,1.6"/>
		<path class="st5" d="M204.8,47.1c0.2-0.1,0.9,0.2,1.2,1c0.4,0.8,0.3,1.4,0,1.6"/>
		<path class="st5" d="M204.3,55.7c0.2-0.1,0.9,0.2,1.2,1c0.4,0.8,0.3,1.4,0,1.6"/>
		<path class="st5" d="M203,56.4c0.2-0.1,0.9,0.2,1.2,1c0.4,0.8,0.3,1.4,0,1.6"/>
		<path class="st5" d="M201.6,57c0.2-0.1,0.9,0.2,1.2,1c0.4,0.8,0.3,1.4,0,1.6"/>
	</g>
	<path class="st6" d="M204.8,61.9c-1.4,3.2-2.4,7.8-4.2,14.2c-4.2,14.7-12.5,29.8-27.5,37.1s-32,4.5-46.2-1.3
		c-6.2-2.5-10.4-4.6-13.8-5.5c1.4-3.2,2.4-7.8,4.2-14.2c4.2-14.7,12.5-29.8,27.5-37.1s32-4.5,46.2,1.3C197.2,59,201.4,61,204.8,61.9
		z"/>
	<path d="M177.8,110.5c-1.5,1-3.1,1.9-4.8,2.7c-15,7.3-32,4.5-46.2-1.3c-6.2-2.5-10.4-4.6-13.8-5.5c1.4-3.2,2.4-7.8,4.2-14.2
		c4.2-14.7,12.5-29.8,27.5-37.1c0.5-0.2,1-0.5,1.5-0.7c-1.4,2.9-3,7,0,8.9c1.5,1,2.5,1.1,3.6,3.4c0.8,1.7,1.4,2.1,1.9,1.8
		c0.5-0.2,0.9-0.1,1.3,0.7c0.4,0.8,1,0.8,1.7,0.5c0.6-0.3,1.4-0.6,2.2,1.5c1.3,3.7,2.7,7.4,6.4,7.8c2.4,0.3,3.2,1.4,2.6,3.5
		c-0.6,2.1-3.1,4.4-1.7,7.2c1.1,2.3,1.4,3.9,0.5,5.3s-1.4,2.8-1,3.7s1,1.3,2.6,1.6c1.6,0.3,2.9,1.8,1.2,2.7c-2.9,1.5-4.7,4-1.9,4.6
		C168.1,108.2,174.9,107.6,177.8,110.5z"/>
	<g>
		
			<rect x="134.4" y="100.7" transform="matrix(0.8996 -0.4366 0.4366 0.8996 -32.2949 69.7293)" class="st7" width="2.3" height="8.8"/>
		
			<rect x="138.9" y="98.6" transform="matrix(0.8996 -0.4366 0.4366 0.8996 -30.9079 71.4842)" class="st7" width="2.3" height="8.8"/>
		
			<rect x="143.3" y="96.4" transform="matrix(0.8996 -0.4366 0.4366 0.8996 -29.5141 73.1762)" class="st7" width="2.3" height="8.8"/>
		
			<rect x="147.7" y="94.3" transform="matrix(0.8996 -0.4366 0.4366 0.8996 -28.1552 74.8962)" class="st7" width="2.3" height="8.8"/>
		
			<rect x="152.1" y="92.1" transform="matrix(0.8996 -0.4366 0.4366 0.8996 -26.7613 76.5882)" class="st7" width="2.3" height="8.8"/>
		
			<rect x="156.5" y="90" transform="matrix(0.8996 -0.4366 0.4366 0.8996 -25.4024 78.3082)" class="st7" width="2.3" height="8.8"/>
		
			<rect x="126.9" y="85.1" transform="matrix(0.8996 -0.4366 0.4366 0.8996 -26.2252 64.8818)" class="st7" width="2.3" height="8.8"/>
		
			<rect x="131.3" y="83" transform="matrix(0.8996 -0.4366 0.4366 0.8996 -24.8663 66.6019)" class="st7" width="2.3" height="8.8"/>
		
			<rect x="135.7" y="80.8" transform="matrix(0.8996 -0.4366 0.4366 0.8996 -23.4725 68.2938)" class="st7" width="2.3" height="8.8"/>
		
			<rect x="140.1" y="78.7" transform="matrix(0.8996 -0.4366 0.4366 0.8996 -22.1136 70.0138)" class="st7" width="2.3" height="8.8"/>
		
			<rect x="144.6" y="76.5" transform="matrix(0.8996 -0.4366 0.4366 0.8996 -20.6917 71.7407)" class="st7" width="2.3" height="8.8"/>
		
			<rect x="149" y="74.4" transform="matrix(0.8996 -0.4366 0.4366 0.8996 -19.3327 73.4607)" class="st7" width="2.3" height="8.8"/>
	</g>
	<g>
		<rect x="188.7" y="74.4" transform="matrix(0.8996 -0.4366 0.4366 0.8996 -15.3505 90.7973)" width="2.3" height="8.8"/>
		<rect x="184.3" y="76.5" transform="matrix(0.8996 -0.4366 0.4366 0.8996 -16.7094 89.0772)" width="2.3" height="8.8"/>
		<rect x="179.8" y="78.7" transform="matrix(0.8996 -0.4366 0.4366 0.8996 -18.1313 87.3504)" width="2.3" height="8.8"/>
		<rect x="175.4" y="80.8" transform="matrix(0.8996 -0.4366 0.4366 0.8996 -19.4902 85.6303)" width="2.3" height="8.8"/>
		<rect x="171" y="83" transform="matrix(0.8996 -0.4366 0.4366 0.8996 -20.884 83.9384)" width="2.3" height="8.8"/>
		<rect x="166.6" y="85.1" transform="matrix(0.8996 -0.4366 0.4366 0.8996 -22.2429 82.2183)" width="2.3" height="8.8"/>
		<rect x="181.1" y="58.8" transform="matrix(0.8996 -0.4366 0.4366 0.8996 -9.3089 85.9149)" width="2.3" height="8.8"/>
		<rect x="176.7" y="60.9" transform="matrix(0.8996 -0.4366 0.4366 0.8996 -10.6678 84.1948)" width="2.3" height="8.8"/>
		<rect x="172.3" y="63.1" transform="matrix(0.8996 -0.4366 0.4366 0.8996 -12.0616 82.5029)" width="2.3" height="8.8"/>
		<rect x="167.9" y="65.2" transform="matrix(0.8996 -0.4366 0.4366 0.8996 -13.4205 80.7828)" width="2.3" height="8.8"/>
		<rect x="163.4" y="67.4" transform="matrix(0.8996 -0.4366 0.4366 0.8996 -14.8424 79.056)" width="2.3" height="8.8"/>
		<rect x="159" y="69.5" transform="matrix(0.8996 -0.4366 0.4366 0.8996 -16.2013 77.3359)" width="2.3" height="8.8"/>
	</g>
	<g>
		<path class="st8" d="M132.9,69.9c-2.2,3-3.7,7-2.1,10.8c0.3-0.4,0.6-1.3,0.8-1.9c0.7,2.8,3.7,5.3,3.8,6.5c0.5-0.8,0.4-2.1,0.2-2.9
			c1,1.6,3.5,0.8,4.6,2.4c0.2-0.4,0-1.4-0.3-1.9c0.9,1.3,3.6,1.3,4.7,2.4c-0.1-0.5-0.3-1.5-0.6-2c1.3,1.2,3.7,1,6.1,0.5
			c-2.9-1.5-2.1-4.8-3.6-5.7c1,0.7,2,0.8,2.9,0.5c-0.8,0-1.9-3-3.5-3.8c0.8-0.1,1.6,0.5,3,0c-1.4-1-1.8-3.1-3.5-4
			c0.5,0,1.1-0.5,1.5-0.8c-1.3-0.4-1.6-2.4-5.2-2.9c-1.7-0.2-4,0.3-5.8,1.1c0.2-0.3,0.7-1,1.2-1.2C135.8,67.2,133.9,68.6,132.9,69.9
			z"/>
		<path class="st8" d="M97.1,115.4c2.7-0.5,1.5,1.9-1,1.9c0.1,0.3,0.6,1.5,1.1,2c-1.6-0.7-4.1,1.2-4.2,4.9c-0.1,5.7,3.2,6.8,3.4,8.5
			c0.5-0.4,0.7-1.2,0.5-1.8c0.2,1.4,2.7,2.6,3.4,3.7c0-0.7,0-2-0.4-2.7c1,1.7,3.1,1.3,4.5,2.7c0-0.6-0.6-2-1.1-2.5
			c1.4,1.7,4.4,3,7.1,2.4c-0.7-0.1-1.2-1-1.6-1.4c1.2,1,3.3-0.7,3.6-0.1c1.2-1.9-0.6-3.6-0.1-4.6c0,0.4,0.8,1.2,1.2,1.4
			c-0.6-1.8,0.7-5.2-0.2-6.6c0.4,0.4,1.3,0.6,2,0.6c-2.1-2.6-0.9-5.2-3.1-7.1c0.7,0,1.5-0.4,2.1-0.8c-1.5-1.8-3.1-1.1-5-2.7
			c-1.8-1.6-5-0.6-6.3,0.5C101.6,115.1,99.9,114,97.1,115.4z"/>
		<path class="st8" d="M223.5,54c0.5-0.2,1.2,0.6,0.1,1.7c-1.3,1.4-2.9,4.4-2.3,6.1c-1.6,4.1,1.1,5.2,1.2,7.4c0.4-0.5,1-1.5,0.9-2.5
			c1,4.5,5,4.5,5.8,6.5c-0.1-1,0.7-2.3,0.6-3.1c2.6,3.2,4.9,1.8,6.5,3.7c0-0.6,0.5-2,0.2-2.8c0.5,0.2,1.3,1.4,1.4,1.7
			c0.1-0.7,0.4-2.1,0.1-2.8c0.4,0.3,0.7,0.7,0.9,1.3c1-1.4-0.3-4.1,0.1-5.4c0.4,0.9,1,1.5,1.6,1.9c-0.5-1.4,0.4-4.3-0.9-5.9
			c0.8,0.3,1.4,0.9,1.9,1.8c0.1-1.7-1.7-3.7-1.8-5.1c0.4,0.4,1.1,1.1,1.9,1.3c-0.8-0.3-1.5-3.2-3.3-4.6c0.5,0,1.7,0.2,2.1,0.6
			c-1.7-2.5-4.2-5.6-7.4-4.8c-3.1,0.9-4.9,2.8-6.6,1.6C224.8,51.6,223.1,51.3,223.5,54z"/>
	</g>
	<g>
		<path class="st9" d="M133.2,74.1c-1.2,1.8,1.3,3.5,0.9,4.8C135.1,77.8,135,74.4,133.2,74.1z"/>
		<path class="st9" d="M136.8,77.5c0,1.9,2.6,2.6,2.8,4.1C139.9,79.7,138.6,76.9,136.8,77.5z"/>
		<path class="st9" d="M135.5,71.1c0.5-1.2,3.8-0.8,5.4-2.2C140.2,70.1,137.9,72,135.5,71.1z"/>
		<path class="st9" d="M139.7,73.1c1.9-0.1,2.7,1.4,4.3,1.4C142.8,74.9,140.2,74.7,139.7,73.1z"/>
		<path class="st9" d="M141.7,77.7c0.4,1.5,2.5,1.4,3.1,3.3C144.9,79.8,143.1,76.5,141.7,77.7z"/>
		<path class="st9" d="M97.2,122.3c-2.3,1.5,0.1,4-0.3,5.7C98.3,126.7,98.9,123,97.2,122.3z"/>
		<path class="st9" d="M100.4,121.9c-0.2,1.6,1.8,3.6,1.8,4.8C102.6,125.5,102.4,121.7,100.4,121.9z"/>
		<path class="st9" d="M103.6,128.5c0.7,1.9,3.7,2.2,4.3,3.7C107.9,130.2,105.3,128,103.6,128.5z"/>
		<path class="st9" d="M110.5,129.3c-1.9-2.4-0.1-4.1-1.3-5.4C111.4,123.7,110.4,126.9,110.5,129.3z"/>
		<path class="st9" d="M102.2,117.2c2.3-1.3,5.5,0.2,7.5-0.6C108.1,117.9,102.5,118.9,102.2,117.2z"/>
		<path class="st9" d="M105.3,119.7c1.3,1.2,3.5-0.2,5.2,1.9C109.8,121.4,104.7,122,105.3,119.7z"/>
		<path class="st9" d="M224.4,58.3c-1.5,0.6-0.5,4.8-1.4,5.9C224.5,63.3,225.9,59.2,224.4,58.3z"/>
		<path class="st9" d="M230,63.3c-1,1.3,1.2,3.7,0.7,5.3C231.2,67.3,231.4,63.6,230,63.3z"/>
		<path class="st9" d="M233.5,64.1c-0.2,3,2.7,3.1,3.1,4.6C236.2,66.9,235.4,65,233.5,64.1z"/>
		<path class="st9" d="M229.2,55c1.6-1.2,3.5,0.8,5.4,0C232.7,56.2,229.7,56.7,229.2,55z"/>
		<path class="st9" d="M232.2,58.2c2.5-0.2,3.1,3.1,5.2,3.4C235.4,61.9,231.4,60.4,232.2,58.2z"/>
		<path class="st9" d="M227.9,58.9c-1.6,1,0.4,5.4-1.1,6.7C228.4,64.6,229.4,59.7,227.9,58.9z"/>
	</g>
</g>
</svg>
