<svg id="Layer_1" xmlns="http://www.w3.org/2000/svg" viewBox="0 0 300 180"><style>.st0,.st1,.st2,.st3,.st4{fill:#4d8fcc;stroke:#000;stroke-width:.25}.st1,.st2,.st3,.st4{fill:#ffce46}.st2,.st3,.st4{fill:#b51f54}.st3,.st4{fill:#d4dcd7;stroke-width:.125}.st4{fill:#ffce46}.st5{fill:none}.st5,.st6{stroke:#000;stroke-width:.125}.st6,.st7{fill:#fff}.st8{fill:#4d8fcc;stroke:#000;stroke-width:.125}.st9{fill:#b51f54}</style><path class="st0" d="M-31.2-31h369.7v231H-31.2z"/><path class="st1" d="M-82.5 125.3L318-67.2l64.5 122.9L-18 248.2z"/><path class="st2" d="M-24.5 235.9L376 43.4l-51.6-98.3-400.5 192.5z"/><path class="st3" d="M210 47.7h6l5.8-7.3-9.3.1-3.8 4.7zM206.8 57.7l6-.1 5.8-7.2h-9.3l-3.8 4.7z"/><path class="st4" d="M85.5 125.1c-.4.2-1.2-.2-1.6-1.2-.5-1-.3-1.9.1-2.1l152.6-74.1c.3-.2 1.1.2 1.6 1.2s.3 1.8-.1 2L85.5 125.1zM99 101.6c-.3.1-.9-.2-1.2-1-.4-.8-.2-1.5 0-1.6l111-53.9c.2-.1.8.2 1.2 1s.3 1.4 0 1.6L99 101.6zM95.7 111.6c-.3.1-.9-.2-1.2-1-.4-.8-.2-1.5 0-1.6l111-53.9c.2-.1.9.2 1.2 1 .4.8.3 1.4 0 1.6l-111 53.9z"/><path class="st5" d="M207.6 45.8c.2-.1.8.2 1.2 1s.3 1.4 0 1.6M206.2 46.4c.2-.1.9.2 1.2 1 .4.8.3 1.4 0 1.6M204.8 47.1c.2-.1.9.2 1.2 1 .4.8.3 1.4 0 1.6M204.3 55.7c.2-.1.9.2 1.2 1 .4.8.3 1.4 0 1.6M203 56.4c.2-.1.9.2 1.2 1 .4.8.3 1.4 0 1.6M201.6 57c.2-.1.9.2 1.2 1 .4.8.3 1.4 0 1.6"/><path class="st6" d="M204.8 61.9c-1.4 3.2-2.4 7.8-4.2 14.2-4.2 14.7-12.5 29.8-27.5 37.1s-32 4.5-46.2-1.3c-6.2-2.5-10.4-4.6-13.8-5.5 1.4-3.2 2.4-7.8 4.2-14.2 4.2-14.7 12.5-29.8 27.5-37.1s32-4.5 46.2 1.3c6.2 2.6 10.4 4.6 13.8 5.5z"/><path d="M177.8 110.5c-1.5 1-3.1 1.9-4.8 2.7-15 7.3-32 4.5-46.2-1.3-6.2-2.5-10.4-4.6-13.8-5.5 1.4-3.2 2.4-7.8 4.2-14.2 4.2-14.7 12.5-29.8 27.5-37.1.5-.2 1-.5 1.5-.7-1.4 2.9-3 7 0 8.9 1.5 1 2.5 1.1 3.6 3.4.8 1.7 1.4 2.1 1.9 1.8.5-.2.9-.1 1.3.7.4.8 1 .8 1.7.5.6-.3 1.4-.6 2.2 1.5 1.3 3.7 2.7 7.4 6.4 7.8 2.4.3 3.2 1.4 2.6 3.5-.6 2.1-3.1 4.4-1.7 7.2 1.1 2.3 1.4 3.9.5 5.3s-1.4 2.8-1 3.7 1 1.3 2.6 1.6c1.6.3 2.9 1.8 1.2 2.7-2.9 1.5-4.7 4-1.9 4.6 2.5.6 9.3 0 12.2 2.9z"/><g><path transform="rotate(-25.889 135.548 105.124)" class="st7" d="M134.4 100.7h2.3v8.8h-2.3z"/><path transform="rotate(-25.889 140.059 102.984)" class="st7" d="M138.9 98.6h2.3v8.8h-2.3z"/><path transform="rotate(-25.889 144.437 100.798)" class="st7" d="M143.3 96.4h2.3v8.8h-2.3z"/><path transform="rotate(-25.889 148.858 98.702)" class="st7" d="M147.7 94.3h2.3v8.8h-2.3z"/><path transform="rotate(-25.889 153.236 96.515)" class="st7" d="M152.1 92.1h2.3v8.8h-2.3z"/><path transform="rotate(-25.889 157.658 94.419)" class="st7" d="M156.5 90h2.3v8.8h-2.3z"/><path transform="rotate(-25.889 128.037 89.495)" class="st7" d="M126.9 85.1h2.3v8.8h-2.3z"/><path transform="rotate(-25.889 132.459 87.4)" class="st7" d="M131.3 83h2.3v8.8h-2.3z"/><path transform="rotate(-25.889 136.836 85.213)" class="st7" d="M135.7 80.8h2.3v8.8h-2.3z"/><path transform="rotate(-25.889 141.258 83.117)" class="st7" d="M140.1 78.7h2.3v8.8h-2.3z"/><path transform="rotate(-25.889 145.725 80.887)" class="st7" d="M144.6 76.5h2.3v8.8h-2.3z"/><path transform="rotate(-25.889 150.147 78.79)" class="st7" d="M149 74.4h2.3v8.8H149z"/></g><g><path transform="rotate(-25.889 189.854 78.796)" d="M188.7 74.4h2.3v8.8h-2.3z"/><path transform="rotate(-25.889 185.432 80.892)" d="M184.3 76.5h2.3v8.8h-2.3z"/><path transform="rotate(-25.889 180.965 83.122)" d="M179.8 78.7h2.3v8.8h-2.3z"/><path transform="rotate(-25.889 176.543 85.218)" d="M175.4 80.8h2.3v8.8h-2.3z"/><path transform="rotate(-25.889 172.165 87.404)" d="M171 83h2.3v8.8H171z"/><path transform="rotate(-25.889 167.744 89.5)" d="M166.6 85.1h2.3v8.8h-2.3z"/><path transform="rotate(-25.889 182.253 63.211)" d="M181.1 58.8h2.3v8.8h-2.3z"/><path transform="rotate(-25.889 177.831 65.307)" d="M176.7 60.9h2.3v8.8h-2.3z"/><path transform="rotate(-25.889 173.454 67.494)" d="M172.3 63.1h2.3v8.8h-2.3z"/><path transform="rotate(-25.889 169.032 69.59)" d="M167.9 65.2h2.3V74h-2.3z"/><path transform="rotate(-25.889 164.565 71.82)" d="M163.4 67.4h2.3v8.8h-2.3z"/><path transform="rotate(-25.889 160.143 73.916)" d="M159 69.5h2.3v8.8H159z"/></g><g><path class="st8" d="M132.9 69.9c-2.2 3-3.7 7-2.1 10.8.3-.4.6-1.3.8-1.9.7 2.8 3.7 5.3 3.8 6.5.5-.8.4-2.1.2-2.9 1 1.6 3.5.8 4.6 2.4.2-.4 0-1.4-.3-1.9.9 1.3 3.6 1.3 4.7 2.4-.1-.5-.3-1.5-.6-2 1.3 1.2 3.7 1 6.1.5-2.9-1.5-2.1-4.8-3.6-5.7 1 .7 2 .8 2.9.5-.8 0-1.9-3-3.5-3.8.8-.1 1.6.5 3 0-1.4-1-1.8-3.1-3.5-4 .5 0 1.1-.5 1.5-.8-1.3-.4-1.6-2.4-5.2-2.9-1.7-.2-4 .3-5.8 1.1.2-.3.7-1 1.2-1.2-1.3.2-3.2 1.6-4.2 2.9zM97.1 115.4c2.7-.5 1.5 1.9-1 1.9.1.3.6 1.5 1.1 2-1.6-.7-4.1 1.2-4.2 4.9-.1 5.7 3.2 6.8 3.4 8.5.5-.4.7-1.2.5-1.8.2 1.4 2.7 2.6 3.4 3.7 0-.7 0-2-.4-2.7 1 1.7 3.1 1.3 4.5 2.7 0-.6-.6-2-1.1-2.5 1.4 1.7 4.4 3 7.1 2.4-.7-.1-1.2-1-1.6-1.4 1.2 1 3.3-.7 3.6-.1 1.2-1.9-.6-3.6-.1-4.6 0 .4.8 1.2 1.2 1.4-.6-1.8.7-5.2-.2-6.6.4.4 1.3.6 2 .6-2.1-2.6-.9-5.2-3.1-7.1.7 0 1.5-.4 2.1-.8-1.5-1.8-3.1-1.1-5-2.7-1.8-1.6-5-.6-6.3.5-1.4 1.4-3.1.3-5.9 1.7zM223.5 54c.5-.2 1.2.6.1 1.7-1.3 1.4-2.9 4.4-2.3 6.1-1.6 4.1 1.1 5.2 1.2 7.4.4-.5 1-1.5.9-2.5 1 4.5 5 4.5 5.8 6.5-.1-1 .7-2.3.6-3.1 2.6 3.2 4.9 1.8 6.5 3.7 0-.6.5-2 .2-2.8.5.2 1.3 1.4 1.4 1.7.1-.7.4-2.1.1-2.8.4.3.7.7.9 1.3 1-1.4-.3-4.1.1-5.4.4.9 1 1.5 1.6 1.9-.5-1.4.4-4.3-.9-5.9.8.3 1.4.9 1.9 1.8.1-1.7-1.7-3.7-1.8-5.1.4.4 1.1 1.1 1.9 1.3-.8-.3-1.5-3.2-3.3-4.6.5 0 1.7.2 2.1.6-1.7-2.5-4.2-5.6-7.4-4.8-3.1.9-4.9 2.8-6.6 1.6-1.7-1-3.4-1.3-3 1.4z"/></g><g><path class="st9" d="M133.2 74.1c-1.2 1.8 1.3 3.5.9 4.8 1-1.1.9-4.5-.9-4.8zM136.8 77.5c0 1.9 2.6 2.6 2.8 4.1.3-1.9-1-4.7-2.8-4.1zM135.5 71.1c.5-1.2 3.8-.8 5.4-2.2-.7 1.2-3 3.1-5.4 2.2zM139.7 73.1c1.9-.1 2.7 1.4 4.3 1.4-1.2.4-3.8.2-4.3-1.4zM141.7 77.7c.4 1.5 2.5 1.4 3.1 3.3.1-1.2-1.7-4.5-3.1-3.3zM97.2 122.3c-2.3 1.5.1 4-.3 5.7 1.4-1.3 2-5 .3-5.7zM100.4 121.9c-.2 1.6 1.8 3.6 1.8 4.8.4-1.2.2-5-1.8-4.8zM103.6 128.5c.7 1.9 3.7 2.2 4.3 3.7 0-2-2.6-4.2-4.3-3.7zM110.5 129.3c-1.9-2.4-.1-4.1-1.3-5.4 2.2-.2 1.2 3 1.3 5.4zM102.2 117.2c2.3-1.3 5.5.2 7.5-.6-1.6 1.3-7.2 2.3-7.5.6zM105.3 119.7c1.3 1.2 3.5-.2 5.2 1.9-.7-.2-5.8.4-5.2-1.9zM224.4 58.3c-1.5.6-.5 4.8-1.4 5.9 1.5-.9 2.9-5 1.4-5.9zM230 63.3c-1 1.3 1.2 3.7.7 5.3.5-1.3.7-5-.7-5.3zM233.5 64.1c-.2 3 2.7 3.1 3.1 4.6-.4-1.8-1.2-3.7-3.1-4.6zM229.2 55c1.6-1.2 3.5.8 5.4 0-1.9 1.2-4.9 1.7-5.4 0zM232.2 58.2c2.5-.2 3.1 3.1 5.2 3.4-2 .3-6-1.2-5.2-3.4zM227.9 58.9c-1.6 1 .4 5.4-1.1 6.7 1.6-1 2.6-5.9 1.1-6.7z"/></g></svg>