<svg width="346" height="217" viewBox="0 0 346 217" xmlns="http://www.w3.org/2000/svg" xmlns:xlink="http://www.w3.org/1999/xlink"><title>South Africa South Africa south_africa_flag</title><defs><linearGradient x1="50%" y1="0%" x2="50%" y2="100%" id="c"><stop stop-opacity="0" offset="0%"/><stop stop-opacity=".1" offset="100%"/></linearGradient><path id="a" d="M0 0h340v210.203H0z"/><filter x="-1.6%" y="-1.7%" width="103.2%" height="105.2%" filterUnits="objectBoundingBox" id="b"><feOffset dy="2" in="SourceAlpha" result="shadowOffsetOuter1"/><feGaussianBlur stdDeviation="1.5" in="shadowOffsetOuter1" result="shadowBlurOuter1"/><feColorMatrix values="0 0 0 0 0 0 0 0 0 0 0 0 0 0 0 0 0 0 0.15 0" in="shadowBlurOuter1"/></filter><path id="e" d="M0 0h340v210.203H0z"/></defs><g transform="translate(3 1)" fill="none" fill-rule="evenodd"><mask id="d" fill="#fff"><use xlink:href="#a"/></mask><use fill="#000" filter="url(#b)" xlink:href="#a"/><use fill="#FFF" xlink:href="#a"/><use fill="url(#c)" xlink:href="#a"/><g mask="url(#d)"><mask id="f" fill="#fff"><use xlink:href="#e"/></mask><use fill="#FFF" xlink:href="#e"/><use fill="url(#c)" xlink:href="#e"/><g style="mix-blend-mode:multiply" mask="url(#f)"><path fill="#0F86CA" d="M96.533 369.58L-19.633 168.374 405.488-77.07l116.167 201.206z"/><path fill="#BA2831" d="M-55.892 233.571L-180.56 17.643l425.122-245.444L369.229-11.873z"/><path stroke="#FFF" stroke-width="11" fill="#006D64" d="M22.533 269.729l168.034-158.356L-27.39 46.441-6.513-2.453l242.64 62.518 181.694-159.84 21.867 35.448L260.51 101l-49.778 187z"/><path stroke="#E7C72F" stroke-width="11" fill="#272727" d="M-95.386 281.229l64.705-241.482L210.8 104.452l-64.705 241.482z"/></g></g></g></svg>