<?xml version="1.0" encoding="utf-8"?>
<!-- Generator: Adobe Illustrator 22.0.1, SVG Export Plug-In . SVG Version: 6.00 Build 0)  -->
<svg version="1.1" id="Layer_1" xmlns="http://www.w3.org/2000/svg" xmlns:xlink="http://www.w3.org/1999/xlink" x="0px" y="0px"
	 viewBox="0 0 300 180" style="enable-background:new 0 0 300 180;" xml:space="preserve">
<style type="text/css">
	.st0{fill:#72BE44;}
	.st1{fill:#FFF100;}
	.st2{fill:#EC1C24;}
	.st3{fill:#FFFFFF;}
	.st4{fill:#FCB813;stroke:#000000;stroke-width:1.5321;stroke-linecap:round;stroke-linejoin:round;}
	.st5{fill:none;stroke:#000000;stroke-width:1.5321;}
	.st6{fill:none;stroke:#000000;stroke-width:0.8737;}
</style>
<g>
	<g>
		<rect x="-6.4" y="-11.6" class="st0" width="334" height="29.1"/>
		<path class="st0" d="M160.5,3.1"/>
	</g>
	<g>
		<rect x="-6.4" y="17.5" class="st1" width="334" height="29.1"/>
		<path class="st1" d="M160.5,32.2"/>
	</g>
	<g>
		<rect x="-6.4" y="46.7" class="st2" width="334" height="29.4"/>
		<path class="st2" d="M160.5,61.3"/>
	</g>
	<g>
		<rect x="-6.4" y="104.9" class="st2" width="334" height="29.4"/>
		<path class="st2" d="M160.5,119.6"/>
	</g>
	<g>
		<rect x="-6.4" y="134.1" class="st1" width="334" height="29.1"/>
		<path class="st1" d="M160.5,148.7"/>
	</g>
	<g>
		<rect x="-6.4" y="163.2" class="st0" width="334" height="29.4"/>
		<path class="st0" d="M160.5,177.9"/>
	</g>
	<polygon points="327.5,76 104.9,76 -6.4,-11.6 -6.4,-4 115.5,91.4 -6.3,185.4 -6.3,192.6 106.7,104.9 327.5,105.1 	"/>
	<polygon class="st3" points="-6.3,185.4 115.5,91.4 -6.4,-4 	"/>
	<g>
		<g>
			<polygon class="st2" points="50,78.6 79.5,78.6 55.7,96.4 64.9,124.7 41.3,107.3 17.6,124.7 26.9,96.4 2.9,78.6 32.3,78.6 
				41.3,51 			"/>
		</g>
		<path class="st4" d="M24.9,64.6c0.6-2.4,1.2-4.4,2.6-4.8c1.4-0.4,8.9-3,11.3-0.8c2.4,2.2,4.2,10.9,5.2,15.1
			c2.2,1.2,14.3,10.5,16.1,13.3c1.8,2.8-0.6,3-2,2.8l-6.6,21.9H31.6l-2-11.9c-0.6-2.2-1-4.4,5-8.3c-1-2.8-3.2-6-1.4-12.3
			c0.2-3.6-0.8-10.1-1.2-12.1c-0.4-2-1.2-3.4-3-3.2C28.4,64.3,26.8,64.1,24.9,64.6z"/>
		<path d="M32.4,61.9c1.4-1.6,3-1.4,4,0.2C36.4,62,34.8,63,32.4,61.9"/>
		<line class="st5" x1="43.9" y1="74.2" x2="33.2" y2="79.5"/>
		<path class="st5" d="M58,90.3c-4.2-0.4-15.1-3.2-18.3-7.7"/>
		<path class="st5" d="M39.6,86.7c0.4,1.4-0.8,3.4-5,5.2"/>
		<path class="st5" d="M57,93.6l-7.2-1.8c-3.4,0.6-13.5,3.2-20.3,7.6"/>
		<line class="st5" x1="49.9" y1="91.8" x2="49.9" y2="88.5"/>
		<line class="st5" x1="30" y1="103" x2="54.3" y2="103"/>
		<line class="st5" x1="30.8" y1="107.1" x2="53.1" y2="107.1"/>
		<g>
			<path class="st5" d="M39.4,101c1.2,0,2.2-1,2.2-2.2c0-1.2-1-2.2-2.2-2.2c-1.2,0-2.2,1-2.2,2.2C37.1,100,38.1,101,39.4,101z"/>
			<path class="st5" d="M39.4,98.8"/>
		</g>
		<g>
			<path class="st5" d="M48.9,101c1.2,0,2.2-1,2.2-2.2c0-1.2-1-2.2-2.2-2.2c-1.2,0-2.2,1-2.2,2.2C46.6,100,47.7,101,48.9,101z"/>
			<path class="st5" d="M48.9,98.8"/>
		</g>
	</g>
	<rect x="-6.3" y="-11.6" class="st6" width="334" height="204.1"/>
</g>
</svg>
