<svg width="340" height="210" viewBox="0 0 340 210" xmlns="http://www.w3.org/2000/svg" xmlns:xlink="http://www.w3.org/1999/xlink"><title>Zimbabwe_flag Zimbabwe</title><defs><path id="a" d="M0 0h340v210H0z"/></defs><g fill="none" fill-rule="evenodd"><mask id="b" fill="#fff"><use xlink:href="#a"/></mask><g mask="url(#b)"><path fill="#307F28" d="M-50.831-70.56l85.277-234.297L495.73-136.963 410.453 97.333z"/><path fill="#272727" d="M-82.813 14.784l13.68-37.588L392.152 145.09l-13.68 37.587z"/><path fill="#C52B34" d="M-39.91-11.582l13.68-37.587 461.284 167.893-13.68 37.588z"/><path fill="#FDDA34" d="M-59.42-60.81l13.681-37.587L415.545 69.497l-13.68 37.587zm-53.752 157.313l16.417-45.105L364.529 219.29l-16.417 45.105z"/><path fill="#C52B34" d="M-77.053 59.198l13.681-37.587 461.284 167.893-13.68 37.588z"/><path fill="#307F28" d="M-168.719 150.436l27.875-76.584L320.44 241.745l-27.875 76.585z"/><path fill="#FFF" d="M-338.641-46.624L65.782-93.378V46.35L-73.73 120.124z"/></g></g></svg>