<svg id="Layer_1" xmlns="http://www.w3.org/2000/svg" viewBox="0 0 300 180"><style>.st0{fill:#72be44}.st1{fill:#fff100}.st2{fill:#ec1c24}.st3{fill:#fff}.st4,.st5,.st6{stroke:#000;stroke-width:1.5321}.st4{stroke-linecap:round;stroke-linejoin:round;fill:#fcb813}.st5,.st6{fill:none}.st6{stroke-width:.8737}</style><path class="st0" d="M-6.4-11.6h334v29.1h-334z"/><path class="st1" d="M-6.4 17.5h334v29.1h-334z"/><path class="st2" d="M-6.4 46.7h334v29.4h-334zM-6.4 104.9h334v29.4h-334z"/><path class="st1" d="M-6.4 134.1h334v29.1h-334z"/><path class="st0" d="M-6.4 163.2h334v29.4h-334z"/><path d="M327.5 76H104.9L-6.4-11.6V-4l121.9 95.4-121.8 94v7.2l113-87.7 220.8.2z"/><path class="st3" d="M-6.3 185.4l121.8-94L-6.4-4z"/><path class="st2" d="M50 78.6h29.5L55.7 96.4l9.2 28.3-23.6-17.4-23.7 17.4 9.3-28.3-24-17.8h29.4l9-27.6z"/><path class="st4" d="M24.9 64.6c.6-2.4 1.2-4.4 2.6-4.8 1.4-.4 8.9-3 11.3-.8 2.4 2.2 4.2 10.9 5.2 15.1 2.2 1.2 14.3 10.5 16.1 13.3 1.8 2.8-.6 3-2 2.8l-6.6 21.9H31.6l-2-11.9c-.6-2.2-1-4.4 5-8.3-1-2.8-3.2-6-1.4-12.3.2-3.6-.8-10.1-1.2-12.1-.4-2-1.2-3.4-3-3.2-.6 0-2.2-.2-4.1.3z"/><path d="M32.4 61.9c1.4-1.6 3-1.4 4 .2 0-.1-1.6.9-4-.2"/><path class="st5" d="M43.9 74.2l-10.7 5.3M58 90.3c-4.2-.4-15.1-3.2-18.3-7.7M39.6 86.7c.4 1.4-.8 3.4-5 5.2M57 93.6l-7.2-1.8c-3.4.6-13.5 3.2-20.3 7.6M49.9 91.8v-3.3M30 103h24.3M30.8 107.1h22.3"/><path class="st5" d="M39.4 101c1.2 0 2.2-1 2.2-2.2 0-1.2-1-2.2-2.2-2.2-1.2 0-2.2 1-2.2 2.2-.1 1.2.9 2.2 2.2 2.2zM48.9 101c1.2 0 2.2-1 2.2-2.2 0-1.2-1-2.2-2.2-2.2-1.2 0-2.2 1-2.2 2.2-.1 1.2 1 2.2 2.2 2.2z"/><path class="st6" d="M-6.3-11.6h334v204.1h-334z"/></svg>