<?xml version="1.0" encoding="UTF-8"?>
<svg width="18px" height="16px" viewBox="0 0 18 16" version="1.1" xmlns="http://www.w3.org/2000/svg" xmlns:xlink="http://www.w3.org/1999/xlink">
    <!-- Generator: Sketch 58 (84663) - https://sketch.com -->
    <title>b-chart-glyph-24</title>
    <desc>Created with Sketch.</desc>
    <g id="MAP" stroke="none" stroke-width="1" fill="none" fill-rule="evenodd">
        <g id="i2i_map02_ANALYSIS" transform="translate(-209.000000, -485.000000)" fill="#2F939C" fill-rule="nonzero">
            <g id="Group-18" transform="translate(209.000000, 478.000000)">
                <g id="b-chart-glyph-24" transform="translate(0.000000, 7.000000)">
                    <rect id="Rectangle" x="0" y="13.5" width="18" height="2.5"></rect>
                    <path d="M3,12 L4.5,12 C4.914,12 5.25,11.664 5.25,11.25 L5.25,4.5 C5.25,4.086 4.914,3.75 4.5,3.75 L3,3.75 C2.586,3.75 2.25,4.086 2.25,4.5 L2.25,11.25 C2.25,11.664 2.586,12 3,12 Z" id="Path"></path>
                    <path d="M8.25,12 L9.75,12 C10.164,12 10.5,11.664 10.5,11.25 L10.5,0.75 C10.5,0.336 10.164,0 9.75,0 L8.25,0 C7.836,0 7.5,0.336 7.5,0.75 L7.5,11.25 C7.5,11.664 7.836,12 8.25,12 Z" id="Path"></path>
                    <path d="M12.75,7.5 L12.75,11.25 C12.75,11.664 13.086,12 13.5,12 L15,12 C15.414,12 15.75,11.664 15.75,11.25 L15.75,7.5 C15.75,7.086 15.414,6.75 15,6.75 L13.5,6.75 C13.086,6.75 12.75,7.086 12.75,7.5 Z" id="Path"></path>
                </g>
            </g>
        </g>
    </g>
</svg>